<?xml version="1.0" encoding="UTF-8"?>
<!--Generator: Apple Native CoreSVG 175.5-->
<!DOCTYPE svg
PUBLIC "-//W3C//DTD SVG 1.1//EN"
       "http://www.w3.org/Graphics/SVG/1.1/DTD/svg11.dtd">
<svg version="1.1" xmlns="http://www.w3.org/2000/svg" xmlns:xlink="http://www.w3.org/1999/xlink" width="3300" height="2200">
 <!--glyph: "uni1006F8.medium", point size: 100.0, font version: "18.0d12e2", template writer version: "101"-->
 <g id="Notes">
  <rect height="2200" id="artboard" style="fill:white;opacity:1" width="3300" x="0" y="0"/>
  <line style="fill:none;stroke:black;opacity:1;stroke-width:0.5;" x1="263" x2="3036" y1="292" y2="292"/>
  <text style="stroke:none;fill:black;font-family:sans-serif;font-size:13;font-weight:bold;" transform="matrix(1 0 0 1 263 322)">Weight/Scale Variations</text>
  <text style="stroke:none;fill:black;font-family:sans-serif;font-size:13;text-anchor:middle;" transform="matrix(1 0 0 1 559.711 322)">Ultralight</text>
  <text style="stroke:none;fill:black;font-family:sans-serif;font-size:13;text-anchor:middle;" transform="matrix(1 0 0 1 856.422 322)">Thin</text>
  <text style="stroke:none;fill:black;font-family:sans-serif;font-size:13;text-anchor:middle;" transform="matrix(1 0 0 1 1153.13 322)">Light</text>
  <text style="stroke:none;fill:black;font-family:sans-serif;font-size:13;text-anchor:middle;" transform="matrix(1 0 0 1 1449.84 322)">Regular</text>
  <text style="stroke:none;fill:black;font-family:sans-serif;font-size:13;text-anchor:middle;" transform="matrix(1 0 0 1 1746.56 322)">Medium</text>
  <text style="stroke:none;fill:black;font-family:sans-serif;font-size:13;text-anchor:middle;" transform="matrix(1 0 0 1 2043.27 322)">Semibold</text>
  <text style="stroke:none;fill:black;font-family:sans-serif;font-size:13;text-anchor:middle;" transform="matrix(1 0 0 1 2339.98 322)">Bold</text>
  <text style="stroke:none;fill:black;font-family:sans-serif;font-size:13;text-anchor:middle;" transform="matrix(1 0 0 1 2636.69 322)">Heavy</text>
  <text style="stroke:none;fill:black;font-family:sans-serif;font-size:13;text-anchor:middle;" transform="matrix(1 0 0 1 2933.4 322)">Black</text>
  <line style="fill:none;stroke:black;opacity:1;stroke-width:0.5;" x1="263" x2="3036" y1="1903" y2="1903"/>
  <g transform="matrix(1 0 0 1 263 1933)">
   <path d="M9.24805 0.830078C13.5547 0.830078 17.1387-2.74414 17.1387-7.05078C17.1387-11.3574 13.5449-14.9316 9.23828-14.9316C4.94141-14.9316 1.36719-11.3574 1.36719-7.05078C1.36719-2.74414 4.95117 0.830078 9.24805 0.830078ZM9.24805-0.654297C5.70312-0.654297 2.87109-3.49609 2.87109-7.05078C2.87109-10.6055 5.69336-13.4473 9.23828-13.4473C12.793-13.4473 15.6445-10.6055 15.6445-7.05078C15.6445-3.49609 12.8027-0.654297 9.24805-0.654297ZM5.6543-7.05078C5.6543-6.62109 5.95703-6.32812 6.40625-6.32812L8.50586-6.32812L8.50586-4.20898C8.50586-3.76953 8.79883-3.4668 9.22852-3.4668C9.67773-3.4668 9.9707-3.76953 9.9707-4.20898L9.9707-6.32812L12.0898-6.32812C12.5293-6.32812 12.832-6.62109 12.832-7.05078C12.832-7.49023 12.5293-7.79297 12.0898-7.79297L9.9707-7.79297L9.9707-9.90234C9.9707-10.3516 9.67773-10.6543 9.22852-10.6543C8.79883-10.6543 8.50586-10.3516 8.50586-9.90234L8.50586-7.79297L6.40625-7.79297C5.95703-7.79297 5.6543-7.49023 5.6543-7.05078Z"/>
  </g>
  <g transform="matrix(1 0 0 1 281.867 1933)">
   <path d="M11.709 2.91016C17.1582 2.91016 21.6699-1.61133 21.6699-7.05078C21.6699-12.5 17.1484-17.0117 11.6992-17.0117C6.25977-17.0117 1.74805-12.5 1.74805-7.05078C1.74805-1.61133 6.26953 2.91016 11.709 2.91016ZM11.709 1.25C7.09961 1.25 3.41797-2.44141 3.41797-7.05078C3.41797-11.6602 7.08984-15.3516 11.6992-15.3516C16.3086-15.3516 20.0098-11.6602 20.0098-7.05078C20.0098-2.44141 16.3184 1.25 11.709 1.25ZM7.17773-7.05078C7.17773-6.57227 7.50977-6.25 8.00781-6.25L10.8789-6.25L10.8789-3.36914C10.8789-2.88086 11.2109-2.53906 11.6895-2.53906C12.1777-2.53906 12.5195-2.87109 12.5195-3.36914L12.5195-6.25L15.4004-6.25C15.8887-6.25 16.2305-6.57227 16.2305-7.05078C16.2305-7.53906 15.8887-7.88086 15.4004-7.88086L12.5195-7.88086L12.5195-10.752C12.5195-11.25 12.1777-11.5918 11.6895-11.5918C11.2109-11.5918 10.8789-11.25 10.8789-10.752L10.8789-7.88086L8.00781-7.88086C7.50977-7.88086 7.17773-7.53906 7.17773-7.05078Z"/>
  </g>
  <g transform="matrix(1 0 0 1 305.646 1933)">
   <path d="M14.9707 5.66406C21.9336 5.66406 27.6953-0.0976562 27.6953-7.05078C27.6953-14.0137 21.9238-19.7754 14.9609-19.7754C8.00781-19.7754 2.25586-14.0137 2.25586-7.05078C2.25586-0.0976562 8.01758 5.66406 14.9707 5.66406ZM14.9707 3.84766C8.93555 3.84766 4.08203-1.01562 4.08203-7.05078C4.08203-13.0957 8.92578-17.9492 14.9609-17.9492C21.0059-17.9492 25.8691-13.0957 25.8691-7.05078C25.8691-1.01562 21.0156 3.84766 14.9707 3.84766ZM9.19922-7.05078C9.19922-6.5332 9.57031-6.17188 10.1172-6.17188L14.0625-6.17188L14.0625-2.2168C14.0625-1.67969 14.4336-1.29883 14.9512-1.29883C15.4883-1.29883 15.8594-1.66992 15.8594-2.2168L15.8594-6.17188L19.8145-6.17188C20.3516-6.17188 20.7324-6.5332 20.7324-7.05078C20.7324-7.59766 20.3613-7.96875 19.8145-7.96875L15.8594-7.96875L15.8594-11.9141C15.8594-12.4609 15.4883-12.8418 14.9512-12.8418C14.4336-12.8418 14.0625-12.4609 14.0625-11.9141L14.0625-7.96875L10.1172-7.96875C9.57031-7.96875 9.19922-7.59766 9.19922-7.05078Z"/>
  </g>
  <text style="stroke:none;fill:black;font-family:sans-serif;font-size:13;font-weight:bold;" transform="matrix(1 0 0 1 263 1953)">Design Variations</text>
  <text style="stroke:none;fill:black;font-family:sans-serif;font-size:13;" transform="matrix(1 0 0 1 263 1971)">Symbols are supported in up to nine weights and three scales.</text>
  <text style="stroke:none;fill:black;font-family:sans-serif;font-size:13;" transform="matrix(1 0 0 1 263 1989)">For optimal layout with text and other symbols, vertically align</text>
  <text style="stroke:none;fill:black;font-family:sans-serif;font-size:13;" transform="matrix(1 0 0 1 263 2007)">symbols with the adjacent text.</text>
  <line style="fill:none;stroke:#00AEEF;stroke-width:0.5;opacity:1.0;" x1="776" x2="776" y1="1919" y2="1933"/>
  <g transform="matrix(1 0 0 1 776 1933)">
   <path d="M3.31055 0.15625C3.82812 0.15625 4.08203-0.0390625 4.26758-0.585938L5.52734-4.0332L11.2891-4.0332L12.5488-0.585938C12.7344-0.0390625 12.9883 0.15625 13.4961 0.15625C14.0137 0.15625 14.3457-0.15625 14.3457-0.644531C14.3457-0.810547 14.3164-0.966797 14.2383-1.17188L9.6582-13.3691C9.43359-13.9648 9.0332-14.2676 8.4082-14.2676C7.80273-14.2676 7.39258-13.9746 7.17773-13.3789L2.59766-1.16211C2.51953-0.957031 2.49023-0.800781 2.49023-0.634766C2.49023-0.146484 2.80273 0.15625 3.31055 0.15625ZM6.00586-5.51758L8.37891-12.0898L8.42773-12.0898L10.8008-5.51758Z"/>
  </g>
  <line style="fill:none;stroke:#00AEEF;stroke-width:0.5;opacity:1.0;" x1="793.197" x2="793.197" y1="1919" y2="1933"/>
  <text style="stroke:none;fill:black;font-family:sans-serif;font-size:13;font-weight:bold;" transform="matrix(1 0 0 1 776 1953)">Margins</text>
  <text style="stroke:none;fill:black;font-family:sans-serif;font-size:13;" transform="matrix(1 0 0 1 776 1971)">Leading and trailing margins on the left and right side of each symbol</text>
  <text style="stroke:none;fill:black;font-family:sans-serif;font-size:13;" transform="matrix(1 0 0 1 776 1989)">can be adjusted by modifying the x-location of the margin guidelines.</text>
  <text style="stroke:none;fill:black;font-family:sans-serif;font-size:13;" transform="matrix(1 0 0 1 776 2007)">Modifications are automatically applied proportionally to all</text>
  <text style="stroke:none;fill:black;font-family:sans-serif;font-size:13;" transform="matrix(1 0 0 1 776 2025)">scales and weights.</text>
  <g transform="matrix(1 0 0 1 1289 1933)">
   <path d="M2.8418 1.86523L4.54102 3.57422C5.40039 4.44336 6.38672 4.38477 7.31445 3.35938L18.0078-8.42773L17.041-9.4043L6.42578 2.27539C6.07422 2.67578 5.74219 2.77344 5.27344 2.30469L4.10156 1.14258C3.63281 0.683594 3.74023 0.341797 4.14062-0.0195312L15.6152-10.8203L14.6387-11.7871L3.04688-0.898438C2.06055 0.0195312 1.98242 0.996094 2.8418 1.86523ZM9.25781-16.3281C8.83789-15.918 8.80859-15.3418 9.04297-14.9512C9.27734-14.5898 9.73633-14.3555 10.3809-14.5215C11.8457-14.8633 13.3691-14.9219 14.7949-13.9844L14.209-12.5293C13.8672-11.6992 14.043-11.1133 14.5801-10.5664L16.875-8.25195C17.3633-7.76367 17.7734-7.74414 18.3398-7.8418L19.4043-8.03711L20.0684-7.36328L20.0293-6.80664C19.9902-6.30859 20.1172-5.92773 20.6055-5.44922L21.3672-4.70703C21.8457-4.22852 22.4609-4.19922 22.9297-4.66797L25.8398-7.58789C26.3086-8.05664 26.2891-8.65234 25.8105-9.13086L25.0391-9.89258C24.5605-10.3711 24.1895-10.5273 23.7109-10.4883L23.1348-10.4395L22.4902-11.0742L22.7344-12.1973C22.8613-12.7637 22.7051-13.2031 22.1191-13.7891L19.9219-15.9766C16.582-19.2969 12.1484-19.2188 9.25781-16.3281ZM10.752-15.957C13.1836-17.7344 16.4746-17.4316 18.7012-15.2051L21.1328-12.793C21.3672-12.5586 21.4062-12.373 21.3379-12.0312L21.0156-10.5469L22.5195-9.0625L23.5059-9.12109C23.7598-9.13086 23.8379-9.11133 24.0332-8.91602L24.6094-8.33984L22.168-5.89844L21.5918-6.47461C21.3965-6.66992 21.3672-6.74805 21.377-7.01172L21.4453-7.98828L19.9512-9.47266L18.4277-9.21875C18.1055-9.15039 17.959-9.17969 17.7148-9.41406L15.7129-11.416C15.459-11.6504 15.4297-11.8164 15.5859-12.1875L16.4648-14.2773C14.9023-15.7324 12.8711-16.3574 10.8398-15.7617C10.6836-15.7227 10.625-15.8496 10.752-15.957Z"/>
  </g>
  <text style="stroke:none;fill:black;font-family:sans-serif;font-size:13;font-weight:bold;" transform="matrix(1 0 0 1 1289 1953)">Exporting</text>
  <text style="stroke:none;fill:black;font-family:sans-serif;font-size:13;" transform="matrix(1 0 0 1 1289 1971)">Symbols should be outlined when exporting to ensure the</text>
  <text style="stroke:none;fill:black;font-family:sans-serif;font-size:13;" transform="matrix(1 0 0 1 1289 1989)">design is preserved when submitting to Xcode.</text>
  <text id="template-version" style="stroke:none;fill:black;font-family:sans-serif;font-size:13;text-anchor:end;" transform="matrix(1 0 0 1 3036 1933)">Template v.4.0</text>
  <text style="stroke:none;fill:black;font-family:sans-serif;font-size:13;text-anchor:end;" transform="matrix(1 0 0 1 3036 1951)">Requires Xcode 14 or greater</text>
  <text id="descriptive-name" style="stroke:none;fill:black;font-family:sans-serif;font-size:13;text-anchor:end;" transform="matrix(1 0 0 1 3036 1969)">Generated from gamecontroller</text>
  <text style="stroke:none;fill:black;font-family:sans-serif;font-size:13;text-anchor:end;" transform="matrix(1 0 0 1 3036 1987)">Typeset at 100 points</text>
  <text style="stroke:none;fill:black;font-family:sans-serif;font-size:13;" transform="matrix(1 0 0 1 263 726)">Small</text>
  <text style="stroke:none;fill:black;font-family:sans-serif;font-size:13;" transform="matrix(1 0 0 1 263 1156)">Medium</text>
  <text style="stroke:none;fill:black;font-family:sans-serif;font-size:13;" transform="matrix(1 0 0 1 263 1586)">Large</text>
 </g>
 <g id="Guides">
  <g id="H-reference" style="fill:#27AAE1;stroke:none;" transform="matrix(1 0 0 1 339 696)">
   <path d="M0.993654 0L3.63775 0L29.3281-67.1323L30.0303-67.1323L30.0303-70.459L28.1226-70.459ZM11.6885-24.4799L46.9815-24.4799L46.2315-26.7285L12.4385-26.7285ZM55.1196 0L57.7637 0L30.6382-70.459L29.4326-70.459L29.4326-67.1323Z"/>
  </g>
  <line id="Baseline-S" style="fill:none;stroke:#27AAE1;opacity:1;stroke-width:0.5;" x1="263" x2="3036" y1="696" y2="696"/>
  <line id="Capline-S" style="fill:none;stroke:#27AAE1;opacity:1;stroke-width:0.5;" x1="263" x2="3036" y1="625.541" y2="625.541"/>
  <g id="H-reference" style="fill:#27AAE1;stroke:none;" transform="matrix(1 0 0 1 339 1126)">
   <path d="M0.993654 0L3.63775 0L29.3281-67.1323L30.0303-67.1323L30.0303-70.459L28.1226-70.459ZM11.6885-24.4799L46.9815-24.4799L46.2315-26.7285L12.4385-26.7285ZM55.1196 0L57.7637 0L30.6382-70.459L29.4326-70.459L29.4326-67.1323Z"/>
  </g>
  <line id="Baseline-M" style="fill:none;stroke:#27AAE1;opacity:1;stroke-width:0.5;" x1="263" x2="3036" y1="1126" y2="1126"/>
  <line id="Capline-M" style="fill:none;stroke:#27AAE1;opacity:1;stroke-width:0.5;" x1="263" x2="3036" y1="1055.54" y2="1055.54"/>
  <g id="H-reference" style="fill:#27AAE1;stroke:none;" transform="matrix(1 0 0 1 339 1556)">
   <path d="M0.993654 0L3.63775 0L29.3281-67.1323L30.0303-67.1323L30.0303-70.459L28.1226-70.459ZM11.6885-24.4799L46.9815-24.4799L46.2315-26.7285L12.4385-26.7285ZM55.1196 0L57.7637 0L30.6382-70.459L29.4326-70.459L29.4326-67.1323Z"/>
  </g>
  <line id="Baseline-L" style="fill:none;stroke:#27AAE1;opacity:1;stroke-width:0.5;" x1="263" x2="3036" y1="1556" y2="1556"/>
  <line id="Capline-L" style="fill:none;stroke:#27AAE1;opacity:1;stroke-width:0.5;" x1="263" x2="3036" y1="1485.54" y2="1485.54"/>
  <line id="left-margin-Regular-M" style="fill:none;stroke:#00AEEF;stroke-width:0.5;opacity:1.0;" x1="1366.91" x2="1366.91" y1="1030.79" y2="1150.12"/>
  <line id="right-margin-Regular-M" style="fill:none;stroke:#00AEEF;stroke-width:0.5;opacity:1.0;" x1="1532.78" x2="1532.78" y1="1030.79" y2="1150.12"/>
 </g>
 <g id="Symbols">
  <g id="Black-L" transform="matrix(1 0 0 1 2820.74 1556)">
   <path d="M59.8673-46.3574C59.8673-41.9795 62.7764-39.1664 67.2723-39.1664L75.4615-39.1664L75.4615-31.499C75.4615-26.9071 78.4082-23.8603 82.9197-23.8603C87.4104-23.8603 90.3571-26.9071 90.3571-31.499L90.3571-39.1664L98.0293-39.1664C102.821-39.1664 105.889-41.9795 105.889-46.3574C105.889-50.6937 102.821-53.5068 98.0293-53.5068L90.3571-53.5068L90.3571-61.1742C90.3571-65.7662 87.4104-68.8129 82.9197-68.8129C78.4082-68.8129 75.4615-65.7662 75.4615-61.1742L75.4615-53.5068L67.2723-53.5068C62.7764-53.5068 59.8673-50.6937 59.8673-46.3574ZM152.604-46.2262C158.361-46.2262 162.801-50.6053 162.801-56.3635C162.801-62.1229 158.361-66.5812 152.604-66.5812C146.925-66.5812 142.406-62.1229 142.406-56.3635C142.406-50.6053 146.925-46.2262 152.604-46.2262ZM133.343-26.4899C139.101-26.4899 143.541-30.9078 143.541-36.6076C143.541-42.3866 139.101-46.8253 133.343-46.8253C127.664-46.8253 123.167-42.3866 123.167-36.6076C123.167-30.9078 127.664-26.4899 133.343-26.4899ZM16.084-0.706177C16.084 16.5575 27.5871 26.3484 42.8145 26.3484C54.0917 26.3484 62.4069 21.7359 69.0924 15.073L79.6063 4.48038C81.1402 2.97399 82.0166 2.30218 84.1458 2.30218L141.147 2.30218C143.296 2.30218 144.173 2.97399 145.708 4.48038L156.222 15.073C162.945 21.6775 171.202 26.3484 182.479 26.3484C197.727 26.3484 209.23 16.5575 209.23-0.706177C209.23-8.27512 207.84-16.5975 205.192-25.4244C201.215-38.7016 194.403-56.4852 188.023-69.8897C182.446-81.5666 178.741-88.6455 163.35-92.1043C150.368-95.0538 133.141-96.8026 112.647-96.8026C92.173-96.8026 74.9449-95.0538 61.9639-92.1043C46.5726-88.6455 42.8682-81.5666 37.2704-69.8897C30.9112-56.4852 24.0987-38.7016 20.1218-25.4244C17.4743-16.5975 16.084-8.27512 16.084-0.706177ZM34.6343-2.23149C34.6343-5.6488 35.3997-9.69749 37.1309-15.6452C41.5385-30.6895 48.7535-49.4754 55.0346-62.9919C57.9178-69.2639 59.5185-71.9226 64.7668-73.1746C76.8177-76.0645 92.9524-77.6393 112.647-77.6393C132.34-77.6393 148.496-76.0645 160.526-73.1746C165.775-71.9214 167.375-69.2639 170.279-62.9919C176.524-49.4754 183.713-30.6686 188.162-15.6452C189.914-9.69749 190.68-5.6488 190.68-2.23149C190.68 3.94623 186.348 7.42683 180.827 7.42683C177.163 7.42683 173.228 5.6299 169.851 2.2866L154.874-12.3202C151.65-15.5843 149.137-16.8611 144.698-16.8611L80.6161-16.8611C76.1774-16.8611 73.6636-15.5843 70.4188-12.3202L55.4419 2.2866C52.1435 5.68831 48.1513 7.42683 44.4667 7.42683C38.9448 7.42683 34.6343 3.94623 34.6343-2.23149Z"/>
  </g>
  <g id="Heavy-L" transform="matrix(1 0 0 1 2525.43 1556)">
   <path d="M58.9304-46.7109C58.9304-42.648 61.5808-40.0566 65.7385-40.0566L74.7811-40.0566L74.7811-31.4514C74.7811-27.2345 77.446-24.4647 81.5824-24.4647C85.6886-24.4647 88.3534-27.2345 88.3534-31.4514L88.3534-40.0566L96.8868-40.0566C101.314-40.0566 104.114-42.648 104.114-46.7109C104.114-50.7134 101.314-53.3047 96.8868-53.3047L88.3534-53.3047L88.3534-61.91C88.3534-66.1268 85.6886-68.8967 81.5824-68.8967C77.446-68.8967 74.7811-66.1268 74.7811-61.91L74.7811-53.3047L65.7385-53.3047C61.5808-53.3047 58.9304-50.7134 58.9304-46.7109ZM151.01-46.8373C156.591-46.8373 160.904-51.0944 160.904-56.6805C160.904-62.2723 156.591-66.6042 151.01-66.6042C145.499-66.6042 141.111-62.2723 141.111-56.6805C141.111-51.0944 145.499-46.8373 151.01-46.8373ZM131.87-27.3419C137.456-27.3419 141.769-31.6191 141.769-37.1606C141.769-42.7769 137.456-47.0843 131.87-47.0843C126.358-47.0843 122.006-42.7769 122.006-37.1606C122.006-31.6191 126.358-27.3419 131.87-27.3419ZM16.084-1.1197C16.084 15.5065 27.1128 25.2223 42.0931 25.2223C52.413 25.2223 60.4414 20.9626 66.8021 14.3439L77.5481 2.95891C79.1042 1.34331 80.2198 0.606999 82.3017 0.606999L140.188 0.606999C142.294 0.606999 143.41 1.34331 144.972 2.95891L155.718 14.3439C162.093 20.918 170.077 25.2223 180.397 25.2223C195.407 25.2223 206.436 15.5065 206.436-1.1197C206.436-8.35943 205.027-16.4215 202.431-25.0962C198.481-38.2814 191.687-56.0104 185.275-69.4822C179.757-81.0565 176.276-87.6566 161.418-90.9969C148.672-93.8907 131.625-95.6588 111.245-95.6588C90.8949-95.6588 73.842-93.8907 61.1019-90.9969C46.2434-87.6566 42.7629-81.0565 37.2142-69.4822C30.8329-56.0104 24.0386-38.2814 20.0892-25.0962C17.4925-16.4215 16.084-8.35943 16.084-1.1197ZM32.3914-2.19014C32.3914-5.74034 33.1755-9.9721 34.9956-16.2311C39.3457-31.0672 46.5712-49.8283 52.8832-63.4612C55.8165-69.8518 57.4565-72.8927 63.4433-74.2997C75.3685-77.1432 91.5286-78.7831 111.245-78.7831C130.955-78.7831 147.151-77.1432 159.046-74.2997C165.033-72.8871 166.673-69.8518 169.637-63.4612C175.94-49.8283 183.083-31.0371 187.494-16.2311C189.344-9.9721 190.128-5.74034 190.128-2.19014C190.128 4.63503 185.354 8.61695 179.163 8.61695C175.226 8.61695 171.095 6.63695 167.629 3.01569L153.392-11.5222C150.236-14.88 147.713-16.2687 143.001-16.2687L79.5191-16.2687C74.8072-16.2687 72.284-14.88 69.0976-11.5222L54.8607 3.01569C51.4635 6.68157 47.2943 8.61695 43.3267 8.61695C37.1358 8.61695 32.3914 4.63503 32.3914-2.19014Z"/>
  </g>
  <g id="Bold-L" transform="matrix(1 0 0 1 2230.41 1556)">
   <path d="M57.8073-47.1116C57.8073-43.5001 60.1202-41.2077 63.8033-41.2077L74.0254-41.2077L74.0254-31.2856C74.0254-27.5821 76.3294-25.1729 79.9525-25.1729C83.5377-25.1729 85.8417-27.5821 85.8417-31.2856L85.8417-41.2077L95.5847-41.2077C99.4986-41.2077 101.946-43.5001 101.946-47.1116C101.946-50.6471 99.4986-52.9395 95.5847-52.9395L85.8417-52.9395L85.8417-62.8616C85.8417-66.5651 83.5377-68.9743 79.9525-68.9743C76.3294-68.9743 74.0254-66.5651 74.0254-62.8616L74.0254-52.9395L63.8033-52.9395C60.1202-52.9395 57.8073-50.6471 57.8073-47.1116ZM149.073-47.5904C154.416-47.5904 158.56-51.6791 158.56-57.0352C158.56-62.4045 154.416-66.5604 149.073-66.5604C143.784-66.5604 139.573-62.4045 139.573-57.0352C139.573-51.6791 143.784-47.5904 149.073-47.5904ZM129.989-28.335C135.345-28.335 139.489-32.4281 139.489-37.755C139.489-43.1492 135.345-47.2803 129.989-47.2803C124.7-47.2803 120.54-43.1492 120.54-37.755C120.54-32.4281 124.7-28.335 129.989-28.335ZM16.084-1.58228C16.084 14.245 26.5287 23.8314 41.1495 23.8314C50.3531 23.8314 58.0205 19.9798 63.9965 13.4373L75.0344 1.12845C76.6285-0.62537 78.0065-1.43116 80.0568-1.43116L139.034-1.43116C141.109-1.43116 142.487-0.62537 144.095 1.12845L155.132 13.4373C161.1 19.9506 168.738 23.8314 177.941 23.8314C192.6 23.8314 203.045 14.245 203.045-1.58228C203.045-8.42965 201.613-16.1765 199.071-24.689C195.152-37.7738 188.381-55.4337 181.924-69.0049C176.489-80.4189 173.278-86.4273 159.088-89.6215C146.574-92.4611 129.72-94.2374 109.545-94.2374C89.4088-94.2374 72.5414-92.4611 60.0413-89.6215C45.851-86.4273 42.6397-80.4189 37.1673-69.0049C30.748-55.4337 23.9768-37.7738 20.0582-24.689C17.5156-16.1765 16.084-8.42965 16.084-1.58228ZM29.6174-2.14388C29.6174-5.84809 30.4171-10.2953 32.3821-17.0578C36.6332-31.5434 43.8516-50.2364 50.2169-64.0451C53.2117-70.5817 54.9277-74.1064 61.8289-75.7054C73.6376-78.5026 89.8583-80.2045 109.545-80.2045C129.219-80.2045 145.491-78.5026 157.262-75.7054C164.163-74.0932 165.879-70.5817 168.912-64.0451C175.299-50.2364 182.382-31.5054 186.709-17.0578C188.712-10.2953 189.512-5.84809 189.512-2.14388C189.512 5.48051 184.206 10.0848 177.171 10.0848C172.895 10.0848 168.512 7.88928 164.915 3.92229L151.503-10.5385C148.439-13.9743 145.908-15.4641 140.992-15.4641L78.1368-15.4641C73.2208-15.4641 70.6898-13.9743 67.5877-10.5385L54.1757 3.92229C50.6333 7.91848 46.2338 10.0848 41.9204 10.0848C34.8847 10.0848 29.6174 5.48051 29.6174-2.14388Z"/>
  </g>
  <g id="Semibold-L" transform="matrix(1 0 0 1 1934.87 1556)">
   <path d="M57.0331-47.3878C57.0331-44.0876 59.1133-42.0013 62.4691-42.0013L73.5044-42.0013L73.5044-31.1714C73.5044-27.8217 75.5597-25.6611 78.829-25.6611C82.0548-25.6611 84.1101-27.8217 84.1101-31.1714L84.1101-42.0013L94.6871-42.0013C98.2473-42.0013 100.451-44.0876 100.451-47.3878C100.451-50.6013 98.2473-52.6877 94.6871-52.6877L84.1101-52.6877L84.1101-63.5176C84.1101-66.8672 82.0548-69.0279 78.829-69.0279C75.5597-69.0279 73.5044-66.8672 73.5044-63.5176L73.5044-52.6877L62.4691-52.6877C59.1133-52.6877 57.0331-50.6013 57.0331-47.3878ZM147.737-48.1096C152.916-48.1096 156.944-52.0821 156.944-57.2797C156.944-62.4957 152.916-66.5302 147.737-66.5302C142.602-66.5302 138.512-62.4957 138.512-57.2797C138.512-52.0821 142.602-48.1096 147.737-48.1096ZM128.692-29.0197C133.89-29.0197 137.918-32.9859 137.918-38.1649C137.918-43.4058 133.89-47.4154 128.692-47.4154C123.556-47.4154 119.528-43.4058 119.528-38.1649C119.528-32.9859 123.556-29.0197 128.692-29.0197ZM16.084-1.90118C16.084 13.3754 26.1261 22.8725 40.499 22.8725C48.933 22.8725 56.3516 19.3023 62.0623 12.8123L73.3014-0.13346C74.9218-1.98257 76.4806-2.83626 78.5091-2.83626L138.239-2.83626C140.292-2.83626 141.851-1.98257 143.49-0.13346L154.729 12.8123C160.415 19.2837 167.815 22.8725 176.249 22.8725C190.665 22.8725 200.707 13.3754 200.707-1.90118C200.707-8.47806 199.26-16.0075 196.755-24.4083C192.857-37.4239 186.102-55.0362 179.613-68.6759C174.237-79.9793 171.211-85.5798 157.481-88.6734C145.128-91.4756 128.407-93.2575 108.374-93.2575C88.3844-93.2575 71.6448-91.4756 59.3101-88.6734C45.5805-85.5798 42.5548-79.9793 37.1351-68.6759C30.6895-55.0362 23.9341-37.4239 20.0368-24.4083C17.5315-16.0075 16.084-8.47806 16.084-1.90118ZM27.705-2.11199C27.705-5.92237 28.5155-10.5182 30.5803-17.6277C34.7632-31.8717 41.9767-50.5178 48.3788-64.4477C51.416-71.0849 53.1843-74.9431 60.7159-76.6746C72.4443-79.4397 88.7068-81.1844 108.374-81.1844C128.023-81.1844 144.347-79.4397 156.032-76.6746C163.564-74.9247 165.332-71.0849 168.413-64.4477C174.858-50.5178 181.898-31.8283 186.168-17.6277C188.276-10.5182 189.086-5.92237 189.086-2.11199C189.086 6.06337 183.415 11.0967 175.797 11.0967C171.289 11.0967 166.731 8.75263 163.044 4.54729L150.201-9.86032C147.201-13.3499 144.664-14.9094 139.608-14.9094L77.1838-14.9094C72.1272-14.9094 69.5908-13.3499 66.5467-9.86032L53.7035 4.54729C50.0609 8.7712 45.5028 11.0967 40.9509 11.0967C33.3329 11.0967 27.705 6.06337 27.705-2.11199Z"/>
  </g>
  <g id="Medium-L" transform="matrix(1 0 0 1 1639.05 1556)">
   <path d="M56.4461-47.5973C56.4461-44.5331 58.3498-42.603 61.4575-42.603L73.1094-42.603L73.1094-31.0847C73.1094-28.0034 74.9761-26.0313 77.977-26.0313C80.9305-26.0313 82.7972-28.0034 82.7972-31.0847L82.7972-42.603L94.0064-42.603C97.2985-42.603 99.3181-44.5331 99.3181-47.5973C99.3181-50.5667 97.2985-52.4968 94.0064-52.4968L82.7972-52.4968L82.7972-64.015C82.7972-67.0963 80.9305-69.0684 77.977-69.0684C74.9761-69.0684 73.1094-67.0963 73.1094-64.015L73.1094-52.4968L61.4575-52.4968C58.3498-52.4968 56.4461-50.5667 56.4461-47.5973ZM146.725-48.5033C151.779-48.5033 155.719-52.3877 155.719-57.4651C155.719-62.5649 151.779-66.5072 146.725-66.5072C141.705-66.5072 137.707-62.5649 137.707-57.4651C137.707-52.3877 141.705-48.5033 146.725-48.5033ZM127.709-29.5388C132.786-29.5388 136.726-33.4088 136.726-38.4756C136.726-43.6004 132.786-47.5178 127.709-47.5178C122.69-47.5178 118.762-43.6004 118.762-38.4756C118.762-33.4088 122.69-29.5388 127.709-29.5388ZM16.084-2.14298C16.084 12.716 25.8207 22.1454 40.0058 22.1454C47.8562 22.1454 55.0861 18.7886 60.5957 12.3384L71.9874-1.09029C73.6277-3.01165 75.3236-3.90166 77.3356-3.90166L137.636-3.90166C139.673-3.90166 141.369-3.01165 143.031-1.09029L154.423 12.3384C159.896 18.7781 167.115 22.1454 174.966 22.1454C189.198 22.1454 198.935 12.716 198.935-2.14298C198.935-8.51476 197.475-15.8794 194.998-24.1954C191.117-37.1586 184.374-54.7348 177.861-68.4264C172.528-79.6461 169.643-84.9373 156.263-87.9545C144.032-90.7283 127.411-92.5145 107.486-92.5145C87.6076-92.5145 70.9649-90.7283 58.7557-87.9545C45.3754-84.9373 42.4904-79.6461 37.1106-68.4264C30.6451-54.7348 23.9018-37.1586 20.0206-24.1954C17.5435-15.8794 16.084-8.51476 16.084-2.14298ZM26.2549-2.08781C26.2549-5.9787 27.0736-10.6872 29.2142-18.0599C33.3452-32.1206 40.5551-50.7312 46.9851-64.7529C50.0544-71.4665 51.8625-75.5776 59.872-77.4094C71.5395-80.1503 87.8337-81.9274 107.486-81.9274C127.115-81.9274 143.479-80.1503 155.099-77.4094C163.109-75.5551 164.917-71.4665 168.034-64.7529C174.523-50.7312 181.531-32.0731 185.757-18.0599C187.945-10.6872 188.764-5.9787 188.764-2.08781C188.764 6.50532 182.815 11.864 174.756 11.864C170.07 11.864 165.38 9.40726 161.626 5.02119L149.214-9.34612C146.261-12.8765 143.721-14.4888 138.558-14.4888L76.4611-14.4888C71.298-14.4888 68.7575-12.8765 65.7574-9.34612L53.3455 5.02119C49.6269 9.41777 44.9485 11.864 40.2158 11.864C32.1562 11.864 26.2549 6.50532 26.2549-2.08781Z"/>
  </g>
  <g id="Regular-L" transform="matrix(1 0 0 1 1343.49 1556)">
   <path d="M55.6804-47.8705C55.6804-45.1141 57.3539-43.3878 60.138-43.3878L72.5941-43.3878L72.5941-30.9717C72.5941-28.2404 74.2148-26.5141 76.8658-26.5141C79.4639-26.5141 81.0847-28.2404 81.0847-30.9717L81.0847-43.3878L93.1186-43.3878C96.061-43.3878 97.84-45.1141 97.84-47.8705C97.84-50.5214 96.061-52.2477 93.1186-52.2477L81.0847-52.2477L81.0847-64.6638C81.0847-67.3951 79.4639-69.1214 76.8658-69.1214C74.2148-69.1214 72.5941-67.3951 72.5941-64.6638L72.5941-52.2477L60.138-52.2477C57.3539-52.2477 55.6804-50.5214 55.6804-47.8705ZM145.404-49.0168C150.296-49.0168 154.121-52.7863 154.121-57.7069C154.121-62.655 150.296-66.4773 145.404-66.4773C140.536-66.4773 136.658-62.655 136.658-57.7069C136.658-52.7863 140.536-49.0168 145.404-49.0168ZM126.427-30.216C131.347-30.216 135.172-33.9604 135.172-38.8809C135.172-43.8542 131.347-47.6514 126.427-47.6514C121.559-47.6514 117.762-43.8542 117.762-38.8809C117.762-33.9604 121.559-30.216 126.427-30.216ZM16.084-2.45837C16.084 11.856 25.4225 21.197 39.3624 21.197C46.4517 21.197 53.4355 18.1185 58.6828 11.7202L70.2735-2.33834C71.9397-4.35393 73.8145-5.29132 75.805-5.29132L136.849-5.29132C138.865-5.29132 140.74-4.35393 142.433-2.33834L154.024 11.7202C159.219 18.1185 166.202 21.197 173.292 21.197C187.284 21.197 196.623 11.856 196.623-2.45837C196.623-8.56264 195.148-15.7124 192.708-23.9177C188.847-36.8126 182.12-54.3416 175.576-68.101C170.301-79.2113 167.599-84.0991 154.674-87.0168C142.601-89.7536 126.113-91.5454 106.327-91.5454C86.5944-91.5454 70.0781-89.7536 58.0326-87.0168C45.1079-84.0991 42.4064-79.2113 37.0787-68.101C30.5872-54.3416 23.8596-36.8126 19.9995-23.9177C17.5592-15.7124 16.084-8.56264 16.084-2.45837ZM24.3635-2.05627C24.3635-6.05216 25.1928-10.9076 27.4322-18.6236C31.4958-32.4452 38.7008-51.0095 45.1672-65.151C48.2784-71.9641 50.1383-76.4051 58.7713-78.3679C70.3594-81.0771 86.6948-82.8965 106.327-82.8965C125.932-82.8965 142.348-81.0771 153.883-78.3679C162.516-76.3774 164.376-71.9641 167.54-65.151C174.087-51.0095 181.053-32.3924 185.222-18.6236C187.514-10.9076 188.343-6.05216 188.343-2.05627C188.343 7.08178 182.033 12.8648 173.397 12.8648C168.481 12.8648 163.618 10.2611 159.776 5.63933L147.926-8.67542C145.036-12.259 142.491-13.9402 137.188-13.9402L75.5186-13.9402C70.2164-13.9402 67.6706-12.259 64.7278-8.67542L52.8785 5.63933C49.0609 10.2611 44.2255 12.8648 39.2569 12.8648C30.6214 12.8648 24.3635 7.08178 24.3635-2.05627Z"/>
  </g>
  <g id="Light-L" transform="matrix(1 0 0 1 1047.72 1556)">
   <path d="M55.146-47.9087C55.146-45.8584 56.476-44.4947 58.573-44.4947L72.6323-44.4947L72.6323-30.1702C72.6323-28.1068 73.9286-26.7432 75.9115-26.7432C77.8607-26.7432 79.157-28.1068 79.157-30.1702L79.157-44.4947L92.9469-44.4947C95.1449-44.4947 96.5423-45.8584 96.5423-47.9087C96.5423-49.8916 95.1449-51.2553 92.9469-51.2553L79.157-51.2553L79.157-65.5799C79.157-67.6432 77.8607-69.0069 75.9115-69.0069C73.9286-69.0069 72.6323-67.6432 72.6323-65.5799L72.6323-51.2553L58.573-51.2553C56.476-51.2553 55.146-49.8916 55.146-47.9087ZM144.297-49.513C148.903-49.513 152.537-53.0535 152.537-57.7069C152.537-62.4069 148.903-65.9811 144.297-65.9811C139.677-65.9811 136.009-62.4069 136.009-57.7069C136.009-53.0535 139.677-49.513 144.297-49.513ZM124.766-30.5023C129.419-30.5023 133.053-34.0559 133.053-38.7092C133.053-43.3962 129.419-46.9834 124.766-46.9834C120.147-46.9834 116.559-43.3962 116.559-38.7092C116.559-34.0559 120.147-30.5023 124.766-30.5023ZM16.084-2.45837C16.084 11.2452 25.0408 20.2619 38.3891 20.2619C45.1539 20.2619 51.8514 17.2788 56.946 11.0713L68.7657-3.25443C70.5274-5.38454 72.364-6.30284 74.5072-6.30284L136.277-6.30284C138.407-6.30284 140.243-5.38454 142.052-3.25443L153.871 11.0713C158.932 17.2788 165.63 20.2619 172.395 20.2619C185.777 20.2619 194.734 11.2452 194.734-2.45837C194.734-8.39087 193.239-15.3688 190.78-23.6315C186.92-36.5454 180.211-54.0171 173.591-67.9484C168.449-78.7342 165.881-83.2212 153.472-86.0434C141.17-88.8375 124.624-90.5339 105.392-90.5339C86.1936-90.5339 69.601-88.8375 57.3455-86.0434C44.9362-83.2212 42.3682-78.7342 37.1932-67.9484C30.6063-54.0171 23.8978-36.5454 20.0376-23.6315C17.5783-15.3688 16.084-8.39087 16.084-2.45837ZM22.4741-2.05627C22.4741-6.09033 23.2652-11.0221 25.829-19.845C29.6445-32.8269 36.7159-51.1049 43.3159-65.5709C46.4653-72.4794 48.5542-77.3212 57.817-79.4176C69.5769-82.165 86.1414-83.9081 105.392-83.9081C124.596-83.9081 141.241-82.165 152.967-79.4176C162.23-77.2744 164.319-72.4794 167.502-65.5709C174.182-51.1049 181.072-32.7932 184.955-19.845C187.552-11.0221 188.343-6.09033 188.343-2.05627C188.343 7.61617 181.785 13.8381 172.462 13.8381C167.317 13.8381 162.206 11.1581 158.153 6.28823L146.285-8.02652C143.51-11.4193 140.983-12.9287 136.406-12.9287L74.4117-12.9287C69.8347-12.9287 67.308-11.4193 64.4988-8.02652L52.6303 6.28823C48.5646 11.1581 43.5002 13.8381 38.3217 13.8381C28.9991 13.8381 22.4741 7.61617 22.4741-2.05627Z"/>
  </g>
  <g id="Thin-L" transform="matrix(1 0 0 1 752.263 1556)">
   <path d="M54.4392-47.9592C54.4392-46.8428 55.3149-45.9588 56.5032-45.9588L72.6827-45.9588L72.6827-29.11C72.6827-27.9301 73.5499-27.0461 74.6494-27.0461C75.7404-27.0461 76.6076-27.9301 76.6076-29.11L76.6076-45.9588L92.7197-45.9588C93.9333-45.9588 94.8258-46.8428 94.8258-47.9592C94.8258-49.0586 93.9333-49.9427 92.7197-49.9427L76.6076-49.9427L76.6076-66.7915C76.6076-67.9714 75.7404-68.8554 74.6494-68.8554C73.5499-68.8554 72.6827-67.9714 72.6827-66.7915L72.6827-49.9427L56.5032-49.9427C55.3149-49.9427 54.4392-49.0586 54.4392-47.9592ZM142.833-50.1693C147.061-50.1693 150.442-53.4069 150.442-57.7069C150.442-62.0788 147.061-65.3248 142.833-65.3248C138.541-65.3248 135.151-62.0788 135.151-57.7069C135.151-53.4069 138.541-50.1693 142.833-50.1693ZM122.57-30.8809C126.87-30.8809 130.252-34.1821 130.252-38.482C130.252-42.7904 126.87-46.1 122.57-46.1C118.279-46.1 114.969-42.7904 114.969-38.482C114.969-34.1821 118.279-30.8809 122.57-30.8809ZM16.084-2.45837C16.084 10.4375 24.536 19.025 37.1017 19.025C43.4375 19.025 49.7564 16.1681 54.649 10.2131L66.7716-4.46604C68.6595-6.7476 70.4456-7.64065 72.7907-7.64065L135.519-7.64065C137.801-7.64065 139.587-6.7476 141.547-4.46604L153.67 10.2131C158.554 16.1681 164.873 19.025 171.208 19.025C183.783 19.025 192.235 10.4375 192.235-2.45837C192.235-8.16369 190.715-14.9145 188.23-23.2528C184.37-36.192 177.687-53.588 170.965-67.7464C166.001-78.1032 163.61-82.0601 151.882-84.7561C139.277-87.6259 122.655-89.1961 104.155-89.1961C85.6635-89.1961 68.9699-87.6259 56.4368-84.7561C44.709-82.0601 42.3178-78.1032 37.3446-67.7464C30.6316-53.588 23.9483-36.192 20.0881-23.2528C17.6035-14.9145 16.084-8.16369 16.084-2.45837ZM19.9751-2.05627C19.9751-6.14082 20.7158-11.1735 23.7087-21.4605C27.196-33.3317 34.0908-51.2311 40.8674-66.1262C44.0674-73.161 46.4591-78.5328 56.5549-80.8059C68.542-83.6037 85.4093-85.2459 104.155-85.2459C122.829-85.2459 139.777-83.6037 151.755-80.8059C161.851-78.4608 164.243-73.161 167.451-66.1262C174.308-51.2311 181.097-33.3233 184.601-21.4605C187.603-11.1735 188.343-6.14082 188.343-2.05627C188.343 8.32294 181.457 15.1254 171.225 15.1254C165.778 15.1254 160.338 12.3445 156.008 7.14645L144.114-7.1683C141.49-10.3086 138.989-11.5908 135.371-11.5908L72.9476-11.5908C69.3299-11.5908 66.8284-10.3086 64.1959-7.1683L52.3022 7.14645C47.9084 12.3445 42.541 15.1254 37.0849 15.1254C26.8535 15.1254 19.9751 8.32294 19.9751-2.05627Z"/>
  </g>
  <g id="Ultralight-L" transform="matrix(1 0 0 1 456.192 1556)">
   <path d="M54.0772-47.985C54.0772-47.3471 54.7201-46.7086 55.443-46.7086L72.7086-46.7086L72.7086-28.567C72.7086-27.8396 73.356-27.2012 74.003-27.2012C74.6544-27.2012 75.3018-27.8396 75.3018-28.567L75.3018-46.7086L92.6033-46.7086C93.3127-46.7086 93.9467-47.3471 93.9467-47.985C93.9467-48.632 93.3127-49.2704 92.6033-49.2704L75.3018-49.2704L75.3018-67.4121C75.3018-68.1394 74.6544-68.7779 74.003-68.7779C73.356-68.7779 72.7086-68.1394 72.7086-67.4121L72.7086-49.2704L55.443-49.2704C54.7201-49.2704 54.0772-48.632 54.0772-47.985ZM142.083-50.5055C146.117-50.5055 149.369-53.5879 149.369-57.7069C149.369-61.9107 146.117-64.9887 142.083-64.9887C137.959-64.9887 134.711-61.9107 134.711-57.7069C134.711-53.5879 137.959-50.5055 142.083-50.5055ZM121.445-31.0748C125.564-31.0748 128.817-34.2467 128.817-38.3656C128.817-42.4801 125.564-45.6475 121.445-45.6475C117.322-45.6475 114.155-42.4801 114.155-38.3656C114.155-34.2467 117.322-31.0748 121.445-31.0748ZM16.084-2.45837C16.084 10.0238 24.2774 18.3915 36.4424 18.3915C42.5583 18.3915 48.6833 15.5993 53.4725 9.77355L65.7503-5.08662C67.7028-7.44575 69.4631-8.32588 71.9116-8.32588L135.132-8.32588C137.491-8.32588 139.251-7.44575 141.288-5.08662L153.566 9.77355C158.36 15.5993 164.485 18.3915 170.601 18.3915C182.761 18.3915 190.955 10.0238 190.955-2.45837C190.955-8.04734 189.422-14.6818 186.925-23.0589C183.065-36.011 176.394-53.3682 169.621-67.643C164.747-77.7799 162.446-81.4653 151.067-84.0967C138.307-87.0053 121.647-88.5108 103.522-88.5108C85.392-88.5108 68.6467-87.0053 55.9714-84.0967C44.5926-81.4653 42.2919-77.7799 37.4222-67.643C30.6445-53.3682 23.9741-36.011 20.114-23.0589C17.6165-14.6818 16.084-8.04734 16.084-2.45837ZM18.6952-2.05627C18.6952-6.16668 19.41-11.2511 22.6227-22.2879C25.942-33.5903 32.7462-51.2957 39.6133-66.4106C42.8391-73.51 45.3861-79.1534 55.9085-81.517C68.0119-84.3407 85.0344-85.9311 103.522-85.9311C121.924-85.9311 139.027-84.3407 151.135-81.517C161.657-79.0685 164.204-73.51 167.425-66.4106C174.373-51.2957 181.11-33.5948 184.42-22.2879C187.629-11.2511 188.343-6.16668 188.343-2.05627C188.343 8.68495 181.289 15.7848 170.592 15.7848C164.989 15.7848 159.382 12.9521 154.909 7.58602L143.002-6.72872C140.456-9.73975 137.967-10.9056 134.841-10.9056L72.1978-10.9056C69.0713-10.9056 66.5828-9.73975 64.0408-6.72872L52.1341 7.58602C47.5722 12.9521 42.0497 15.7848 36.4513 15.7848C25.7546 15.7848 18.6952 8.68495 18.6952-2.05627Z"/>
  </g>
  <g id="Black-M" transform="matrix(1 0 0 1 2845.05 1126)">
   <path d="M47.1145-43.5522C47.1145-39.9853 49.5441-37.6645 53.2248-37.6645L59.0531-37.6645L59.0531-32.2717C59.0531-28.4822 61.5343-25.933 65.2614-25.933C68.9831-25.933 71.4643-28.4822 71.4643-32.2717L71.4643-37.6645L76.906-37.6645C80.8316-37.6645 83.3864-39.9853 83.3864-43.5522C83.3864-47.1081 80.8316-49.4289 76.906-49.4289L71.4643-49.4289L71.4643-54.8217C71.4643-58.6112 68.9831-61.1605 65.2614-61.1605C61.5343-61.1605 59.0531-58.6112 59.0531-54.8217L59.0531-49.4289L53.2248-49.4289C49.5441-49.4289 47.1145-47.1081 47.1145-43.5522ZM119.448-43.2912C124.021-43.2912 127.544-46.7576 127.544-51.3304C127.544-55.903 124.021-59.432 119.448-59.432C114.937-59.432 111.352-55.903 111.352-51.3304C111.352-46.7576 114.937-43.2912 119.448-43.2912ZM104.347-27.7652C108.92-27.7652 112.443-31.2829 112.443-35.7987C112.443-40.377 108.92-43.9002 104.347-43.9002C99.8371-43.9002 96.2568-40.377 96.2568-35.7987C96.2568-31.2829 99.8371-27.7652 104.347-27.7652ZM12.4609-8.12744C12.4609 5.71267 21.7288 13.3187 33.6584 13.3187C43.174 13.3187 49.8238 9.45474 55.2618 4.28062L63.2388-3.28111C64.4212-4.36984 64.8894-4.8323 66.6004-4.8323L110.1-4.8323C111.817-4.8323 112.285-4.36984 113.467-3.28111L121.444 4.28062C126.934 9.39764 133.526 13.3187 143.042 13.3187C154.977 13.3187 164.245 5.71267 164.245-8.12744C164.245-14.2511 163.181-20.8992 161.083-27.8763C157.979-38.2444 152.688-52.0613 147.762-62.4117C143.409-71.5026 140.364-77.344 128.052-80.1126C117.76-82.4533 104.251-83.7788 88.3501-83.7788C72.4545-83.7788 58.9461-82.4533 48.6537-80.1126C36.3414-77.344 33.2971-71.5026 28.9387-62.4117C24.0181-52.0613 18.7271-38.2444 15.6223-27.8763C13.525-20.8992 12.4609-14.2511 12.4609-8.12744ZM28.5043-9.7001C28.5043-12.2386 29.076-15.2283 30.3848-19.7186C33.8153-31.4392 39.378-45.976 44.2358-56.3917C46.4315-61.1619 47.669-62.9476 51.1858-63.8024C60.6533-66.0863 73.1628-67.2402 88.3501-67.2402C103.538-67.2402 116.052-66.0863 125.514-63.8024C129.031-62.9479 130.269-61.1619 132.47-56.3917C137.276-45.976 142.874-31.4337 146.315-19.7186C147.63-15.2283 148.201-12.2386 148.201-9.7001C148.201-5.398 145.193-3.0728 141.397-3.0728C138.763-3.0728 135.848-4.31796 133.281-6.70289L121.04-18.0786C118.499-20.5011 116.562-21.3709 113.456-21.3709L63.2495-21.3709C60.1437-21.3709 58.2068-20.5011 55.6608-18.0786L43.419-6.70289C40.9149-4.26086 37.9431-3.0728 35.3032-3.0728C31.507-3.0728 28.5043-5.398 28.5043-9.7001Z"/>
  </g>
  <g id="Heavy-M" transform="matrix(1 0 0 1 2549.61 1126)">
   <path d="M46.2479-43.8942C46.2479-40.5702 48.4563-38.4326 51.8698-38.4326L58.3845-38.4326L58.3845-32.299C58.3845-28.8147 60.62-26.5026 64.0421-26.5026C67.4478-26.5026 69.6834-28.8147 69.6834-32.299L69.6834-38.4326L75.805-38.4326C79.4423-38.4326 81.7707-40.5702 81.7707-43.8942C81.7707-47.1854 79.4423-49.3229 75.805-49.3229L69.6834-49.3229L69.6834-55.4565C69.6834-58.9409 67.4478-61.2529 64.0421-61.2529C60.62-61.2529 58.3845-58.9409 58.3845-55.4565L58.3845-49.3229L51.8698-49.3229C48.4563-49.3229 46.2479-47.1854 46.2479-43.8942ZM117.992-43.8427C122.419-43.8427 125.836-47.2111 125.836-51.6404C125.836-56.0719 122.419-59.5003 117.992-59.5003C113.623-59.5003 110.147-56.0719 110.147-51.6404C110.147-47.2111 113.623-43.8427 117.992-43.8427ZM103.06-28.5716C107.49-28.5716 110.906-31.9694 110.906-36.3551C110.906-40.8007 107.49-44.215 103.06-44.215C98.6912-44.215 95.2333-40.8007 95.2333-36.3551C95.2333-31.9694 98.6912-28.5716 103.06-28.5716ZM12.4609-8.53168C12.4609 4.74152 21.3003 12.304 33.0429 12.304C41.6527 12.304 48.0485 8.7763 53.1831 3.62775L61.366-4.68394C62.5611-5.86886 63.2667-6.39613 64.9173-6.39613L109.215-6.39613C110.879-6.39613 111.585-5.86886 112.782-4.68394L120.965 3.62775C126.127 8.73268 132.479 12.304 141.089 12.304C152.848 12.304 161.688 4.74152 161.688-8.53168C161.688-14.3493 160.607-20.7589 158.561-27.5819C155.484-37.8583 150.209-51.6271 145.259-62.0275C140.951-71.0479 138.113-76.4583 126.274-79.1199C116.234-81.4008 102.906-82.7539 87.066-82.7539C71.242-82.7539 57.912-81.4008 47.8745-79.1199C36.0354-76.4583 33.1977-71.0479 28.8732-62.0275C23.9398-51.6271 18.6648-37.8583 15.587-27.5819C13.5411-20.7589 12.4609-14.3493 12.4609-8.53168ZM26.486-9.65967C26.486-12.3246 27.0796-15.4862 28.4453-20.1787C31.8425-31.7733 37.4278-46.3122 42.3034-56.8118C44.5447-61.6891 45.7994-63.8114 49.9799-64.8054C59.3088-67.0405 71.822-68.265 87.066-68.265C102.308-68.265 114.84-67.0405 124.152-64.8054C128.333-63.8091 129.587-61.6891 131.845-56.8118C136.696-46.3122 142.257-31.7569 145.687-20.1787C147.069-15.4862 147.662-12.3246 147.662-9.65967C147.662-4.77394 144.244-1.99917 139.857-1.99917C136.976-1.99917 133.894-3.41625 131.258-6.05001L119.742-17.3584C117.257-19.89 115.309-20.885 111.869-20.885L62.2792-20.885C58.8395-20.885 56.8916-19.89 54.3904-17.3584L42.8738-6.05001C40.296-3.37263 37.1722-1.99917 34.2751-1.99917C29.8883-1.99917 26.486-4.77394 26.486-9.65967Z"/>
  </g>
  <g id="Bold-M" transform="matrix(1 0 0 1 2254.33 1126)">
   <path d="M45.2785-44.2767C45.2785-41.2243 47.2394-39.2919 50.354-39.2919L57.6365-39.2919L57.6365-32.3297C57.6365-29.1866 59.5974-27.1399 62.6782-27.1399C65.7303-27.1399 67.6912-29.1866 67.6912-32.3297L67.6912-39.2919L74.5734-39.2919C77.8881-39.2919 79.9634-41.2243 79.9634-44.2767C79.9634-47.2719 77.8881-49.2044 74.5734-49.2044L67.6912-49.2044L67.6912-56.1666C67.6912-59.3097 65.7303-61.3563 62.6782-61.3563C59.5974-61.3563 57.6365-59.3097 57.6365-56.1666L57.6365-49.2044L50.354-49.2044C47.2394-49.2044 45.2785-47.2719 45.2785-44.2767ZM116.364-44.4598C120.628-44.4598 123.925-47.7184 123.925-51.987C123.925-56.2608 120.628-59.5766 116.364-59.5766C112.153-59.5766 108.798-56.2608 108.798-51.987C108.798-47.7184 112.153-44.4598 116.364-44.4598ZM101.621-29.4737C105.889-29.4737 109.187-32.7374 109.187-36.9775C109.187-41.2747 105.889-44.5671 101.621-44.5671C97.4093-44.5671 94.0884-41.2747 94.0884-36.9775C94.0884-32.7374 97.4093-29.4737 101.621-29.4737ZM12.4609-8.98389C12.4609 3.65515 20.8211 11.169 32.3544 11.169C39.9508 11.169 46.0626 8.01737 50.8578 2.89742L59.2709-6.2532C60.4804-7.54572 61.4515-8.14551 63.0346-8.14551L108.224-8.14551C109.831-8.14551 110.802-7.54572 112.017-6.2532L120.43 2.89742C125.225 7.98882 131.308 11.169 138.905 11.169C150.467 11.169 158.827 3.65515 158.827-8.98389C158.827-14.4593 157.729-20.6019 155.74-27.2526C152.693-37.4263 147.436-51.1413 142.459-61.5976C138.201-70.5393 135.595-75.4675 124.285-78.0093C114.527-80.2235 101.402-81.6075 85.6296-81.6075C69.8856-81.6075 56.7552-80.2235 47.0028-78.0093C35.6931-75.4675 33.0864-70.5393 28.7999-61.5976C23.8522-51.1413 18.5952-37.4263 15.5475-27.2526C13.559-20.6019 12.4609-14.4593 12.4609-8.98389ZM24.2282-9.61445C24.2282-12.4207 24.8462-15.7747 26.2756-20.6934C29.6357-32.147 35.2461-46.6883 40.1418-57.2817C42.434-62.2788 43.708-64.7777 48.6311-65.9275C57.8048-68.108 70.3221-69.4115 85.6296-69.4115C100.932-69.4115 113.483-68.108 122.628-65.9275C127.551-64.7726 128.825-62.2788 131.146-57.2817C136.047-46.6883 141.566-32.1184 144.983-20.6934C146.442-15.7747 147.06-12.4207 147.06-9.61445C147.06-4.07584 143.182-0.79816 138.134-0.79816C134.978-0.79816 131.708-2.40756 128.995-5.31968L118.29-16.5527C115.867-19.2065 113.907-20.3415 110.094-20.3415L61.1939-20.3415C57.3804-20.3415 55.4204-19.2065 52.9693-16.5527L42.2638-5.31968C39.6036-2.37902 36.3099-0.79816 33.125-0.79816C28.0775-0.79816 24.2282-4.07584 24.2282-9.61445Z"/>
  </g>
  <g id="Semibold-M" transform="matrix(1 0 0 1 1958.61 1126)">
   <path d="M44.6102-44.5405C44.6102-41.6753 46.4005-39.8843 49.3091-39.8843L57.1209-39.8843L57.1209-32.3508C57.1209-29.4429 58.8923-27.5792 61.7379-27.5792C64.5463-27.5792 66.3178-29.4429 66.3178-32.3508L66.3178-39.8843L73.7243-39.8843C76.8166-39.8843 78.7174-41.6753 78.7174-44.5405C78.7174-47.3315 76.8166-49.1226 73.7243-49.1226L66.3178-49.1226L66.3178-56.6561C66.3178-59.5639 64.5463-61.4276 61.7379-61.4276C58.8923-61.4276 57.1209-59.5639 57.1209-56.6561L57.1209-49.1226L49.3091-49.1226C46.4005-49.1226 44.6102-47.3315 44.6102-44.5405ZM115.242-44.8851C119.393-44.8851 122.608-48.0682 122.608-52.226C122.608-56.391 119.393-59.6293 115.242-59.6293C111.139-59.6293 107.869-56.391 107.869-52.226C107.869-48.0682 111.139-44.8851 115.242-44.8851ZM100.628-30.0956C104.786-30.0956 108.002-33.2669 108.002-37.4066C108.002-41.6015 104.786-44.8098 100.628-44.8098C96.5256-44.8098 93.2991-41.6015 93.2991-37.4066C93.2991-33.2669 96.5256-30.0956 100.628-30.0956ZM12.4609-9.29563C12.4609 2.90621 20.4907 10.3866 31.8797 10.3866C38.7776 10.3866 44.6935 7.49416 49.2547 2.39393L57.8266-7.33504C59.0459-8.70175 60.2002-9.35151 61.7367-9.35151L107.542-9.35151C109.108-9.35151 110.263-8.70175 111.489-7.33504L120.061 2.39393C124.603 7.47601 130.501 10.3866 137.399 10.3866C148.825 10.3866 156.855 2.90621 156.855-9.29563C156.855-14.535 155.744-20.4936 153.795-27.0256C150.768-37.1285 145.524-50.8064 140.529-61.3013C136.306-70.1886 133.858-74.7845 122.914-77.2437C113.351-79.4118 100.365-80.8171 84.6393-80.8171C68.9505-80.8171 55.9578-79.4118 46.4018-77.2437C35.4572-74.7845 33.0098-70.1886 28.7494-61.3013C23.7918-50.8064 18.5472-37.1285 15.5202-27.0256C13.5714-20.4936 12.4609-14.535 12.4609-9.29563ZM22.6717-9.58328C22.6717-12.487 23.3066-15.9735 24.7799-21.0482C28.1143-32.4047 33.7421-46.9475 38.6516-57.6056C40.9789-62.6854 42.2661-65.4439 47.7011-66.701C56.7679-68.8439 69.2882-70.2018 84.6393-70.2018C99.9833-70.2018 112.548-68.8439 121.577-66.701C127.012-65.4368 128.3-62.6854 130.664-57.6056C135.599-46.9475 141.09-32.3676 144.499-21.0482C146.009-15.9735 146.644-12.487 146.644-9.58328C146.644-3.59458 142.449 0.0298096 136.946 0.0298096C133.6 0.0298096 130.2-1.71218 127.435-4.8162L117.289-15.9972C114.909-18.7352 112.941-19.9669 108.87-19.9669L60.4456-19.9669C56.3746-19.9669 54.4061-18.7352 51.9896-15.9972L41.8433-4.8162C39.1263-1.69402 35.7154 0.0298096 32.3322 0.0298096C26.8292 0.0298096 22.6717-3.59458 22.6717-9.58328Z"/>
  </g>
  <g id="Medium-M" transform="matrix(1 0 0 1 1662.65 1126)">
   <path d="M44.1034-44.7404C44.1034-42.0173 45.7644-40.3334 48.5167-40.3334L56.7299-40.3334L56.7299-32.3668C56.7299-29.6373 58.3578-27.9123 61.0249-27.9123C63.6486-27.9123 65.2764-29.6373 65.2764-32.3668L65.2764-40.3334L73.0805-40.3334C76.0042-40.3334 77.7726-42.0173 77.7726-44.7404C77.7726-47.3767 76.0042-49.0606 73.0805-49.0606L65.2764-49.0606L65.2764-57.0273C65.2764-59.7567 63.6486-61.4817 61.0249-61.4817C58.3578-61.4817 56.7299-59.7567 56.7299-57.0273L56.7299-49.0606L48.5167-49.0606C45.7644-49.0606 44.1034-47.3767 44.1034-44.7404ZM114.391-45.2076C118.456-45.2076 121.61-48.3334 121.61-52.4073C121.61-56.4898 118.456-59.6692 114.391-59.6692C110.371-59.6692 107.164-56.4898 107.164-52.4073C107.164-48.3334 110.371-45.2076 114.391-45.2076ZM99.8757-30.5671C103.95-30.5671 107.103-33.6683 107.103-37.7319C107.103-41.8493 103.95-44.9939 99.8757-44.9939C95.8555-44.9939 92.7007-41.8493 92.7007-37.7319C92.7007-33.6683 95.8555-30.5671 99.8757-30.5671ZM12.4609-9.53201C12.4609 2.33833 20.2402 9.79329 31.5198 9.79329C37.888 9.79329 43.6554 7.09745 48.0392 2.01217L56.7314-8.15534C57.9582-9.57829 59.2514-10.266 60.7525-10.266L107.024-10.266C108.56-10.266 109.853-9.57829 111.089-8.15534L119.781 2.01217C124.132 7.08717 129.889 9.79329 136.257 9.79329C147.58 9.79329 155.359 2.33833 155.359-9.53201C155.359-14.5925 154.239-20.4116 152.321-26.8535C149.309-36.9028 144.074-50.5525 139.066-61.0766C134.869-69.9228 132.542-74.2666 121.874-76.6631C112.459-78.7964 99.5787-80.2179 83.8884-80.2179C68.2415-80.2179 55.3531-78.7964 45.9462-76.6631C35.2783-74.2666 32.9516-69.9228 28.7111-61.0766C23.746-50.5525 18.5108-36.9028 15.4996-26.8535C13.5807-20.4116 12.4609-14.5925 12.4609-9.53201ZM21.4915-9.55964C21.4915-12.5373 22.1391-16.1243 23.6458-21.3172C26.9607-32.6 32.6017-47.1441 37.5217-57.8513C39.8756-62.9936 41.1729-65.9491 46.996-67.2875C55.9817-69.4018 68.5041-70.8011 83.8884-70.8011C99.264-70.8011 111.838-69.4018 120.781-67.2875C126.604-65.9405 127.901-62.9936 130.299-57.8513C135.26-47.1441 140.729-32.5566 144.131-21.3172C145.681-16.1243 146.329-12.5373 146.329-9.55964C146.329-3.22967 141.894 0.657611 136.046 0.657611C132.556 0.657611 129.058-1.18491 126.252-4.43443L116.53-15.5761C114.183-18.3779 112.208-19.6827 107.942-19.6827L59.8783-19.6827C55.6119-19.6827 53.637-18.3779 51.2468-15.5761L41.5244-4.43443C38.7643-1.17463 35.2646 0.657611 31.731 0.657611C25.8827 0.657611 21.4915-3.22967 21.4915-9.55964Z"/>
  </g>
  <g id="Regular-M" transform="matrix(1 0 0 1 1366.91 1126)">
   <path d="M43.4425-45.0013C43.4425-42.4633 44.9348-40.9193 47.4833-40.9193L56.2199-40.9193L56.2199-32.3876C56.2199-29.8909 57.6605-28.3468 60.0949-28.3468C62.4776-28.3468 63.9181-29.8909 63.9181-32.3876L63.9181-40.9193L72.2408-40.9193C74.9445-40.9193 76.5403-42.4633 76.5403-45.0013C76.5403-47.4357 74.9445-48.9798 72.2408-48.9798L63.9181-48.9798L63.9181-57.5114C63.9181-60.0082 62.4776-61.5522 60.0949-61.5522C57.6605-61.5522 56.2199-60.0082 56.2199-57.5114L56.2199-48.9798L47.4833-48.9798C44.9348-48.9798 43.4425-47.4357 43.4425-45.0013ZM113.281-45.6283C117.235-45.6283 120.307-48.6793 120.307-52.6437C120.307-56.6186 117.235-59.7213 113.281-59.7213C109.368-59.7213 106.245-56.6186 106.245-52.6437C106.245-48.6793 109.368-45.6283 113.281-45.6283ZM98.8942-31.1822C102.859-31.1822 105.931-34.1919 105.931-38.1563C105.931-42.1725 102.859-45.2339 98.8942-45.2339C94.9815-45.2339 91.9201-42.1725 91.9201-38.1563C91.9201-34.1919 94.9815-31.1822 98.8942-31.1822ZM12.4609-9.84033C12.4609 1.59762 19.9134 9.01942 31.0504 9.01942C36.7276 9.01942 42.3014 6.57999 46.4537 1.51421L55.303-9.2253C56.5395-10.7216 58.0137-11.4587 59.4689-11.4587L106.349-11.4587C107.845-11.4587 109.32-10.7216 110.567-9.2253L119.416 1.51421C123.517 6.57999 129.09 9.01942 134.768 9.01942C145.956 9.01942 153.409 1.59762 153.409-9.84033C153.409-14.6674 152.277-20.3045 150.397-26.6289C147.406-36.6082 142.183-50.2213 137.157-60.7835C132.994-69.576 130.825-73.5911 120.518-75.9059C111.295-77.9936 98.553-79.4362 82.909-79.4362C67.3167-79.4362 54.5643-77.9936 45.3518-75.9059C35.0449-73.5911 32.8758-69.576 28.6612-60.7835C23.6863-50.2213 18.4633-36.6082 15.4727-26.6289C13.593-20.3045 12.4609-14.6674 12.4609-9.84033ZM19.9521-9.52881C19.9521-12.6028 20.6164-16.321 22.1664-21.6681C25.456-32.8549 31.1142-47.4005 36.0478-58.1717C38.4365-63.3957 39.7469-66.6079 46.0764-68.0525C54.9563-70.1296 67.4815-71.5827 82.909-71.5827C98.3259-71.5827 110.913-70.1296 119.742-68.0525C126.071-66.5974 127.381-63.3957 129.822-58.1717C134.818-47.4005 140.258-32.8031 143.652-21.6681C145.253-16.321 145.918-12.6028 145.918-9.52881C145.918-2.75369 141.17 1.47648 134.871 1.47648C131.193 1.47648 127.567-0.497168 124.709-3.93648L115.54-15.0267C113.236-17.9118 111.253-19.3122 106.731-19.3122L59.1382-19.3122C54.6171-19.3122 52.6339-17.9118 50.2779-15.0267L41.1085-3.93648C38.2923-0.497168 34.6766 1.47648 30.9469 1.47648C24.6481 1.47648 19.9521-2.75369 19.9521-9.52881Z"/>
  </g>
  <g id="Light-M" transform="matrix(1 0 0 1 1071.05 1126)">
   <path d="M42.9634-45.0355C42.9634-43.1307 44.1477-41.9117 46.0802-41.9117L56.2542-41.9117L56.2542-31.669C56.2542-29.7711 57.4038-28.5522 59.2394-28.5522C61.0403-28.5522 62.1899-29.7711 62.1899-31.669L62.1899-41.9117L72.0868-41.9117C74.1232-41.9117 75.3768-43.1307 75.3768-45.0355C75.3768-46.871 74.1232-48.09 72.0868-48.09L62.1899-48.09L62.1899-58.3328C62.1899-60.2306 61.0403-61.4496 59.2394-61.4496C57.4038-61.4496 56.2542-60.2306 56.2542-58.3328L56.2542-48.09L46.0802-48.09C44.1477-48.09 42.9634-46.871 42.9634-45.0355ZM112.289-46.0732C115.986-46.0732 118.887-48.9188 118.887-52.6437C118.887-56.3962 115.986-59.2764 112.289-59.2764C108.598-59.2764 105.663-56.3962 105.663-52.6437C105.663-48.9188 108.598-46.0732 112.289-46.0732ZM97.4055-31.4389C101.13-31.4389 104.031-34.2775 104.031-38.0023C104.031-41.7618 101.13-44.6351 97.4055-44.6351C93.7153-44.6351 90.8421-41.7618 90.8421-38.0023C90.8421-34.2775 93.7153-31.4389 97.4055-31.4389ZM12.4609-9.84033C12.4609 1.05007 19.5712 8.18099 30.1777 8.18099C35.5641 8.18099 40.8812 5.82711 44.8966 0.932442L53.9512-10.0466C55.2733-11.6456 56.7133-12.3656 58.3053-12.3656L105.836-12.3656C107.435-12.3656 108.875-11.6456 110.224-10.0466L119.279 0.932442C123.26 5.82711 128.577 8.18099 133.963 8.18099C144.605 8.18099 151.715 1.05007 151.715-9.84033C151.715-14.5134 150.566-19.9965 148.669-26.3723C145.678-36.3687 140.472-49.9304 135.377-60.6466C131.334-69.1482 129.285-72.804 119.44-75.0333C110.011-77.1723 97.2183-78.5293 82.0705-78.5293C66.9574-78.5293 54.1366-77.1723 44.7358-75.0333C34.8909-72.804 32.8416-69.1482 28.7638-60.6466C23.7034-49.9304 18.4975-36.3687 15.5069-26.3723C13.6101-19.9965 12.4609-14.5134 12.4609-9.84033ZM18.2581-9.52881C18.2581-12.6371 18.8882-16.4237 20.7291-22.7632C23.7963-33.1971 29.3347-47.4861 34.3881-58.5481C36.811-63.8577 38.3267-67.4292 45.2208-68.9936C54.2547-71.105 66.9853-72.4896 82.0705-72.4896C97.1281-72.4896 109.921-71.105 118.92-68.9936C125.814-67.4016 127.33-63.8577 129.788-58.5481C134.903-47.4861 140.276-33.1624 143.412-22.7632C145.288-16.4237 145.918-12.6371 145.918-9.52881C145.918-2.27459 140.947 2.34914 134.033 2.34914C130.149 2.34914 126.301 0.307046 123.255-3.35471L114.069-14.4449C111.867-17.1589 109.901-18.4053 106.03-18.4053L58.1458-18.4053C54.2749-18.4053 52.3088-17.1589 50.0725-14.4449L40.8861-3.35471C37.8474 0.307046 34.0264 2.34914 30.1084 2.34914C23.1937 2.34914 18.2581-2.27459 18.2581-9.52881Z"/>
  </g>
  <g id="Thin-M" transform="matrix(1 0 0 1 775.455 1126)">
   <path d="M42.3297-45.0808C42.3297-44.0133 43.1067-43.2243 44.2244-43.2243L56.2994-43.2243L56.2994-30.7185C56.2994-29.6127 57.0644-28.8237 58.1078-28.8237C59.1393-28.8237 59.9042-29.6127 59.9042-30.7185L59.9042-43.2243L71.8831-43.2243C73.0369-43.2243 73.8379-44.0133 73.8379-45.0808C73.8379-46.1242 73.0369-46.9132 71.8831-46.9132L59.9042-46.9132L59.9042-59.419C59.9042-60.5248 59.1393-61.3138 58.1078-61.3138C57.0644-61.3138 56.2994-60.5248 56.2994-59.419L56.2994-46.9132L44.2244-46.9132C43.1067-46.9132 42.3297-46.1242 42.3297-45.0808ZM110.976-46.6616C114.334-46.6616 117.008-49.2356 117.008-52.6437C117.008-56.102 114.334-58.688 110.976-58.688C107.58-58.688 104.893-56.102 104.893-52.6437C104.893-49.2356 107.58-46.6616 110.976-46.6616ZM95.4367-31.7783C98.8447-31.7783 101.519-34.3906 101.519-37.7986C101.519-41.2187 98.8447-43.843 95.4367-43.843C92.0407-43.843 89.4163-41.2187 89.4163-37.7986C89.4163-34.3906 92.0407-31.7783 95.4367-31.7783ZM12.4609-9.84033C12.4609 0.325892 19.1186 7.07209 29.0236 7.07209C34.0252 7.07209 39.0029 4.83137 42.8372 0.163002L52.1634-11.1329C53.5987-12.8677 54.9934-13.565 56.7664-13.565L105.157-13.565C106.892-13.565 108.286-12.8677 109.772-11.1329L119.098 0.163002C122.92 4.83137 127.898 7.07209 132.9 7.07209C142.817 7.07209 149.474 0.325892 149.474-9.84033C149.474-14.3098 148.303-19.5892 146.383-26.0328C143.393-36.0519 138.209-49.5457 133.024-60.4655C129.139-68.5824 127.248-71.763 118.014-73.8791C108.314-76.0861 95.4532-77.3299 80.9616-77.3299C66.4821-77.3299 53.5708-76.0861 43.9211-73.8791C34.6872-71.763 32.7963-68.5824 28.8996-60.4655C23.7261-49.5457 18.5428-36.0519 15.5521-26.0328C13.6327-19.5892 12.4609-14.3098 12.4609-9.84033ZM16.0177-9.52881C16.0177-12.6823 16.6025-16.5595 18.8282-24.2116C21.6011-33.6497 26.9811-47.5992 32.1929-59.046C34.6611-64.4687 36.4484-68.5155 44.0893-70.2383C53.3269-72.3949 66.329-73.689 80.9616-73.689C95.544-73.689 108.608-72.3949 117.834-70.2383C125.475-68.4652 127.262-64.4687 129.742-59.046C135.017-47.5992 140.298-33.6377 143.095-24.2116C145.333-16.5595 145.918-12.6823 145.918-9.52881C145.918-1.64093 140.653 3.5033 132.924 3.5033C128.769 3.5033 124.626 1.37068 121.331-2.58527L112.122-13.6755C110.056-16.1632 108.113-17.2059 105.102-17.2059L56.8332-17.2059C53.8223-17.2059 51.8788-16.1632 49.801-13.6755L40.5919-2.58527C37.259 1.37068 33.1664 3.5033 28.9995 3.5033C21.2701 3.5033 16.0177-1.64093 16.0177-9.52881Z"/>
  </g>
  <g id="Ultralight-M" transform="matrix(1 0 0 1 479.317 1126)">
   <path d="M42.0051-45.1039C42.0051-44.4653 42.5735-43.8966 43.274-43.8966L56.3226-43.8966L56.3226-30.2316C56.3226-29.5316 56.8905-28.9628 57.5283-28.9628C58.1656-28.9628 58.7335-29.5316 58.7335-30.2316L58.7335-43.8966L71.7788-43.8966C72.4806-43.8966 73.0497-44.4653 73.0497-45.1039C73.0497-45.7417 72.4806-46.3105 71.7788-46.3105L58.7335-46.3105L58.7335-59.9754C58.7335-60.6755 58.1656-61.2442 57.5283-61.2442C56.8905-61.2442 56.3226-60.6755 56.3226-59.9754L56.3226-46.3105L43.274-46.3105C42.5735-46.3105 42.0051-45.7417 42.0051-45.1039ZM110.304-46.963C113.488-46.963 116.046-49.3979 116.046-52.6437C116.046-55.9513 113.488-58.3866 110.304-58.3866C107.058-58.3866 104.499-55.9513 104.499-52.6437C104.499-49.3979 107.058-46.963 110.304-46.963ZM94.4282-31.9522C97.6739-31.9522 100.233-34.4486 100.233-37.6943C100.233-40.9405 97.6739-43.4373 94.4282-43.4373C91.1829-43.4373 88.6861-40.9405 88.6861-37.6943C88.6861-34.4486 91.1829-31.9522 94.4282-31.9522ZM12.4609-9.84033C12.4609-0.0450294 18.8867 6.50412 28.4324 6.50412C33.237 6.50412 38.0408 4.32135 41.7824-0.231102L51.2477-11.6893C52.7409-13.4936 54.1125-14.1794 55.9782-14.1794L104.809-14.1794C106.613-14.1794 107.985-13.4936 109.54-11.6893L119.005-0.231102C122.747 4.32135 127.55 6.50412 132.355 6.50412C141.901 6.50412 148.327-0.0450294 148.327-9.84033C148.327-14.2054 147.143-19.3805 145.212-25.8589C142.222-35.8896 137.05-49.3487 131.818-60.3728C128.015-68.2926 126.205-71.2298 117.284-73.288C107.445-75.5297 94.549-76.7156 80.3937-76.7156C66.2387-76.7156 53.281-75.5297 43.5038-73.288C34.5829-71.2298 32.7731-68.2926 28.9692-60.3728C23.7377-49.3487 18.566-35.8896 15.5753-25.8589C13.6443-19.3805 12.4609-14.2054 12.4609-9.84033ZM14.8702-9.52881C14.8702-12.7055 15.4318-16.629 17.8545-24.9534C20.4768-33.8815 25.7756-47.6572 31.0686-59.301C33.5599-64.7817 35.4863-69.0719 43.5097-70.8758C52.8516-73.0556 65.9929-74.3034 80.3937-74.3034C94.7326-74.3034 107.936-73.0556 117.278-70.8758C125.301-69.01 127.227-64.7817 129.719-59.301C135.074-47.6572 140.31-33.8811 142.933-24.9534C145.356-16.629 145.918-12.7055 145.918-9.52881C145.918-1.31637 140.503 4.09446 132.356 4.09446C128.062 4.09446 123.768 1.91547 120.346-2.19116L111.125-13.2814C109.129-15.6532 107.197-16.5915 104.627-16.5915L56.1609-16.5915C53.5904-16.5915 51.6586-15.6532 49.6619-13.2814L40.4412-2.19116C36.9576 1.91547 32.726 4.09446 28.4316 4.09446C20.2848 4.09446 14.8702-1.31637 14.8702-9.52881Z"/>
  </g>
  <g id="Black-S" transform="matrix(1 0 0 1 2863.82 696)">
   <path d="M37.1582-41.6504C37.1582-38.8184 39.1113-36.9629 42.041-36.9629L46.4844-36.9629L46.4844-32.8613C46.4844-29.834 48.4863-27.7832 51.4648-27.7832C54.4434-27.7832 56.4453-29.834 56.4453-32.8613L56.4453-36.9629L60.5957-36.9629C63.7207-36.9629 65.7715-38.8184 65.7715-41.6504C65.7715-44.4824 63.7207-46.3379 60.5957-46.3379L56.4453-46.3379L56.4453-50.4395C56.4453-53.4668 54.4434-55.5176 51.4648-55.5176C48.4863-55.5176 46.4844-53.4668 46.4844-50.4395L46.4844-46.3379L42.041-46.3379C39.1113-46.3379 37.1582-44.4824 37.1582-41.6504ZM93.9941-41.4062C97.6074-41.4062 100.391-44.1406 100.391-47.7539C100.391-51.3672 97.6074-54.1504 93.9941-54.1504C90.4297-54.1504 87.5977-51.3672 87.5977-47.7539C87.5977-44.1406 90.4297-41.4062 93.9941-41.4062ZM82.0801-29.1504C85.6934-29.1504 88.4766-31.9336 88.4766-35.498C88.4766-39.1113 85.6934-41.8945 82.0801-41.8945C78.5156-41.8945 75.6836-39.1113 75.6836-35.498C75.6836-31.9336 78.5156-29.1504 82.0801-29.1504ZM9.76562-13.8672C9.76562-2.88086 17.1387 3.07617 26.5137 3.07617C34.2285 3.07617 39.502-0.0488281 43.8477-4.10156L50.0488-9.81445C50.9766-10.6445 51.2695-10.9863 52.6367-10.9863L86.5234-10.9863C87.8906-10.9863 88.1836-10.6445 89.1113-9.81445L95.3125-4.10156C99.707-0.0976562 104.932 3.07617 112.646 3.07617C122.021 3.07617 129.395-2.88086 129.395-13.8672C129.395-18.75 128.564-24.0234 126.904-29.541C124.463-37.6953 120.312-48.5352 116.455-56.6406C113.037-63.7695 110.596-68.457 100.83-70.6543C92.6758-72.5098 82.0312-73.5352 69.5801-73.5352C57.1289-73.5352 46.4844-72.5098 38.3301-70.6543C28.5645-68.457 26.123-63.7695 22.7051-56.6406C18.8477-48.5352 14.6973-37.6953 12.2559-29.541C10.5957-24.0234 9.76562-18.75 9.76562-13.8672ZM22.8516-15.2344C22.8516-17.1875 23.291-19.4824 24.3164-22.998C27.002-32.1777 31.3477-43.5547 35.1562-51.709C36.8652-55.4199 37.8418-56.7383 40.4297-57.373C47.9004-59.1797 57.7148-60.0586 69.5801-60.0586C81.4453-60.0586 91.2598-59.1797 98.7305-57.373C101.318-56.7383 102.295-55.4199 104.004-51.709C107.764-43.5547 112.158-32.1777 114.844-22.998C115.869-19.4824 116.309-17.1875 116.309-15.2344C116.309-12.0117 114.062-10.3027 111.23-10.3027C109.229-10.3027 106.982-11.2305 104.98-13.0371L95.166-21.9727C93.1641-23.8281 91.6504-24.4629 89.3555-24.4629L49.8047-24.4629C47.5098-24.4629 45.9961-23.8281 43.9941-21.9727L34.1797-13.0371C32.2266-11.1816 29.9316-10.3027 27.9297-10.3027C25.0977-10.3027 22.8516-12.0117 22.8516-15.2344Z"/>
  </g>
  <g id="Heavy-S" transform="matrix(1 0 0 1 2568.09 696)">
   <path d="M36.4783-41.9385C36.4783-39.2332 38.2816-37.493 41.0614-37.493L45.9082-37.493L45.9082-32.9766C45.9082-30.1336 47.7372-28.2442 50.5314-28.2442C53.314-28.2442 55.143-30.1336 55.143-32.9766L55.143-37.493L59.6737-37.493C62.6374-37.493 64.5384-39.2332 64.5384-41.9385C64.5384-44.6207 62.6374-46.3609 59.6737-46.3609L55.143-46.3609L55.143-50.8774C55.143-53.7203 53.314-55.6098 50.5314-55.6098C47.7372-55.6098 45.9082-53.7203 45.9082-50.8774L45.9082-46.3609L41.0614-46.3609C38.2816-46.3609 36.4783-44.6207 36.4783-41.9385ZM92.8763-41.8211C96.3974-41.8211 99.1114-44.4979 99.1114-48.019C99.1114-51.5401 96.3974-54.2656 92.8763-54.2656C89.404-54.2656 86.6411-51.5401 86.6411-48.019C86.6411-44.4979 89.404-41.8211 92.8763-41.8211ZM81.1696-29.8073C84.6907-29.8073 87.4048-32.5098 87.4048-35.9936C87.4048-39.5262 84.6907-42.2403 81.1696-42.2403C77.6974-42.2403 74.946-39.5262 74.946-35.9936C74.946-32.5098 77.6974-29.8073 81.1696-29.8073ZM9.76562-14.2129C9.76562-3.64147 16.816 2.31556 26.0988 2.31556C33.0761 2.31556 38.1651-0.532856 42.2688-4.58559L48.6198-10.9093C49.5475-11.8085 50.0479-12.2079 51.346-12.2079L85.832-12.2079C87.1415-12.2079 87.6419-11.8085 88.5697-10.9093L94.9207-4.58559C99.0501-0.570159 104.102 2.31556 111.079 2.31556C120.373 2.31556 127.424-3.64147 127.424-14.2129C127.424-18.8537 126.582-23.9428 124.968-29.3221C122.55-37.3957 118.411-48.2009 114.542-56.3295C111.147-63.4353 108.867-67.8001 99.4471-69.9167C91.5349-71.7146 81.0517-72.7745 68.589-72.7745C56.1378-72.7745 45.6546-71.7146 37.7423-69.9167C28.3224-67.8001 26.0424-63.4353 22.6359-56.3295C18.7785-48.2009 14.6396-37.3957 12.2213-29.3221C10.6072-23.9428 9.76562-18.8537 9.76562-14.2129ZM21.3419-15.1998C21.3419-17.2566 21.8044-19.6899 22.8413-23.2516C25.5268-32.4197 29.9071-43.8313 33.7157-52.0201C35.4592-55.8118 36.4243-57.3721 39.5077-58.1106C46.8401-59.8712 56.6315-60.8192 68.589-60.8192C80.5464-60.8192 90.3493-59.8712 97.6702-58.1106C100.754-57.3721 101.719-55.8118 103.474-52.0201C107.257-43.8313 111.628-32.4082 114.337-23.2516C115.385-19.6899 115.848-17.2566 115.848-15.1998C115.848-11.5392 113.279-9.49602 110.02-9.49602C107.834-9.49602 105.473-10.562 103.436-12.5531L94.2441-21.431C92.2767-23.4017 90.7515-24.1633 88.0878-24.1633L49.1017-24.1633C46.438-24.1633 44.9128-23.4017 42.9339-21.431L33.7418-12.5531C31.7541-10.5247 29.3554-9.49602 27.1575-9.49602C23.8991-9.49602 21.3419-11.5392 21.3419-15.1998Z"/>
  </g>
  <g id="Bold-S" transform="matrix(1 0 0 1 2272.49 696)">
   <path d="M35.7178-42.2607C35.7178-39.6973 37.3535-38.0859 39.9658-38.0859L45.2637-38.0859L45.2637-33.1055C45.2637-30.4688 46.8994-28.7598 49.4873-28.7598C52.0508-28.7598 53.6865-30.4688 53.6865-33.1055L53.6865-38.0859L58.6426-38.0859C61.4258-38.0859 63.1592-39.6973 63.1592-42.2607C63.1592-44.7754 61.4258-46.3867 58.6426-46.3867L53.6865-46.3867L53.6865-51.3672C53.6865-54.0039 52.0508-55.7129 49.4873-55.7129C46.8994-55.7129 45.2637-54.0039 45.2637-51.3672L45.2637-46.3867L39.9658-46.3867C37.3535-46.3867 35.7178-44.7754 35.7178-42.2607ZM91.626-42.2852C95.0439-42.2852 97.6807-44.8975 97.6807-48.3154C97.6807-51.7334 95.0439-54.3945 91.626-54.3945C88.2568-54.3945 85.5713-51.7334 85.5713-48.3154C85.5713-44.8975 88.2568-42.2852 91.626-42.2852ZM80.1514-30.542C83.5693-30.542 86.2061-33.1543 86.2061-36.5479C86.2061-39.9902 83.5693-42.627 80.1514-42.627C76.7822-42.627 74.1211-39.9902 74.1211-36.5479C74.1211-33.1543 76.7822-30.542 80.1514-30.542ZM9.76562-14.5996C9.76562-4.49219 16.4551 1.46484 25.6348 1.46484C31.7871 1.46484 36.6699-1.07422 40.5029-5.12695L47.0215-12.1338C47.9492-13.1104 48.6816-13.5742 49.9023-13.5742L85.0586-13.5742C86.3037-13.5742 87.0361-13.1104 87.9639-12.1338L94.4824-5.12695C98.3154-1.09863 103.174 1.46484 109.326 1.46484C118.53 1.46484 125.22-4.49219 125.22-14.5996C125.22-18.9697 124.365-23.8525 122.803-29.0771C120.41-37.0605 116.284-47.8271 112.402-55.9814C109.033-63.0615 106.934-67.0654 97.9004-69.0918C90.2588-70.8252 79.9561-71.9238 67.4805-71.9238C55.0293-71.9238 44.7266-70.8252 37.085-69.0918C28.0518-67.0654 25.9521-63.0615 22.5586-55.9814C18.7012-47.8271 14.5752-37.0605 12.1826-29.0771C10.6201-23.8525 9.76562-18.9697 9.76562-14.5996ZM19.6533-15.1611C19.6533-17.334 20.1416-19.9219 21.1914-23.5352C23.877-32.6904 28.2959-44.1406 32.1045-52.3682C33.8867-56.25 34.8389-58.0811 38.4766-58.9355C45.6543-60.6445 55.4199-61.6699 67.4805-61.6699C79.541-61.6699 89.3311-60.6445 96.4844-58.9355C100.122-58.0811 101.074-56.25 102.881-52.3682C106.689-44.1406 111.035-32.666 113.77-23.5352C114.844-19.9219 115.332-17.334 115.332-15.1611C115.332-11.0107 112.402-8.59375 108.667-8.59375C106.274-8.59375 103.784-9.81445 101.709-12.0117L93.2129-20.8252C91.2842-22.9248 89.7461-23.8281 86.6699-23.8281L48.3154-23.8281C45.2393-23.8281 43.7012-22.9248 41.748-20.8252L33.252-12.0117C31.2256-9.79004 28.7109-8.59375 26.2939-8.59375C22.5586-8.59375 19.6533-11.0107 19.6533-15.1611Z"/>
  </g>
  <g id="Semibold-S" transform="matrix(1 0 0 1 1976.53 696)">
   <path d="M35.1935-42.4829C35.1935-40.0172 36.7137-38.4947 39.2104-38.4947L44.8193-38.4947L44.8193-33.1943C44.8193-30.6998 46.3218-29.1152 48.7675-29.1152C51.1799-29.1152 52.6823-30.6998 52.6823-33.1943L52.6823-38.4947L57.9316-38.4947C60.5904-38.4947 62.2083-40.0172 62.2083-42.4829C62.2083-44.882 60.5904-46.4045 57.9316-46.4045L52.6823-46.4045L52.6823-51.7049C52.6823-54.1994 51.1799-55.784 48.7675-55.784C46.3218-55.784 44.8193-54.1994 44.8193-51.7049L44.8193-46.4045L39.2104-46.4045C36.7137-46.4045 35.1935-44.882 35.1935-42.4829ZM90.764-42.6051C94.1108-42.6051 96.6942-45.1729 96.6942-48.5198C96.6942-51.8667 94.1108-54.4834 90.764-54.4834C87.4659-54.4834 84.8337-51.8667 84.8337-48.5198C84.8337-45.1729 87.4659-42.6051 90.764-42.6051ZM79.4493-31.0485C82.7962-31.0485 85.3796-33.5986 85.3796-36.93C85.3796-40.3102 82.7962-42.8936 79.4493-42.8936C76.1513-42.8936 73.5523-40.3102 73.5523-36.93C73.5523-33.5986 76.1513-31.0485 79.4493-31.0485ZM9.76562-14.8662C9.76562-5.07871 16.2063 0.87832 25.3148 0.87832C30.8984 0.87832 35.6391-1.44746 39.2854-5.5002L45.9195-12.978C46.8473-14.0079 47.7396-14.5162 48.907-14.5162L84.5254-14.5162C85.7261-14.5162 86.6185-14.0079 87.5462-12.978L94.1803-5.5002C97.8089-1.46299 102.534 0.87832 108.118 0.87832C117.259 0.87832 123.7-5.07871 123.7-14.8662C123.7-19.0497 122.837-23.7903 121.31-28.9083C118.935-36.8295 114.818-47.5694 110.927-55.7415C107.576-62.8038 105.601-66.5589 96.834-68.523C89.379-70.212 79.2007-71.3373 66.7162-71.3373C54.265-71.3373 44.0867-70.212 36.6317-68.523C27.8651-66.5589 25.8899-62.8038 22.5053-55.7415C18.6479-47.5694 14.5308-36.8295 12.156-28.9083C10.629-23.7903 9.76562-19.0497 9.76562-14.8662ZM18.4892-15.1345C18.4892-17.3873 18.9952-20.0818 20.0539-23.7307C22.7395-32.8771 27.1851-44.3539 30.9937-52.6081C32.8025-56.5521 33.7458-58.5698 37.7656-59.5043C44.8367-61.1777 54.5846-62.2564 66.7162-62.2564C78.8479-62.2564 88.629-61.1777 95.6668-59.5043C99.6866-58.5698 100.63-56.5521 102.472-52.6081C106.298-44.3539 110.626-32.8438 113.379-23.7307C114.471-20.0818 114.977-17.3873 114.977-15.1345C114.977-10.6464 111.798-7.97168 107.734-7.97168C105.199-7.97168 102.62-9.29902 100.518-11.6385L92.502-20.4075C90.5999-22.596 89.0529-23.5971 85.6924-23.5971L47.7733-23.5971C44.4128-23.5971 42.8658-22.596 40.9305-20.4075L32.9143-11.6385C30.8612-9.2835 28.2666-7.97168 25.6985-7.97168C21.6344-7.97168 18.4892-10.6464 18.4892-15.1345Z"/>
  </g>
  <g id="Medium-S" transform="matrix(1 0 0 1 1680.4 696)">
   <path d="M34.7959-42.6514C34.7959-40.2598 36.2285-38.8047 38.6377-38.8047L44.4824-38.8047L44.4824-33.2617C44.4824-30.875 45.8838-29.3848 48.2217-29.3848C50.5195-29.3848 51.9209-30.875 51.9209-33.2617L51.9209-38.8047L57.3926-38.8047C59.957-38.8047 61.4873-40.2598 61.4873-42.6514C61.4873-44.9629 59.957-46.418 57.3926-46.418L51.9209-46.418L51.9209-51.9609C51.9209-54.3477 50.5195-55.8379 48.2217-55.8379C45.8838-55.8379 44.4824-54.3477 44.4824-51.9609L44.4824-46.418L38.6377-46.418C36.2285-46.418 34.7959-44.9629 34.7959-42.6514ZM90.1104-42.8477C93.4033-42.8477 95.9463-45.3818 95.9463-48.6748C95.9463-51.9678 93.4033-54.5508 90.1104-54.5508C86.8662-54.5508 84.2744-51.9678 84.2744-48.6748C84.2744-45.3818 86.8662-42.8477 90.1104-42.8477ZM78.917-31.4326C82.21-31.4326 84.7529-33.9355 84.7529-37.2197C84.7529-40.5527 82.21-43.0957 78.917-43.0957C75.6729-43.0957 73.1211-40.5527 73.1211-37.2197C73.1211-33.9355 75.6729-31.4326 78.917-31.4326ZM9.76562-15.0684C9.76562-5.52344 16.0176 0.433594 25.0723 0.433594C30.2246 0.433594 34.8574-1.73047 38.3623-5.7832L45.084-13.6182C46.0117-14.6885 47.0254-15.2305 48.1523-15.2305L84.1211-15.2305C85.2881-15.2305 86.3018-14.6885 87.2295-13.6182L93.9512-5.7832C97.4248-1.73926 102.049 0.433594 107.201 0.433594C116.296 0.433594 122.548-5.52344 122.548-15.0684C122.548-19.1104 121.678-23.7432 120.178-28.7803C117.816-36.6543 113.706-47.374 109.809-55.5596C106.471-62.6084 104.59-66.1748 96.0254-68.0918C88.7119-69.7471 78.6279-70.8926 66.1367-70.8926C53.6855-70.8926 43.6016-69.7471 36.2881-68.0918C27.7236-66.1748 25.8428-62.6084 22.4648-55.5596C18.6074-47.374 14.4971-36.6543 12.1357-28.7803C10.6357-23.7432 9.76562-19.1104 9.76562-15.0684ZM17.6064-15.1143C17.6064-17.4277 18.126-20.2031 19.1914-23.8789C21.877-33.0186 26.3428-44.5156 30.1514-52.79C31.9805-56.7812 32.917-58.9404 37.2266-59.9355C44.2168-61.582 53.9512-62.7012 66.1367-62.7012C78.3223-62.7012 88.0967-61.582 95.0469-59.9355C99.3564-58.9404 100.293-56.7812 102.162-52.79C106.002-44.5156 110.316-32.9785 113.082-23.8789C114.188-20.2031 114.707-17.4277 114.707-15.1143C114.707-10.3701 111.34-7.5 107.026-7.5C104.384-7.5 101.737-8.9082 99.6152-11.3555L91.9629-20.0908C90.0811-22.3467 88.5273-23.4219 84.9512-23.4219L47.3623-23.4219C43.7861-23.4219 42.2324-22.3467 40.3105-20.0908L32.6582-11.3555C30.585-8.89941 27.9297-7.5 25.2471-7.5C20.9336-7.5 17.6064-10.3701 17.6064-15.1143Z"/>
  </g>
  <g id="Regular-S" transform="matrix(1 0 0 1 1384.44 696)">
   <path d="M34.2773-42.8711C34.2773-40.5762 35.5957-39.209 37.8906-39.209L44.043-39.209L44.043-33.3496C44.043-31.1035 45.3125-29.7363 47.5098-29.7363C49.6582-29.7363 50.9277-31.1035 50.9277-33.3496L50.9277-39.209L56.6895-39.209C59.1309-39.209 60.5469-40.5762 60.5469-42.8711C60.5469-45.0684 59.1309-46.4355 56.6895-46.4355L50.9277-46.4355L50.9277-52.2949C50.9277-54.541 49.6582-55.9082 47.5098-55.9082C45.3125-55.9082 44.043-54.541 44.043-52.2949L44.043-46.4355L37.8906-46.4355C35.5957-46.4355 34.2773-45.0684 34.2773-42.8711ZM89.2578-43.1641C92.4805-43.1641 94.9707-45.6543 94.9707-48.877C94.9707-52.0996 92.4805-54.6387 89.2578-54.6387C86.084-54.6387 83.5449-52.0996 83.5449-48.877C83.5449-45.6543 86.084-43.1641 89.2578-43.1641ZM78.2227-31.9336C81.4453-31.9336 83.9355-34.375 83.9355-37.5977C83.9355-40.8691 81.4453-43.3594 78.2227-43.3594C75.0488-43.3594 72.5586-40.8691 72.5586-37.5977C72.5586-34.375 75.0488-31.9336 78.2227-31.9336ZM9.76562-15.332C9.76562-6.10352 15.7715-0.146484 24.7559-0.146484C29.3457-0.146484 33.8379-2.09961 37.1582-6.15234L43.9941-14.4531C44.9219-15.5762 46.0938-16.1621 47.168-16.1621L83.5938-16.1621C84.7168-16.1621 85.8887-15.5762 86.8164-14.4531L93.6523-6.15234C96.9238-2.09961 101.416-0.146484 106.006-0.146484C115.039-0.146484 121.045-6.10352 121.045-15.332C121.045-19.1895 120.166-23.6816 118.701-28.6133C116.357-36.4258 112.256-47.1191 108.35-55.3223C105.029-62.3535 103.271-65.6738 94.9707-67.5293C87.8418-69.1406 77.8809-70.3125 65.3809-70.3125C52.9297-70.3125 42.9688-69.1406 35.8398-67.5293C27.5391-65.6738 25.7812-62.3535 22.4121-55.3223C18.5547-47.1191 14.4531-36.4258 12.1094-28.6133C10.6445-23.6816 9.76562-19.1895 9.76562-15.332ZM16.4551-15.0879C16.4551-17.4805 16.9922-20.3613 18.0664-24.0723C20.752-33.2031 25.2441-44.7266 29.0527-53.0273C30.9082-57.0801 31.8359-59.4238 36.5234-60.498C43.4082-62.1094 53.125-63.2812 65.3809-63.2812C77.6367-63.2812 87.4023-62.1094 94.2383-60.498C98.9258-59.4238 99.8535-57.0801 101.758-53.0273C105.615-44.7266 109.912-33.1543 112.695-24.0723C113.818-20.3613 114.355-17.4805 114.355-15.0879C114.355-10.0098 110.742-6.88477 106.104-6.88477C103.32-6.88477 100.586-8.39844 98.4375-10.9863L91.2598-19.6777C89.4043-22.0215 87.8418-23.1934 83.9844-23.1934L46.8262-23.1934C42.9688-23.1934 41.4062-22.0215 39.502-19.6777L32.3242-10.9863C30.2246-8.39844 27.4902-6.88477 24.6582-6.88477C20.0195-6.88477 16.4551-10.0098 16.4551-15.0879Z"/>
  </g>
  <g id="Light-S" transform="matrix(1 0 0 1 1088.48 696)">
   <path d="M33.8535-42.9014C33.8535-41.1665 34.8994-40.0869 36.6494-40.0869L44.0732-40.0869L44.0732-32.7139C44.0732-30.9976 45.0855-29.918 46.7529-29.918C48.3867-29.918 49.3989-30.9976 49.3989-32.7139L49.3989-40.0869L56.5532-40.0869C58.4043-40.0869 59.5176-41.1665 59.5176-42.9014C59.5176-44.5689 58.4043-45.6484 56.5532-45.6484L49.3989-45.6484L49.3989-53.0215C49.3989-54.7378 48.3867-55.8174 46.7529-55.8174C45.0855-55.8174 44.0732-54.7378 44.0732-53.0215L44.0732-45.6484L36.6494-45.6484C34.8994-45.6484 33.8535-44.5689 33.8535-42.9014ZM88.3799-43.5576C91.3755-43.5576 93.7144-45.8662 93.7144-48.877C93.7144-51.9028 91.3755-54.2451 88.3799-54.2451C85.4028-54.2451 83.0303-51.9028 83.0303-48.877C83.0303-45.8662 85.4028-43.5576 88.3799-43.5576ZM76.9058-32.1606C79.9165-32.1606 82.2554-34.4507 82.2554-37.4614C82.2554-40.5059 79.9165-42.8296 76.9058-42.8296C73.9287-42.8296 71.605-40.5059 71.605-37.4614C71.605-34.4507 73.9287-32.1606 76.9058-32.1606ZM9.76562-15.332C9.76562-6.58789 15.4688-0.888178 23.9839-0.888178C28.3164-0.888178 32.5816-2.76562 35.7808-6.66699L42.7983-15.1797C43.8018-16.3935 44.9434-16.9643 46.1387-16.9643L83.1397-16.9643C84.3535-16.9643 85.4951-16.3935 86.5137-15.1797L93.5313-6.66699C96.6968-2.76562 100.962-0.888178 105.294-0.888178C113.843-0.888178 119.546-6.58789 119.546-15.332C119.546-19.0532 118.652-23.4092 117.172-28.3862C114.829-36.2139 110.742-46.8618 106.775-55.2012C103.561-61.9751 101.909-64.9775 94.0171-66.7573C86.7066-68.4141 76.7002-69.5103 64.6392-69.5103C52.6118-69.5103 42.5903-68.4141 35.2949-66.7573C27.4028-64.9775 25.751-61.9751 22.5029-55.2012C18.5698-46.8618 14.4834-36.2139 12.1396-28.3862C10.6597-23.4092 9.76562-19.0532 9.76562-15.332ZM14.9566-15.0879C14.9566-17.5107 15.4634-20.4521 16.7949-25.041C19.2837-33.5059 23.6699-44.8022 27.5845-53.3603C29.4702-57.4888 30.5796-60.1504 35.7666-61.3306C42.7876-62.9722 52.686-64.0835 64.6392-64.0835C76.5772-64.0835 86.5244-62.9722 93.5117-61.3306C98.6987-60.1352 99.8081-57.4888 101.728-53.3603C105.691-44.8022 109.927-33.4722 112.483-25.041C113.849-20.4521 114.355-17.5107 114.355-15.0879C114.355-9.58594 110.545-6.1128 105.362-6.1128C102.397-6.1128 99.4658-7.68702 97.1509-10.4717L89.958-19.1631C88.1934-21.3555 86.646-22.3911 83.3638-22.3911L45.9482-22.3911C42.666-22.3911 41.1187-21.3555 39.3203-19.1631L32.1274-10.4717C29.8311-7.68702 26.915-6.1128 23.9165-6.1128C18.7329-6.1128 14.9566-9.58594 14.9566-15.0879Z"/>
  </g>
  <g id="Thin-S" transform="matrix(1 0 0 1 792.757 696)">
   <path d="M33.293-42.9414C33.293-41.9473 33.9785-41.248 35.0078-41.248L44.1133-41.248L44.1133-31.8731C44.1133-30.8574 44.7852-30.1582 45.752-30.1582C46.7051-30.1582 47.377-30.8574 47.377-31.8731L47.377-41.248L56.373-41.248C57.4434-41.248 58.1563-41.9473 58.1563-42.9414C58.1563-43.9082 57.4434-44.6074 56.373-44.6074L47.377-44.6074L47.377-53.9824C47.377-54.998 46.7051-55.6973 45.752-55.6973C44.7852-55.6973 44.1133-54.998 44.1133-53.9824L44.1133-44.6074L35.0078-44.6074C33.9785-44.6074 33.293-43.9082 33.293-42.9414ZM87.2188-44.0781C89.9141-44.0781 92.0528-46.1465 92.0528-48.877C92.0528-51.6426 89.9141-53.7246 87.2188-53.7246C84.502-53.7246 82.3496-51.6426 82.3496-48.877C82.3496-46.1465 84.502-44.0781 87.2188-44.0781ZM75.1641-32.4609C77.8946-32.4609 80.0332-34.5508 80.0332-37.2813C80.0332-40.0254 77.8946-42.1289 75.1641-42.1289C72.4473-42.1289 70.3438-40.0254 70.3438-37.2813C70.3438-34.5508 72.4473-32.4609 75.1641-32.4609ZM9.76562-15.332C9.76562-7.22851 15.0684-1.86913 22.9629-1.86913C26.9551-1.86913 30.9199-3.64647 33.959-7.34765L41.2168-16.1406C42.3203-17.4746 43.4219-18.0254 44.7774-18.0254L82.5391-18.0254C83.8731-18.0254 84.9746-17.4746 86.1133-16.1406L93.3711-7.34765C96.3965-3.64647 100.361-1.86913 104.354-1.86913C112.262-1.86913 117.564-7.22851 117.564-15.332C117.564-18.873 116.65-23.0488 115.15-28.0859C112.807-35.9336 108.74-46.5215 104.693-55.041C101.619-61.4746 100.107-64.0567 92.7559-65.7363C85.2051-67.4531 75.1387-68.4492 63.6582-68.4492C52.1914-68.4492 42.0899-67.4531 34.5742-65.7363C27.2227-64.0567 25.7109-61.4746 22.623-55.041C18.5898-46.5215 14.5234-35.9336 12.1797-28.0859C10.6797-23.0488 9.76562-18.873 9.76562-15.332ZM12.9746-15.0879C12.9746-17.5508 13.4414-20.5723 15.1133-26.3222C17.3418-33.9062 21.5879-44.9023 25.6426-53.8008C27.5684-58.0293 28.918-61.1113 34.7656-62.4316C41.9668-64.1133 52.1055-65.1445 63.6582-65.1445C75.1758-65.1445 85.3633-64.1133 92.5508-62.4316C98.3984-61.0762 99.748-58.0293 101.688-53.8008C105.791-44.9023 109.947-33.8926 112.203-26.3222C113.889-20.5723 114.355-17.5508 114.355-15.0879C114.355-9.0254 110.285-5.09181 104.381-5.09181C101.176-5.09181 97.9844-6.74611 95.4492-9.79103L88.2364-18.4824C86.5918-20.4746 85.0645-21.3301 82.543-21.3301L44.7871-21.3301C42.2656-21.3301 40.7383-20.4746 39.0801-18.4824L31.8672-9.79103C29.3106-6.74611 26.1543-5.09181 22.9356-5.09181C17.0313-5.09181 12.9746-9.0254 12.9746-15.0879Z"/>
  </g>
  <g id="Ultralight-S" transform="matrix(1 0 0 1 496.554 696)">
   <path d="M33.0059-42.9619C33.0059-42.3472 33.5069-41.8428 34.167-41.8428L44.1338-41.8428L44.1338-31.4424C44.1338-30.7856 44.6314-30.2812 45.2393-30.2812C45.8438-30.2812 46.3413-30.7856 46.3413-31.4424L46.3413-41.8428L56.2808-41.8428C56.9512-41.8428 57.459-42.3472 57.459-42.9619C57.459-43.5698 56.9512-44.0742 56.2808-44.0742L46.3413-44.0742L46.3413-54.4746C46.3413-55.1313 45.8438-55.6357 45.2393-55.6357C44.6314-55.6357 44.1338-55.1313 44.1338-54.4746L44.1338-44.0742L34.167-44.0742C33.5069-44.0742 33.0059-43.5698 33.0059-42.9619ZM86.624-44.3447C89.1656-44.3447 91.2017-46.29 91.2017-48.877C91.2017-51.5093 89.1656-53.458 86.624-53.458C84.0405-53.458 82.001-51.5093 82.001-48.877C82.001-46.29 84.0405-44.3447 86.624-44.3447ZM74.272-32.6147C76.8589-32.6147 78.8951-34.602 78.8951-37.189C78.8951-39.7793 76.8589-41.77 74.272-41.77C71.6885-41.77 69.6978-39.7793 69.6978-37.189C69.6978-34.602 71.6885-32.6147 74.272-32.6147ZM9.76562-15.332C9.76562-7.55663 14.8633-2.37156 22.44-2.37156C26.2578-2.37156 30.0689-4.09764 33.0259-7.69628L40.4068-16.6328C41.5615-18.0283 42.6426-18.5688 44.0801-18.5688L82.2315-18.5688C83.627-18.5688 84.708-18.0283 85.9082-16.6328L93.2891-7.69628C96.2427-4.09764 100.054-2.37156 103.872-2.37156C111.452-2.37156 116.549-7.55663 116.549-15.332C116.549-18.7808 115.625-22.8643 114.115-27.9321C111.771-35.79 107.715-46.3472 103.627-54.959C100.625-61.2183 99.1846-63.585 92.1099-65.2134C84.4361-66.961 74.3389-67.9058 63.1558-67.9058C51.9761-67.9058 41.8335-66.961 34.2051-65.2134C27.1304-63.585 25.6904-61.2183 22.6846-54.959C18.6001-46.3472 14.5439-35.79 12.2002-27.9321C10.6899-22.8643 9.76562-18.7808 9.76562-15.332ZM11.9595-15.0879C11.9595-17.5713 12.4058-20.6338 14.252-26.9785C16.3472-34.1113 20.5215-44.9536 24.648-54.0264C26.5943-58.3061 28.0669-61.6035 34.2529-62.9956C41.5464-64.6977 51.8081-65.688 63.1558-65.688C74.458-65.688 84.7686-64.6977 92.0586-62.9956C98.2446-61.5581 99.7173-58.3061 101.667-54.0264C105.842-44.9536 109.958-34.1079 112.06-26.9785C113.909-20.6338 114.355-17.5713 114.355-15.0879C114.355-8.73829 110.152-4.56887 103.878-4.56887C100.55-4.56887 97.2256-6.26418 94.5777-9.44239L87.3545-18.1338C85.7715-20.0235 84.2544-20.7866 82.1226-20.7866L44.1924-20.7866C42.0606-20.7866 40.5435-20.0235 38.957-18.1338L31.7339-9.44239C29.044-6.26418 25.7647-4.56887 22.4331-4.56887C16.1597-4.56887 11.9595-8.73829 11.9595-15.0879Z"/>
  </g>
 </g>
</svg>
