<?xml version="1.0" encoding="UTF-8"?>
<!--Generator: Apple Native CoreSVG 149-->
<!DOCTYPE svg
PUBLIC "-//W3C//DTD SVG 1.1//EN"
       "http://www.w3.org/Graphics/SVG/1.1/DTD/svg11.dtd">
<svg version="1.1" xmlns="http://www.w3.org/2000/svg" xmlns:xlink="http://www.w3.org/1999/xlink" width="3300" height="2200">
 <!--glyph: "uni10075D.medium", point size: 100.000000, font version: "Version 16.0d12e3", template writer version: "8"-->
 <g id="Notes">
  <rect height="2200" id="artboard" style="fill:white;opacity:1" width="3300" x="0" y="0"/>
  <line id="" style="fill:none;stroke:black;opacity:1;stroke-width:0.5;" x1="263" x2="3036" y1="292" y2="292"/>
  <text style="stroke:none;fill:black;font-family:-apple-system,&quot;SF Pro Display&quot;,&quot;SF Pro Text&quot;,Helvetica,sans-serif;font-weight:bold;" transform="matrix(1 0 0 1 263 322)">Weight/Scale Variations</text>
  <text style="stroke:none;fill:black;font-family:-apple-system,&quot;SF Pro Display&quot;,&quot;SF Pro Text&quot;,Helvetica,sans-serif;text-anchor:middle;" transform="matrix(1 0 0 1 559.711 322)">Ultralight</text>
  <text style="stroke:none;fill:black;font-family:-apple-system,&quot;SF Pro Display&quot;,&quot;SF Pro Text&quot;,Helvetica,sans-serif;text-anchor:middle;" transform="matrix(1 0 0 1 856.422 322)">Thin</text>
  <text style="stroke:none;fill:black;font-family:-apple-system,&quot;SF Pro Display&quot;,&quot;SF Pro Text&quot;,Helvetica,sans-serif;text-anchor:middle;" transform="matrix(1 0 0 1 1153.13 322)">Light</text>
  <text style="stroke:none;fill:black;font-family:-apple-system,&quot;SF Pro Display&quot;,&quot;SF Pro Text&quot;,Helvetica,sans-serif;text-anchor:middle;" transform="matrix(1 0 0 1 1449.84 322)">Regular</text>
  <text style="stroke:none;fill:black;font-family:-apple-system,&quot;SF Pro Display&quot;,&quot;SF Pro Text&quot;,Helvetica,sans-serif;text-anchor:middle;" transform="matrix(1 0 0 1 1746.56 322)">Medium</text>
  <text style="stroke:none;fill:black;font-family:-apple-system,&quot;SF Pro Display&quot;,&quot;SF Pro Text&quot;,Helvetica,sans-serif;text-anchor:middle;" transform="matrix(1 0 0 1 2043.27 322)">Semibold</text>
  <text style="stroke:none;fill:black;font-family:-apple-system,&quot;SF Pro Display&quot;,&quot;SF Pro Text&quot;,Helvetica,sans-serif;text-anchor:middle;" transform="matrix(1 0 0 1 2339.98 322)">Bold</text>
  <text style="stroke:none;fill:black;font-family:-apple-system,&quot;SF Pro Display&quot;,&quot;SF Pro Text&quot;,Helvetica,sans-serif;text-anchor:middle;" transform="matrix(1 0 0 1 2636.69 322)">Heavy</text>
  <text style="stroke:none;fill:black;font-family:-apple-system,&quot;SF Pro Display&quot;,&quot;SF Pro Text&quot;,Helvetica,sans-serif;text-anchor:middle;" transform="matrix(1 0 0 1 2933.4 322)">Black</text>
  <line id="" style="fill:none;stroke:black;opacity:1;stroke-width:0.5;" x1="263" x2="3036" y1="1903" y2="1903"/>
  <g id="" transform="matrix(1 0 0 1 263 1933)">
   <path d="M9.24805 0.830078C13.5547 0.830078 17.1387-2.74414 17.1387-7.05078C17.1387-11.3574 13.5449-14.9316 9.23828-14.9316C4.94141-14.9316 1.36719-11.3574 1.36719-7.05078C1.36719-2.74414 4.95117 0.830078 9.24805 0.830078ZM9.24805-0.654297C5.70312-0.654297 2.87109-3.49609 2.87109-7.05078C2.87109-10.6055 5.69336-13.4473 9.23828-13.4473C12.793-13.4473 15.6348-10.6055 15.6445-7.05078C15.6543-3.49609 12.8027-0.654297 9.24805-0.654297ZM9.22852-3.62305C9.69727-3.62305 9.9707-3.93555 9.9707-4.45312L9.9707-6.31836L12.002-6.31836C12.5-6.31836 12.832-6.57227 12.832-7.04102C12.832-7.51953 12.5195-7.7832 12.002-7.7832L9.9707-7.7832L9.9707-9.81445C9.9707-10.332 9.69727-10.6543 9.22852-10.6543C8.75977-10.6543 8.50586-10.3125 8.50586-9.81445L8.50586-7.7832L6.49414-7.7832C5.97656-7.7832 5.64453-7.51953 5.64453-7.04102C5.64453-6.57227 5.99609-6.31836 6.49414-6.31836L8.50586-6.31836L8.50586-4.45312C8.50586-3.95508 8.75977-3.62305 9.22852-3.62305Z"/>
  </g>
  <g id="" transform="matrix(1 0 0 1 281.506 1933)">
   <path d="M11.709 2.91016C17.1582 2.91016 21.6699-1.61133 21.6699-7.05078C21.6699-12.5 17.1484-17.0117 11.6992-17.0117C6.25977-17.0117 1.74805-12.5 1.74805-7.05078C1.74805-1.61133 6.26953 2.91016 11.709 2.91016ZM11.709 1.25C7.09961 1.25 3.41797-2.44141 3.41797-7.05078C3.41797-11.6602 7.08984-15.3516 11.6992-15.3516C16.3086-15.3516 20-11.6602 20.0098-7.05078C20.0195-2.44141 16.3184 1.25 11.709 1.25ZM11.6797-2.66602C12.207-2.66602 12.5098-3.01758 12.5098-3.59375L12.5098-6.23047L15.3223-6.23047C15.8691-6.23047 16.25-6.51367 16.25-7.03125C16.25-7.55859 15.8887-7.86133 15.3223-7.86133L12.5098-7.86133L12.5098-10.6836C12.5098-11.25 12.207-11.6113 11.6797-11.6113C11.1621-11.6113 10.8789-11.2305 10.8789-10.6836L10.8789-7.86133L8.07617-7.86133C7.50977-7.86133 7.13867-7.55859 7.13867-7.03125C7.13867-6.51367 7.5293-6.23047 8.07617-6.23047L10.8789-6.23047L10.8789-3.59375C10.8789-3.03711 11.1621-2.66602 11.6797-2.66602Z"/>
  </g>
  <g id="" transform="matrix(1 0 0 1 304.924 1933)">
   <path d="M14.9707 5.66406C21.9336 5.66406 27.6953-0.0976562 27.6953-7.05078C27.6953-14.0137 21.9238-19.7754 14.9609-19.7754C8.00781-19.7754 2.25586-14.0137 2.25586-7.05078C2.25586-0.0976562 8.01758 5.66406 14.9707 5.66406ZM14.9707 3.84766C8.93555 3.84766 4.08203-1.01562 4.08203-7.05078C4.08203-13.0957 8.92578-17.9492 14.9609-17.9492C21.0059-17.9492 25.8594-13.0957 25.8691-7.05078C25.8789-1.01562 21.0156 3.84766 14.9707 3.84766ZM14.9414-1.38672C15.5176-1.38672 15.8594-1.77734 15.8594-2.38281L15.8594-6.13281L19.7754-6.13281C20.3711-6.13281 20.7812-6.46484 20.7812-7.02148C20.7812-7.59766 20.3906-7.93945 19.7754-7.93945L15.8594-7.93945L15.8594-11.8652C15.8594-12.4805 15.5176-12.8711 14.9414-12.8711C14.375-12.8711 14.0527-12.4609 14.0527-11.8652L14.0527-7.93945L10.1465-7.93945C9.53125-7.93945 9.13086-7.59766 9.13086-7.02148C9.13086-6.46484 9.55078-6.13281 10.1465-6.13281L14.0527-6.13281L14.0527-2.38281C14.0527-1.79688 14.375-1.38672 14.9414-1.38672Z"/>
  </g>
  <text style="stroke:none;fill:black;font-family:-apple-system,&quot;SF Pro Display&quot;,&quot;SF Pro Text&quot;,Helvetica,sans-serif;font-weight:bold;" transform="matrix(1 0 0 1 263 1953)">Design Variations</text>
  <text style="stroke:none;fill:black;font-family:-apple-system,&quot;SF Pro Display&quot;,&quot;SF Pro Text&quot;,Helvetica,sans-serif;" transform="matrix(1 0 0 1 263 1971)">Symbols are supported in up to nine weights and three scales.</text>
  <text style="stroke:none;fill:black;font-family:-apple-system,&quot;SF Pro Display&quot;,&quot;SF Pro Text&quot;,Helvetica,sans-serif;" transform="matrix(1 0 0 1 263 1989)">For optimal layout with text and other symbols, vertically align</text>
  <text style="stroke:none;fill:black;font-family:-apple-system,&quot;SF Pro Display&quot;,&quot;SF Pro Text&quot;,Helvetica,sans-serif;" transform="matrix(1 0 0 1 263 2007)">symbols with the adjacent text.</text>
  <line id="" style="fill:none;stroke:#00AEEF;stroke-width:0.5;opacity:1.0;" x1="776" x2="776" y1="1919" y2="1933"/>
  <g id="" transform="matrix(1 0 0 1 776 1933)">
   <path d="M3.31055 0.126953C3.82812 0.126953 4.08203-0.0683594 4.26758-0.605469L5.52734-4.0625L11.2891-4.0625L12.5488-0.605469C12.7344-0.0683594 12.9883 0.126953 13.4961 0.126953C14.0137 0.126953 14.3457-0.185547 14.3457-0.673828C14.3457-0.839844 14.3164-0.986328 14.2383-1.20117L9.6582-13.3887C9.43359-13.9941 9.0332-14.2871 8.4082-14.2871C7.80273-14.2871 7.39258-13.9941 7.17773-13.3984L2.59766-1.19141C2.51953-0.976562 2.49023-0.830078 2.49023-0.664062C2.49023-0.175781 2.80273 0.126953 3.31055 0.126953ZM6.00586-5.53711L8.37891-12.1094L8.42773-12.1094L10.8008-5.53711Z"/>
  </g>
  <line id="" style="fill:none;stroke:#00AEEF;stroke-width:0.5;opacity:1.0;" x1="792.836" x2="792.836" y1="1919" y2="1933"/>
  <text style="stroke:none;fill:black;font-family:-apple-system,&quot;SF Pro Display&quot;,&quot;SF Pro Text&quot;,Helvetica,sans-serif;font-weight:bold;" transform="matrix(1 0 0 1 776 1953)">Margins</text>
  <text style="stroke:none;fill:black;font-family:-apple-system,&quot;SF Pro Display&quot;,&quot;SF Pro Text&quot;,Helvetica,sans-serif;" transform="matrix(1 0 0 1 776 1971)">Leading and trailing margins on the left and right side of each symbol</text>
  <text style="stroke:none;fill:black;font-family:-apple-system,&quot;SF Pro Display&quot;,&quot;SF Pro Text&quot;,Helvetica,sans-serif;" transform="matrix(1 0 0 1 776 1989)">can be adjusted by modifying the x-location of the margin guidelines.</text>
  <text style="stroke:none;fill:black;font-family:-apple-system,&quot;SF Pro Display&quot;,&quot;SF Pro Text&quot;,Helvetica,sans-serif;" transform="matrix(1 0 0 1 776 2007)">Modifications are automatically applied proportionally to all</text>
  <text style="stroke:none;fill:black;font-family:-apple-system,&quot;SF Pro Display&quot;,&quot;SF Pro Text&quot;,Helvetica,sans-serif;" transform="matrix(1 0 0 1 776 2025)">scales and weights.</text>
  <g id="" transform="matrix(1 0 0 1 1289 1933)">
   <path d="M2.8418 1.86523L4.54102 3.57422C5.40039 4.44336 6.38672 4.38477 7.31445 3.35938L17.4902-7.85156C17.7539-7.76367 18.0273-7.7832 18.3398-7.8418L19.4043-8.03711L20.0684-7.36328L20.0293-6.80664C19.9902-6.30859 20.1172-5.92773 20.6055-5.44922L21.3672-4.70703C21.8457-4.22852 22.4609-4.19922 22.9297-4.66797L25.8398-7.58789C26.3086-8.05664 26.2891-8.65234 25.8105-9.13086L25.0391-9.89258C24.5605-10.3711 24.1895-10.5273 23.7109-10.4883L23.1348-10.4395L22.4902-11.0742L22.7344-12.1973C22.8613-12.7637 22.7051-13.2031 22.1191-13.7891L19.9219-15.9766C16.582-19.2969 12.1484-19.2188 9.25781-16.3281C8.83789-15.918 8.80859-15.3418 9.04297-14.9512C9.27734-14.5898 9.73633-14.3555 10.3809-14.5215C11.8457-14.8633 13.3691-14.9219 14.7949-13.9844L14.209-12.5293C14.0137-12.0508 13.9844-11.6504 14.1113-11.2891L3.04688-0.898438C2.06055 0.0195312 1.98242 0.996094 2.8418 1.86523ZM10.752-15.957C13.1836-17.7344 16.4746-17.4316 18.7012-15.2051L21.1328-12.793C21.3672-12.5586 21.4062-12.373 21.3379-12.0312L21.0156-10.5469L22.5195-9.0625L23.5059-9.12109C23.7598-9.13086 23.8379-9.11133 24.0332-8.91602L24.6094-8.33984L22.168-5.89844L21.5918-6.47461C21.3965-6.66992 21.3672-6.74805 21.377-7.01172L21.4453-7.98828L19.9512-9.47266L18.4277-9.21875C18.1055-9.15039 17.959-9.17969 17.7148-9.41406L15.7129-11.416C15.459-11.6504 15.4297-11.8164 15.5859-12.1875L16.4648-14.2773C14.9023-15.7324 12.8711-16.3574 10.8398-15.7617C10.6836-15.7227 10.625-15.8496 10.752-15.957ZM5.27344 2.30469L4.10156 1.14258C3.63281 0.683594 3.74023 0.341797 4.14062-0.0195312L14.9512-10.1953L16.416-8.71094L6.42578 2.27539C6.07422 2.67578 5.74219 2.77344 5.27344 2.30469Z"/>
  </g>
  <text style="stroke:none;fill:black;font-family:-apple-system,&quot;SF Pro Display&quot;,&quot;SF Pro Text&quot;,Helvetica,sans-serif;font-weight:bold;" transform="matrix(1 0 0 1 1289 1953)">Exporting</text>
  <text style="stroke:none;fill:black;font-family:-apple-system,&quot;SF Pro Display&quot;,&quot;SF Pro Text&quot;,Helvetica,sans-serif;" transform="matrix(1 0 0 1 1289 1971)">Symbols should be outlined when exporting to ensure the</text>
  <text style="stroke:none;fill:black;font-family:-apple-system,&quot;SF Pro Display&quot;,&quot;SF Pro Text&quot;,Helvetica,sans-serif;" transform="matrix(1 0 0 1 1289 1989)">design is preserved when submitting to Xcode.</text>
  <text id="template-version" style="stroke:none;fill:black;font-family:-apple-system,&quot;SF Pro Display&quot;,&quot;SF Pro Text&quot;,Helvetica,sans-serif;text-anchor:end;" transform="matrix(1 0 0 1 3036 1933)">Template v.2.0</text>
  <text style="stroke:none;fill:black;font-family:-apple-system,&quot;SF Pro Display&quot;,&quot;SF Pro Text&quot;,Helvetica,sans-serif;text-anchor:end;" transform="matrix(1 0 0 1 3036 1951)">Requires Xcode 12 or greater</text>
  <text style="stroke:none;fill:black;font-family:-apple-system,&quot;SF Pro Display&quot;,&quot;SF Pro Text&quot;,Helvetica,sans-serif;text-anchor:end;" transform="matrix(1 0 0 1 3036 1969)">Generated from hexagon</text>
  <text style="stroke:none;fill:black;font-family:-apple-system,&quot;SF Pro Display&quot;,&quot;SF Pro Text&quot;,Helvetica,sans-serif;text-anchor:end;" transform="matrix(1 0 0 1 3036 1987)">Typeset at 100 points</text>
  <text style="stroke:none;fill:black;font-family:-apple-system,&quot;SF Pro Display&quot;,&quot;SF Pro Text&quot;,Helvetica,sans-serif;" transform="matrix(1 0 0 1 263 726)">Small</text>
  <text style="stroke:none;fill:black;font-family:-apple-system,&quot;SF Pro Display&quot;,&quot;SF Pro Text&quot;,Helvetica,sans-serif;" transform="matrix(1 0 0 1 263 1156)">Medium</text>
  <text style="stroke:none;fill:black;font-family:-apple-system,&quot;SF Pro Display&quot;,&quot;SF Pro Text&quot;,Helvetica,sans-serif;" transform="matrix(1 0 0 1 263 1586)">Large</text>
 </g>
 <g id="Guides">
  <g id="H-reference" style="fill:#27AAE1;stroke:none;" transform="matrix(1 0 0 1 339 696)">
   <path d="M0.976562 0L3.66211 0L12.9883-24.4629L45.752-24.4629L55.127 0L57.7637 0L30.6152-70.459L28.125-70.459ZM29.3457-67.1387L29.4434-67.1387L44.873-26.709L13.8672-26.709Z"/>
  </g>
  <line id="Baseline-S" style="fill:none;stroke:#27AAE1;opacity:1;stroke-width:0.5;" x1="263" x2="3036" y1="696" y2="696"/>
  <line id="Capline-S" style="fill:none;stroke:#27AAE1;opacity:1;stroke-width:0.5;" x1="263" x2="3036" y1="625.541" y2="625.541"/>
  <g id="H-reference" style="fill:#27AAE1;stroke:none;" transform="matrix(1 0 0 1 339 1126)">
   <path d="M0.976562 0L3.66211 0L12.9883-24.4629L45.752-24.4629L55.127 0L57.7637 0L30.6152-70.459L28.125-70.459ZM29.3457-67.1387L29.4434-67.1387L44.873-26.709L13.8672-26.709Z"/>
  </g>
  <line id="Baseline-M" style="fill:none;stroke:#27AAE1;opacity:1;stroke-width:0.5;" x1="263" x2="3036" y1="1126" y2="1126"/>
  <line id="Capline-M" style="fill:none;stroke:#27AAE1;opacity:1;stroke-width:0.5;" x1="263" x2="3036" y1="1055.54" y2="1055.54"/>
  <g id="H-reference" style="fill:#27AAE1;stroke:none;" transform="matrix(1 0 0 1 339 1556)">
   <path d="M0.976562 0L3.66211 0L12.9883-24.4629L45.752-24.4629L55.127 0L57.7637 0L30.6152-70.459L28.125-70.459ZM29.3457-67.1387L29.4434-67.1387L44.873-26.709L13.8672-26.709Z"/>
  </g>
  <line id="Baseline-L" style="fill:none;stroke:#27AAE1;opacity:1;stroke-width:0.5;" x1="263" x2="3036" y1="1556" y2="1556"/>
  <line id="Capline-L" style="fill:none;stroke:#27AAE1;opacity:1;stroke-width:0.5;" x1="263" x2="3036" y1="1485.54" y2="1485.54"/>
  <line id="left-margin" style="fill:none;stroke:#00AEEF;stroke-width:0.5;opacity:1.0;" x1="1387.86" x2="1387.86" y1="1030.79" y2="1150.12"/>
  <line id="right-margin" style="fill:none;stroke:#00AEEF;stroke-width:0.5;opacity:1.0;" x1="1511.83" x2="1511.83" y1="1030.79" y2="1150.12"/>
 </g>
 <g id="Symbols">
  <g id="Black-L" transform="matrix(1 0 0 1 2851.08 1556)">
   <path d="M26.2207 6.98242L70.2637 30.5176C78.4668 34.9121 86.1328 34.9121 94.3848 30.5176L138.477 6.98242C145.557 3.22266 148.584-1.17188 148.584-10.0098L148.584-63.7207C148.584-72.0215 145.508-76.709 138.574-80.3711L95.9961-103.223C87.3535-107.91 77.2461-107.861 68.7012-103.223L26.0742-80.3711C19.1895-76.709 16.0645-72.0215 16.0645-63.7207L16.0645-10.0098C16.0645-1.17188 19.1406 3.22266 26.2207 6.98242ZM37.1582-7.86133C34.4727-9.375 33.3984-11.0352 33.3984-13.7695L33.3984-59.668C33.3984-62.4023 34.4727-64.0625 37.1582-65.5762L76.6113-86.7676C80.4199-88.8184 84.1797-88.8184 88.0859-86.7676L127.49-65.5762C130.225-64.1113 131.299-62.4023 131.299-59.668L131.299-13.7695C131.299-11.0352 130.225-9.375 127.49-7.86133L88.0859 13.6719C84.1797 15.7715 80.4199 15.7227 76.6113 13.6719Z"/>
  </g>
  <g id="Heavy-L" transform="matrix(1 0 0 1 2555.02 1556)">
   <path d="M25.7812 6.25L70.166 30.1758C77.9785 34.4238 85.3027 34.4727 93.1641 30.1758L137.549 6.25C144.287 2.58789 147.266-1.51367 147.266-10.1562L147.266-63.1348C147.266-71.2891 144.189-75.5371 137.842-78.9551L94.5312-102.49C86.2793-107.031 76.9531-106.982 68.7988-102.49L25.4883-78.9551C19.1406-75.5371 16.0645-71.2891 16.0645-63.1348L16.0645-10.1562C16.0645-1.51367 19.043 2.58789 25.7812 6.25ZM35.4004-6.83594C32.4219-8.49609 31.3477-10.2051 31.3477-13.1348L31.3477-59.9121C31.3477-62.6953 32.4707-64.3555 35.2539-65.9668L75.7812-88.0371C79.7363-90.1855 83.5449-90.1855 87.5488-88.0371L128.076-65.9668C130.859-64.4043 131.982-62.6953 131.982-59.9121L131.982-13.1348C131.982-10.2051 130.908-8.49609 127.93-6.83594L87.5488 15.332C83.4961 17.5781 79.7852 17.5293 75.7812 15.332Z"/>
  </g>
  <g id="Bold-L" transform="matrix(1 0 0 1 2259.07 1556)">
   <path d="M25.293 5.37109L70.0195 29.8828C77.3926 33.9355 84.375 33.9355 91.7969 29.8828L136.523 5.37109C142.822 1.9043 145.752-1.9043 145.752-10.3516L145.752-62.4512C145.752-70.4102 142.773-74.2188 136.963-77.3926L92.8711-101.709C85.1074-106.006 76.6113-105.957 68.9453-101.709L24.8535-77.3926C19.043-74.2188 16.0645-70.4102 16.0645-62.4512L16.0645-10.3516C16.0645-1.9043 18.9941 1.9043 25.293 5.37109ZM33.3984-5.71289C30.1758-7.51953 29.1016-9.32617 29.1016-12.4023L29.1016-60.1562C29.1016-63.0371 30.2246-64.6973 33.1055-66.3086L74.9023-89.4531C78.9551-91.6992 82.8125-91.748 86.9141-89.4531L128.711-66.3086C131.592-64.7461 132.715-63.0371 132.715-60.1562L132.715-12.4023C132.715-9.32617 131.641-7.51953 128.418-5.71289L86.9141 17.2363C82.666 19.5801 79.0039 19.5312 74.9023 17.2363Z"/>
  </g>
  <g id="Semibold-L" transform="matrix(1 0 0 1 1962.87 1556)">
   <path d="M24.9512 4.78516L69.9219 29.6387C77.002 33.5449 83.7402 33.5938 90.8691 29.6387L135.84 4.78516C141.846 1.46484 144.727-2.14844 144.727-10.498L144.727-62.0117C144.727-69.8242 141.797-73.291 136.377-76.2695L91.748-101.123C84.2773-105.322 76.416-105.273 69.043-101.123L24.4141-76.2695C18.9941-73.291 16.0645-69.8242 16.0645-62.0117L16.0645-10.498C16.0645-2.14844 18.9453 1.46484 24.9512 4.78516ZM32.0312-4.93164C28.6133-6.88477 27.5391-8.69141 27.5391-11.9141L27.5391-60.3027C27.5391-63.2324 28.6621-64.9414 31.6406-66.6016L74.3164-90.4297C78.418-92.7734 82.3242-92.8223 86.4746-90.4297L129.15-66.6016C132.129-64.9414 133.252-63.2324 133.252-60.3027L133.252-11.9141C133.252-8.69141 132.178-6.88477 128.76-4.93164L86.4746 18.5547C82.1289 20.9961 78.5156 20.8984 74.3164 18.5547Z"/>
  </g>
  <g id="Medium-L" transform="matrix(1 0 0 1 1666.55 1556)">
   <path d="M24.707 4.3457L69.873 29.4434C76.6602 33.3008 83.252 33.3496 90.1367 29.4434L135.303 4.3457C141.113 1.07422 143.945-2.34375 143.945-10.5957L143.945-61.6699C143.945-69.3848 141.016-72.6074 135.938-75.4883L90.8691-100.684C83.6426-104.785 76.2207-104.736 69.1406-100.684L24.0723-75.4883C18.9941-72.6074 16.0645-69.3848 16.0645-61.6699L16.0645-10.5957C16.0645-2.34375 18.8965 1.07422 24.707 4.3457ZM31.0059-4.3457C27.4414-6.39648 26.3672-8.20312 26.3672-11.5723L26.3672-60.4492C26.3672-63.4277 27.4902-65.0879 30.5176-66.7969L73.8281-91.2109C77.9785-93.5547 81.9336-93.6523 86.1816-91.2109L129.492-66.7969C132.52-65.0879 133.643-63.4277 133.643-60.4492L133.643-11.5723C133.643-8.20312 132.568-6.39648 129.004-4.3457L86.1816 19.5312C81.7383 22.0703 78.125 21.9727 73.8281 19.5312Z"/>
  </g>
  <g id="Regular-L" transform="matrix(1 0 0 1 1370.35 1556)">
   <path d="M24.3652 3.75977L69.7754 29.248C76.2695 32.959 82.6172 33.0078 89.209 29.248L134.619 3.75977C140.137 0.634766 142.92-2.58789 142.92-10.7422L142.92-61.1816C142.92-68.7988 140.039-71.6797 135.352-74.3652L89.7949-100.146C82.8125-104.102 76.0254-104.053 69.1895-100.146L23.6328-74.3652C18.9453-71.6797 16.0645-68.7988 16.0645-61.1816L16.0645-10.7422C16.0645-2.58789 18.8477 0.634766 24.3652 3.75977ZM29.6387-3.61328C25.8789-5.71289 24.8535-7.61719 24.8535-11.084L24.8535-60.6445C24.8535-63.623 25.9766-65.332 29.0527-67.0898L73.2422-92.1875C77.4902-94.5801 81.4453-94.6777 85.7422-92.1875L129.932-67.0898C133.008-65.332 134.131-63.623 134.131-60.6445L134.131-11.084C134.131-7.61719 133.105-5.71289 129.346-3.61328L85.7422 20.8496C81.1523 23.4375 77.6367 23.3398 73.2422 20.8496Z"/>
  </g>
  <g id="Light-L" transform="matrix(1 0 0 1 1074.32 1556)">
   <path d="M23.3398 2.34375L70.9961 28.7598C76.2207 31.6895 81.3965 31.7383 86.6211 28.7598L134.277 2.34375C139.307-0.488281 141.553-3.4668 141.553-10.2539L141.553-62.5977C141.553-68.5059 139.209-70.9961 135.449-73.0957L87.5-99.9512C81.7383-103.223 75.7812-103.223 70.1172-99.9512L22.168-73.0957C18.4082-70.9961 16.0645-68.5059 16.0645-62.5977L16.0645-10.2539C16.0645-3.4668 18.3105-0.488281 23.3398 2.34375ZM27.7832-2.97852C23.7305-5.22461 22.9004-7.03125 22.9004-10.5469L22.9004-61.8652C22.9004-64.6484 23.877-66.1621 26.8066-67.8223L73.584-94.0918C77.0508-96.0938 80.5176-96.1426 84.0332-94.0918L130.811-67.8223C133.74-66.1621 134.717-64.6484 134.717-61.8652L134.717-10.5469C134.717-7.03125 133.887-5.22461 129.834-2.97852L84.0332 22.2656C80.127 24.5117 77.2949 24.3652 73.584 22.2656Z"/>
  </g>
  <g id="Thin-L" transform="matrix(1 0 0 1 778.517 1556)">
   <path d="M22.0215 0.537109L72.6562 28.125C76.1719 30.0781 79.7363 30.0781 83.1543 28.125L133.789 0.537109C138.184-1.9043 139.746-4.58984 139.746-9.57031L139.746-64.4531C139.746-68.1152 138.037-70.0195 135.547-71.4355L84.4727-99.6582C80.3223-102.002 75.4883-102.051 71.3379-99.6582L20.2637-71.4355C17.7734-70.0195 16.0645-68.1152 16.0645-64.4531L16.0645-9.57031C16.0645-4.58984 17.627-1.9043 22.0215 0.537109ZM25.3418-2.19727C20.8984-4.54102 20.3125-6.29883 20.3125-9.86328L20.3125-63.5254C20.3125-66.0156 21.1426-67.2852 23.8281-68.7988L74.0234-96.6797C76.5137-98.0957 79.2969-98.1445 81.7871-96.6797L131.982-68.7988C134.668-67.2852 135.498-66.0156 135.498-63.5254L135.498-9.86328C135.498-6.29883 134.912-4.54102 130.469-2.19727L81.7871 24.1211C78.6621 25.8789 76.9043 25.7324 74.0234 24.1211Z"/>
  </g>
  <g id="Ultralight-L" transform="matrix(1 0 0 1 482.27 1556)">
   <path d="M21.3867-0.439453L73.4863 27.7832C76.123 29.248 78.8574 29.1992 81.3965 27.7832L133.496-0.439453C137.646-2.63672 138.818-5.12695 138.818-9.22852L138.818-65.3809C138.818-67.9199 137.451-69.5312 135.596-70.5566L82.959-99.5605C79.541-101.416 75.3418-101.514 71.9238-99.5605L19.2871-70.5566C17.4316-69.5312 16.0645-67.9199 16.0645-65.3809L16.0645-9.22852C16.0645-5.12695 17.2363-2.63672 21.3867-0.439453ZM24.0723-1.75781C19.4824-4.24805 18.9453-5.9082 18.9453-9.52148L18.9453-64.4043C18.9453-66.748 19.7266-67.8711 22.3145-69.2871L74.2188-97.998C76.2695-99.1211 78.6621-99.1211 80.6641-97.998L132.568-69.2871C135.156-67.8711 135.938-66.748 135.938-64.4043L135.938-9.52148C135.938-5.9082 135.4-4.24805 130.811-1.75781L80.6641 25.0977C77.9785 26.6113 76.6602 26.416 74.2188 25.0977Z"/>
  </g>
  <g id="Black-M" transform="matrix(1 0 0 1 2869.04 1126)">
   <path d="M20.3613-2.19727L55.2734 15.8691C61.4746 19.0918 67.1875 19.0918 73.4375 15.8691L108.35-2.19727C114.062-5.22461 116.26-8.83789 116.26-15.1367L116.26-58.8867C116.26-64.6484 114.014-68.5547 108.447-71.4355L75.1465-88.8184C68.5547-92.2852 60.1562-92.2852 53.5645-88.8184L20.2637-71.4355C14.6973-68.5547 12.4512-64.6484 12.4512-58.8867L12.4512-15.1367C12.4512-8.83789 14.5996-5.22461 20.3613-2.19727ZM30.2246-15.0391C28.2715-16.0645 27.5391-17.2363 27.5391-19.1895L27.5391-54.541C27.5391-56.4453 28.2715-57.6172 30.2246-58.6914L60.5957-74.4629C63.0371-75.7324 65.625-75.6836 68.1152-74.4629L98.4863-58.6914C100.391-57.7148 101.172-56.4453 101.172-54.541L101.172-19.1895C101.172-17.2363 100.391-16.0645 98.4863-15.0391L68.1152 1.12305C65.625 2.39258 63.0371 2.44141 60.5957 1.12305Z"/>
  </g>
  <g id="Heavy-M" transform="matrix(1 0 0 1 2572.89 1126)">
   <path d="M20.166-2.68555L54.834 15.6738C60.9375 18.8965 66.6504 18.8965 72.7539 15.6738L107.422-2.68555C112.891-5.56641 115.137-8.98438 115.137-15.4785L115.137-57.8613C115.137-63.8672 112.842-67.4805 107.617-70.2148L74.1211-88.0859C67.6758-91.5527 59.9121-91.5039 53.4668-88.0859L19.9707-70.2148C14.7461-67.4805 12.4512-63.8672 12.4512-57.8613L12.4512-15.4785C12.4512-8.98438 14.6973-5.56641 20.166-2.68555ZM28.7598-14.1113C26.6113-15.2832 25.8301-16.5039 25.8301-18.6035L25.8301-54.4434C25.8301-56.4941 26.6602-57.7637 28.7109-58.8867L59.668-75.3418C62.4023-76.8555 65.1855-76.8066 67.9199-75.3418L98.877-58.8867C100.928-57.8125 101.758-56.4941 101.758-54.4434L101.758-18.6035C101.758-16.5039 100.977-15.2832 98.8281-14.1113L67.9199 2.63672C65.1367 4.10156 62.4023 4.10156 59.668 2.63672Z"/>
  </g>
  <g id="Bold-M" transform="matrix(1 0 0 1 2276.79 1126)">
   <path d="M19.9219-3.22266L54.2969 15.4297C60.3027 18.7012 65.9668 18.7012 72.0215 15.4297L106.445-3.22266C111.572-6.00586 113.916-9.13086 113.916-15.8691L113.916-56.7383C113.916-63.0371 111.523-66.2598 106.641-68.8965L72.998-87.2559C66.6992-90.7227 59.5703-90.6738 53.3203-87.2559L19.6777-68.8965C14.7949-66.2598 12.4512-63.0371 12.4512-56.7383L12.4512-15.8691C12.4512-9.13086 14.7949-6.00586 19.9219-3.22266ZM27.1484-13.0371C24.8047-14.3555 23.9746-15.7227 23.9746-17.9688L23.9746-54.3945C23.9746-56.543 24.8047-57.8613 27.002-59.082L58.5938-76.3672C61.6699-78.0762 64.6484-78.0762 67.7734-76.3672L99.3652-59.082C101.514-57.9102 102.393-56.543 102.393-54.3945L102.393-17.9688C102.393-15.7227 101.562-14.3555 99.2188-13.0371L67.7734 4.29688C64.5996 6.00586 61.7188 6.00586 58.5938 4.29688Z"/>
  </g>
  <g id="Semibold-M" transform="matrix(1 0 0 1 1980.52 1126)">
   <path d="M19.7266-3.61328L53.9551 15.2832C59.9121 18.5547 65.5273 18.6035 71.5332 15.2832L105.762-3.61328C110.645-6.29883 113.037-9.27734 113.037-16.1133L113.037-55.9082C113.037-62.4512 110.645-65.3809 106.006-67.9199L72.2168-86.6699C66.0156-90.1367 59.375-90.0879 53.2715-86.6699L19.4824-67.9199C14.8438-65.3809 12.4512-62.4512 12.4512-55.9082L12.4512-16.1133C12.4512-9.27734 14.8438-6.29883 19.7266-3.61328ZM26.0254-12.3047C23.5352-13.7207 22.6562-15.1367 22.6562-17.5781L22.6562-54.2969C22.6562-56.5918 23.5352-57.9102 25.8301-59.2285L57.8613-77.0508C61.1328-78.9062 64.2578-78.9551 67.627-77.0508L99.6582-59.2285C101.953-57.959 102.832-56.5918 102.832-54.2969L102.832-17.5781C102.832-15.1367 101.953-13.7207 99.4629-12.3047L67.627 5.41992C64.209 7.32422 61.1816 7.27539 57.8613 5.41992Z"/>
  </g>
  <g id="Medium-M" transform="matrix(1 0 0 1 1684.13 1126)">
   <path d="M19.6289-3.85742L53.7109 15.1367C59.5703 18.457 65.1855 18.5059 71.1426 15.1367L105.225-3.85742C109.961-6.54297 112.402-9.32617 112.402-16.3086L112.402-55.3223C112.402-61.9629 109.961-64.7461 105.518-67.2363L71.6309-86.2305C65.4785-89.6973 59.2285-89.6484 53.2227-86.2305L19.3359-67.2363C14.8926-64.7461 12.4512-61.9629 12.4512-55.3223L12.4512-16.3086C12.4512-9.32617 14.8926-6.54297 19.6289-3.85742ZM25.1465-11.7676C22.5586-13.2812 21.6797-14.6973 21.6797-17.2363L21.6797-54.248C21.6797-56.5918 22.5586-58.0078 24.9512-59.3262L57.2754-77.5879C60.791-79.541 64.0137-79.5898 67.5293-77.5879L99.9023-59.3262C102.246-58.0078 103.174-56.5918 103.174-54.248L103.174-17.2363C103.174-14.6973 102.295-13.2812 99.707-11.7676L67.5293 6.29883C63.916 8.34961 60.8398 8.25195 57.2754 6.29883Z"/>
  </g>
  <g id="Regular-M" transform="matrix(1 0 0 1 1387.86 1126)">
   <path d="M19.4336-4.24805L53.3691 14.9902C59.1309 18.3105 64.7461 18.3594 70.6055 14.9902L104.541-4.24805C109.082-6.83594 111.523-9.47266 111.523-16.5527L111.523-54.541C111.523-61.4258 109.033-63.916 104.883-66.3086L70.8496-85.6445C64.7949-89.1113 59.0332-89.0625 53.125-85.6445L19.1406-66.3086C14.9414-63.916 12.4512-61.4258 12.4512-54.541L12.4512-16.5527C12.4512-9.47266 14.9414-6.83594 19.4336-4.24805ZM24.0723-11.084C21.2891-12.6465 20.3613-14.1602 20.3613-16.7969L20.3613-54.1992C20.3613-56.6406 21.3379-58.0566 23.7793-59.4727L56.5918-78.2715C60.2539-80.3711 63.623-80.4688 67.4316-78.2715L100.195-59.4727C102.686-58.0566 103.613-56.6406 103.613-54.1992L103.613-16.7969C103.613-14.1602 102.686-12.6465 99.9512-11.084L67.4316 7.42188C63.5254 9.61914 60.3516 9.57031 56.5918 7.42188Z"/>
  </g>
  <g id="Light-M" transform="matrix(1 0 0 1 1091.76 1126)">
   <path d="M18.5547-5.46875L54.4922 14.5508C59.082 17.1875 63.623 17.2363 68.3105 14.5508L104.199-5.46875C108.301-7.8125 110.303-10.2051 110.303-16.1133L110.303-55.8105C110.303-61.1328 108.252-63.2324 104.932-65.1367L68.8477-85.498C63.8184-88.3301 58.8379-88.2812 53.9551-85.498L17.8223-65.1367C14.502-63.2324 12.4512-61.1328 12.4512-55.8105L12.4512-16.1133C12.4512-10.2051 14.4531-7.8125 18.5547-5.46875ZM22.3633-10.498C19.3848-12.207 18.6035-13.623 18.6035-16.3574L18.6035-55.3223C18.6035-57.5684 19.4824-58.8379 21.7773-60.1562L56.8848-79.9805C59.9121-81.7383 62.793-81.7871 65.918-79.9805L100.977-60.1562C103.32-58.8379 104.15-57.5684 104.15-55.3223L104.15-16.3574C104.15-13.623 103.418-12.207 100.391-10.498L65.918 8.69141C62.5488 10.5957 60.0586 10.498 56.8848 8.69141Z"/>
  </g>
  <g id="Thin-M" transform="matrix(1 0 0 1 795.851 1126)">
   <path d="M17.3828-7.12891L55.957 14.0137C59.0332 15.7227 62.1582 15.7227 65.1855 14.0137L103.76-7.12891C107.324-9.08203 108.691-11.2305 108.691-15.4785L108.691-57.4707C108.691-60.791 107.227-62.4023 105.029-63.623L66.1133-85.2539C62.5488-87.2559 58.5938-87.2559 55.0293-85.2539L16.1133-63.623C13.916-62.4023 12.4512-60.791 12.4512-57.4707L12.4512-15.4785C12.4512-11.2305 13.8184-9.08203 17.3828-7.12891ZM20.166-9.81445C16.8457-11.6211 16.3086-12.9395 16.3086-15.7227L16.3086-56.7871C16.3086-58.7891 16.9922-59.8633 19.1406-61.0352L57.2754-82.2754C59.4238-83.5449 61.7188-83.5449 63.8672-82.2754L102.002-61.0352C104.15-59.8633 104.883-58.7891 104.883-56.7871L104.883-15.7227C104.883-12.9395 104.297-11.6211 100.977-9.81445L63.8672 10.4004C61.2793 11.8164 59.668 11.7188 57.2754 10.4004Z"/>
  </g>
  <g id="Ultralight-M" transform="matrix(1 0 0 1 499.555 1126)">
   <path d="M16.748-7.95898L56.6895 13.7207C58.9844 14.9902 61.377 14.9902 63.623 13.7207L103.564-7.95898C106.836-9.76562 107.861-11.7676 107.861-15.1855L107.861-58.3496C107.861-60.5957 106.689-61.9629 105.078-62.8906L64.7461-85.1074C61.8652-86.7188 58.4473-86.7676 55.5664-85.1074L15.2344-62.8906C13.623-61.9629 12.4512-60.5957 12.4512-58.3496L12.4512-15.1855C12.4512-11.7676 13.4766-9.76562 16.748-7.95898ZM19.043-9.42383C15.5273-11.2793 15.0879-12.5977 15.0879-15.4297L15.0879-57.5684C15.0879-59.4238 15.7227-60.3516 17.7734-61.4746L57.4707-83.4473C59.1797-84.4238 61.1328-84.4238 62.8418-83.4473L102.539-61.4746C104.59-60.3516 105.225-59.4238 105.225-57.5684L105.225-15.4297C105.225-12.5977 104.785-11.2793 101.27-9.42383L62.8418 11.2305C60.6445 12.4512 59.4727 12.3535 57.4707 11.2305Z"/>
  </g>
  <g id="Black-S" transform="matrix(1 0 0 1 2883.01 696)">
   <path d="M15.9668-9.375L43.2617 4.78516C48.1445 7.32422 52.6367 7.32422 57.5195 4.78516L84.8145-9.375C89.3066-11.7188 91.0156-14.5508 91.0156-19.5312L91.0156-53.6621C91.0156-58.2031 89.2578-61.2793 84.9121-63.5254L58.8379-77.1484C53.6621-79.8828 47.1191-79.8828 41.9434-77.1484L15.8691-63.5254C11.5234-61.2793 9.76562-58.2031 9.76562-53.6621L9.76562-19.5312C9.76562-14.5508 11.4746-11.7188 15.9668-9.375ZM23.584-19.3359C22.0703-20.166 21.4844-21.0938 21.4844-22.6074L21.4844-50.3418C21.4844-51.8555 22.0703-52.7832 23.584-53.6133L47.4121-66.0156C49.3652-67.041 51.416-66.9922 53.3691-66.0156L77.1973-53.6133C78.7109-52.832 79.2969-51.8555 79.2969-50.3418L79.2969-22.6074C79.2969-21.0938 78.7109-20.166 77.1973-19.3359L53.3691-6.64062C51.416-5.61523 49.3652-5.61523 47.4121-6.64062Z"/>
  </g>
  <g id="Heavy-S" transform="matrix(1 0 0 1 2586.66 696)">
   <path d="M15.918-9.61914L42.7734 4.6875C47.7051 7.32422 52.2949 7.32422 57.2754 4.6875L84.1797-9.61914C88.4766-11.9141 90.2832-14.5996 90.2832-19.8242L90.2832-52.7344C90.2832-57.666 88.4277-60.498 84.2773-62.7441L58.3008-76.6113C53.0762-79.3945 46.9238-79.3945 41.7969-76.6113L15.8203-62.7441C11.6211-60.498 9.76562-57.666 9.76562-52.7344L9.76562-19.8242C9.76562-14.5996 11.5723-11.9141 15.918-9.61914ZM22.6562-18.7012C20.9961-19.5801 20.3613-20.6055 20.3613-22.2168L20.3613-50.1465C20.3613-51.8066 21.0449-52.7832 22.6562-53.6621L46.6309-66.5039C48.9258-67.7246 51.123-67.7246 53.418-66.5039L77.4414-53.6621C79.0527-52.832 79.6875-51.8066 79.6875-50.1465L79.6875-22.2168C79.6875-20.6055 79.0527-19.5801 77.3926-18.7012L53.418-5.66406C51.123-4.39453 48.9258-4.44336 46.6309-5.66406Z"/>
  </g>
  <g id="Bold-S" transform="matrix(1 0 0 1 2290.34 696)">
   <path d="M15.8203-9.86328L42.2852 4.54102C47.2656 7.27539 51.9531 7.32422 56.9824 4.54102L83.4473-9.86328C87.5488-12.1094 89.502-14.5996 89.502-20.166L89.502-51.709C89.502-57.0312 87.5488-59.6191 83.5449-61.8164L57.666-75.9766C52.4414-78.8574 46.7285-78.8086 41.6016-75.9766L15.7227-61.8164C11.7188-59.6191 9.76562-57.0312 9.76562-51.709L9.76562-20.166C9.76562-14.5996 11.7188-12.1094 15.8203-9.86328ZM21.6309-17.9688C19.8242-18.9453 19.1406-20.0195 19.1406-21.8262L19.1406-49.9512C19.1406-51.709 19.873-52.7832 21.582-53.7598L45.8008-67.041C48.3887-68.5059 50.8301-68.5059 53.4668-67.041L77.6855-53.7598C79.4434-52.7832 80.127-51.709 80.127-49.9512L80.127-21.8262C80.127-20.0195 79.4434-18.9453 77.6367-17.9688L53.4668-4.54102C50.8301-3.07617 48.3887-3.125 45.8008-4.54102Z"/>
  </g>
  <g id="Semibold-S" transform="matrix(1 0 0 1 1993.9 696)">
   <path d="M15.7715-10.0586L41.8945 4.49219C46.9238 7.27539 51.709 7.32422 56.7871 4.49219L82.959-10.0586C86.9141-12.2559 88.9648-14.6484 88.9648-20.4102L88.9648-50.9766C88.9648-56.5918 86.9141-59.0332 83.0078-61.2305L57.2754-75.5859C52.0508-78.5156 46.582-78.418 41.4551-75.5859L15.7227-61.2305C11.8164-59.0332 9.76562-56.5918 9.76562-50.9766L9.76562-20.4102C9.76562-14.6484 11.7676-12.2559 15.7715-10.0586ZM20.8984-17.4316C19.043-18.5059 18.3105-19.6289 18.3105-21.5332L18.3105-49.8047C18.3105-51.6602 19.043-52.7832 20.8984-53.8086L45.2148-67.4316C48.0469-68.9941 50.6348-69.043 53.5156-67.4316L77.832-53.8086C79.6875-52.7832 80.4199-51.6602 80.4199-49.8047L80.4199-21.5332C80.4199-19.6289 79.6875-18.5059 77.832-17.4316L53.5156-3.75977C50.6348-2.14844 48.0469-2.19727 45.2148-3.75977Z"/>
  </g>
  <g id="Medium-S" transform="matrix(1 0 0 1 1697.41 696)">
   <path d="M15.7227-10.1562L41.6504 4.39453C46.6797 7.27539 51.5137 7.32422 56.6406 4.39453L82.5684-10.1562C86.4258-12.3535 88.5254-14.6484 88.5254-20.6055L88.5254-50.4395C88.5254-56.2988 86.4258-58.5938 82.6172-60.7422L56.9336-75.2441C51.709-78.2227 46.4844-78.125 41.3574-75.2441L15.6738-60.7422C11.8652-58.5938 9.76562-56.2988 9.76562-50.4395L9.76562-20.6055C9.76562-14.6484 11.8652-12.3535 15.7227-10.1562ZM20.3613-17.041C18.4082-18.1641 17.6758-19.3359 17.6758-21.2891L17.6758-49.707C17.6758-51.6113 18.4082-52.7832 20.3125-53.8574L44.7754-67.7246C47.7539-69.4336 50.4883-69.4824 53.5156-67.7246L77.9785-53.8574C79.8828-52.7832 80.6641-51.6113 80.6641-49.707L80.6641-21.2891C80.6641-19.3359 79.8828-18.1641 77.9297-17.041L53.5156-3.17383C50.4395-1.46484 47.7539-1.51367 44.7754-3.17383Z"/>
  </g>
  <g id="Regular-S" transform="matrix(1 0 0 1 1400.97 696)">
   <path d="M15.6738-10.3516L41.3086 4.3457C46.3867 7.22656 51.2695 7.27539 56.4941 4.3457L82.0801-10.3516C85.8398-12.5 87.9883-14.6484 87.9883-20.8496L87.9883-49.7559C87.9883-55.8594 85.8398-58.0078 82.1289-60.1074L56.543-74.8047C51.2695-77.832 46.3379-77.7832 41.2598-74.8047L15.625-60.1074C11.9629-58.0078 9.76562-55.8594 9.76562-49.7559L9.76562-20.8496C9.76562-14.6484 11.9141-12.5 15.6738-10.3516ZM19.6777-16.5527C17.627-17.7734 16.7969-18.9453 16.7969-21.0449L16.7969-49.5605C16.7969-51.5625 17.627-52.7344 19.6289-53.9062L44.1895-68.1152C47.4121-69.9219 50.2441-70.0195 53.5645-68.1152L78.125-53.9062C80.127-52.7344 80.957-51.5625 80.957-49.5605L80.957-21.0449C80.957-18.9453 80.127-17.7734 78.0762-16.5527L53.5645-2.44141C50.2441-0.537109 47.4121-0.585938 44.1895-2.44141Z"/>
  </g>
  <g id="Light-S" transform="matrix(1 0 0 1 1104.79 696)">
   <path d="M14.8926-11.4258L42.2852 3.95508C46.3379 6.25 50.293 6.29883 54.3945 3.95508L81.7871-11.4258C85.1562-13.3789 86.9141-15.332 86.9141-20.4102L86.9141-50.8789C86.9141-55.6152 85.1074-57.4219 82.1777-59.1309L54.7363-74.6582C50.3906-77.1484 46.1914-77.0996 41.9434-74.6582L14.4531-59.1309C11.5234-57.4219 9.76562-55.6152 9.76562-50.8789L9.76562-20.4102C9.76562-15.332 11.5234-13.3789 14.8926-11.4258ZM18.1641-16.0645C15.918-17.334 15.2832-18.5059 15.2832-20.6055L15.2832-50.5371C15.2832-52.3926 15.9668-53.418 17.8223-54.4922L44.4336-69.6289C47.0703-71.1426 49.5117-71.1914 52.2461-69.6289L78.8574-54.4922C80.7129-53.418 81.3965-52.3926 81.3965-50.5371L81.3965-20.6055C81.3965-18.5059 80.7617-17.334 78.5156-16.0645L52.2461-1.31836C49.4141 0.292969 47.168 0.244141 44.4336-1.31836Z"/>
  </g>
  <g id="Thin-S" transform="matrix(1 0 0 1 808.79 696)">
   <path d="M13.8672-12.8906L43.5547 3.4668C46.2891 4.98047 48.9746 4.98047 51.6602 3.4668L81.3965-12.8906C84.2773-14.502 85.498-16.2109 85.498-19.873L85.498-52.3438C85.498-55.3223 84.2285-56.6895 82.2754-57.7637L52.3438-74.4629C49.2676-76.1719 45.9473-76.2207 42.9199-74.4629L12.9883-57.7637C11.0352-56.6895 9.76562-55.3223 9.76562-52.3438L9.76562-19.873C9.76562-16.2109 10.9375-14.502 13.8672-12.8906ZM16.2109-15.4297C13.6719-16.8457 13.2324-17.9199 13.2324-20.0684L13.2324-51.8555C13.2324-53.4668 13.7695-54.2969 15.4785-55.2734L44.7754-71.6797C46.6797-72.7051 48.584-72.7539 50.4395-71.6797L79.7363-55.2734C81.4453-54.2969 82.0312-53.4668 82.0312-51.8555L82.0312-20.0684C82.0312-17.9199 81.543-16.8457 79.0039-15.4297L50.4395 0.195312C48.291 1.41602 46.8262 1.31836 44.7754 0.195312Z"/>
  </g>
  <g id="Ultralight-S" transform="matrix(1 0 0 1 512.47 696)">
   <path d="M13.3301-13.623L44.2383 3.17383C46.2402 4.29688 48.291 4.29688 50.293 3.17383L81.2012-13.623C83.8379-15.0879 84.7168-16.6992 84.7168-19.5801L84.7168-53.0762C84.7168-55.1758 83.7402-56.2988 82.3242-57.0801L51.123-74.3652C48.6816-75.6836 45.8496-75.7324 43.4082-74.3652L12.207-57.0801C10.7422-56.2988 9.76562-55.1758 9.76562-53.0762L9.76562-19.5801C9.76562-16.6992 10.6445-15.0879 13.3301-13.623ZM15.2344-15.1367C12.5-16.5527 12.1582-17.5781 12.1582-19.7754L12.1582-52.5391C12.1582-54.0039 12.6465-54.7852 14.3066-55.6641L44.9707-72.7051C46.4355-73.5352 48.0469-73.5352 49.5117-72.7051L80.2246-55.6641C81.8359-54.7852 82.373-54.0039 82.373-52.5391L82.373-19.7754C82.373-17.5781 81.9824-16.5527 79.2969-15.1367L49.5117 0.927734C47.7051 1.95312 46.6797 1.85547 44.9707 0.927734Z"/>
  </g>
 </g>
</svg>
