<?xml version="1.0" encoding="UTF-8"?>
<!--Generator: Apple Native CoreSVG 149-->
<!DOCTYPE svg
PUBLIC "-//W3C//DTD SVG 1.1//EN"
       "http://www.w3.org/Graphics/SVG/1.1/DTD/svg11.dtd">
<svg version="1.1" xmlns="http://www.w3.org/2000/svg" xmlns:xlink="http://www.w3.org/1999/xlink" width="3300" height="2200">
 <!--glyph: "uni100AD3.medium", point size: 100.000000, font version: "Version 16.0d18e1", template writer version: "8"-->
 <g id="Notes">
  <rect height="2200" id="artboard" style="fill:white;opacity:1" width="3300" x="0" y="0"/>
  <line id="" style="fill:none;stroke:black;opacity:1;stroke-width:0.5;" x1="263" x2="3036" y1="292" y2="292"/>
  <text style="stroke:none;fill:black;font-family:-apple-system,&quot;SF Pro Display&quot;,&quot;SF Pro Text&quot;,Helvetica,sans-serif;font-weight:bold;" transform="matrix(1 0 0 1 263 322)">Weight/Scale Variations</text>
  <text style="stroke:none;fill:black;font-family:-apple-system,&quot;SF Pro Display&quot;,&quot;SF Pro Text&quot;,Helvetica,sans-serif;text-anchor:middle;" transform="matrix(1 0 0 1 559.711 322)">Ultralight</text>
  <text style="stroke:none;fill:black;font-family:-apple-system,&quot;SF Pro Display&quot;,&quot;SF Pro Text&quot;,Helvetica,sans-serif;text-anchor:middle;" transform="matrix(1 0 0 1 856.422 322)">Thin</text>
  <text style="stroke:none;fill:black;font-family:-apple-system,&quot;SF Pro Display&quot;,&quot;SF Pro Text&quot;,Helvetica,sans-serif;text-anchor:middle;" transform="matrix(1 0 0 1 1153.13 322)">Light</text>
  <text style="stroke:none;fill:black;font-family:-apple-system,&quot;SF Pro Display&quot;,&quot;SF Pro Text&quot;,Helvetica,sans-serif;text-anchor:middle;" transform="matrix(1 0 0 1 1449.84 322)">Regular</text>
  <text style="stroke:none;fill:black;font-family:-apple-system,&quot;SF Pro Display&quot;,&quot;SF Pro Text&quot;,Helvetica,sans-serif;text-anchor:middle;" transform="matrix(1 0 0 1 1746.56 322)">Medium</text>
  <text style="stroke:none;fill:black;font-family:-apple-system,&quot;SF Pro Display&quot;,&quot;SF Pro Text&quot;,Helvetica,sans-serif;text-anchor:middle;" transform="matrix(1 0 0 1 2043.27 322)">Semibold</text>
  <text style="stroke:none;fill:black;font-family:-apple-system,&quot;SF Pro Display&quot;,&quot;SF Pro Text&quot;,Helvetica,sans-serif;text-anchor:middle;" transform="matrix(1 0 0 1 2339.98 322)">Bold</text>
  <text style="stroke:none;fill:black;font-family:-apple-system,&quot;SF Pro Display&quot;,&quot;SF Pro Text&quot;,Helvetica,sans-serif;text-anchor:middle;" transform="matrix(1 0 0 1 2636.69 322)">Heavy</text>
  <text style="stroke:none;fill:black;font-family:-apple-system,&quot;SF Pro Display&quot;,&quot;SF Pro Text&quot;,Helvetica,sans-serif;text-anchor:middle;" transform="matrix(1 0 0 1 2933.4 322)">Black</text>
  <line id="" style="fill:none;stroke:black;opacity:1;stroke-width:0.5;" x1="263" x2="3036" y1="1903" y2="1903"/>
  <g id="" transform="matrix(1 0 0 1 263 1933)">
   <path d="M9.24805 0.830078C13.5547 0.830078 17.1387-2.74414 17.1387-7.05078C17.1387-11.3574 13.5449-14.9316 9.23828-14.9316C4.94141-14.9316 1.36719-11.3574 1.36719-7.05078C1.36719-2.74414 4.95117 0.830078 9.24805 0.830078ZM9.24805-0.654297C5.70312-0.654297 2.87109-3.49609 2.87109-7.05078C2.87109-10.6055 5.69336-13.4473 9.23828-13.4473C12.793-13.4473 15.6348-10.6055 15.6445-7.05078C15.6543-3.49609 12.8027-0.654297 9.24805-0.654297ZM6.39648-6.31836L8.50586-6.31836L8.50586-4.19922C8.50586-3.75977 8.79883-3.45703 9.22852-3.45703C9.67773-3.45703 9.9707-3.75977 9.9707-4.19922L9.9707-6.31836L12.0996-6.31836C12.5391-6.31836 12.8418-6.61133 12.8418-7.04102C12.8418-7.48047 12.5391-7.7832 12.0996-7.7832L9.9707-7.7832L9.9707-9.89258C9.9707-10.3418 9.67773-10.6445 9.22852-10.6445C8.79883-10.6445 8.50586-10.3418 8.50586-9.89258L8.50586-7.7832L6.39648-7.7832C5.94727-7.7832 5.64453-7.48047 5.64453-7.04102C5.64453-6.61133 5.94727-6.31836 6.39648-6.31836Z"/>
  </g>
  <g id="" transform="matrix(1 0 0 1 281.506 1933)">
   <path d="M11.709 2.91016C17.1582 2.91016 21.6699-1.61133 21.6699-7.05078C21.6699-12.5 17.1484-17.0117 11.6992-17.0117C6.25977-17.0117 1.74805-12.5 1.74805-7.05078C1.74805-1.61133 6.26953 2.91016 11.709 2.91016ZM11.709 1.25C7.09961 1.25 3.41797-2.44141 3.41797-7.05078C3.41797-11.6602 7.08984-15.3516 11.6992-15.3516C16.3086-15.3516 20-11.6602 20.0098-7.05078C20.0195-2.44141 16.3184 1.25 11.709 1.25ZM7.98828-6.23047L10.8789-6.23047L10.8789-3.32031C10.8789-2.83203 11.2109-2.5 11.6895-2.5C12.1777-2.5 12.5195-2.83203 12.5195-3.32031L12.5195-6.23047L15.4297-6.23047C15.918-6.23047 16.25-6.5625 16.25-7.04102C16.25-7.5293 15.918-7.87109 15.4297-7.87109L12.5195-7.87109L12.5195-10.7617C12.5195-11.2695 12.1777-11.6016 11.6895-11.6016C11.2109-11.6016 10.8789-11.2598 10.8789-10.7617L10.8789-7.87109L7.98828-7.87109C7.48047-7.87109 7.14844-7.5293 7.14844-7.04102C7.14844-6.5625 7.49023-6.23047 7.98828-6.23047Z"/>
  </g>
  <g id="" transform="matrix(1 0 0 1 304.924 1933)">
   <path d="M14.9707 5.66406C21.9336 5.66406 27.6953-0.0976562 27.6953-7.05078C27.6953-14.0137 21.9238-19.7754 14.9609-19.7754C8.00781-19.7754 2.25586-14.0137 2.25586-7.05078C2.25586-0.0976562 8.01758 5.66406 14.9707 5.66406ZM14.9707 3.84766C8.93555 3.84766 4.08203-1.01562 4.08203-7.05078C4.08203-13.0957 8.92578-17.9492 14.9609-17.9492C21.0059-17.9492 25.8594-13.0957 25.8691-7.05078C25.8789-1.01562 21.0156 3.84766 14.9707 3.84766ZM10.0586-6.14258L14.0625-6.14258L14.0625-2.12891C14.0625-1.5918 14.4336-1.2207 14.9512-1.2207C15.4883-1.2207 15.8594-1.5918 15.8594-2.12891L15.8594-6.14258L19.8828-6.14258C20.4102-6.14258 20.791-6.51367 20.791-7.03125C20.791-7.56836 20.4199-7.94922 19.8828-7.94922L15.8594-7.94922L15.8594-11.9531C15.8594-12.5098 15.4883-12.8809 14.9512-12.8809C14.4336-12.8809 14.0625-12.5 14.0625-11.9531L14.0625-7.94922L10.0586-7.94922C9.50195-7.94922 9.13086-7.56836 9.13086-7.03125C9.13086-6.51367 9.51172-6.14258 10.0586-6.14258Z"/>
  </g>
  <text style="stroke:none;fill:black;font-family:-apple-system,&quot;SF Pro Display&quot;,&quot;SF Pro Text&quot;,Helvetica,sans-serif;font-weight:bold;" transform="matrix(1 0 0 1 263 1953)">Design Variations</text>
  <text style="stroke:none;fill:black;font-family:-apple-system,&quot;SF Pro Display&quot;,&quot;SF Pro Text&quot;,Helvetica,sans-serif;" transform="matrix(1 0 0 1 263 1971)">Symbols are supported in up to nine weights and three scales.</text>
  <text style="stroke:none;fill:black;font-family:-apple-system,&quot;SF Pro Display&quot;,&quot;SF Pro Text&quot;,Helvetica,sans-serif;" transform="matrix(1 0 0 1 263 1989)">For optimal layout with text and other symbols, vertically align</text>
  <text style="stroke:none;fill:black;font-family:-apple-system,&quot;SF Pro Display&quot;,&quot;SF Pro Text&quot;,Helvetica,sans-serif;" transform="matrix(1 0 0 1 263 2007)">symbols with the adjacent text.</text>
  <line id="" style="fill:none;stroke:#00AEEF;stroke-width:0.5;opacity:1.0;" x1="776" x2="776" y1="1919" y2="1933"/>
  <g id="" transform="matrix(1 0 0 1 776 1933)">
   <path d="M3.31055 0.126953C3.82812 0.126953 4.08203-0.0683594 4.26758-0.605469L5.52734-4.0625L11.2891-4.0625L12.5488-0.605469C12.7344-0.0683594 12.9883 0.126953 13.4961 0.126953C14.0137 0.126953 14.3457-0.185547 14.3457-0.673828C14.3457-0.839844 14.3164-0.986328 14.2383-1.20117L9.6582-13.3887C9.43359-13.9941 9.0332-14.2871 8.4082-14.2871C7.80273-14.2871 7.39258-13.9941 7.17773-13.3984L2.59766-1.19141C2.51953-0.976562 2.49023-0.830078 2.49023-0.664062C2.49023-0.175781 2.80273 0.126953 3.31055 0.126953ZM6.00586-5.53711L8.37891-12.1094L8.42773-12.1094L10.8008-5.53711Z"/>
  </g>
  <line id="" style="fill:none;stroke:#00AEEF;stroke-width:0.5;opacity:1.0;" x1="792.836" x2="792.836" y1="1919" y2="1933"/>
  <text style="stroke:none;fill:black;font-family:-apple-system,&quot;SF Pro Display&quot;,&quot;SF Pro Text&quot;,Helvetica,sans-serif;font-weight:bold;" transform="matrix(1 0 0 1 776 1953)">Margins</text>
  <text style="stroke:none;fill:black;font-family:-apple-system,&quot;SF Pro Display&quot;,&quot;SF Pro Text&quot;,Helvetica,sans-serif;" transform="matrix(1 0 0 1 776 1971)">Leading and trailing margins on the left and right side of each symbol</text>
  <text style="stroke:none;fill:black;font-family:-apple-system,&quot;SF Pro Display&quot;,&quot;SF Pro Text&quot;,Helvetica,sans-serif;" transform="matrix(1 0 0 1 776 1989)">can be adjusted by modifying the x-location of the margin guidelines.</text>
  <text style="stroke:none;fill:black;font-family:-apple-system,&quot;SF Pro Display&quot;,&quot;SF Pro Text&quot;,Helvetica,sans-serif;" transform="matrix(1 0 0 1 776 2007)">Modifications are automatically applied proportionally to all</text>
  <text style="stroke:none;fill:black;font-family:-apple-system,&quot;SF Pro Display&quot;,&quot;SF Pro Text&quot;,Helvetica,sans-serif;" transform="matrix(1 0 0 1 776 2025)">scales and weights.</text>
  <g id="" transform="matrix(1 0 0 1 1289 1933)">
   <path d="M2.8418 1.86523L4.54102 3.57422C5.40039 4.44336 6.38672 4.38477 7.31445 3.35938L17.4902-7.85156C17.7539-7.76367 18.0273-7.7832 18.3398-7.8418L19.4043-8.03711L20.0684-7.36328L20.0293-6.80664C19.9902-6.30859 20.1172-5.92773 20.6055-5.44922L21.3672-4.70703C21.8457-4.22852 22.4609-4.19922 22.9297-4.66797L25.8398-7.58789C26.3086-8.05664 26.2891-8.65234 25.8105-9.13086L25.0391-9.89258C24.5605-10.3711 24.1895-10.5273 23.7109-10.4883L23.1348-10.4395L22.4902-11.0742L22.7344-12.1973C22.8613-12.7637 22.7051-13.2031 22.1191-13.7891L19.9219-15.9766C16.582-19.2969 12.1484-19.2188 9.25781-16.3281C8.83789-15.918 8.80859-15.3418 9.04297-14.9512C9.27734-14.5898 9.73633-14.3555 10.3809-14.5215C11.8457-14.8633 13.3691-14.9219 14.7949-13.9844L14.209-12.5293C14.0137-12.0508 13.9844-11.6504 14.1113-11.2891L3.04688-0.898438C2.06055 0.0195312 1.98242 0.996094 2.8418 1.86523ZM10.752-15.957C13.1836-17.7344 16.4746-17.4316 18.7012-15.2051L21.1328-12.793C21.3672-12.5586 21.4062-12.373 21.3379-12.0312L21.0156-10.5469L22.5195-9.0625L23.5059-9.12109C23.7598-9.13086 23.8379-9.11133 24.0332-8.91602L24.6094-8.33984L22.168-5.89844L21.5918-6.47461C21.3965-6.66992 21.3672-6.74805 21.377-7.01172L21.4453-7.98828L19.9512-9.47266L18.4277-9.21875C18.1055-9.15039 17.959-9.17969 17.7148-9.41406L15.7129-11.416C15.459-11.6504 15.4297-11.8164 15.5859-12.1875L16.4648-14.2773C14.9023-15.7324 12.8711-16.3574 10.8398-15.7617C10.6836-15.7227 10.625-15.8496 10.752-15.957ZM5.27344 2.30469L4.10156 1.14258C3.63281 0.683594 3.74023 0.341797 4.14062-0.0195312L14.9512-10.1953L16.416-8.71094L6.42578 2.27539C6.07422 2.67578 5.74219 2.77344 5.27344 2.30469Z"/>
  </g>
  <text style="stroke:none;fill:black;font-family:-apple-system,&quot;SF Pro Display&quot;,&quot;SF Pro Text&quot;,Helvetica,sans-serif;font-weight:bold;" transform="matrix(1 0 0 1 1289 1953)">Exporting</text>
  <text style="stroke:none;fill:black;font-family:-apple-system,&quot;SF Pro Display&quot;,&quot;SF Pro Text&quot;,Helvetica,sans-serif;" transform="matrix(1 0 0 1 1289 1971)">Symbols should be outlined when exporting to ensure the</text>
  <text style="stroke:none;fill:black;font-family:-apple-system,&quot;SF Pro Display&quot;,&quot;SF Pro Text&quot;,Helvetica,sans-serif;" transform="matrix(1 0 0 1 1289 1989)">design is preserved when submitting to Xcode.</text>
  <text id="template-version" style="stroke:none;fill:black;font-family:-apple-system,&quot;SF Pro Display&quot;,&quot;SF Pro Text&quot;,Helvetica,sans-serif;text-anchor:end;" transform="matrix(1 0 0 1 3036 1933)">Template v.2.0</text>
  <text style="stroke:none;fill:black;font-family:-apple-system,&quot;SF Pro Display&quot;,&quot;SF Pro Text&quot;,Helvetica,sans-serif;text-anchor:end;" transform="matrix(1 0 0 1 3036 1951)">Requires Xcode 12 or greater</text>
  <text style="stroke:none;fill:black;font-family:-apple-system,&quot;SF Pro Display&quot;,&quot;SF Pro Text&quot;,Helvetica,sans-serif;text-anchor:end;" transform="matrix(1 0 0 1 3036 1969)">Generated from graduationcap</text>
  <text style="stroke:none;fill:black;font-family:-apple-system,&quot;SF Pro Display&quot;,&quot;SF Pro Text&quot;,Helvetica,sans-serif;text-anchor:end;" transform="matrix(1 0 0 1 3036 1987)">Typeset at 100 points</text>
  <text style="stroke:none;fill:black;font-family:-apple-system,&quot;SF Pro Display&quot;,&quot;SF Pro Text&quot;,Helvetica,sans-serif;" transform="matrix(1 0 0 1 263 726)">Small</text>
  <text style="stroke:none;fill:black;font-family:-apple-system,&quot;SF Pro Display&quot;,&quot;SF Pro Text&quot;,Helvetica,sans-serif;" transform="matrix(1 0 0 1 263 1156)">Medium</text>
  <text style="stroke:none;fill:black;font-family:-apple-system,&quot;SF Pro Display&quot;,&quot;SF Pro Text&quot;,Helvetica,sans-serif;" transform="matrix(1 0 0 1 263 1586)">Large</text>
 </g>
 <g id="Guides">
  <g id="H-reference" style="fill:#27AAE1;stroke:none;" transform="matrix(1 0 0 1 339 696)">
   <path d="M0.976562 0L3.66211 0L12.9883-24.4629L45.752-24.4629L55.127 0L57.7637 0L30.6152-70.459L28.125-70.459ZM29.3457-67.1387L29.4434-67.1387L44.873-26.709L13.8672-26.709Z"/>
  </g>
  <line id="Baseline-S" style="fill:none;stroke:#27AAE1;opacity:1;stroke-width:0.5;" x1="263" x2="3036" y1="696" y2="696"/>
  <line id="Capline-S" style="fill:none;stroke:#27AAE1;opacity:1;stroke-width:0.5;" x1="263" x2="3036" y1="625.541" y2="625.541"/>
  <g id="H-reference" style="fill:#27AAE1;stroke:none;" transform="matrix(1 0 0 1 339 1126)">
   <path d="M0.976562 0L3.66211 0L12.9883-24.4629L45.752-24.4629L55.127 0L57.7637 0L30.6152-70.459L28.125-70.459ZM29.3457-67.1387L29.4434-67.1387L44.873-26.709L13.8672-26.709Z"/>
  </g>
  <line id="Baseline-M" style="fill:none;stroke:#27AAE1;opacity:1;stroke-width:0.5;" x1="263" x2="3036" y1="1126" y2="1126"/>
  <line id="Capline-M" style="fill:none;stroke:#27AAE1;opacity:1;stroke-width:0.5;" x1="263" x2="3036" y1="1055.54" y2="1055.54"/>
  <g id="H-reference" style="fill:#27AAE1;stroke:none;" transform="matrix(1 0 0 1 339 1556)">
   <path d="M0.976562 0L3.66211 0L12.9883-24.4629L45.752-24.4629L55.127 0L57.7637 0L30.6152-70.459L28.125-70.459ZM29.3457-67.1387L29.4434-67.1387L44.873-26.709L13.8672-26.709Z"/>
  </g>
  <line id="Baseline-L" style="fill:none;stroke:#27AAE1;opacity:1;stroke-width:0.5;" x1="263" x2="3036" y1="1556" y2="1556"/>
  <line id="Capline-L" style="fill:none;stroke:#27AAE1;opacity:1;stroke-width:0.5;" x1="263" x2="3036" y1="1485.54" y2="1485.54"/>
  <line id="left-margin" style="fill:none;stroke:#00AEEF;stroke-width:0.5;opacity:1.0;" x1="1371.01" x2="1371.01" y1="1030.79" y2="1150.12"/>
  <line id="right-margin" style="fill:none;stroke:#00AEEF;stroke-width:0.5;opacity:1.0;" x1="1528.68" x2="1528.68" y1="1030.79" y2="1150.12"/>
 </g>
 <g id="Symbols">
  <g id="Black-L" transform="matrix(1 0 0 1 2825.56 1556)">
   <path d="M41.2598-10.6445C41.2598 2.00195 49.5117 12.4512 62.6465 19.5312C58.6914 21.1426 56.2988 24.8535 56.2988 29.7852L56.2988 47.7051C56.2988 54.4434 60.791 58.8867 67.4805 58.8867L72.7539 58.8867C79.4434 58.8867 83.9355 54.4434 83.9355 47.7051L83.9355 29.7852C83.9355 28.8086 83.8379 27.9297 83.6426 27.0508C91.1621 28.6621 99.3164 29.541 107.861 29.541C144.629 29.541 174.414 13.4277 174.414-10.6445L174.414-34.8633L190.381-42.1387C196.143-44.7266 199.609-49.8535 199.609-55.6641C199.609-61.4746 196.143-66.5527 190.381-69.1895L127.393-97.9492C119.971-101.318 113.721-102.881 107.861-102.832C101.953-102.881 95.7031-101.318 88.2812-97.9492L25.293-69.1895C19.5312-66.5527 16.0645-61.4746 16.0645-55.6641C16.0645-49.8535 19.5312-44.7266 25.293-42.1387L41.2598-34.8633ZM107.861-28.5156C104.395-28.5156 101.123-29.4434 96.1914-31.6895L83.5449-37.4512L100.537-45.9961C102.832-45.2637 105.371-44.873 107.91-44.873C116.406-44.873 124.512-49.1211 124.512-55.6641C124.512-62.207 116.357-66.2598 107.91-66.2598C99.4629-66.2598 91.3086-62.1094 91.3086-55.6641C91.3086-55.4199 91.3086-55.1758 91.3086-54.9316L69.3848-43.8477L46.1914-54.3945C45.459-54.6875 45.166-55.0781 45.166-55.6641C45.166-56.25 45.459-56.6406 46.1914-56.9336L96.1914-79.6387C101.123-81.8359 104.395-82.8125 107.861-82.8125C111.328-82.8125 114.551-81.8359 119.482-79.6387L169.531-56.9336C170.215-56.6406 170.508-56.25 170.508-55.6641C170.508-55.0781 170.215-54.6875 169.531-54.3945L119.482-31.6895C114.551-29.4434 111.328-28.5156 107.861-28.5156ZM59.8633-10.6445L59.8633-26.3672L63.623-24.6094L63.623-1.95312C61.1816-4.63867 59.8633-7.61719 59.8633-10.6445ZM107.861-8.49609C113.721-8.44727 119.971-10.0098 127.393-13.3789L155.811-26.3672L155.811-10.6445C155.811 1.26953 135.596 11.7676 107.861 11.7676C95.6543 11.7676 84.9121 9.7168 76.709 6.44531L76.709-18.6523L88.2812-13.3789C95.7031-10.0098 101.953-8.44727 107.861-8.49609Z"/>
  </g>
  <g id="Heavy-L" transform="matrix(1 0 0 1 2530.41 1556)">
   <path d="M41.3086-10.1074C41.3086 1.66016 49.0234 11.6699 61.6211 18.5547L61.6211 19.7266C57.4707 20.9961 54.8828 24.6094 54.8828 29.541L54.8828 47.2168C54.8828 53.418 58.9844 57.5195 65.1855 57.5195L69.6289 57.5195C75.8789 57.5195 79.9805 53.418 79.9805 47.2168L79.9805 29.541C79.9805 27.9785 79.7363 26.5625 79.248 25.293C87.4023 27.3926 96.5332 28.5156 106.299 28.5156C143.018 28.5156 171.24 12.4023 171.24-10.1074L171.24-35.5957L188.086-43.2617C193.408-45.6543 196.484-50.3418 196.484-55.6152C196.484-60.8398 193.408-65.5273 188.086-67.9199L125.244-96.6309C118.018-99.9512 112.012-101.465 106.299-101.367C100.537-101.465 94.5312-99.9512 87.3047-96.6309L24.4629-67.9199C19.1895-65.5273 16.0645-60.8398 16.0645-55.6152C16.0645-50.3418 19.1895-45.6543 24.4629-43.2617L41.3086-35.5957ZM106.299-27.1484C102.637-27.1484 99.1699-28.125 94.0918-30.4199L79.834-36.8652L99.3652-46.7773C101.514-46.1426 103.955-45.752 106.396-45.752C114.502-45.752 122.119-49.707 122.119-55.6152C122.119-61.4746 114.453-65.2832 106.396-65.2832C98.291-65.2832 90.5762-61.4258 90.5762-55.6152C90.5762-55.2246 90.625-54.834 90.6738-54.4922L67.2363-42.627L41.9434-54.1016C41.1133-54.4434 40.7715-54.9805 40.7715-55.6152C40.7715-56.25 41.1133-56.7383 41.9434-57.1289L94.0918-80.8105C99.1699-83.1055 102.637-84.082 106.299-84.082C109.912-84.082 113.379-83.1055 118.457-80.8105L170.605-57.1289C171.436-56.7383 171.777-56.25 171.777-55.6152C171.777-54.9805 171.436-54.4434 170.605-54.1016L118.457-30.4199C113.379-28.125 109.912-27.1484 106.299-27.1484ZM57.5684-10.1074L57.5684-28.1738L61.6211-26.2695L61.6211-0.830078C58.9844-3.71094 57.5684-6.88477 57.5684-10.1074ZM106.299-9.86328C112.012-9.76562 118.018-11.2793 125.244-14.5508L154.98-28.1738L154.98-10.1074C154.98 1.95312 134.961 12.9883 106.299 12.9883C93.0664 12.9883 81.7383 10.6445 73.291 6.98242L73.291-20.9473L87.3047-14.5508C94.5312-11.2793 100.537-9.76562 106.299-9.86328Z"/>
  </g>
  <g id="Bold-L" transform="matrix(1 0 0 1 2235.46 1556)">
   <path d="M41.3574-9.42383C41.3574 0.976562 48.0469 10.2539 59.375 16.8457L59.375 20.3613C55.6152 21.5332 53.2715 24.7559 53.2715 29.2969L53.2715 46.582C53.2715 52.2949 56.9824 56.0059 62.6465 56.0059L66.1621 56.0059C71.8262 56.0059 75.5371 52.2949 75.5371 46.582L75.5371 29.2969C75.5371 26.709 74.8047 24.5605 73.4375 22.9492C82.4707 25.7812 92.9688 27.3926 104.541 27.3926C141.26 27.3926 167.725 11.2305 167.725-9.42383L167.725-36.377L185.547-44.5312C190.283-46.7285 192.969-50.9277 192.969-55.5664C192.969-60.1562 190.283-64.4043 185.547-66.5527L122.852-95.166C115.82-98.3887 110.107-99.8535 104.541-99.7559C98.9746-99.8535 93.2129-98.3887 86.1816-95.166L23.4863-66.5527C18.75-64.4043 16.0645-60.1562 16.0645-55.5664C16.0645-50.9277 18.75-46.7285 23.4863-44.5312L41.3574-36.377ZM104.541-25.5859C100.635-25.5859 96.9727-26.5625 91.7969-28.9551L75.6836-36.2793L98.0469-47.7051C100.098-47.0703 102.344-46.7773 104.688-46.7773C112.354-46.7773 119.482-50.3906 119.482-55.5664C119.482-60.6445 112.305-64.209 104.688-64.209C96.9727-64.209 89.7949-60.6445 89.7949-55.5664C89.7949-55.0293 89.8926-54.4922 90.0391-54.0039L64.8438-41.2109L37.207-53.8086C36.2793-54.1992 35.8398-54.834 35.8398-55.5664C35.8398-56.2988 36.2793-56.8848 37.207-57.2754L91.7969-82.1289C96.9727-84.5215 100.635-85.498 104.541-85.498C108.398-85.498 112.061-84.5215 117.285-82.1289L171.875-57.2754C172.803-56.8848 173.242-56.2988 173.242-55.5664C173.242-54.834 172.803-54.1992 171.875-53.8086L117.285-28.9551C112.061-26.5625 108.398-25.5859 104.541-25.5859ZM54.9805-9.42383L54.9805-30.1758L59.375-28.125L59.375 0.390625C56.543-2.68555 54.9805-6.05469 54.9805-9.42383ZM104.541-11.3281C110.107-11.2793 115.82-12.6953 122.852-15.918L154.102-30.1758L154.102-9.42383C154.102 2.73438 134.18 14.4043 104.541 14.4043C90.1855 14.4043 78.125 11.6699 69.4824 7.4707L69.4824-23.5352L86.1816-15.918C93.2129-12.6953 98.9746-11.2793 104.541-11.3281Z"/>
  </g>
  <g id="Semibold-L" transform="matrix(1 0 0 1 1939.95 1556)">
   <path d="M41.3574-8.98438C41.3574 0.537109 47.4121 9.22852 57.8613 15.6738L57.8613 20.8008C54.3457 21.875 52.1484 24.9023 52.1484 29.1016L52.1484 46.1914C52.1484 51.5137 55.6152 54.9316 60.9375 54.9316L63.7695 54.9316C69.043 54.9316 72.5098 51.5137 72.5098 46.1914L72.5098 29.1016C72.5098 24.9023 70.3613 21.875 66.8945 20.8008L66.8945 20.166C76.8066 24.2188 89.209 26.6113 103.32 26.6113C140.039 26.6113 165.283 10.4492 165.283-8.98438L165.283-36.9629L183.789-45.4102C188.184-47.4121 190.576-51.2695 190.576-55.5176C190.576-59.668 188.184-63.5742 183.789-65.5762L121.24-94.1895C114.307-97.3145 108.789-98.7305 103.32-98.6328C97.8516-98.7305 92.334-97.3145 85.4004-94.1895L22.8516-65.5762C18.457-63.5742 16.0645-59.668 16.0645-55.5176C16.0645-51.2695 18.457-47.4121 22.8516-45.4102L41.3574-36.9629ZM103.32-24.5117C99.3164-24.5117 95.459-25.5371 90.1855-27.9785L72.8516-35.8398L97.168-48.291C99.1211-47.7539 101.27-47.4121 103.467-47.4121C110.84-47.4121 117.627-50.8789 117.627-55.5176C117.627-60.1074 110.84-63.4766 103.467-63.4766C96.0938-63.4766 89.2578-60.1074 89.2578-55.5176C89.2578-54.8828 89.3555-54.2969 89.5996-53.7109L63.1836-40.2832L33.9355-53.6133C32.9102-54.0527 32.4219-54.7363 32.4219-55.5176C32.4219-56.2988 32.9102-56.9824 33.9355-57.4219L90.1855-83.0566C95.459-85.498 99.3164-86.4746 103.32-86.4746C107.324-86.4746 111.182-85.498 116.455-83.0566L172.705-57.4219C173.73-56.9824 174.219-56.2988 174.219-55.5176C174.219-54.7363 173.73-54.0527 172.705-53.6133L116.455-27.9785C111.182-25.5371 107.324-24.5117 103.32-24.5117ZM53.1738-8.98438L53.1738-31.543L57.8613-29.4434L57.8613 1.2207C54.834-1.95312 53.1738-5.46875 53.1738-8.98438ZM103.32-12.3535C108.789-12.3047 114.307-13.6719 121.24-16.8457L153.467-31.543L153.467-8.98438C153.467 3.27148 133.643 15.3809 103.32 15.3809C88.1348 15.3809 75.5859 12.3535 66.8945 7.76367L66.8945-25.293L85.4004-16.8457C92.334-13.6719 97.8516-12.3047 103.32-12.3535Z"/>
  </g>
  <g id="Medium-L" transform="matrix(1 0 0 1 1644.16 1556)">
   <path d="M41.4062-8.64258C41.4062 0.195312 46.9238 8.44727 56.6895 14.7461L56.6895 21.0938C53.3691 22.1191 51.3184 25 51.3184 28.9551L51.3184 45.8984C51.3184 50.9277 54.541 54.1504 59.5703 54.1504L61.9141 54.1504C66.9434 54.1504 70.166 50.9277 70.166 45.8984L70.166 28.9551C70.166 25 68.1641 22.168 64.8926 21.1426L64.8926 19.043C74.8535 23.3887 87.5977 25.9766 102.393 25.9766C139.16 25.9766 163.428 9.86328 163.428-8.64258L163.428-37.4023L182.422-46.0938C186.523-47.9492 188.721-51.5625 188.721-55.4688C188.721-59.3262 186.523-62.9883 182.422-64.8438L119.971-93.4082C113.135-96.5332 107.764-97.9004 102.393-97.8027C97.0215-97.9004 91.6504-96.5332 84.8145-93.4082L22.3633-64.8438C18.2617-62.9883 16.0645-59.3262 16.0645-55.4688C16.0645-51.5625 18.2617-47.9492 22.3633-46.0938L41.4062-37.4023ZM102.393-23.7305C98.2422-23.7305 94.3359-24.7559 88.9648-27.1973L70.7031-35.5469L96.4844-48.7793C98.3398-48.2422 100.439-47.9492 102.588-47.9492C109.717-47.9492 116.26-51.2207 116.26-55.5176C116.26-59.7168 109.717-62.8906 102.588-62.8906C95.4102-62.8906 88.8184-59.668 88.8184-55.5176C88.8184-54.7852 89.0137-54.1016 89.3555-53.4668L61.9141-39.5508L31.4453-53.418C30.3711-53.9062 29.834-54.6387 29.834-55.4688C29.834-56.2988 30.3711-57.0312 31.4453-57.5195L88.9648-83.7402C94.3359-86.2305 98.2422-87.2559 102.393-87.2559C106.543-87.2559 110.498-86.2305 115.869-83.7402L173.389-57.5195C174.414-57.0312 174.951-56.2988 174.951-55.4688C174.951-54.6387 174.414-53.9062 173.389-53.418L115.869-27.1973C110.498-24.7559 106.543-23.7305 102.393-23.7305ZM51.8555-8.64258L51.8555-32.6172L56.6895-30.4199L56.6895 1.85547C53.5156-1.41602 51.8555-5.0293 51.8555-8.64258ZM102.393-13.1348C107.764-13.0859 113.135-14.4043 119.971-17.5293L152.979-32.6172L152.979-8.64258C152.979 3.66211 133.252 16.1133 102.393 16.1133C86.5723 16.1133 73.6816 12.8418 64.8926 8.00781L64.8926-26.6602L84.8145-17.5293C91.6504-14.4043 97.0215-13.0859 102.393-13.1348Z"/>
  </g>
  <g id="Regular-L" transform="matrix(1 0 0 1 1348.65 1556)">
   <path d="M41.4062-8.20312C41.4062-0.244141 46.2891 7.4707 55.1758 13.4766L55.1758 21.5332C52.0996 22.4609 50.2441 25.0977 50.2441 28.7598L50.2441 45.459C50.2441 50.1465 53.1738 53.0762 57.8613 53.0762L59.5703 53.0762C64.209 53.0762 67.1875 50.1465 67.1875 45.459L67.1875 28.7598C67.1875 25.0977 65.332 22.5098 62.3047 21.582L62.3047 17.5293C72.2656 22.2656 85.498 25.2441 101.221 25.2441C137.939 25.2441 160.986 9.08203 160.986-8.20312L160.986-37.9395L180.713-46.9727C184.424-48.6816 186.328-51.9531 186.328-55.4199C186.328-58.8379 184.424-62.207 180.713-63.916L118.359-92.4316C111.67-95.459 106.445-96.7773 101.221-96.7285C95.9473-96.7773 90.7715-95.459 84.082-92.4316L21.7285-63.916C17.9688-62.207 16.0645-58.8379 16.0645-55.4199C16.0645-51.9531 17.9688-48.6816 21.7285-46.9727L41.4062-37.9395ZM101.221-22.6562C96.9238-22.6562 92.8223-23.6816 87.3535-26.2207L67.8711-35.1074L95.5566-49.3652C97.3633-48.877 99.3652-48.6328 101.416-48.6328C108.252-48.6328 114.453-51.6602 114.453-55.4688C114.453-59.1309 108.252-62.1582 101.416-62.1582C94.5312-62.1582 88.2812-59.1309 88.2812-55.4688C88.2812-54.6875 88.5742-53.9551 89.0625-53.2227L60.2539-38.623L28.2227-53.2227C27.0508-53.7598 26.4648-54.541 26.4648-55.4199C26.4648-56.3477 27.0508-57.1289 28.2227-57.666L87.3535-84.6191C92.8223-87.1582 96.9238-88.1836 101.221-88.1836C105.518-88.1836 109.57-87.1582 115.039-84.6191L174.219-57.666C175.342-57.1289 175.928-56.3477 175.928-55.4199C175.928-54.541 175.342-53.7598 174.219-53.2227L115.039-26.2207C109.57-23.6816 105.518-22.6562 101.221-22.6562ZM50.0977-8.20312L50.0977-33.9844L55.1758-31.6406L55.1758 2.73438C51.8555-0.732422 50.0977-4.49219 50.0977-8.20312ZM101.221-14.1602C106.445-14.0625 111.67-15.3809 118.359-18.457L152.344-33.9844L152.344-8.20312C152.344 4.15039 132.764 17.041 101.221 17.041C84.5215 17.041 71.1426 13.4277 62.3047 8.20312L62.3047-28.418L84.082-18.457C90.7715-15.3809 95.9473-14.0625 101.221-14.1602Z"/>
  </g>
  <g id="Light-L" transform="matrix(1 0 0 1 1052.62 1556)">
   <path d="M42.4805-8.1543C42.4805-1.41602 46.8262 5.56641 54.7852 11.2305L54.7852 18.75C51.709 19.4336 49.9023 21.8262 49.9023 25.3906L49.9023 42.2363C49.9023 46.4844 52.4902 49.0723 56.7871 49.0723L58.4473 49.0723C62.6953 49.0723 65.332 46.4844 65.332 42.2363L65.332 25.3906C65.332 21.8262 63.5254 19.4336 60.4492 18.75L60.4492 14.6973C70.3125 19.9219 83.8867 23.3887 100.537 23.3887C136.719 23.3887 158.545 6.93359 158.545-8.1543L158.545-38.0371L180.029-47.9004C183.252-49.3652 184.961-52.1973 184.961-55.2246C184.961-58.252 183.252-61.084 180.029-62.5977L117.236-91.3574C110.596-94.3848 105.566-95.6055 100.537-95.5078C95.459-95.6055 90.4785-94.3848 83.7891-91.3574L20.9961-62.5977C17.7734-61.084 16.0645-58.252 16.0645-55.2246C16.0645-52.1973 17.7734-49.3652 20.9961-47.9004L42.4805-38.0371ZM100.537-21.4844C96.1426-21.4844 91.9922-22.4609 86.377-25.0977L64.6973-35.0098L94.4824-49.707C96.2891-49.1699 98.4375-48.877 100.635-48.877C107.617-48.877 113.281-51.9043 113.281-55.2734C113.281-58.4961 107.617-61.5234 100.635-61.5234C93.6523-61.5234 87.9395-58.4961 87.9395-55.2734C87.9395-54.3945 88.3789-53.5156 89.0625-52.7344L58.6426-37.793L25.6836-52.8809C24.5117-53.3691 23.877-54.2969 23.877-55.2246C23.877-56.2012 24.5117-57.0801 25.6836-57.6172L86.377-85.4004C91.9922-87.9883 96.1426-88.9648 100.537-88.9648C104.932-88.9648 109.033-87.9883 114.648-85.4004L175.342-57.6172C176.514-57.0801 177.148-56.2012 177.148-55.2246C177.148-54.2969 176.514-53.3691 175.342-52.8809L114.648-25.0977C109.033-22.4609 104.932-21.4844 100.537-21.4844ZM49.1211-8.1543L49.1211-35.0098L54.7852-32.4219L54.7852 2.97852C51.0742-0.634766 49.1211-4.54102 49.1211-8.1543ZM100.537-14.9414C105.566-14.8926 110.596-16.0645 117.236-19.1406L151.953-35.0098L151.953-8.1543C151.953 3.125 132.764 17.0898 100.537 17.0898C82.959 17.0898 69.2871 12.9395 60.4492 7.37305L60.4492-29.834L83.7891-19.1406C90.4785-16.0645 95.459-14.8926 100.537-14.9414Z"/>
  </g>
  <g id="Thin-L" transform="matrix(1 0 0 1 756.813 1556)">
   <path d="M43.8965-8.05664C43.8965-2.92969 47.5098 3.02734 54.2969 8.20312L54.2969 15.0879C51.2207 15.4785 49.4629 17.5293 49.4629 20.8984L49.4629 37.9395C49.4629 41.6992 51.6113 43.7988 55.3711 43.7988L56.9824 43.7988C60.7422 43.7988 62.8906 41.6992 62.8906 37.9395L62.8906 20.8984C62.8906 17.5293 61.1328 15.4785 58.0566 15.0879L58.0566 10.791C67.5293 16.6504 81.5918 20.9961 99.6094 20.9961C135.107 20.9961 155.322 4.10156 155.322-8.05664L155.322-38.1348L179.15-49.1211C181.738-50.293 183.154-52.4902 183.154-54.9805C183.154-57.4219 181.738-59.6191 179.15-60.8398L115.771-89.9414C109.18-92.9688 104.443-93.9941 99.6094-93.8965C94.8242-93.9941 90.0879-92.9688 83.4473-89.9414L20.0684-60.8398C17.4805-59.6191 16.0645-57.4219 16.0645-54.9805C16.0645-52.4902 17.4805-50.293 20.0684-49.1211L43.8965-38.1348ZM99.6094-19.9219C95.0684-19.9219 90.918-20.8496 85.1074-23.5352L60.4492-34.8633L93.0176-50.1953C94.873-49.5605 97.1191-49.1699 99.6582-49.1699C106.787-49.1699 111.719-52.2461 111.719-55.0293C111.719-57.666 106.787-60.7422 99.6582-60.7422C92.5293-60.7422 87.5-57.666 87.5-55.0293C87.5-54.0527 88.1348-53.0273 89.3066-52.0996L56.4453-36.7188L22.4121-52.3438C21.1426-52.9297 20.459-53.9551 20.459-54.9805C20.459-56.0059 21.1426-56.9824 22.4121-57.5684L85.1074-86.377C90.918-89.1113 95.0684-89.9902 99.6094-89.9902C104.15-89.9902 108.35-89.1113 114.16-86.377L176.807-57.5684C178.076-56.9824 178.809-56.0059 178.809-54.9805C178.809-53.9551 178.076-52.9297 176.807-52.3438L114.16-23.5352C108.35-20.8496 104.15-19.9219 99.6094-19.9219ZM47.8516-8.05664L47.8516-36.377L54.2969-33.3984L54.2969 3.22266C50.0488-0.634766 47.8516-4.63867 47.8516-8.05664ZM99.6094-16.0156C104.443-15.918 109.18-16.9434 115.771-20.0195L151.416-36.377L151.416-8.05664C151.416 1.75781 132.764 17.1387 99.6094 17.1387C80.8594 17.1387 66.748 12.207 58.0566 6.15234L58.0566-31.6895L83.4473-20.0195C90.0879-16.9434 94.8242-15.918 99.6094-16.0156Z"/>
  </g>
  <g id="Ultralight-L" transform="matrix(1 0 0 1 460.566 1556)">
   <path d="M44.6289-7.95898C44.6289-3.66211 47.8516 1.75781 54.0527 6.64062L54.0527 13.2812C50.9277 13.4766 49.2676 15.332 49.2676 18.6523L49.2676 35.7422C49.2676 39.209 51.123 41.1133 54.6387 41.1133L56.25 41.1133C59.7168 41.1133 61.6211 39.209 61.6211 35.7422L61.6211 18.6523C61.6211 15.332 59.9121 13.4766 56.7871 13.2812L56.7871 8.64258C66.0156 14.8438 80.3223 19.7754 99.1699 19.7754C134.277 19.7754 153.662 2.63672 153.662-7.95898L153.662-38.2324L178.711-49.707C180.957-50.7812 182.227-52.6367 182.227-54.834C182.227-57.0312 180.957-58.8867 178.711-59.9121L115.039-89.209C108.447-92.2363 103.857-93.1641 99.1699-93.1152C94.4824-93.1641 89.8926-92.2363 83.3008-89.209L19.6289-59.9121C17.3828-58.8867 16.0645-57.0312 16.0645-54.834C16.0645-52.6367 17.3828-50.7812 19.6289-49.707L44.6289-38.2324ZM99.1699-19.1406C94.5312-19.1406 90.332-19.9707 84.4238-22.7539L58.2031-34.8145L92.2852-50.4395C94.1406-49.7559 96.4355-49.3652 99.1211-49.3652C106.348-49.3652 110.889-52.3926 110.889-54.9316C110.889-57.2754 106.348-60.3027 99.1211-60.3027C91.9434-60.3027 87.3047-57.2754 87.3047-54.9316C87.3047-53.9062 88.0859-52.7832 89.4531-51.8066L55.2734-36.1816L20.7031-52.0996C19.4336-52.6855 18.6523-53.7598 18.6523-54.834C18.6523-55.9082 19.4336-56.9824 20.7031-57.5195L84.4238-86.9141C90.332-89.6484 94.5312-90.5273 99.1699-90.5273C103.76-90.5273 107.959-89.6484 113.867-86.9141L177.588-57.5195C178.906-56.9824 179.639-55.9082 179.639-54.834C179.639-53.7598 178.906-52.6855 177.588-52.0996L113.867-22.7539C107.959-19.9707 103.76-19.1406 99.1699-19.1406ZM47.2168-7.95898L47.2168-37.0605L54.0527-33.8867L54.0527 3.32031C49.5117-0.634766 47.2168-4.73633 47.2168-7.95898ZM99.1699-16.5527C103.857-16.4551 108.447-17.3828 115.039-20.459L151.123-37.0605L151.123-7.95898C151.123 1.07422 132.764 17.1875 99.1699 17.1875C79.7363 17.1875 65.4297 11.8164 56.7871 5.51758L56.7871-32.6172L83.3008-20.459C89.8926-17.3828 94.4824-16.4551 99.1699-16.5527Z"/>
  </g>
  <g id="Black-M" transform="matrix(1 0 0 1 2848.07 1126)">
   <path d="M32.5195-16.9434C32.5195-7.12891 38.623 0.927734 48.291 6.54297C46.4355 8.20312 45.3613 10.6934 45.3613 13.6719L45.3613 28.0273C45.3613 33.6914 49.1211 37.4512 54.7852 37.4512L60.0098 37.4512C65.625 37.4512 69.3848 33.6914 69.3848 28.0273L69.3848 13.9648C74.4629 14.8926 79.834 15.3809 85.3027 15.3809C113.525 15.3809 138.135 2.73438 138.135-16.9434L138.135-33.9844L150.293-39.5508C155.127-41.748 158.203-45.9961 158.203-51.0254C158.203-56.0547 155.127-60.3027 150.293-62.5L101.025-85.0098C95.0684-87.6953 89.9902-88.9648 85.3027-88.916C80.6641-88.9648 75.5859-87.6953 69.6289-85.0098L20.3613-62.5C15.5273-60.3027 12.4512-56.0547 12.4512-51.0254C12.4512-45.9961 15.5273-41.748 20.3613-39.5508L32.5195-33.9844ZM85.3027-31.25C82.8613-31.25 80.5664-31.9336 76.8555-33.5938L68.1152-37.5488L78.8574-42.6758C80.8105-42.041 83.0566-41.6504 85.3027-41.6504C92.4805-41.6504 99.0234-45.3125 99.0234-51.0254C99.0234-56.7383 92.4316-60.2539 85.3027-60.2539C78.1738-60.2539 71.5332-56.6895 71.5332-51.0254L71.5332-50.7812L55.8594-43.1152L40.1855-50.2441C39.7461-50.3906 39.5508-50.6348 39.5508-51.0254C39.5508-51.416 39.7461-51.6602 40.1855-51.8066L76.8555-68.457C80.5664-70.1172 82.8613-70.8008 85.3027-70.8008C87.793-70.8008 90.0879-70.1172 93.7988-68.457L130.469-51.8066C130.908-51.6602 131.104-51.416 131.104-51.0254C131.104-50.6348 130.908-50.3906 130.469-50.2441L93.7988-33.5938C90.0879-31.9336 87.793-31.25 85.3027-31.25ZM49.0234-16.9434L49.0234-26.4648L51.8066-25.1953L51.8066-10.7422C50-12.6953 49.0234-14.7949 49.0234-16.9434ZM85.3027-13.1348C89.9902-13.0859 95.0684-14.3555 101.025-17.041L121.631-26.4648L121.631-16.9434C121.631-8.39844 106.006-0.488281 85.3027-0.488281C76.8066-0.488281 69.0918-1.85547 63.0371-4.00391L63.0371-20.0195L69.6289-17.041C75.5859-14.3555 80.6641-13.0859 85.3027-13.1348Z"/>
  </g>
  <g id="Heavy-M" transform="matrix(1 0 0 1 2552.9 1126)">
   <path d="M32.2754-16.3086C32.2754-6.83594 38.3789 1.12305 48.1934 6.5918C45.5078 7.95898 43.8965 10.7422 43.8965 14.3066L43.8965 28.3203C43.8965 33.5449 47.3633 36.9629 52.5879 36.9629L56.8848 36.9629C62.1094 36.9629 65.5762 33.5449 65.5762 28.3203L65.5762 14.3066C65.5762 13.8184 65.5273 13.3301 65.4785 12.8418C71.1426 14.0625 77.3438 14.7461 83.7891 14.7461C112.158 14.7461 135.303 2.14844 135.303-16.3086L135.303-34.7656L147.949-40.5273C152.393-42.5781 155.127-46.4844 155.127-51.0254C155.127-55.5664 152.393-59.4727 147.949-61.5234L98.9746-83.8867C93.2129-86.4746 88.3301-87.6953 83.7891-87.6465C79.248-87.6953 74.3652-86.4746 68.6035-83.8867L19.6289-61.5234C15.1855-59.4727 12.4512-55.5664 12.4512-51.0254C12.4512-46.4844 15.1855-42.5781 19.6289-40.5273L32.2754-34.7656ZM83.7891-30.0293C81.1523-30.0293 78.6621-30.7617 74.8047-32.5195L64.8438-37.0117L77.8809-43.457C79.7363-42.8711 81.7383-42.5781 83.8379-42.5781C90.5273-42.5781 96.7773-45.8984 96.7773-51.0254C96.7773-56.1523 90.4785-59.375 83.8379-59.375C77.1484-59.375 70.8496-56.1035 70.8496-51.0254C70.8496-50.8301 70.8496-50.6348 70.8496-50.4395L53.9062-41.9922L36.1816-50.0488C35.6445-50.2441 35.4004-50.5859 35.4004-51.0254C35.4004-51.4648 35.6445-51.7578 36.1816-52.002L74.8047-69.5312C78.6621-71.2891 81.1523-71.9727 83.7891-71.9727C86.4746-71.9727 88.9648-71.2891 92.7734-69.5312L131.396-52.002C131.934-51.7578 132.178-51.4648 132.178-51.0254C132.178-50.5859 131.934-50.2441 131.396-50.0488L92.7734-32.5195C88.9648-30.7617 86.4746-30.0293 83.7891-30.0293ZM46.7285-16.3086L46.7285-28.1738L49.707-26.8066L49.707-9.61914C47.7539-11.7188 46.7285-14.0137 46.7285-16.3086ZM83.7891-14.4043C88.3301-14.3555 93.2129-15.5273 98.9746-18.1641L120.85-28.1738L120.85-16.3086C120.85-7.37305 105.273 0.878906 83.7891 0.878906C74.4141 0.878906 66.1133-0.732422 59.8145-3.22266L59.8145-22.168L68.6035-18.1641C74.3652-15.5273 79.248-14.3555 83.7891-14.4043Z"/>
  </g>
  <g id="Bold-M" transform="matrix(1 0 0 1 2257.9 1126)">
   <path d="M31.9824-15.625C31.9824-6.73828 37.793 0.927734 47.3633 6.20117L47.3633 7.51953C44.1895 8.49609 42.2363 11.2305 42.2363 14.9902L42.2363 28.6133C42.2363 33.3496 45.3613 36.4746 50.0977 36.4746L53.3691 36.4746C58.1055 36.4746 61.2305 33.3496 61.2305 28.6133L61.2305 14.9902C61.2305 13.623 60.9863 12.4023 60.5469 11.377C66.9922 13.0859 74.2676 14.0137 82.0801 14.0137C110.547 14.0137 132.129 1.51367 132.129-15.625L132.129-35.6445L145.361-41.6504C149.365-43.5059 151.709-47.0215 151.709-51.0254C151.709-54.9805 149.365-58.5449 145.361-60.3516L96.6797-82.6172C91.1133-85.1074 86.5234-86.2793 82.0801-86.2305C77.6367-86.2793 73.0469-85.1074 67.4805-82.6172L18.7988-60.3516C14.7949-58.5449 12.4512-54.9805 12.4512-51.0254C12.4512-47.0215 14.7949-43.5059 18.7988-41.6504L31.9824-35.6445ZM82.0801-28.7109C79.1992-28.7109 76.5137-29.4434 72.5586-31.25L61.2305-36.4258L76.8066-44.3359C78.4668-43.8477 80.2734-43.5547 82.1777-43.5547C88.3789-43.5547 94.1895-46.582 94.1895-51.0254C94.1895-55.4199 88.3301-58.3496 82.1777-58.3496C75.9766-58.3496 70.0684-55.4199 70.0684-51.0254C70.0684-50.6836 70.1172-50.3906 70.166-50.0977L51.709-40.7227L31.7383-49.8047C31.1035-50.0977 30.8105-50.4883 30.8105-51.0254C30.8105-51.5137 31.1035-51.9531 31.7383-52.1973L72.5586-70.752C76.5137-72.5586 79.1992-73.3398 82.0801-73.3398C84.9609-73.3398 87.6465-72.5586 91.6016-70.752L132.422-52.1973C133.057-51.9531 133.35-51.5137 133.35-51.0254C133.35-50.4883 133.057-50.0977 132.422-49.8047L91.6016-31.25C87.6465-29.4434 84.9609-28.7109 82.0801-28.7109ZM44.1895-15.625L44.1895-30.0781L47.3633-28.6133L47.3633-8.34961C45.3125-10.6445 44.1895-13.0859 44.1895-15.625ZM82.0801-15.8203C86.5234-15.7227 91.1133-16.8945 96.6797-19.4336L119.971-30.0781L119.971-15.625C119.971-6.25 104.443 2.39258 82.0801 2.39258C71.6797 2.39258 62.7441 0.537109 56.2012-2.44141L56.2012-24.6094L67.4805-19.4336C73.0469-16.8945 77.6367-15.7227 82.0801-15.8203Z"/>
  </g>
  <g id="Semibold-M" transform="matrix(1 0 0 1 1962.38 1126)">
   <path d="M31.8359-15.1367C31.8359-6.98242 37.0117 0.195312 45.752 5.37109L45.752 8.54492C42.8711 9.47266 41.1133 12.0117 41.1133 15.4785L41.1133 28.8086C41.1133 33.2031 43.9941 36.1328 48.4375 36.1328L50.9766 36.1328C55.3711 36.1328 58.3008 33.2031 58.3008 28.8086L58.3008 15.4785C58.3008 13.0859 57.4219 11.1328 55.957 9.86328C63.1348 12.207 71.582 13.5254 80.9082 13.5254C109.473 13.5254 129.98 1.07422 129.98-15.1367L129.98-36.2305L143.555-42.4316C147.266-44.1406 149.316-47.4121 149.316-51.0254C149.316-54.5898 147.266-57.9102 143.555-59.5703L95.1172-81.6895C89.6484-84.1797 85.2051-85.3027 80.9082-85.2539C76.5625-85.3027 72.1191-84.1797 66.6992-81.6895L18.2129-59.5703C14.502-57.9102 12.4512-54.5898 12.4512-51.0254C12.4512-47.4121 14.502-44.1406 18.2129-42.4316L31.8359-36.2305ZM80.9082-27.7832C77.8809-27.7832 75-28.5645 70.9961-30.4199L58.7402-35.9863L76.0254-44.9219C77.5879-44.4824 79.2969-44.2383 81.0059-44.2383C86.8652-44.2383 92.4316-47.0215 92.4316-51.0254C92.4316-54.9805 86.8652-57.666 81.0059-57.666C75.1465-57.666 69.5312-54.9316 69.5312-51.0254C69.5312-50.6348 69.5801-50.2441 69.7266-49.8535L50.2441-39.8438L28.6621-49.6582C27.9297-50 27.5879-50.4395 27.5879-51.0254C27.5879-51.5625 27.9297-52.0508 28.6621-52.3438L70.9961-71.6309C75-73.4375 77.8809-74.2188 80.9082-74.2188C83.8867-74.2188 86.7676-73.4375 90.8203-71.6309L133.154-52.3438C133.838-52.0508 134.18-51.5625 134.18-51.0254C134.18-50.4395 133.838-50 133.154-49.6582L90.8203-30.4199C86.7676-28.5645 83.8867-27.7832 80.9082-27.7832ZM42.4316-15.1367L42.4316-31.3965L45.752-29.8828L45.752-7.51953C43.6035-9.86328 42.4316-12.5 42.4316-15.1367ZM80.9082-16.748C85.2051-16.6992 89.6484-17.8223 95.1172-20.3125L119.385-31.3965L119.385-15.1367C119.385-5.46875 103.857 3.41797 80.9082 3.41797C69.7754 3.41797 60.4004 1.36719 53.6621-1.9043L53.6621-26.2695L66.6992-20.3125C72.1191-17.8223 76.5625-16.6992 80.9082-16.748Z"/>
  </g>
  <g id="Medium-M" transform="matrix(1 0 0 1 1666.55 1126)">
   <path d="M31.6895-14.7949C31.6895-7.17773 36.377-0.341797 44.5801 4.6875L44.5801 9.375C41.8945 10.2539 40.2344 12.5977 40.2344 15.8203L40.2344 28.9551C40.2344 33.1055 42.9688 35.8398 47.1191 35.8398L49.1699 35.8398C53.3203 35.8398 56.0547 33.1055 56.0547 28.9551L56.0547 15.8203C56.0547 12.6465 54.4434 10.2539 51.8066 9.375L51.8066 8.25195C59.4727 11.3281 69.0918 13.1348 79.9805 13.1348C108.691 13.1348 128.32 0.732422 128.32-14.7949L128.32-36.6699L142.188-43.0176C145.654-44.6289 147.559-47.7051 147.559-51.0254C147.559-54.2969 145.654-57.4219 142.188-58.9844L93.8965-81.0547C88.5742-83.4473 84.2773-84.5703 79.9805-84.5215C75.7324-84.5703 71.4355-83.4473 66.0645-81.0547L17.8223-58.9844C14.3066-57.4219 12.4512-54.2969 12.4512-51.0254C12.4512-47.7051 14.3066-44.6289 17.8223-43.0176L31.6895-36.6699ZM79.9805-27.0996C76.8555-27.0996 73.877-27.8809 69.8242-29.7852L56.8359-35.6445L75.4395-45.4102C76.9043-45.0195 78.5156-44.7754 80.1758-44.7754C85.7422-44.7754 91.1133-47.3633 91.1133-51.0254C91.1133-54.5898 85.7422-57.1289 80.1758-57.1289C74.5605-57.1289 69.1406-54.5898 69.1406-51.0254C69.1406-50.5371 69.2383-50.0977 69.3848-49.707L49.0723-39.209L26.3184-49.5605C25.5371-49.9023 25.1465-50.3906 25.1465-51.0254C25.1465-51.6113 25.5371-52.1484 26.3184-52.4902L69.8242-72.2656C73.877-74.1211 76.8555-74.9512 79.9805-74.9512C83.1055-74.9512 86.084-74.1211 90.1855-72.2656L133.691-52.4902C134.424-52.1484 134.814-51.6113 134.814-51.0254C134.814-50.3906 134.424-49.9023 133.691-49.5605L90.1855-29.7852C86.084-27.8809 83.1055-27.0996 79.9805-27.0996ZM41.1133-14.7949L41.1133-32.373L44.5801-30.8105L44.5801-6.83594C42.2852-9.32617 41.1133-12.0117 41.1133-14.7949ZM79.9805-17.4805C84.2773-17.4316 88.5742-18.5547 93.8965-20.9961L118.896-32.373L118.896-14.7949C118.896-4.88281 103.467 4.24805 79.9805 4.24805C68.3105 4.24805 58.5938 1.95312 51.8066-1.5625L51.8066-27.4902L66.0645-20.9961C71.4355-18.5547 75.7324-17.4316 79.9805-17.4805Z"/>
  </g>
  <g id="Regular-M" transform="matrix(1 0 0 1 1371.01 1126)">
   <path d="M31.4941-14.3066C31.4941-7.42188 35.5957-1.02539 42.9688 3.75977L42.9688 10.4004C40.5762 11.2305 39.1113 13.3789 39.1113 16.3086L39.1113 29.1504C39.1113 33.0078 41.6016 35.498 45.459 35.498L46.7773 35.498C50.6348 35.498 53.125 33.0078 53.125 29.1504L53.125 16.3086C53.125 13.3789 51.6602 11.2793 49.3164 10.4004L49.3164 7.17773C57.0801 10.5957 67.0898 12.6465 78.8086 12.6465C107.617 12.6465 126.172 0.292969 126.172-14.3066L126.172-37.2559L140.43-43.7988C143.604-45.2637 145.215-48.0957 145.215-51.0254C145.215-53.9062 143.604-56.7383 140.43-58.2031L92.334-80.1758C87.1582-82.5195 83.0078-83.5938 78.8086-83.5449C74.6582-83.5938 70.5078-82.5195 65.2832-80.1758L17.2363-58.2031C14.0625-56.7383 12.4512-53.9062 12.4512-51.0254C12.4512-48.0957 14.0625-45.2637 17.2363-43.7988L31.4941-37.2559ZM78.8086-26.1719C75.5859-26.1719 72.4121-27.002 68.2617-28.9062L54.3945-35.2539L74.707-45.9961C76.0742-45.6543 77.5391-45.459 79.0039-45.459C84.2773-45.459 89.3555-47.8516 89.3555-51.0254C89.3555-54.1016 84.2773-56.4453 79.0039-56.4453C73.7793-56.4453 68.6035-54.1016 68.6035-51.0254C68.6035-50.4883 68.75-50 69.043-49.5117L47.6074-38.3301L23.291-49.3652C22.4121-49.7559 22.0215-50.3418 22.0215-51.0254C22.0215-51.6602 22.4121-52.2461 23.291-52.6367L68.2617-73.0957C72.4121-75 75.5859-75.8301 78.8086-75.8301C82.0801-75.8301 85.2051-75 89.4043-73.0957L134.375-52.6367C135.205-52.2461 135.645-51.6602 135.645-51.0254C135.645-50.3418 135.205-49.7559 134.375-49.3652L89.4043-28.9062C85.2051-27.002 82.0801-26.1719 78.8086-26.1719ZM39.3555-14.3066L39.3555-33.6914L42.9688-32.0312L42.9688-5.95703C40.625-8.54492 39.3555-11.4258 39.3555-14.3066ZM78.8086-18.457C83.0078-18.4082 87.1582-19.4824 92.334-21.8262L118.311-33.6914L118.311-14.3066C118.311-4.10156 102.881 5.27344 78.8086 5.27344C66.3574 5.27344 56.2012 2.73438 49.3164-1.12305L49.3164-29.1504L65.2832-21.8262C70.5078-19.4824 74.6582-18.4082 78.8086-18.457Z"/>
  </g>
  <g id="Light-M" transform="matrix(1 0 0 1 1074.91 1126)">
   <path d="M32.4707-14.2578C32.4707-8.49609 36.0352-2.7832 42.627 1.80664L42.627 7.86133C40.2344 8.49609 38.8184 10.4492 38.8184 13.2812L38.8184 26.2695C38.8184 29.7363 41.0156 31.8848 44.4824 31.8848L45.8008 31.8848C49.2676 31.8848 51.4648 29.7363 51.4648 26.2695L51.4648 13.2812C51.4648 10.4492 50.0488 8.49609 47.6562 7.86133L47.6562 4.73633C55.3711 8.59375 65.7227 11.0352 78.2227 11.0352C106.494 11.0352 123.975-1.61133 123.975-14.2578L123.975-37.3535L139.795-44.6289C142.578-45.8984 143.994-48.291 143.994-50.8301C143.994-53.3203 142.578-55.7617 139.795-57.0312L91.3574-79.1992C86.1816-81.543 82.2266-82.5195 78.2227-82.4707C74.2188-82.5195 70.2637-81.543 65.0879-79.1992L16.6016-57.0312C13.8672-55.7617 12.4512-53.3203 12.4512-50.8301C12.4512-48.291 13.8672-45.8984 16.6016-44.6289L32.4707-37.3535ZM78.2227-25.0977C74.8535-25.0977 71.6797-25.8789 67.3828-27.8809L51.5625-35.1074L73.7305-46.2891C75.0977-45.8984 76.709-45.7031 78.3203-45.7031C83.6914-45.7031 88.3301-48.0469 88.3301-50.8301C88.3301-53.5645 83.6914-55.9082 78.3203-55.9082C72.998-55.9082 68.3105-53.5645 68.3105-50.8301C68.3105-50.1953 68.5547-49.5605 68.9941-49.0234L46.1914-37.5488L21.0449-49.0723C20.1172-49.4629 19.6777-50.0977 19.6777-50.8301C19.6777-51.5137 20.1172-52.1973 21.0449-52.5879L67.3828-73.7793C71.6797-75.7324 74.8535-76.5137 78.2227-76.5137C81.5918-76.5137 84.7656-75.7324 89.0625-73.7793L135.4-52.5879C136.279-52.1973 136.768-51.5137 136.768-50.8301C136.768-50.0977 136.279-49.4629 135.4-49.0723L89.0625-27.8809C84.7656-25.8789 81.5918-25.0977 78.2227-25.0977ZM38.4766-14.2578L38.4766-34.6191L42.627-32.7148L42.627-5.71289C39.9414-8.44727 38.4766-11.4258 38.4766-14.2578ZM78.2227-19.1895C82.2266-19.0918 86.1816-20.0684 91.3574-22.4609L117.92-34.6191L117.92-14.2578C117.92-5.0293 102.881 5.32227 78.2227 5.32227C64.9902 5.32227 54.541 2.34375 47.6562-1.85547L47.6562-30.4199L65.0879-22.4609C70.2637-20.0684 74.2188-19.0918 78.2227-19.1895Z"/>
  </g>
  <g id="Thin-M" transform="matrix(1 0 0 1 779.03 1126)">
   <path d="M33.7402-14.1602C33.7402-9.86328 36.6699-5.0293 42.1875-0.878906L42.1875 4.54102C39.7949 4.93164 38.4277 6.5918 38.4277 9.27734L38.4277 22.4121C38.4277 25.4395 40.1855 27.1484 43.2129 27.1484L44.4824 27.1484C47.5098 27.1484 49.2676 25.4395 49.2676 22.4121L49.2676 9.27734C49.2676 6.5918 47.9004 4.93164 45.5078 4.54102L45.5078 1.31836C52.9785 5.71289 63.7695 8.88672 77.3926 8.88672C105.078 8.88672 121.094-4.15039 121.094-14.1602L121.094-37.4512L139.014-45.7031C141.162-46.7285 142.334-48.5352 142.334-50.5859C142.334-52.6367 141.162-54.4434 139.014-55.4688L90.0391-77.9297C84.9121-80.2734 81.2012-81.1035 77.3926-81.0547C73.6328-81.1035 69.873-80.2734 64.7461-77.9297L15.7715-55.4688C13.623-54.4434 12.4512-52.6367 12.4512-50.5859C12.4512-48.5352 13.623-46.7285 15.7715-45.7031L33.7402-37.4512ZM77.3926-23.6816C73.9258-23.6816 70.7031-24.4141 66.2109-26.5137L47.7539-34.9609L72.4121-46.7285C73.8281-46.2402 75.5371-45.9473 77.4414-45.9473C82.9102-45.9473 86.9141-48.3398 86.9141-50.6348C86.9141-52.832 82.9102-55.1758 77.4414-55.1758C71.9727-55.1758 67.9199-52.832 67.9199-50.6348C67.9199-49.8535 68.3594-49.1211 69.1406-48.4375L44.2383-36.6211L18.0664-48.6328C17.1387-49.0234 16.6016-49.8047 16.6016-50.5859C16.6016-51.3672 17.1387-52.0996 18.0664-52.5391L66.2109-74.6582C70.7031-76.7578 73.9258-77.4414 77.3926-77.4414C80.9082-77.4414 84.1309-76.7578 88.5742-74.6582L136.719-52.5391C137.695-52.0996 138.232-51.3672 138.232-50.5859C138.232-49.8047 137.695-49.0234 136.719-48.6328L88.5742-26.5137C84.1309-24.4141 80.9082-23.6816 77.3926-23.6816ZM37.3535-14.1602L37.3535-35.791L42.1875-33.5938L42.1875-5.46875C39.0137-8.39844 37.3535-11.5234 37.3535-14.1602ZM77.3926-20.1172C81.2012-20.0684 84.9121-20.8496 90.0391-23.2422L117.432-35.791L117.432-14.1602C117.432-6.25 102.881 5.37109 77.3926 5.37109C63.1348 5.37109 52.2949 1.70898 45.5078-2.88086L45.5078-32.0801L64.7461-23.2422C69.873-20.8496 73.6328-20.0684 77.3926-20.1172Z"/>
  </g>
  <g id="Ultralight-M" transform="matrix(1 0 0 1 482.734 1126)">
   <path d="M34.375-14.1113C34.375-10.5469 36.9629-6.20117 41.9922-2.29492L41.9922 2.88086C39.5508 3.125 38.2324 4.63867 38.2324 7.17773L38.2324 20.4102C38.2324 23.1934 39.7949 24.7559 42.5781 24.7559L43.7988 24.7559C46.582 24.7559 48.1445 23.1934 48.1445 20.4102L48.1445 7.17773C48.1445 4.63867 46.8262 3.125 44.3848 2.88086L44.3848-0.585938C51.6113 4.15039 62.6465 7.76367 77.002 7.76367C104.297 7.76367 119.58-5.46875 119.58-14.1113L119.58-37.5488L138.623-46.2891C140.479-47.1191 141.504-48.6816 141.504-50.4395C141.504-52.2461 140.479-53.7598 138.623-54.6387L89.3555-77.2949C84.2773-79.6387 80.6641-80.3711 77.002-80.3223C73.3398-80.3711 69.7266-79.6387 64.5996-77.2949L15.332-54.6387C13.4766-53.7598 12.4512-52.2461 12.4512-50.4395C12.4512-48.6816 13.4766-47.1191 15.332-46.2891L34.375-37.5488ZM77.002-22.998C73.4375-22.998 70.166-23.6816 65.625-25.7812L45.8008-34.9121L71.7285-46.9238C73.1934-46.4355 74.9512-46.0938 77.002-46.0938C82.5195-46.0938 86.1816-48.4863 86.1816-50.5371C86.1816-52.4414 82.5195-54.7852 77.002-54.7852C71.4355-54.7852 67.7246-52.4414 67.7246-50.5371C67.7246-49.707 68.2617-48.877 69.2871-48.1445L43.2129-36.1328L16.5527-48.3887C15.5762-48.8281 14.9902-49.6582 14.9902-50.4395C14.9902-51.2695 15.5762-52.0996 16.5527-52.5391L65.625-75.1465C70.166-77.2461 73.4375-77.9297 77.002-77.9297C80.5664-77.9297 83.7891-77.2461 88.3301-75.1465L137.402-52.5391C138.428-52.0996 138.965-51.2695 138.965-50.4395C138.965-49.6582 138.428-48.8281 137.402-48.3887L88.3301-25.7812C83.7891-23.6816 80.5664-22.998 77.002-22.998ZM36.7676-14.1113L36.7676-36.4258L41.9922-34.0332L41.9922-5.37109C38.5254-8.39844 36.7676-11.5723 36.7676-14.1113ZM77.002-20.6055C80.6641-20.5078 84.2773-21.2891 89.3555-23.6328L117.188-36.4258L117.188-14.1113C117.188-6.88477 102.881 5.37109 77.002 5.37109C62.1582 5.37109 51.123 1.36719 44.3848-3.4668L44.3848-32.9102L64.5996-23.6328C69.7266-21.2891 73.3398-20.5078 77.002-20.6055Z"/>
  </g>
  <g id="Black-S" transform="matrix(1 0 0 1 2866.65 696)">
   <path d="M25.4395-20.8496C25.4395-13.1836 30.2246-6.88477 37.8418-2.44141C36.3281-1.17188 35.4492 0.78125 35.4492 3.17383L35.4492 14.4043C35.4492 18.7988 38.3789 21.7285 42.7734 21.7285L46.7773 21.7285C51.1719 21.7285 54.1016 18.7988 54.1016 14.4043L54.1016 3.27148C58.1055 4.00391 62.3535 4.39453 66.748 4.39453C88.8672 4.39453 108.057-5.51758 108.057-20.8496L108.057-34.3262L117.578-38.6719C121.338-40.3809 123.73-43.7012 123.73-47.6074C123.73-51.5137 121.338-54.834 117.578-56.543L79.0039-74.1699C74.3652-76.2695 70.4102-77.2461 66.748-77.1973C63.0859-77.2461 59.1309-76.2695 54.4922-74.1699L15.918-56.543C12.1582-54.834 9.76562-51.5137 9.76562-47.6074C9.76562-43.7012 12.1582-40.3809 15.918-38.6719L25.4395-34.3262ZM66.748-32.0312C64.7949-32.0312 62.9883-32.5684 60.0586-33.8867L53.1738-37.0117L61.7188-41.1133C63.2812-40.625 64.9902-40.332 66.748-40.332C72.3145-40.332 77.4414-43.1641 77.4414-47.6074C77.4414-52.0508 72.2656-54.7852 66.748-54.7852C61.1816-54.7852 56.0059-52.002 56.0059-47.6074L56.0059-47.4121L43.6523-41.3086L31.2012-46.9727C30.8594-47.1191 30.7129-47.3145 30.7129-47.6074C30.7129-47.9004 30.8594-48.0957 31.2012-48.2422L60.0586-61.3281C62.9883-62.6465 64.7949-63.1836 66.748-63.1836C68.7012-63.1836 70.5078-62.6465 73.4375-61.3281L102.295-48.2422C102.637-48.0957 102.783-47.9004 102.783-47.6074C102.783-47.3145 102.637-47.1191 102.295-46.9727L73.4375-33.8867C70.5078-32.5684 68.7012-32.0312 66.748-32.0312ZM38.2324-20.8496L38.2324-28.4668L40.4297-27.4902L40.4297-15.9668C39.0137-17.4805 38.2324-19.1406 38.2324-20.8496ZM66.748-18.0176C70.4102-17.9688 74.3652-18.9453 79.0039-21.0449L95.2637-28.4668L95.2637-20.8496C95.2637-14.1113 83.0078-7.91016 66.748-7.91016C60.0098-7.91016 53.9551-8.98438 49.1699-10.6934L49.1699-23.4863L54.4922-21.0449C59.1309-18.9453 63.0859-17.9688 66.748-18.0176Z"/>
  </g>
  <g id="Heavy-S" transform="matrix(1 0 0 1 2571.04 696)">
   <path d="M25.1465-20.4102C25.1465-12.793 30.0781-6.44531 37.9395-2.14844C35.6934-1.12305 34.375 1.12305 34.375 4.00391L34.375 14.9414C34.375 19.043 37.1094 21.7773 41.2109 21.7773L44.4824 21.7773C48.6328 21.7773 51.3672 19.043 51.3672 14.9414L51.3672 4.00391C51.3672 3.51562 51.3184 3.02734 51.2207 2.63672C55.7129 3.56445 60.5957 4.10156 65.625 4.10156C87.9395 4.10156 106.152-5.76172 106.152-20.4102L106.152-34.9121L115.869-39.3555C119.385-40.9668 121.533-44.043 121.533-47.6074C121.533-51.1719 119.385-54.2969 115.869-55.9082L77.5391-73.3887C73.0469-75.4395 69.2383-76.416 65.625-76.3672C62.0605-76.416 58.252-75.4395 53.7109-73.3887L15.4297-55.9082C11.9141-54.2969 9.76562-51.1719 9.76562-47.6074C9.76562-44.043 11.9141-40.9668 15.4297-39.3555L25.1465-34.9121ZM65.625-31.25C63.5742-31.25 61.6211-31.7871 58.5938-33.1543L50.9766-36.6211L61.084-41.6992C62.5-41.2598 64.0625-41.0156 65.6738-41.0156C70.8984-41.0156 75.8301-43.6035 75.8301-47.6074C75.8301-51.6602 70.8496-54.1504 65.6738-54.1504C60.4492-54.1504 55.5176-51.6113 55.5176-47.6074C55.5176-47.4609 55.5176-47.3145 55.5176-47.2168L42.2852-40.5273L28.418-46.875C27.9785-47.0215 27.7832-47.2656 27.7832-47.6074C27.7832-47.9492 27.9785-48.1934 28.418-48.3887L58.5938-62.1094C61.6211-63.4277 63.5742-64.0137 65.625-64.0137C67.7246-64.0137 69.6777-63.4277 72.6562-62.1094L102.881-48.3887C103.32-48.1934 103.467-47.9492 103.467-47.6074C103.467-47.2656 103.32-47.0215 102.881-46.875L72.6562-33.1543C69.6777-31.7871 67.7246-31.25 65.625-31.25ZM36.5723-20.4102L36.5723-29.6875L38.8672-28.6133L38.8672-15.1367C37.4023-16.748 36.5723-18.5547 36.5723-20.4102ZM65.625-18.8965C69.2383-18.8477 73.0469-19.8242 77.5391-21.8262L94.6777-29.6875L94.6777-20.4102C94.6777-13.2324 82.4219-6.88477 65.625-6.88477C58.3008-6.88477 51.8555-8.10547 46.875-10.0586L46.875-25L53.7109-21.8262C58.252-19.8242 62.0605-18.8477 65.625-18.8965Z"/>
  </g>
  <g id="Bold-S" transform="matrix(1 0 0 1 2275.57 696)">
   <path d="M24.8535-19.873C24.8535-12.6465 29.4922-6.54297 37.1094-2.34375L37.1094-1.07422C34.668-0.244141 33.1543 1.95312 33.1543 4.88281L33.1543 15.5273C33.1543 19.2871 35.6445 21.8262 39.4043 21.8262L41.9434 21.8262C45.752 21.8262 48.2422 19.2871 48.2422 15.5273L48.2422 4.88281C48.2422 3.66211 47.998 2.58789 47.5098 1.70898C52.5879 3.02734 58.3008 3.71094 64.4043 3.71094C86.8652 3.71094 104.004-6.00586 104.004-19.873L104.004-35.5469L113.965-40.0879C117.188-41.6016 119.043-44.4336 119.043-47.6562C119.043-50.8301 117.188-53.7109 113.965-55.1758L75.9277-72.5098C71.5332-74.5117 67.9199-75.4395 64.4043-75.3906C60.8887-75.4395 57.2754-74.5117 52.8809-72.5098L14.8926-55.1758C11.6211-53.7109 9.76562-50.8301 9.76562-47.6562C9.76562-44.4336 11.6211-41.6016 14.8926-40.0879L24.8535-35.5469ZM64.4043-30.3223C62.1582-30.3223 60.0586-30.957 56.9824-32.3242L48.5352-36.1816L60.4004-42.334C61.6699-41.9434 63.0859-41.748 64.502-41.748C69.3359-41.748 73.9746-44.0918 73.9746-47.6562C73.9746-51.1719 69.2871-53.4668 64.502-53.4668C59.668-53.4668 54.9805-51.1719 54.9805-47.6562C54.9805-47.4121 54.9805-47.2168 55.0293-47.0215L40.8203-39.6973L25.2441-46.7285C24.7559-46.9727 24.5605-47.2656 24.5605-47.6562C24.5605-48.0469 24.7559-48.3398 25.2441-48.5352L56.9824-62.9395C60.0586-64.3555 62.1582-64.9414 64.4043-64.9414C66.6504-64.9414 68.75-64.3555 71.8262-62.9395L103.564-48.5352C104.053-48.3398 104.248-48.0469 104.248-47.6562C104.248-47.2656 104.053-46.9727 103.564-46.7285L71.8262-32.3242C68.75-30.957 66.6504-30.3223 64.4043-30.3223ZM34.7656-19.873L34.7656-31.0547L37.1094-29.9316L37.1094-14.209C35.5957-15.9668 34.7656-17.8711 34.7656-19.873ZM64.4043-19.873C67.9199-19.8242 71.5332-20.752 75.9277-22.7539L94.043-31.0547L94.043-19.873C94.043-12.2559 81.8359-5.71289 64.4043-5.71289C56.3965-5.71289 49.4629-7.08008 44.2871-9.32617L44.2871-26.6602L52.8809-22.7539C57.2754-20.752 60.8887-19.8242 64.4043-19.873Z"/>
  </g>
  <g id="Semibold-S" transform="matrix(1 0 0 1 1979.72 696)">
   <path d="M24.6094-19.5312C24.6094-12.7441 28.8086-6.88477 35.9375-2.83203L35.9375-0.0488281C33.6914 0.78125 32.2754 2.7832 32.2754 5.51758L32.2754 15.918C32.2754 19.4824 34.668 21.8262 38.2324 21.8262L40.2344 21.8262C43.75 21.8262 46.1426 19.4824 46.1426 15.918L46.1426 5.51758C46.1426 3.36914 45.2637 1.61133 43.75 0.585938C49.4629 2.44141 56.1523 3.4668 63.5742 3.4668C86.1328 3.4668 102.49-6.15234 102.49-19.5312L102.49-35.9863L112.598-40.625C115.674-41.9922 117.334-44.7266 117.334-47.6562C117.334-50.5371 115.674-53.3203 112.598-54.6875L74.8047-71.9238C70.5566-73.877 66.9922-74.8047 63.5742-74.7559C60.1074-74.8047 56.5918-73.877 52.2949-71.9238L14.502-54.6875C11.4258-53.3203 9.76562-50.5371 9.76562-47.6562C9.76562-44.7266 11.4258-41.9922 14.502-40.625L24.6094-35.9863ZM63.5742-29.7363C61.2305-29.7363 58.9844-30.3711 55.8594-31.7871L46.875-35.8398L59.8633-42.7734C61.084-42.4316 62.4023-42.2363 63.6719-42.2363C68.2129-42.2363 72.7539-44.4336 72.7539-47.6562C72.7539-50.8789 68.2129-52.9785 63.6719-52.9785C59.1309-52.9785 54.5898-50.8301 54.5898-47.6562C54.5898-47.3633 54.5898-47.1191 54.6875-46.875L39.7949-39.0625L23.0957-46.6309C22.5586-46.875 22.3145-47.2168 22.3145-47.6562C22.3145-48.0957 22.5586-48.4375 23.0957-48.6816L55.8594-63.5254C58.9844-64.9414 61.2305-65.5762 63.5742-65.5762C65.8691-65.5762 68.1152-64.9414 71.2402-63.5254L104.004-48.6816C104.541-48.4375 104.785-48.0957 104.785-47.6562C104.785-47.2168 104.541-46.875 104.004-46.6309L71.2402-31.7871C68.1152-30.3711 65.8691-29.7363 63.5742-29.7363ZM33.4961-19.5312L33.4961-31.9824L35.9375-30.8594L35.9375-13.5742C34.3262-15.3809 33.4961-17.4316 33.4961-19.5312ZM63.5742-20.5566C66.9922-20.5078 70.5566-21.4355 74.8047-23.3887L93.6035-31.9824L93.6035-19.5312C93.6035-11.5723 81.3965-4.93164 63.5742-4.93164C55.0293-4.93164 47.8027-6.44531 42.5293-8.88672L42.5293-27.832L52.2949-23.3887C56.5918-21.4355 60.1074-20.5078 63.5742-20.5566Z"/>
  </g>
  <g id="Medium-S" transform="matrix(1 0 0 1 1683.64 696)">
   <path d="M24.4629-19.2383C24.4629-12.793 28.3203-7.22656 35.0098-3.22266L35.0098 0.732422C32.9102 1.51367 31.6406 3.41797 31.6406 6.00586L31.6406 16.2598C31.6406 19.6289 33.8867 21.875 37.3047 21.875L38.8672 21.875C42.2852 21.875 44.5312 19.6289 44.5312 16.2598L44.5312 6.00586C44.5312 3.4668 43.2617 1.5625 41.2109 0.78125L41.2109-0.244141C47.2168 2.00195 54.5898 3.32031 62.8906 3.32031C85.5469 3.32031 101.367-6.29883 101.367-19.2383L101.367-36.3281L111.621-41.0156C114.502-42.334 116.064-44.9219 116.064-47.6562C116.064-50.3418 114.502-52.9785 111.621-54.2969L73.9746-71.4844C69.7754-73.3887 66.3086-74.3164 62.8906-74.2676C59.5215-74.3164 56.0547-73.3887 51.8555-71.4844L14.209-54.2969C11.2793-52.9785 9.76562-50.3418 9.76562-47.6562C9.76562-44.9219 11.2793-42.334 14.209-41.0156L24.4629-36.3281ZM62.8906-29.248C60.498-29.248 58.1543-29.8828 55.0293-31.3477L45.6055-35.6445L59.5215-43.1152C60.6445-42.8223 61.8652-42.627 63.0371-42.627C67.3828-42.627 71.7773-44.6777 71.7773-47.6562C71.7773-50.6348 67.3828-52.5879 63.0371-52.5879C58.7402-52.5879 54.2969-50.5859 54.2969-47.6562C54.2969-47.3633 54.3457-47.0703 54.4434-46.7773L39.0137-38.623L21.4844-46.582C20.8984-46.8262 20.6055-47.2168 20.6055-47.6562C20.6055-48.1445 20.8984-48.4863 21.4844-48.7793L55.0293-63.9648C58.1543-65.4297 60.498-66.0645 62.8906-66.0645C65.332-66.0645 67.627-65.4297 70.8008-63.9648L104.346-48.7793C104.932-48.4863 105.225-48.1445 105.225-47.6562C105.225-47.2168 104.932-46.8262 104.346-46.582L70.8008-31.3477C67.627-29.8828 65.332-29.248 62.8906-29.248ZM32.5195-19.2383L32.5195-32.666L35.0098-31.543L35.0098-13.0859C33.3984-14.9902 32.5195-17.041 32.5195-19.2383ZM62.8906-21.0938C66.3086-21.0449 69.7754-21.9238 73.9746-23.8281L93.3105-32.666L93.3105-19.2383C93.3105-11.084 81.0547-4.29688 62.8906-4.29688C54.0039-4.29688 46.4844-5.95703 41.2109-8.54492L41.2109-28.7109L51.8555-23.8281C56.0547-21.9238 59.5215-21.0449 62.8906-21.0938Z"/>
  </g>
  <g id="Regular-S" transform="matrix(1 0 0 1 1387.78 696)">
   <path d="M24.2188-18.8965C24.2188-12.8906 27.6855-7.61719 33.8379-3.71094L33.8379 1.75781C31.9824 2.49023 30.8105 4.24805 30.8105 6.5918L30.8105 16.6504C30.8105 19.8242 32.9102 21.9238 36.084 21.9238L37.1582 21.9238C40.332 21.9238 42.4316 19.8242 42.4316 16.6504L42.4316 6.5918C42.4316 4.29688 41.3086 2.53906 39.4531 1.75781L39.4531-0.830078C45.5078 1.61133 53.2227 3.07617 62.0605 3.07617C84.8633 3.07617 99.9023-6.44531 99.9023-18.8965L99.9023-36.8164L110.303-41.5527C113.037-42.7734 114.355-45.2148 114.355-47.6562C114.355-50.0977 113.037-52.5879 110.303-53.8086L72.8516-70.8984C68.75-72.7539 65.4297-73.6816 62.0605-73.6328C58.7402-73.6816 55.3711-72.7539 51.2695-70.8984L13.8184-53.8086C11.084-52.5879 9.76562-50.0977 9.76562-47.6562C9.76562-45.2148 11.084-42.7734 13.8184-41.5527L24.2188-36.8164ZM62.0605-28.6621C59.5703-28.6621 57.1289-29.2969 53.9062-30.8105L43.9453-35.3027L58.9844-43.5547C60.0586-43.2617 61.1328-43.1641 62.2559-43.1641C66.3086-43.1641 70.5566-45.0195 70.5566-47.6562C70.5566-50.293 66.3086-52.0996 62.2559-52.0996C58.2031-52.0996 53.9062-50.293 53.9062-47.6562C53.9062-47.3145 54.0039-46.9727 54.1016-46.6797L37.9883-38.0371L19.3359-46.4844C18.7012-46.7773 18.4082-47.168 18.4082-47.6562C18.4082-48.1934 18.7012-48.584 19.3359-48.877L53.9062-64.5508C57.1289-66.0156 59.5703-66.6992 62.0605-66.6992C64.5508-66.6992 66.9922-66.0156 70.2148-64.5508L104.785-48.877C105.42-48.584 105.762-48.1934 105.762-47.6562C105.762-47.168 105.42-46.7773 104.785-46.4844L70.2148-30.8105C66.9922-29.2969 64.5508-28.6621 62.0605-28.6621ZM31.25-18.8965L31.25-33.5938L33.8379-32.4219L33.8379-12.4512C32.1777-14.4043 31.25-16.6016 31.25-18.8965ZM62.0605-21.7285C65.4297-21.6797 68.75-22.6074 72.8516-24.4629L92.8711-33.5938L92.8711-18.8965C92.8711-10.4004 80.6152-3.51562 62.0605-3.51562C52.6367-3.51562 44.8242-5.27344 39.4531-8.1543L39.4531-29.834L51.2695-24.4629C55.3711-22.6074 58.7402-21.6797 62.0605-21.7285Z"/>
  </g>
  <g id="Light-S" transform="matrix(1 0 0 1 1091.61 696)">
   <path d="M30.5664 3.90625L30.5664 14.0625C30.5664 16.8945 32.373 18.75 35.2539 18.75L36.2793 18.75C39.1113 18.75 40.9668 16.8945 40.9668 14.0625L40.9668 3.90625C40.9668 1.70898 39.8438 0.0976562 37.9883-0.488281L37.9883-2.97852C44.043-0.146484 52.0508 1.61133 61.5234 1.61133C83.8867 1.61133 97.9492-8.1543 97.9492-18.8477L97.9492-36.8652L109.766-42.2852C112.109-43.3105 113.281-45.3613 113.281-47.5098C113.281-49.6094 112.109-51.709 109.766-52.7832L71.9727-70.0684C67.9199-71.9238 64.6973-72.7051 61.5234-72.6562C58.3008-72.7051 55.127-71.9238 51.0742-70.0684L13.2812-52.7832C10.9375-51.709 9.76562-49.6094 9.76562-47.5098C9.76562-45.3613 10.9375-43.3105 13.2812-42.2852L25.0488-36.8652L25.0488-18.8477C25.0488-13.8672 28.0762-9.13086 33.5449-5.46875L33.5449-0.488281C31.6895 0.0976562 30.5664 1.66016 30.5664 3.90625ZM61.5234-27.6855C58.9355-27.6855 56.4453-28.3203 53.125-29.8828L41.5039-35.1562L58.1543-43.7988C59.2285-43.5059 60.4004-43.3594 61.6699-43.3594C65.8203-43.3594 69.5801-45.2148 69.5801-47.5098C69.5801-49.8047 65.8203-51.6113 61.6699-51.6113C57.4707-51.6113 53.6621-49.8047 53.6621-47.5098C53.6621-47.0703 53.8086-46.6309 54.0527-46.1914L36.7188-37.3535L17.334-46.1914C16.6504-46.4844 16.3086-46.9727 16.3086-47.5098C16.3086-48.0469 16.6504-48.5352 17.334-48.8281L53.125-65.1367C56.4453-66.6992 58.9355-67.334 61.5234-67.334C64.1113-67.334 66.6016-66.6992 69.9219-65.1367L105.713-48.8281C106.396-48.5352 106.738-48.0469 106.738-47.5098C106.738-46.9727 106.396-46.4844 105.713-46.1914L69.9219-29.8828C66.6016-28.3203 64.1113-27.6855 61.5234-27.6855ZM30.5176-18.8477L30.5176-34.375L33.5449-33.0078L33.5449-12.207C31.543-14.3066 30.5176-16.5527 30.5176-18.8477ZM61.5234-22.3633C64.6973-22.3145 67.9199-23.1445 71.9727-25L92.5293-34.375L92.5293-18.8477C92.5293-11.2305 80.6152-3.4668 61.5234-3.4668C51.4648-3.4668 43.3594-5.61523 37.9883-8.78906L37.9883-30.957L51.0742-25C55.127-23.1445 58.3008-22.3145 61.5234-22.3633Z"/>
  </g>
  <g id="Thin-S" transform="matrix(1 0 0 1 795.607 696)">
   <path d="M30.2246 0.390625L30.2246 10.6445C30.2246 13.0859 31.6406 14.5508 34.1309 14.5508L35.1074 14.5508C37.5488 14.5508 39.0137 13.0859 39.0137 10.6445L39.0137 0.390625C39.0137-1.70898 37.9395-3.125 36.084-3.4668L36.084-5.95703C41.9922-2.58789 50.3418-0.244141 60.791-0.244141C82.6172-0.244141 95.4102-10.4004 95.4102-18.75L95.4102-36.9629L109.082-43.2129C110.889-44.043 111.865-45.6055 111.865-47.3145C111.865-48.9746 110.889-50.5371 109.082-51.3672L70.8008-68.9453C66.7969-70.8008 63.8184-71.4355 60.791-71.3867C57.8125-71.4355 54.834-70.8008 50.8301-68.9453L12.5488-51.3672C10.7422-50.5371 9.76562-48.9746 9.76562-47.3145C9.76562-45.6055 10.7422-44.043 12.5488-43.2129L26.1719-36.9629L26.1719-18.75C26.1719-15.1367 28.6133-11.1328 33.1543-7.8125L33.1543-3.4668C31.2988-3.125 30.2246-1.75781 30.2246 0.390625ZM60.791-26.4648C58.1055-26.4648 55.5664-27.0508 52.0996-28.6621L38.1348-35.0586L56.9824-44.1406C58.1055-43.7988 59.4238-43.6035 60.8398-43.6035C65.1367-43.6035 68.3594-45.459 68.3594-47.3633C68.3594-49.1699 65.1367-50.9766 60.8398-50.9766C56.5918-50.9766 53.3203-49.1699 53.3203-47.3633C53.3203-46.7773 53.6133-46.1914 54.1504-45.6543L35.0098-36.4746L14.7461-45.8008C14.0137-46.1426 13.5742-46.7285 13.5742-47.3145C13.5742-47.9004 14.0137-48.4863 14.7461-48.8281L52.0996-65.9668C55.5664-67.5781 58.1055-68.1152 60.791-68.1152C63.5254-68.1152 66.0156-67.5781 69.4824-65.9668L106.885-48.8281C107.617-48.4863 108.008-47.9004 108.008-47.3145C108.008-46.7285 107.617-46.1426 106.885-45.8008L69.4824-28.6621C66.0156-27.0508 63.5254-26.4648 60.791-26.4648ZM29.4922-18.75L29.4922-35.4492L33.1543-33.7891L33.1543-11.9629C30.7617-14.209 29.4922-16.6016 29.4922-18.75ZM60.791-23.1934C63.8184-23.1445 66.7969-23.8281 70.8008-25.6836L92.1387-35.4492L92.1387-18.75C92.1387-12.3047 80.6152-3.4668 60.791-3.4668C49.8047-3.4668 41.4062-6.15234 36.084-9.66797L36.084-32.4219L50.8301-25.6836C54.834-23.8281 57.8125-23.1445 60.791-23.1934Z"/>
  </g>
  <g id="Ultralight-S" transform="matrix(1 0 0 1 499.286 696)">
   <path d="M30.0293-1.41602L30.0293 8.88672C30.0293 11.1328 31.2988 12.4023 33.5449 12.4023L34.5215 12.4023C36.7676 12.4023 38.0371 11.1328 38.0371 8.88672L38.0371-1.41602C38.0371-3.4668 36.9629-4.73633 35.1074-4.93164L35.1074-7.56836C40.8203-3.95508 49.4141-1.2207 60.4492-1.2207C81.9336-1.2207 94.0918-11.5723 94.0918-18.7012L94.0918-37.0117L108.74-43.75C110.254-44.4336 111.084-45.7031 111.084-47.2168C111.084-48.6816 110.254-49.9512 108.74-50.6348L70.2148-68.3594C66.2109-70.2148 63.3301-70.8008 60.4492-70.752C57.5195-70.8008 54.6875-70.2148 50.6836-68.3594L12.1582-50.6348C10.6445-49.9512 9.76562-48.6816 9.76562-47.2168C9.76562-45.7031 10.6445-44.4336 12.1582-43.75L26.7578-37.0117L26.7578-18.7012C26.7578-15.7227 28.9062-12.1582 32.959-9.0332L32.959-4.93164C31.0547-4.73633 30.0293-3.4668 30.0293-1.41602ZM60.4492-25.8301C57.666-25.8301 55.127-26.3672 51.5625-28.0273L36.4258-35.0098L56.3965-44.3359C57.5195-43.9453 58.8867-43.7012 60.4492-43.7012C64.7949-43.7012 67.7246-45.5566 67.7246-47.2168C67.7246-48.8281 64.7949-50.6836 60.4492-50.6836C56.1035-50.6836 53.125-48.8281 53.125-47.2168C53.125-46.6309 53.5156-45.9961 54.248-45.4102L34.1309-36.084L13.3789-45.6055C12.5977-45.9473 12.207-46.582 12.207-47.2168C12.207-47.8027 12.5977-48.4375 13.3789-48.7793L51.5625-66.3574C55.127-68.0176 57.666-68.5547 60.4492-68.5547C63.1836-68.5547 65.7227-68.0176 69.2871-66.3574L107.471-48.7793C108.252-48.4375 108.691-47.8027 108.691-47.2168C108.691-46.582 108.252-45.9473 107.471-45.6055L69.2871-28.0273C65.7227-26.3672 63.1836-25.8301 60.4492-25.8301ZM28.9551-18.7012L28.9551-35.9863L32.959-34.1797L32.959-11.8652C30.3223-14.209 28.9551-16.6992 28.9551-18.7012ZM60.4492-23.6328C63.3301-23.584 66.2109-24.1699 70.2148-26.0254L91.8945-35.9863L91.8945-18.7012C91.8945-12.8418 80.6152-3.41797 60.4492-3.41797C48.9746-3.41797 40.3809-6.49414 35.1074-10.1562L35.1074-33.2031L50.6836-26.0254C54.6875-24.1699 57.5195-23.584 60.4492-23.6328Z"/>
  </g>
 </g>
</svg>
