<?xml version="1.0" encoding="UTF-8"?>
<!--Generator: Apple Native CoreSVG 149-->
<!DOCTYPE svg
PUBLIC "-//W3C//DTD SVG 1.1//EN"
       "http://www.w3.org/Graphics/SVG/1.1/DTD/svg11.dtd">
<svg version="1.1" xmlns="http://www.w3.org/2000/svg" xmlns:xlink="http://www.w3.org/1999/xlink" width="3300" height="2200">
 <!--glyph: "uni100672.medium", point size: 100.000000, font version: "Version 16.0d18e1", template writer version: "8"-->
 <g id="Notes">
  <rect height="2200" id="artboard" style="fill:white;opacity:1" width="3300" x="0" y="0"/>
  <line id="" style="fill:none;stroke:black;opacity:1;stroke-width:0.5;" x1="263" x2="3036" y1="292" y2="292"/>
  <text style="stroke:none;fill:black;font-family:-apple-system,&quot;SF Pro Display&quot;,&quot;SF Pro Text&quot;,Helvetica,sans-serif;font-weight:bold;" transform="matrix(1 0 0 1 263 322)">Weight/Scale Variations</text>
  <text style="stroke:none;fill:black;font-family:-apple-system,&quot;SF Pro Display&quot;,&quot;SF Pro Text&quot;,Helvetica,sans-serif;text-anchor:middle;" transform="matrix(1 0 0 1 559.711 322)">Ultralight</text>
  <text style="stroke:none;fill:black;font-family:-apple-system,&quot;SF Pro Display&quot;,&quot;SF Pro Text&quot;,Helvetica,sans-serif;text-anchor:middle;" transform="matrix(1 0 0 1 856.422 322)">Thin</text>
  <text style="stroke:none;fill:black;font-family:-apple-system,&quot;SF Pro Display&quot;,&quot;SF Pro Text&quot;,Helvetica,sans-serif;text-anchor:middle;" transform="matrix(1 0 0 1 1153.13 322)">Light</text>
  <text style="stroke:none;fill:black;font-family:-apple-system,&quot;SF Pro Display&quot;,&quot;SF Pro Text&quot;,Helvetica,sans-serif;text-anchor:middle;" transform="matrix(1 0 0 1 1449.84 322)">Regular</text>
  <text style="stroke:none;fill:black;font-family:-apple-system,&quot;SF Pro Display&quot;,&quot;SF Pro Text&quot;,Helvetica,sans-serif;text-anchor:middle;" transform="matrix(1 0 0 1 1746.56 322)">Medium</text>
  <text style="stroke:none;fill:black;font-family:-apple-system,&quot;SF Pro Display&quot;,&quot;SF Pro Text&quot;,Helvetica,sans-serif;text-anchor:middle;" transform="matrix(1 0 0 1 2043.27 322)">Semibold</text>
  <text style="stroke:none;fill:black;font-family:-apple-system,&quot;SF Pro Display&quot;,&quot;SF Pro Text&quot;,Helvetica,sans-serif;text-anchor:middle;" transform="matrix(1 0 0 1 2339.98 322)">Bold</text>
  <text style="stroke:none;fill:black;font-family:-apple-system,&quot;SF Pro Display&quot;,&quot;SF Pro Text&quot;,Helvetica,sans-serif;text-anchor:middle;" transform="matrix(1 0 0 1 2636.69 322)">Heavy</text>
  <text style="stroke:none;fill:black;font-family:-apple-system,&quot;SF Pro Display&quot;,&quot;SF Pro Text&quot;,Helvetica,sans-serif;text-anchor:middle;" transform="matrix(1 0 0 1 2933.4 322)">Black</text>
  <line id="" style="fill:none;stroke:black;opacity:1;stroke-width:0.5;" x1="263" x2="3036" y1="1903" y2="1903"/>
  <g id="" transform="matrix(1 0 0 1 263 1933)">
   <path d="M9.24805 0.830078C13.5547 0.830078 17.1387-2.74414 17.1387-7.05078C17.1387-11.3574 13.5449-14.9316 9.23828-14.9316C4.94141-14.9316 1.36719-11.3574 1.36719-7.05078C1.36719-2.74414 4.95117 0.830078 9.24805 0.830078ZM9.24805-0.654297C5.70312-0.654297 2.87109-3.49609 2.87109-7.05078C2.87109-10.6055 5.69336-13.4473 9.23828-13.4473C12.793-13.4473 15.6348-10.6055 15.6445-7.05078C15.6543-3.49609 12.8027-0.654297 9.24805-0.654297ZM6.39648-6.31836L8.50586-6.31836L8.50586-4.19922C8.50586-3.75977 8.79883-3.45703 9.22852-3.45703C9.67773-3.45703 9.9707-3.75977 9.9707-4.19922L9.9707-6.31836L12.0996-6.31836C12.5391-6.31836 12.8418-6.61133 12.8418-7.04102C12.8418-7.48047 12.5391-7.7832 12.0996-7.7832L9.9707-7.7832L9.9707-9.89258C9.9707-10.3418 9.67773-10.6445 9.22852-10.6445C8.79883-10.6445 8.50586-10.3418 8.50586-9.89258L8.50586-7.7832L6.39648-7.7832C5.94727-7.7832 5.64453-7.48047 5.64453-7.04102C5.64453-6.61133 5.94727-6.31836 6.39648-6.31836Z"/>
  </g>
  <g id="" transform="matrix(1 0 0 1 281.506 1933)">
   <path d="M11.709 2.91016C17.1582 2.91016 21.6699-1.61133 21.6699-7.05078C21.6699-12.5 17.1484-17.0117 11.6992-17.0117C6.25977-17.0117 1.74805-12.5 1.74805-7.05078C1.74805-1.61133 6.26953 2.91016 11.709 2.91016ZM11.709 1.25C7.09961 1.25 3.41797-2.44141 3.41797-7.05078C3.41797-11.6602 7.08984-15.3516 11.6992-15.3516C16.3086-15.3516 20-11.6602 20.0098-7.05078C20.0195-2.44141 16.3184 1.25 11.709 1.25ZM7.98828-6.23047L10.8789-6.23047L10.8789-3.32031C10.8789-2.83203 11.2109-2.5 11.6895-2.5C12.1777-2.5 12.5195-2.83203 12.5195-3.32031L12.5195-6.23047L15.4297-6.23047C15.918-6.23047 16.25-6.5625 16.25-7.04102C16.25-7.5293 15.918-7.87109 15.4297-7.87109L12.5195-7.87109L12.5195-10.7617C12.5195-11.2695 12.1777-11.6016 11.6895-11.6016C11.2109-11.6016 10.8789-11.2598 10.8789-10.7617L10.8789-7.87109L7.98828-7.87109C7.48047-7.87109 7.14844-7.5293 7.14844-7.04102C7.14844-6.5625 7.49023-6.23047 7.98828-6.23047Z"/>
  </g>
  <g id="" transform="matrix(1 0 0 1 304.924 1933)">
   <path d="M14.9707 5.66406C21.9336 5.66406 27.6953-0.0976562 27.6953-7.05078C27.6953-14.0137 21.9238-19.7754 14.9609-19.7754C8.00781-19.7754 2.25586-14.0137 2.25586-7.05078C2.25586-0.0976562 8.01758 5.66406 14.9707 5.66406ZM14.9707 3.84766C8.93555 3.84766 4.08203-1.01562 4.08203-7.05078C4.08203-13.0957 8.92578-17.9492 14.9609-17.9492C21.0059-17.9492 25.8594-13.0957 25.8691-7.05078C25.8789-1.01562 21.0156 3.84766 14.9707 3.84766ZM10.0586-6.14258L14.0625-6.14258L14.0625-2.12891C14.0625-1.5918 14.4336-1.2207 14.9512-1.2207C15.4883-1.2207 15.8594-1.5918 15.8594-2.12891L15.8594-6.14258L19.8828-6.14258C20.4102-6.14258 20.791-6.51367 20.791-7.03125C20.791-7.56836 20.4199-7.94922 19.8828-7.94922L15.8594-7.94922L15.8594-11.9531C15.8594-12.5098 15.4883-12.8809 14.9512-12.8809C14.4336-12.8809 14.0625-12.5 14.0625-11.9531L14.0625-7.94922L10.0586-7.94922C9.50195-7.94922 9.13086-7.56836 9.13086-7.03125C9.13086-6.51367 9.51172-6.14258 10.0586-6.14258Z"/>
  </g>
  <text style="stroke:none;fill:black;font-family:-apple-system,&quot;SF Pro Display&quot;,&quot;SF Pro Text&quot;,Helvetica,sans-serif;font-weight:bold;" transform="matrix(1 0 0 1 263 1953)">Design Variations</text>
  <text style="stroke:none;fill:black;font-family:-apple-system,&quot;SF Pro Display&quot;,&quot;SF Pro Text&quot;,Helvetica,sans-serif;" transform="matrix(1 0 0 1 263 1971)">Symbols are supported in up to nine weights and three scales.</text>
  <text style="stroke:none;fill:black;font-family:-apple-system,&quot;SF Pro Display&quot;,&quot;SF Pro Text&quot;,Helvetica,sans-serif;" transform="matrix(1 0 0 1 263 1989)">For optimal layout with text and other symbols, vertically align</text>
  <text style="stroke:none;fill:black;font-family:-apple-system,&quot;SF Pro Display&quot;,&quot;SF Pro Text&quot;,Helvetica,sans-serif;" transform="matrix(1 0 0 1 263 2007)">symbols with the adjacent text.</text>
  <line id="" style="fill:none;stroke:#00AEEF;stroke-width:0.5;opacity:1.0;" x1="776" x2="776" y1="1919" y2="1933"/>
  <g id="" transform="matrix(1 0 0 1 776 1933)">
   <path d="M3.31055 0.126953C3.82812 0.126953 4.08203-0.0683594 4.26758-0.605469L5.52734-4.0625L11.2891-4.0625L12.5488-0.605469C12.7344-0.0683594 12.9883 0.126953 13.4961 0.126953C14.0137 0.126953 14.3457-0.185547 14.3457-0.673828C14.3457-0.839844 14.3164-0.986328 14.2383-1.20117L9.6582-13.3887C9.43359-13.9941 9.0332-14.2871 8.4082-14.2871C7.80273-14.2871 7.39258-13.9941 7.17773-13.3984L2.59766-1.19141C2.51953-0.976562 2.49023-0.830078 2.49023-0.664062C2.49023-0.175781 2.80273 0.126953 3.31055 0.126953ZM6.00586-5.53711L8.37891-12.1094L8.42773-12.1094L10.8008-5.53711Z"/>
  </g>
  <line id="" style="fill:none;stroke:#00AEEF;stroke-width:0.5;opacity:1.0;" x1="792.836" x2="792.836" y1="1919" y2="1933"/>
  <text style="stroke:none;fill:black;font-family:-apple-system,&quot;SF Pro Display&quot;,&quot;SF Pro Text&quot;,Helvetica,sans-serif;font-weight:bold;" transform="matrix(1 0 0 1 776 1953)">Margins</text>
  <text style="stroke:none;fill:black;font-family:-apple-system,&quot;SF Pro Display&quot;,&quot;SF Pro Text&quot;,Helvetica,sans-serif;" transform="matrix(1 0 0 1 776 1971)">Leading and trailing margins on the left and right side of each symbol</text>
  <text style="stroke:none;fill:black;font-family:-apple-system,&quot;SF Pro Display&quot;,&quot;SF Pro Text&quot;,Helvetica,sans-serif;" transform="matrix(1 0 0 1 776 1989)">can be adjusted by modifying the x-location of the margin guidelines.</text>
  <text style="stroke:none;fill:black;font-family:-apple-system,&quot;SF Pro Display&quot;,&quot;SF Pro Text&quot;,Helvetica,sans-serif;" transform="matrix(1 0 0 1 776 2007)">Modifications are automatically applied proportionally to all</text>
  <text style="stroke:none;fill:black;font-family:-apple-system,&quot;SF Pro Display&quot;,&quot;SF Pro Text&quot;,Helvetica,sans-serif;" transform="matrix(1 0 0 1 776 2025)">scales and weights.</text>
  <g id="" transform="matrix(1 0 0 1 1289 1933)">
   <path d="M2.8418 1.86523L4.54102 3.57422C5.40039 4.44336 6.38672 4.38477 7.31445 3.35938L17.4902-7.85156C17.7539-7.76367 18.0273-7.7832 18.3398-7.8418L19.4043-8.03711L20.0684-7.36328L20.0293-6.80664C19.9902-6.30859 20.1172-5.92773 20.6055-5.44922L21.3672-4.70703C21.8457-4.22852 22.4609-4.19922 22.9297-4.66797L25.8398-7.58789C26.3086-8.05664 26.2891-8.65234 25.8105-9.13086L25.0391-9.89258C24.5605-10.3711 24.1895-10.5273 23.7109-10.4883L23.1348-10.4395L22.4902-11.0742L22.7344-12.1973C22.8613-12.7637 22.7051-13.2031 22.1191-13.7891L19.9219-15.9766C16.582-19.2969 12.1484-19.2188 9.25781-16.3281C8.83789-15.918 8.80859-15.3418 9.04297-14.9512C9.27734-14.5898 9.73633-14.3555 10.3809-14.5215C11.8457-14.8633 13.3691-14.9219 14.7949-13.9844L14.209-12.5293C14.0137-12.0508 13.9844-11.6504 14.1113-11.2891L3.04688-0.898438C2.06055 0.0195312 1.98242 0.996094 2.8418 1.86523ZM10.752-15.957C13.1836-17.7344 16.4746-17.4316 18.7012-15.2051L21.1328-12.793C21.3672-12.5586 21.4062-12.373 21.3379-12.0312L21.0156-10.5469L22.5195-9.0625L23.5059-9.12109C23.7598-9.13086 23.8379-9.11133 24.0332-8.91602L24.6094-8.33984L22.168-5.89844L21.5918-6.47461C21.3965-6.66992 21.3672-6.74805 21.377-7.01172L21.4453-7.98828L19.9512-9.47266L18.4277-9.21875C18.1055-9.15039 17.959-9.17969 17.7148-9.41406L15.7129-11.416C15.459-11.6504 15.4297-11.8164 15.5859-12.1875L16.4648-14.2773C14.9023-15.7324 12.8711-16.3574 10.8398-15.7617C10.6836-15.7227 10.625-15.8496 10.752-15.957ZM5.27344 2.30469L4.10156 1.14258C3.63281 0.683594 3.74023 0.341797 4.14062-0.0195312L14.9512-10.1953L16.416-8.71094L6.42578 2.27539C6.07422 2.67578 5.74219 2.77344 5.27344 2.30469Z"/>
  </g>
  <text style="stroke:none;fill:black;font-family:-apple-system,&quot;SF Pro Display&quot;,&quot;SF Pro Text&quot;,Helvetica,sans-serif;font-weight:bold;" transform="matrix(1 0 0 1 1289 1953)">Exporting</text>
  <text style="stroke:none;fill:black;font-family:-apple-system,&quot;SF Pro Display&quot;,&quot;SF Pro Text&quot;,Helvetica,sans-serif;" transform="matrix(1 0 0 1 1289 1971)">Symbols should be outlined when exporting to ensure the</text>
  <text style="stroke:none;fill:black;font-family:-apple-system,&quot;SF Pro Display&quot;,&quot;SF Pro Text&quot;,Helvetica,sans-serif;" transform="matrix(1 0 0 1 1289 1989)">design is preserved when submitting to Xcode.</text>
  <text id="template-version" style="stroke:none;fill:black;font-family:-apple-system,&quot;SF Pro Display&quot;,&quot;SF Pro Text&quot;,Helvetica,sans-serif;text-anchor:end;" transform="matrix(1 0 0 1 3036 1933)">Template v.2.0</text>
  <text style="stroke:none;fill:black;font-family:-apple-system,&quot;SF Pro Display&quot;,&quot;SF Pro Text&quot;,Helvetica,sans-serif;text-anchor:end;" transform="matrix(1 0 0 1 3036 1951)">Requires Xcode 12 or greater</text>
  <text style="stroke:none;fill:black;font-family:-apple-system,&quot;SF Pro Display&quot;,&quot;SF Pro Text&quot;,Helvetica,sans-serif;text-anchor:end;" transform="matrix(1 0 0 1 3036 1969)">Generated from wave.3.right</text>
  <text style="stroke:none;fill:black;font-family:-apple-system,&quot;SF Pro Display&quot;,&quot;SF Pro Text&quot;,Helvetica,sans-serif;text-anchor:end;" transform="matrix(1 0 0 1 3036 1987)">Typeset at 100 points</text>
  <text style="stroke:none;fill:black;font-family:-apple-system,&quot;SF Pro Display&quot;,&quot;SF Pro Text&quot;,Helvetica,sans-serif;" transform="matrix(1 0 0 1 263 726)">Small</text>
  <text style="stroke:none;fill:black;font-family:-apple-system,&quot;SF Pro Display&quot;,&quot;SF Pro Text&quot;,Helvetica,sans-serif;" transform="matrix(1 0 0 1 263 1156)">Medium</text>
  <text style="stroke:none;fill:black;font-family:-apple-system,&quot;SF Pro Display&quot;,&quot;SF Pro Text&quot;,Helvetica,sans-serif;" transform="matrix(1 0 0 1 263 1586)">Large</text>
 </g>
 <g id="Guides">
  <g id="H-reference" style="fill:#27AAE1;stroke:none;" transform="matrix(1 0 0 1 339 696)">
   <path d="M0.976562 0L3.66211 0L12.9883-24.4629L45.752-24.4629L55.127 0L57.7637 0L30.6152-70.459L28.125-70.459ZM29.3457-67.1387L29.4434-67.1387L44.873-26.709L13.8672-26.709Z"/>
  </g>
  <line id="Baseline-S" style="fill:none;stroke:#27AAE1;opacity:1;stroke-width:0.5;" x1="263" x2="3036" y1="696" y2="696"/>
  <line id="Capline-S" style="fill:none;stroke:#27AAE1;opacity:1;stroke-width:0.5;" x1="263" x2="3036" y1="625.541" y2="625.541"/>
  <g id="H-reference" style="fill:#27AAE1;stroke:none;" transform="matrix(1 0 0 1 339 1126)">
   <path d="M0.976562 0L3.66211 0L12.9883-24.4629L45.752-24.4629L55.127 0L57.7637 0L30.6152-70.459L28.125-70.459ZM29.3457-67.1387L29.4434-67.1387L44.873-26.709L13.8672-26.709Z"/>
  </g>
  <line id="Baseline-M" style="fill:none;stroke:#27AAE1;opacity:1;stroke-width:0.5;" x1="263" x2="3036" y1="1126" y2="1126"/>
  <line id="Capline-M" style="fill:none;stroke:#27AAE1;opacity:1;stroke-width:0.5;" x1="263" x2="3036" y1="1055.54" y2="1055.54"/>
  <g id="H-reference" style="fill:#27AAE1;stroke:none;" transform="matrix(1 0 0 1 339 1556)">
   <path d="M0.976562 0L3.66211 0L12.9883-24.4629L45.752-24.4629L55.127 0L57.7637 0L30.6152-70.459L28.125-70.459ZM29.3457-67.1387L29.4434-67.1387L44.873-26.709L13.8672-26.709Z"/>
  </g>
  <line id="Baseline-L" style="fill:none;stroke:#27AAE1;opacity:1;stroke-width:0.5;" x1="263" x2="3036" y1="1556" y2="1556"/>
  <line id="Capline-L" style="fill:none;stroke:#27AAE1;opacity:1;stroke-width:0.5;" x1="263" x2="3036" y1="1485.54" y2="1485.54"/>
  <line id="left-margin" style="fill:none;stroke:#00AEEF;stroke-width:0.5;opacity:1.0;" x1="1417.28" x2="1417.28" y1="1030.79" y2="1150.12"/>
  <line id="right-margin" style="fill:none;stroke:#00AEEF;stroke-width:0.5;opacity:1.0;" x1="1482.41" x2="1482.41" y1="1030.79" y2="1150.12"/>
 </g>
 <g id="Symbols">
  <g id="Black-L" transform="matrix(1 0 0 1 2886.77 1556)">
   <path d="M81.9824-35.2051C81.9824-56.7871 74.1211-76.9043 59.9121-91.9434C56.5918-95.459 51.6113-95.4102 48.584-92.0898C45.7031-88.916 46.1914-84.375 49.4141-80.9082C60.6445-68.9453 66.7969-52.832 66.7969-35.2051C66.7969-17.5293 60.6445-1.41602 49.4141 10.5469C46.1914 14.0137 45.7031 18.5547 48.584 21.6797C51.6113 25.0488 56.5918 25.0488 59.9121 21.5332C74.1211 6.49414 81.9824-13.623 81.9824-35.2051ZM57.5684-35.2051C57.5684-50.6836 52.0996-65.332 42.2363-76.3184C38.8184-80.0293 33.5938-80.127 30.5176-76.5625C27.6367-73.3398 28.2227-69.0918 31.4941-65.4297C38.5742-57.2266 42.3828-46.7773 42.3828-35.2051C42.3828-23.584 38.5742-13.1836 31.4941-4.93164C28.2227-1.31836 27.6367 2.92969 30.5176 6.20117C33.5938 9.76562 38.8184 9.66797 42.2363 5.95703C52.0996-5.0293 57.5684-19.6777 57.5684-35.2051ZM33.1543-35.2051C33.1543-43.9941 30.2246-52.5879 25-59.4238C21.9238-63.4766 16.2598-63.7207 13.0859-60.1074C10.2539-57.0312 10.9375-53.1738 13.8184-49.0723C16.5527-45.166 17.9688-40.5273 17.9688-35.2051C17.9688-29.834 16.5527-25.1953 13.8184-21.3379C10.9375-17.1875 10.2539-13.3789 13.0859-10.3027C16.2598-6.64062 21.9238-6.88477 25-10.9863C30.2246-17.8223 33.1543-26.3672 33.1543-35.2051Z"/>
  </g>
  <g id="Heavy-L" transform="matrix(1 0 0 1 2591.4 1556)">
   <path d="M79.2969-35.2051C79.2969-56.6406 71.3867-76.5625 57.2754-91.4062C54.2969-94.5312 49.8535-94.4824 47.168-91.5527C44.6289-88.7207 45.0684-84.668 47.998-81.5918C59.4727-69.3848 65.7715-53.0762 65.7715-35.2051C65.7715-17.334 59.4727-0.976562 47.998 11.1816C45.0684 14.3066 44.6289 18.3594 47.168 21.1426C49.8535 24.0723 54.2969 24.1699 57.2754 20.9961C71.3867 6.15234 79.2969-13.7207 79.2969-35.2051ZM55.4688-35.2051C55.4688-50.5859 50-64.9902 40.1855-75.8301C37.1094-79.1504 32.4707-79.248 29.7363-76.0742C27.1484-73.1934 27.6855-69.3848 30.6152-66.1133C37.9883-57.7148 41.9434-47.0215 41.9434-35.2051C41.9434-23.3887 37.9883-12.6465 30.6152-4.29688C27.6855-1.02539 27.1484 2.7832 29.7363 5.71289C32.4707 8.83789 37.1094 8.74023 40.1855 5.41992C50-5.37109 55.4688-19.8242 55.4688-35.2051ZM31.6406-35.2051C31.6406-43.9453 28.7109-52.3438 23.4863-58.9844C20.7031-62.6465 15.7227-62.793 12.8906-59.6191C10.3516-56.8359 10.9863-53.3691 13.5742-49.707C16.5527-45.7031 18.1152-40.7715 18.1152-35.2051C18.1152-29.6387 16.5527-24.707 13.5742-20.7031C10.9863-17.041 10.3516-13.5742 12.8906-10.791C15.7227-7.56836 20.7031-7.76367 23.4863-11.4258C28.7109-18.0664 31.6406-26.4648 31.6406-35.2051Z"/>
  </g>
  <g id="Bold-L" transform="matrix(1 0 0 1 2296.18 1556)">
   <path d="M76.3184-35.2051C76.3184-56.4941 68.3594-76.1719 54.3457-90.7715C51.7578-93.5547 47.9004-93.457 45.6055-90.918C43.4082-88.5254 43.7988-85.0098 46.3379-82.3242C58.2031-69.9219 64.6484-53.3203 64.6484-35.2051C64.6484-17.0898 58.2031-0.488281 46.3379 11.9141C43.7988 14.5996 43.4082 18.1152 45.6055 20.5078C47.9004 23.0469 51.7578 23.1445 54.3457 20.3613C68.3594 5.76172 76.3184-13.916 76.3184-35.2051ZM53.125-35.2051C53.125-50.3906 47.6074-64.6484 37.8418-75.2441C35.2051-78.125 31.2012-78.2227 28.8574-75.5371C26.6113-72.998 27.1484-69.6777 29.6875-66.8457C37.3047-58.3008 41.4551-47.3145 41.4551-35.2051C41.4551-23.0957 37.3047-12.1094 29.6875-3.56445C27.1484-0.732422 26.6113 2.58789 28.8574 5.12695C31.2012 7.8125 35.2051 7.71484 37.8418 4.83398C47.6074-5.76172 53.125-19.9707 53.125-35.2051ZM29.9316-35.2051C29.9316-43.8477 27.002-52.0508 21.8262-58.4961C19.3359-61.6699 15.0879-61.7676 12.6465-59.0332C10.4492-56.5918 11.084-53.5645 13.3301-50.4395C16.5527-46.2402 18.2617-41.0645 18.2617-35.2051C18.2617-29.3457 16.5527-24.1699 13.3301-19.9707C11.084-16.8457 10.4492-13.8184 12.6465-11.377C15.0879-8.64258 19.3359-8.74023 21.8262-11.9141C27.002-18.3594 29.9316-26.5625 29.9316-35.2051Z"/>
  </g>
  <g id="Semibold-L" transform="matrix(1 0 0 1 2000.52 1556)">
   <path d="M74.2188-35.2051C74.2188-56.4453 66.2598-75.8789 52.3438-90.3809C49.9512-92.8711 46.5332-92.7246 44.5312-90.5273C42.5781-88.3789 42.9199-85.2051 45.2148-82.8125C57.2754-70.2637 63.8672-53.4668 63.8672-35.2051C63.8672-16.9434 57.2754-0.195312 45.2148 12.4023C42.9199 14.7949 42.5781 17.9199 44.5312 20.0684C46.5332 22.3145 49.9512 22.4609 52.3438 19.9707C66.2598 5.46875 74.2188-14.0137 74.2188-35.2051ZM51.4648-35.2051C51.4648-50.293 45.9961-64.3555 36.2793-74.8535C33.8867-77.4414 30.3223-77.5391 28.2715-75.1465C26.2695-72.8516 26.709-69.9219 29.0039-67.3828C36.8652-58.6914 41.1133-47.4609 41.1133-35.2051C41.1133-22.9492 36.8652-11.7188 29.0039-3.02734C26.709-0.537109 26.2695 2.44141 28.2715 4.73633C30.3223 7.08008 33.8867 7.03125 36.2793 4.44336C45.9961-6.05469 51.4648-20.1172 51.4648-35.2051ZM28.7598-35.2051C28.7598-43.75 25.7812-51.8555 20.6543-58.1543C18.4082-60.9863 14.5996-61.084 12.4512-58.6426C10.498-56.4453 11.1328-53.7109 13.1836-50.9277C16.5527-46.6797 18.3594-41.2109 18.3594-35.2051C18.3594-29.1992 16.5527-23.7793 13.1836-19.4824C11.1328-16.6992 10.498-13.9648 12.4512-11.7676C14.5996-9.32617 18.4082-9.42383 20.6543-12.2559C25.7812-18.5547 28.7598-26.6602 28.7598-35.2051Z"/>
  </g>
  <g id="Medium-L" transform="matrix(1 0 0 1 1704.59 1556)">
   <path d="M72.6562-35.2051C72.6562-56.3477 64.6484-75.6836 50.7812-90.0391C48.6328-92.3828 45.5078-92.1875 43.7012-90.1855C41.9434-88.2324 42.2852-85.4004 44.3848-83.2031C56.5918-70.5078 63.2812-53.6133 63.2812-35.2051C63.2812-16.8457 56.5918 0.0976562 44.3848 12.793C42.2852 14.9902 41.9434 17.8223 43.7012 19.7754C45.5078 21.7773 48.6328 21.9238 50.7812 19.6289C64.6484 5.22461 72.6562-14.0625 72.6562-35.2051ZM50.2441-35.2051C50.2441-50.2441 44.7754-64.1602 35.0586-74.5605C32.8613-76.9531 29.6875-77.002 27.832-74.8535C25.9766-72.7539 26.416-70.0684 28.5156-67.7734C36.5234-58.9844 40.8691-47.6074 40.8691-35.2051C40.8691-22.8027 36.5234-11.4258 28.5156-2.63672C26.416-0.341797 25.9766 2.34375 27.832 4.39453C29.6875 6.54297 32.8613 6.49414 35.0586 4.15039C44.7754-6.25 50.2441-20.2148 50.2441-35.2051ZM27.832-35.2051C27.832-43.7012 24.9023-51.709 19.7266-57.9102C17.7246-60.498 14.3066-60.5469 12.3535-58.3496C10.5469-56.2988 11.1816-53.8086 13.0371-51.3184C16.5527-46.9727 18.457-41.3574 18.457-35.2051C18.457-29.0527 16.5527-23.4863 13.0371-19.0918C11.1816-16.6016 10.5469-14.1113 12.3535-12.0605C14.3066-9.91211 17.7246-9.91211 19.7266-12.5C24.9023-18.75 27.832-26.709 27.832-35.2051Z"/>
  </g>
  <g id="Regular-L" transform="matrix(1 0 0 1 1408.9 1556)">
   <path d="M70.6055-35.2051C70.6055-56.25 62.5488-75.3906 48.7793-89.6484C46.875-91.6992 44.1895-91.5039 42.627-89.7949C41.1133-88.0859 41.4062-85.6445 43.2617-83.6914C55.7129-70.8496 62.5-53.7598 62.5-35.2051C62.5-16.6504 55.7129 0.390625 43.2617 13.2812C41.4062 15.1855 41.1133 17.6758 42.627 19.3359C44.1895 21.0449 46.875 21.2402 48.7793 19.1895C62.5488 4.98047 70.6055-14.1602 70.6055-35.2051ZM48.6328-35.2051C48.6328-50.1465 43.1641-63.916 33.4961-74.1699C31.5918-76.2695 28.8086-76.2695 27.1973-74.4629C25.5859-72.6562 26.0254-70.3125 27.8809-68.2617C36.0352-59.375 40.5273-47.8027 40.5273-35.2051C40.5273-22.6074 36.0352-11.0352 27.8809-2.14844C26.0254-0.146484 25.5859 2.19727 27.1973 4.00391C28.8086 5.85938 31.5918 5.81055 33.4961 3.71094C43.1641-6.54297 48.6328-20.3125 48.6328-35.2051ZM26.709-35.2051C26.709-43.6523 23.7305-51.5137 18.6035-57.6172C16.7969-59.8145 13.8672-59.8145 12.207-57.959C10.5957-56.1523 11.2305-53.9551 12.8906-51.8066C16.5527-47.3633 18.5547-41.5527 18.5547-35.2051C18.5547-28.8574 16.5527-23.0957 12.8906-18.6523C11.2305-16.4551 10.5957-14.2578 12.207-12.4512C13.8672-10.5957 16.7969-10.5957 18.6035-12.8418C23.7305-18.9453 26.709-26.8066 26.709-35.2051Z"/>
  </g>
  <g id="Light-L" transform="matrix(1 0 0 1 1113.66 1556)">
   <path d="M67.6758-35.2539C67.6758-56.1523 59.4238-75.0488 45.6543-89.1113C44.1895-90.7227 42.041-90.5762 40.8203-89.2578C39.6484-87.9395 39.8926-85.9863 41.3574-84.5215C54.2969-71.3379 61.377-54.0039 61.377-35.2539C61.377-16.4551 54.2969 0.878906 41.3574 14.0625C39.8926 15.5273 39.6484 17.4805 40.8203 18.75C42.041 20.1172 44.1895 20.2148 45.6543 18.6523C59.4238 4.58984 67.6758-14.3066 67.6758-35.2539ZM46.4844-35.2539C46.4844-50.0977 40.8203-63.6719 31.1035-73.7305C29.6387-75.3418 27.4902-75.3906 26.2695-74.0234C25-72.6074 25.293-70.7031 26.7578-69.1895C35.4004-60.0586 40.1367-48.1445 40.1367-35.2539C40.1367-22.3145 35.4004-10.4492 26.7578-1.31836C25.293 0.244141 25 2.09961 26.2695 3.51562C27.4902 4.93164 29.6387 4.88281 31.1035 3.27148C40.8203-6.83594 46.4844-20.4102 46.4844-35.2539ZM25.293-35.2539C25.293-43.6035 22.2656-51.3672 16.9434-57.2266C15.5273-58.9355 13.2812-58.9355 11.9629-57.5195C10.791-56.1035 11.2305-54.3945 12.5488-52.7344C16.6504-48.1445 18.9453-41.9922 18.9453-35.2539C18.9453-28.4668 16.6504-22.3633 12.5488-17.7246C11.2305-16.1133 10.791-14.3555 11.9629-12.9395C13.2812-11.5234 15.5273-11.5234 16.9434-13.2324C22.2656-19.1406 25.293-26.8555 25.293-35.2539Z"/>
  </g>
  <g id="Thin-L" transform="matrix(1 0 0 1 818.873 1556)">
   <path d="M63.8184-35.2539C63.8184-56.0547 55.2734-74.6094 41.4551-88.4277C40.5762-89.4043 39.209-89.4043 38.4277-88.5254C37.7441-87.7441 37.8418-86.5234 38.7695-85.6445C52.4414-72.0215 59.8145-54.3457 59.8145-35.2539C59.8145-16.2109 52.4414 1.46484 38.7695 15.1367C37.8418 16.0156 37.7441 17.2363 38.4277 18.0176C39.209 18.8477 40.5762 18.8965 41.4551 17.9199C55.2734 4.10156 63.8184-14.4531 63.8184-35.2539ZM43.6035-35.2539C43.6035-50 37.7441-63.3301 27.9297-73.1445C27.0508-74.1211 25.7324-74.1699 25-73.3887C24.1699-72.5098 24.3164-71.2402 25.2441-70.3613C34.4727-60.9375 39.5996-48.584 39.5996-35.2539C39.5996-21.9238 34.4727-9.57031 25.2441-0.195312C24.3164 0.732422 24.1699 2.00195 25 2.88086C25.7324 3.66211 27.0508 3.56445 27.9297 2.63672C37.7441-7.17773 43.6035-20.5078 43.6035-35.2539ZM23.3887-35.2539C23.3887-43.5547 20.3125-51.1719 14.7949-56.7871C13.8672-57.7637 12.5-57.7637 11.6699-56.8848C11.0352-56.0547 11.1816-54.9316 12.1094-54.0039C16.7969-49.1699 19.4336-42.5781 19.4336-35.2539C19.4336-27.9297 16.7969-21.3867 12.1094-16.5039C11.1816-15.625 11.0352-14.502 11.6699-13.623C12.5-12.7441 13.8672-12.7441 14.7949-13.7207C20.3125-19.3848 23.3887-26.9531 23.3887-35.2539Z"/>
  </g>
  <g id="Ultralight-L" transform="matrix(1 0 0 1 523.139 1556)">
   <path d="M61.8652-35.2539C61.8652-56.0059 53.1738-74.4141 39.3555-88.0859C38.7695-88.7695 37.7441-88.7695 37.207-88.1836C36.7676-87.6465 36.8164-86.7676 37.5-86.2305C51.4648-72.3633 59.0332-54.4922 59.0332-35.2539C59.0332-16.0645 51.4648 1.80664 37.5 15.6738C36.8164 16.2109 36.7676 17.0898 37.207 17.627C37.7441 18.2129 38.7695 18.2129 39.3555 17.5293C53.1738 3.85742 61.8652-14.5508 61.8652-35.2539ZM42.1387-35.2539C42.1387-49.9512 36.1328-63.1836 26.3184-72.8516C25.7324-73.4863 24.8047-73.584 24.3652-73.0957C23.7793-72.5098 23.7793-71.5332 24.4629-70.9473C34.0332-61.377 39.3555-48.8281 39.3555-35.2539C39.3555-21.7285 34.0332-9.17969 24.4629 0.390625C23.7793 0.976562 23.7793 1.95312 24.3652 2.53906C24.8047 3.02734 25.7324 2.92969 26.3184 2.29492C36.1328-7.37305 42.1387-20.6055 42.1387-35.2539ZM22.4609-35.2539C22.4609-43.5547 19.2871-51.0742 13.7207-56.543C13.0371-57.1777 12.1094-57.1777 11.5234-56.5918C11.1328-56.0059 11.1816-55.1758 11.8652-54.6387C16.8457-49.6582 19.6777-42.8711 19.6777-35.2539C19.6777-27.6367 16.8457-20.8496 11.8652-15.918C11.1816-15.3809 11.1328-14.5508 11.5234-13.9648C12.1094-13.3789 13.0371-13.3789 13.7207-14.0137C19.2871-19.4824 22.4609-27.002 22.4609-35.2539Z"/>
  </g>
  <g id="Black-M" transform="matrix(1 0 0 1 2896.24 1126)">
   <path d="M65.5762-35.2051C65.5762-52.0508 59.4727-67.8223 48.291-79.5898C45.5566-82.5684 41.2109-82.6172 38.5742-79.7363C36.084-77.0508 36.4746-73.1445 39.2578-70.166C47.8516-61.0352 52.4902-48.7305 52.4902-35.2051C52.4902-21.6797 47.8516-9.375 39.2578-0.195312C36.4746 2.73438 36.084 6.64062 38.5742 9.32617C41.2109 12.207 45.5566 12.1582 48.291 9.22852C59.4727-2.58789 65.5762-18.3594 65.5762-35.2051ZM46.2891-35.2051C46.2891-47.3633 41.9922-58.8867 34.2285-67.5293C31.3477-70.6543 26.8066-70.8008 24.1699-67.7246C21.7285-64.9414 22.168-61.2793 24.9512-58.2031C30.3711-51.9531 33.2031-44.043 33.2031-35.2051C33.2031-26.3672 30.3711-18.457 24.9512-12.1582C22.168-9.08203 21.7285-5.46875 24.1699-2.68555C26.8066 0.390625 31.3477 0.244141 34.2285-2.88086C41.9922-11.4746 46.2891-23.0469 46.2891-35.2051ZM27.002-35.2051C27.002-42.1387 24.707-48.9258 20.5566-54.3457C17.9199-57.8125 13.0859-58.0566 10.3027-54.9316C7.95898-52.3438 8.34961-49.0723 10.8398-45.5566C12.8906-42.6758 13.916-39.2578 13.916-35.2051C13.916-31.1523 12.8906-27.7344 10.8398-24.8047C8.34961-21.2891 7.95898-18.0176 10.3027-15.4785C13.0859-12.3047 17.9199-12.5977 20.5566-16.0156C24.707-21.4844 27.002-28.2715 27.002-35.2051Z"/>
  </g>
  <g id="Heavy-M" transform="matrix(1 0 0 1 2600.6 1126)">
   <path d="M63.4277-35.2051C63.4277-51.9043 57.2754-67.5293 46.2402-79.1504C43.7012-81.8359 39.8438-81.8359 37.5-79.2969C35.3027-76.8555 35.6445-73.3398 38.1348-70.7031C46.9238-61.377 51.709-48.877 51.709-35.2051C51.709-21.5332 46.9238-9.0332 38.1348 0.292969C35.6445 2.92969 35.3027 6.44531 37.5 8.88672C39.8438 11.4258 43.7012 11.4258 46.2402 8.74023C57.2754-2.88086 63.4277-18.457 63.4277-35.2051ZM44.5312-35.2051C44.5312-47.2168 40.2832-58.5938 32.6172-67.0898C29.9805-69.9219 25.9277-70.0195 23.584-67.2852C21.3867-64.7949 21.8262-61.5234 24.3164-58.7402C29.8828-52.3438 32.8613-44.2383 32.8613-35.2051C32.8613-26.1719 29.8828-18.0664 24.3164-11.6699C21.8262-8.88672 21.3867-5.61523 23.584-3.125C25.9277-0.390625 29.9805-0.488281 32.6172-3.32031C40.2832-11.8164 44.5312-23.1934 44.5312-35.2051ZM25.6836-35.2051C25.6836-42.041 23.3887-48.6816 19.3359-54.0039C16.9434-57.1289 12.5977-57.3242 10.1562-54.4922C7.95898-52.1484 8.44727-49.1699 10.6445-46.0449C12.8418-43.0176 13.9648-39.4043 13.9648-35.2051C13.9648-31.0059 12.8418-27.3926 10.6445-24.3652C8.44727-21.1914 7.95898-18.2617 10.1562-15.918C12.5977-13.0859 16.9434-13.2812 19.3359-16.4062C23.3887-21.7285 25.6836-28.3691 25.6836-35.2051Z"/>
  </g>
  <g id="Bold-M" transform="matrix(1 0 0 1 2305.11 1126)">
   <path d="M60.9863-35.2051C60.9863-51.8066 54.8828-67.1875 43.9453-78.6621C41.6992-81.0547 38.3301-81.0059 36.3281-78.7598C34.375-76.6602 34.7168-73.584 36.9141-71.2402C45.8984-61.8164 50.7812-49.0723 50.7812-35.2051C50.7812-21.3379 45.8984-8.59375 36.9141 0.830078C34.7168 3.17383 34.375 6.25 36.3281 8.34961C38.3301 10.5957 41.6992 10.6445 43.9453 8.25195C54.8828-3.22266 60.9863-18.6035 60.9863-35.2051ZM42.627-35.2051C42.627-47.0703 38.3789-58.252 30.7617-66.6016C28.4668-69.0918 24.9512-69.1895 22.9004-66.7969C20.9473-64.5996 21.3867-61.7188 23.584-59.2773C29.3457-52.7344 32.4219-44.4336 32.4219-35.2051C32.4219-25.9766 29.3457-17.6758 23.584-11.1328C21.3867-8.69141 20.9473-5.81055 22.9004-3.61328C24.9512-1.2207 28.4668-1.31836 30.7617-3.80859C38.3789-12.1582 42.627-23.3398 42.627-35.2051ZM24.2188-35.2051C24.2188-41.9434 21.9727-48.4375 17.9688-53.5645C15.8203-56.2988 12.0605-56.4453 9.96094-54.0039C8.00781-51.9043 8.54492-49.3164 10.498-46.582C12.8418-43.4082 14.0625-39.5508 14.0625-35.2051C14.0625-30.8594 12.8418-27.002 10.498-23.8281C8.54492-21.0938 8.00781-18.5059 9.96094-16.4062C12.0605-13.9648 15.8203-14.1113 17.9688-16.8457C21.9727-21.9727 24.2188-28.4668 24.2188-35.2051Z"/>
  </g>
  <g id="Semibold-M" transform="matrix(1 0 0 1 2009.23 1126)">
   <path d="M59.3262-35.2051C59.3262-51.709 53.1738-66.9434 42.3828-78.3203C40.2832-80.5176 37.3047-80.3711 35.498-78.418C33.7402-76.5137 34.082-73.7793 36.084-71.6309C45.2148-62.0605 50.1953-49.2188 50.1953-35.2051C50.1953-21.1914 45.2148-8.34961 36.084 1.2207C34.082 3.36914 33.7402 6.10352 35.498 8.00781C37.3047 9.96094 40.2832 10.1074 42.3828 7.91016C53.1738-3.4668 59.3262-18.7012 59.3262-35.2051ZM41.2598-35.2051C41.2598-46.9727 37.0605-58.0078 29.4922-66.2598C27.3926-68.5547 24.2676-68.6035 22.4609-66.4551C20.7031-64.502 21.0938-61.9141 23.0957-59.668C28.9551-53.0762 32.1289-44.5312 32.1289-35.2051C32.1289-25.8789 28.9551-17.3828 23.0957-10.7422C21.0938-8.54492 20.7031-5.95703 22.4609-3.95508C24.2676-1.80664 27.3926-1.85547 29.4922-4.15039C37.0605-12.4023 41.2598-23.4375 41.2598-35.2051ZM23.2422-35.2051C23.2422-41.8945 20.9961-48.2422 16.9922-53.2715C15.0879-55.7617 11.7188-55.8594 9.81445-53.7109C8.05664-51.7578 8.59375-49.3652 10.4004-46.9238C12.793-43.7012 14.1113-39.6973 14.1113-35.2051C14.1113-30.7129 12.793-26.709 10.4004-23.4863C8.59375-21.0449 8.05664-18.6523 9.81445-16.6992C11.7188-14.5508 15.0879-14.6484 16.9922-17.1387C20.9961-22.168 23.2422-28.5156 23.2422-35.2051Z"/>
  </g>
  <g id="Medium-M" transform="matrix(1 0 0 1 1713.16 1126)">
   <path d="M58.0566-35.2051C58.0566-51.6602 51.9043-66.7969 41.1621-78.0273C39.2578-80.0781 36.4746-79.9316 34.9121-78.1738C33.3008-76.416 33.5938-73.877 35.4492-71.9238C44.6777-62.2559 49.707-49.3164 49.707-35.2051C49.707-21.0938 44.6777-8.1543 35.4492 1.51367C33.5938 3.4668 33.3008 6.00586 34.9121 7.71484C36.4746 9.52148 39.2578 9.66797 41.1621 7.61719C51.9043-3.66211 58.0566-18.75 58.0566-35.2051ZM40.2832-35.2051C40.2832-46.9238 36.084-57.8125 28.5645-66.0156C26.6113-68.1152 23.7793-68.1641 22.0703-66.2109C20.459-64.4043 20.8984-62.0117 22.7539-59.9609C28.6621-53.2715 31.9336-44.6777 31.9336-35.2051C31.9336-25.7812 28.6621-17.1387 22.7539-10.4492C20.8984-8.39844 20.459-6.05469 22.0703-4.19922C23.7793-2.29492 26.6113-2.29492 28.5645-4.44336C36.084-12.5977 40.2832-23.4863 40.2832-35.2051ZM22.4609-35.2051C22.4609-41.8457 20.2148-48.0957 16.2598-53.0762C14.502-55.3223 11.4258-55.3711 9.7168-53.4668C8.10547-51.6602 8.64258-49.4629 10.3027-47.168C12.793-43.8965 14.1113-39.7461 14.1113-35.2051C14.1113-30.6641 12.793-26.5137 10.3027-23.2422C8.64258-20.9961 8.10547-18.7988 9.7168-16.9922C11.4258-15.0391 14.502-15.0879 16.2598-17.3828C20.2148-22.3145 22.4609-28.5645 22.4609-35.2051Z"/>
  </g>
  <g id="Regular-M" transform="matrix(1 0 0 1 1417.28 1126)">
   <path d="M56.3965-35.2051C56.3965-51.5625 50.2441-66.5527 39.5996-77.6855C37.8418-79.541 35.4492-79.3457 34.082-77.832C32.666-76.2695 32.959-74.0723 34.6191-72.3145C43.9941-62.5488 49.0723-49.4629 49.0723-35.2051C49.0723-20.9473 43.9941-7.86133 34.6191 1.9043C32.959 3.61328 32.666 5.85938 34.082 7.37305C35.4492 8.93555 37.8418 9.13086 39.5996 7.27539C50.2441-3.85742 56.3965-18.8477 56.3965-35.2051ZM38.916-35.2051C38.916-46.8262 34.7656-57.5684 27.2949-65.6738C25.5859-67.5781 23.0957-67.5781 21.6309-65.918C20.2148-64.2578 20.6055-62.1582 22.2656-60.3516C28.3203-53.5645 31.6406-44.7754 31.6406-35.2051C31.6406-25.6348 28.3203-16.8457 22.2656-10.0586C20.6055-8.25195 20.2148-6.15234 21.6309-4.54102C23.0957-2.83203 25.5859-2.88086 27.2949-4.78516C34.7656-12.8418 38.916-23.6328 38.916-35.2051ZM21.4844-35.2051C21.4844-41.7969 19.2383-47.9492 15.332-52.7832C13.7207-54.7852 11.0352-54.7852 9.57031-53.125C8.10547-51.4648 8.74023-49.5117 10.1562-47.5586C12.793-44.1895 14.1602-39.8926 14.1602-35.2051C14.1602-30.5176 12.793-26.2207 10.1562-22.9004C8.74023-20.8984 8.10547-18.9453 9.57031-17.2852C11.0352-15.625 13.7207-15.625 15.332-17.6758C19.2383-22.5098 21.4844-28.6621 21.4844-35.2051Z"/>
  </g>
  <g id="Light-M" transform="matrix(1 0 0 1 1121.88 1126)">
   <path d="M53.7598-35.2051C53.7598-51.5137 47.4609-66.2598 36.7676-77.2461C35.4492-78.6621 33.5449-78.5156 32.4707-77.3438C31.3965-76.1719 31.5918-74.4141 32.9102-73.0957C42.7246-62.9883 48.0469-49.6582 48.0469-35.2051C48.0469-20.8008 42.7246-7.4707 32.9102 2.63672C31.5918 3.95508 31.3965 5.71289 32.4707 6.88477C33.5449 8.05664 35.4492 8.20312 36.7676 6.78711C47.4609-4.19922 53.7598-18.9453 53.7598-35.2051ZM37.0117-35.2051C37.0117-46.7773 32.666-57.373 25.1465-65.2832C23.8281-66.748 21.875-66.748 20.8008-65.4785C19.6289-64.209 19.9219-62.5488 21.2402-61.1328C27.7344-54.1504 31.2988-45.0684 31.2988-35.2051C31.2988-25.3906 27.7344-16.3086 21.2402-9.32617C19.9219-7.91016 19.6289-6.25 20.8008-4.98047C21.875-3.71094 23.8281-3.71094 25.1465-5.17578C32.666-13.0859 37.0117-23.6816 37.0117-35.2051ZM20.2148-35.2051C20.2148-41.748 17.9199-47.8027 13.8672-52.4414C12.5977-54.0039 10.5469-54.0039 9.375-52.6855C8.30078-51.416 8.69141-49.9023 9.86328-48.3887C12.8906-44.873 14.502-40.2832 14.502-35.2051C14.502-30.1758 12.8906-25.5859 9.86328-22.0703C8.69141-20.5566 8.30078-19.043 9.375-17.7734C10.5469-16.4551 12.5977-16.4551 13.8672-18.0176C17.9199-22.6562 20.2148-28.7109 20.2148-35.2051Z"/>
  </g>
  <g id="Thin-M" transform="matrix(1 0 0 1 826.906 1126)">
   <path d="M50.293-35.2539C50.293-51.416 43.75-65.8691 33.0566-76.6113C32.2266-77.4902 31.0059-77.4414 30.3223-76.709C29.6387-75.9766 29.7852-74.8535 30.6152-74.0723C41.0645-63.5742 46.6797-49.9512 46.6797-35.2539C46.6797-20.5566 41.0645-6.93359 30.6152 3.56445C29.7852 4.3457 29.6387 5.46875 30.3223 6.20117C31.0059 6.98242 32.2266 6.98242 33.0566 6.10352C43.75-4.63867 50.293-19.0918 50.293-35.2539ZM34.4238-35.2539C34.4238-46.6797 29.8828-57.0801 22.3145-64.7461C21.5332-65.625 20.3125-65.6738 19.6777-64.9414C18.8965-64.1602 19.043-63.0371 19.873-62.207C26.9043-54.9805 30.8105-45.459 30.8105-35.2539C30.8105-25 26.9043-15.5273 19.873-8.30078C19.043-7.4707 18.8965-6.34766 19.6777-5.56641C20.3125-4.83398 21.5332-4.88281 22.3145-5.76172C29.8828-13.4277 34.4238-23.8281 34.4238-35.2539ZM18.5547-35.2539C18.5547-41.6992 16.1621-47.6074 11.9629-52.0508C11.1328-52.9785 9.86328-52.9785 9.08203-52.1484C8.49609-51.3672 8.69141-50.3418 9.47266-49.5117C12.9883-45.8008 14.9414-40.8203 14.9414-35.2539C14.9414-29.6875 12.9883-24.707 9.47266-20.9961C8.69141-20.1172 8.49609-19.1406 9.08203-18.3594C9.86328-17.5293 11.1328-17.5293 11.9629-18.457C16.1621-22.9004 18.5547-28.8086 18.5547-35.2539Z"/>
  </g>
  <g id="Ultralight-M" transform="matrix(1 0 0 1 531.073 1126)">
   <path d="M48.5352-35.2539C48.5352-51.3184 41.8457-65.6738 31.1523-76.3184C30.5664-76.9043 29.6875-76.9043 29.1992-76.3672C28.7598-75.8789 28.8574-75.0977 29.4434-74.5605C40.1855-63.916 45.9961-50.0977 45.9961-35.2539C45.9961-20.4102 40.1855-6.64062 29.4434 4.05273C28.8574 4.58984 28.7598 5.37109 29.1992 5.85938C29.6875 6.39648 30.5664 6.39648 31.1523 5.76172C41.8457-4.88281 48.5352-19.1895 48.5352-35.2539ZM33.1055-35.2539C33.1055-46.6797 28.4668-56.9336 20.8984-64.4531C20.3613-65.0879 19.4824-65.1367 19.0918-64.6484C18.5547-64.1113 18.6035-63.2812 19.1895-62.7441C26.5137-55.3711 30.5664-45.7031 30.5664-35.2539C30.5664-24.8535 26.5137-15.1855 19.1895-7.8125C18.6035-7.27539 18.5547-6.39648 19.0918-5.85938C19.4824-5.37109 20.3613-5.46875 20.8984-6.05469C28.4668-13.5742 33.1055-23.877 33.1055-35.2539ZM17.6758-35.2539C17.6758-41.6992 15.2344-47.5098 10.9375-51.8066C10.3516-52.4414 9.52148-52.4414 8.98438-51.8555C8.59375-51.3184 8.64258-50.6348 9.27734-50.0977C13.0371-46.2891 15.1367-41.0645 15.1367-35.2539C15.1367-29.4434 13.0371-24.2676 9.27734-20.459C8.64258-19.9219 8.59375-19.1895 8.98438-18.6523C9.52148-18.1152 10.3516-18.1152 10.9375-18.7012C15.2344-22.998 17.6758-28.8574 17.6758-35.2539Z"/>
  </g>
  <g id="Black-S" transform="matrix(1 0 0 1 2904.37 696)">
   <path d="M51.2207-35.2051C51.2207-48.3887 46.4355-60.7422 37.6953-69.9707C35.5469-72.2656 32.1777-72.3145 30.127-70.0684C28.2227-67.9688 28.5156-64.9414 30.6641-62.6465C37.4023-55.4688 41.0645-45.8008 41.0645-35.2051C41.0645-24.6094 37.4023-14.9414 30.6641-7.76367C28.5156-5.46875 28.2227-2.44141 30.127-0.341797C32.1777 1.9043 35.5469 1.85547 37.6953-0.439453C46.4355-9.66797 51.2207-22.0215 51.2207-35.2051ZM36.1328-35.2051C36.1328-44.7266 32.7637-53.7598 26.709-60.498C24.4629-62.9395 20.9473-63.0371 18.8965-60.6445C16.9922-58.4961 17.334-55.6641 19.4824-53.2715C23.7305-48.3398 25.9766-42.1387 25.9766-35.2051C25.9766-28.2715 23.7305-22.0703 19.4824-17.1387C17.334-14.7461 16.9922-11.9141 18.8965-9.76562C20.9473-7.37305 24.4629-7.4707 26.709-9.91211C32.7637-16.6504 36.1328-25.6836 36.1328-35.2051ZM21.0449-35.2051C21.0449-40.625 19.2383-45.9473 16.0156-50.1953C13.9648-52.8809 10.2051-53.0762 8.05664-50.6348C6.20117-48.6328 6.54297-46.0938 8.44727-43.3594C10.0586-41.0645 10.8887-38.3789 10.8887-35.2051C10.8887-32.0312 10.0586-29.3457 8.44727-27.0508C6.54297-24.3164 6.20117-21.7773 8.05664-19.7754C10.2051-17.334 13.9648-17.5293 16.0156-20.2148C19.2383-24.4629 21.0449-29.7852 21.0449-35.2051Z"/>
  </g>
  <g id="Heavy-S" transform="matrix(1 0 0 1 2608.34 696)">
   <path d="M49.8535-35.2051C49.8535-48.3398 45.1172-60.5469 36.4258-69.6777C34.4238-71.8262 31.3477-71.8262 29.4922-69.7754C27.7344-67.8711 28.0273-65.0879 30.0293-62.9395C36.8652-55.7129 40.5762-45.8984 40.5762-35.2051C40.5762-24.5117 36.8652-14.6973 30.0293-7.4707C28.0273-5.32227 27.7344-2.53906 29.4922-0.634766C31.3477 1.41602 34.4238 1.41602 36.4258-0.732422C45.1172-9.86328 49.8535-22.1191 49.8535-35.2051ZM35.0098-35.2051C35.0098-44.6289 31.6895-53.5645 25.6836-60.2051C23.6328-62.4512 20.4102-62.5488 18.5547-60.3516C16.7969-58.3984 17.1387-55.7617 19.1406-53.5645C23.4375-48.584 25.7324-42.2363 25.7324-35.2051C25.7324-28.1738 23.4375-21.8262 19.1406-16.8457C17.1387-14.6484 16.7969-12.0117 18.5547-10.0586C20.4102-7.86133 23.6328-7.95898 25.6836-10.2051C31.6895-16.8457 35.0098-25.7812 35.0098-35.2051ZM20.2148-35.2051C20.2148-40.5762 18.4082-45.8008 15.2344-49.9512C13.3301-52.4414 9.91211-52.5879 7.95898-50.3418C6.20117-48.4863 6.64062-46.1426 8.34961-43.6035C10.0586-41.2598 10.8887-38.4277 10.8887-35.2051C10.8887-31.9824 10.0586-29.1504 8.34961-26.8066C6.64062-24.2676 6.20117-21.9238 7.95898-20.0684C9.91211-17.8223 13.3301-17.9688 15.2344-20.459C18.4082-24.6094 20.2148-29.834 20.2148-35.2051Z"/>
  </g>
  <g id="Bold-S" transform="matrix(1 0 0 1 2312.39 696)">
   <path d="M48.3398-35.2051C48.3398-48.2422 43.6035-60.3516 35.0586-69.3359C33.2031-71.3379 30.4688-71.2402 28.8086-69.4336C27.2461-67.7246 27.4902-65.2344 29.2969-63.2812C36.2305-55.957 39.9902-46.0449 39.9902-35.2051C39.9902-24.3652 36.2305-14.4531 29.2969-7.12891C27.4902-5.22461 27.2461-2.68555 28.8086-0.976562C30.4688 0.830078 33.2031 0.927734 35.0586-1.07422C43.6035-10.1074 48.3398-22.168 48.3398-35.2051ZM33.7891-35.2051C33.7891-44.5312 30.5176-53.3203 24.5605-59.8633C22.6562-61.9629 19.8242-62.0117 18.1152-60.0586C16.5527-58.252 16.8945-55.9082 18.7012-53.9062C23.0957-48.8281 25.4883-42.334 25.4883-35.2051C25.4883-28.0762 23.0957-21.582 18.7012-16.5039C16.8945-14.502 16.5527-12.1582 18.1152-10.3516C19.8242-8.39844 22.6562-8.44727 24.5605-10.5469C30.5176-17.0898 33.7891-25.8789 33.7891-35.2051ZM19.2383-35.2051C19.2383-40.4785 17.4805-45.6055 14.3555-49.6582C12.6465-51.9043 9.57031-52.002 7.8125-50.0488C6.25-48.291 6.68945-46.1914 8.30078-43.8965C10.0098-41.5039 10.9375-38.5254 10.9375-35.2051C10.9375-31.8848 10.0098-28.9062 8.30078-26.5137C6.68945-24.2188 6.25-22.1191 7.8125-20.3613C9.57031-18.4082 12.6465-18.5059 14.3555-20.752C17.4805-24.8047 19.2383-29.9316 19.2383-35.2051Z"/>
  </g>
  <g id="Semibold-S" transform="matrix(1 0 0 1 2016.22 696)">
   <path d="M47.2656-35.2051C47.2656-48.1934 42.5293-60.1562 34.082-69.1406C32.3242-70.9961 29.834-70.8496 28.3203-69.2383C26.8555-67.627 27.1484-65.332 28.8086-63.5254C35.791-56.1035 39.6484-46.1426 39.6484-35.2051C39.6484-24.2676 35.791-14.3066 28.8086-6.88477C27.1484-5.07812 26.8555-2.7832 28.3203-1.17188C29.834 0.439453 32.3242 0.537109 34.082-1.26953C42.5293-10.2539 47.2656-22.2168 47.2656-35.2051ZM32.9102-35.2051C32.9102-44.4336 29.6875-53.125 23.7793-59.668C22.0215-61.5723 19.3848-61.6211 17.8223-59.8145C16.3574-58.1543 16.748-56.0059 18.4082-54.1016C22.8516-49.0234 25.293-42.4316 25.293-35.2051C25.293-27.9785 22.8516-21.4355 18.4082-16.3086C16.748-14.4043 16.3574-12.2559 17.8223-10.5957C19.3848-8.78906 22.0215-8.83789 23.7793-10.7422C29.6875-17.2852 32.9102-25.9766 32.9102-35.2051ZM18.6035-35.2051C18.6035-40.4785 16.8457-45.459 13.7695-49.4629C12.1582-51.5625 9.32617-51.6113 7.71484-49.8047C6.25-48.1934 6.73828-46.1914 8.20312-44.0918C10.0098-41.6504 10.9375-38.5742 10.9375-35.2051C10.9375-31.8359 10.0098-28.7598 8.20312-26.3184C6.73828-24.2188 6.25-22.2168 7.71484-20.6055C9.32617-18.7988 12.1582-18.8477 13.7695-20.9473C16.8457-24.9512 18.6035-29.9805 18.6035-35.2051Z"/>
  </g>
  <g id="Medium-S" transform="matrix(1 0 0 1 1719.9 696)">
   <path d="M46.4844-35.2051C46.4844-48.1445 41.748-60.0586 33.3496-68.9453C31.6895-70.7031 29.3457-70.5566 27.9785-69.043C26.5625-67.5293 26.8555-65.3809 28.4668-63.7207C35.498-56.25 39.3555-46.1914 39.3555-35.2051C39.3555-24.2188 35.498-14.1602 28.4668-6.68945C26.8555-5.0293 26.5625-2.88086 27.9785-1.36719C29.3457 0.146484 31.6895 0.292969 33.3496-1.46484C41.748-10.3516 46.4844-22.2656 46.4844-35.2051ZM32.2754-35.2051C32.2754-44.3848 29.0527-53.0273 23.1934-59.4727C21.5332-61.3281 19.0918-61.3281 17.627-59.668C16.2598-58.1055 16.6016-56.0547 18.2129-54.2969C22.7051-49.1211 25.1465-42.4805 25.1465-35.2051C25.1465-27.9297 22.7051-21.2891 18.2129-16.1133C16.6016-14.3555 16.2598-12.3047 17.627-10.7422C19.0918-9.08203 21.5332-9.08203 23.1934-10.9375C29.0527-17.3828 32.2754-26.0254 32.2754-35.2051ZM18.0664-35.2051C18.0664-40.4297 16.3574-45.3613 13.3301-49.3164C11.7676-51.3184 9.13086-51.3184 7.66602-49.6582C6.25-48.0957 6.78711-46.2402 8.1543-44.2871C10.0098-41.748 10.9375-38.623 10.9375-35.2051C10.9375-31.7871 10.0098-28.6621 8.1543-26.123C6.78711-24.1699 6.25-22.3145 7.66602-20.752C9.13086-19.0918 11.7676-19.0918 13.3301-21.0938C16.3574-25.0488 18.0664-29.9805 18.0664-35.2051Z"/>
  </g>
  <g id="Regular-S" transform="matrix(1 0 0 1 1423.7 696)">
   <path d="M45.459-35.2051C45.459-48.0957 40.7227-59.9121 32.373-68.75C30.8105-70.3613 28.7109-70.166 27.4902-68.7988C26.2207-67.4805 26.5137-65.4785 27.9785-63.916C35.0586-56.3965 38.9648-46.2891 38.9648-35.2051C38.9648-24.1211 35.0586-14.0137 27.9785-6.49414C26.5137-4.93164 26.2207-2.97852 27.4902-1.61133C28.7109-0.244141 30.8105-0.0488281 32.373-1.70898C40.7227-10.498 45.459-22.3145 45.459-35.2051ZM31.4453-35.2051C31.4453-44.3359 28.2227-52.832 22.4121-59.2773C20.8496-60.9375 18.6523-60.9375 17.334-59.4727C16.0645-58.0078 16.4551-56.1523 17.9199-54.541C22.4609-49.3164 24.9512-42.5781 24.9512-35.2051C24.9512-27.832 22.4609-21.0938 17.9199-15.918C16.4551-14.2578 16.0645-12.4023 17.334-10.9375C18.6523-9.47266 20.8496-9.47266 22.4121-11.1328C28.2227-17.5781 31.4453-26.0742 31.4453-35.2051ZM17.4316-35.2051C17.4316-40.3809 15.7227-45.2637 12.6953-49.1211C11.2793-50.9277 8.88672-50.9277 7.56836-49.4629C6.29883-47.998 6.83594-46.2402 8.10547-44.4824C9.96094-41.8945 10.9375-38.6719 10.9375-35.2051C10.9375-31.7383 9.96094-28.5156 8.10547-25.9277C6.83594-24.1699 6.29883-22.4121 7.56836-20.9473C8.88672-19.4824 11.2793-19.4824 12.6953-21.2891C15.7227-25.1953 17.4316-30.0293 17.4316-35.2051Z"/>
  </g>
  <g id="Light-S" transform="matrix(1 0 0 1 1128.16 696)">
   <path d="M43.1152-35.2051C43.1152-47.998 38.2324-59.668 29.8828-68.3105C28.6621-69.5801 27.002-69.4824 26.0254-68.4082C25.0488-67.334 25.293-65.7715 26.416-64.5996C33.9355-56.8359 38.0371-46.4844 38.0371-35.2051C38.0371-23.9746 33.9355-13.623 26.416-5.85938C25.293-4.63867 25.0488-3.125 26.0254-2.05078C27.002-0.976562 28.6621-0.830078 29.8828-2.14844C38.2324-10.791 43.1152-22.4121 43.1152-35.2051ZM29.7363-35.2051C29.7363-44.2871 26.3672-52.6367 20.5078-58.9355C19.3359-60.2051 17.5781-60.2539 16.6016-59.082C15.5762-57.959 15.8691-56.4941 16.9922-55.2246C21.9238-49.8535 24.6094-42.8223 24.6094-35.2051C24.6094-27.5879 21.9238-20.6055 16.9922-15.2344C15.8691-13.9648 15.5762-12.5 16.6016-11.377C17.5781-10.2051 19.3359-10.2051 20.5078-11.5234C26.3672-17.7734 29.7363-26.1719 29.7363-35.2051ZM16.3086-35.2051C16.3086-40.332 14.5508-45.1172 11.4258-48.8281C10.3027-50.2441 8.44727-50.2441 7.42188-49.0723C6.39648-47.9492 6.83594-46.582 7.86133-45.2148C10.0586-42.5293 11.2305-39.0137 11.2305-35.2051C11.2305-31.3965 10.0586-27.9297 7.86133-25.2441C6.83594-23.877 6.39648-22.5098 7.42188-21.3867C8.44727-20.2148 10.3027-20.2148 11.4258-21.582C14.5508-25.3418 16.3086-30.0781 16.3086-35.2051Z"/>
  </g>
  <g id="Thin-S" transform="matrix(1 0 0 1 832.985 696)">
   <path d="M40.0391-35.2539C40.0391-47.9004 34.9609-59.3262 26.5625-67.7734C25.8301-68.5547 24.7559-68.5059 24.1211-67.8223C23.5352-67.1875 23.6816-66.2109 24.4141-65.4785C32.4707-57.3242 36.8164-46.7285 36.8164-35.2539C36.8164-23.7793 32.4707-13.1348 24.4141-5.0293C23.6816-4.29688 23.5352-3.27148 24.1211-2.63672C24.7559-1.95312 25.8301-1.9043 26.5625-2.68555C34.9609-11.1816 40.0391-22.5586 40.0391-35.2539ZM27.4414-35.2539C27.4414-44.2383 23.9258-52.3926 18.0176-58.4473C17.2852-59.2773 16.2109-59.2773 15.625-58.5938C14.9414-57.9102 15.0879-56.8848 15.8203-56.1523C21.2402-50.5371 24.2188-43.1641 24.2188-35.2539C24.2188-27.2949 21.2402-19.9707 15.8203-14.3555C15.0879-13.5742 14.9414-12.5977 15.625-11.8652C16.2109-11.1816 17.2852-11.2305 18.0176-12.0117C23.9258-18.0664 27.4414-26.2695 27.4414-35.2539ZM14.8438-35.2539C14.8438-40.332 12.9883-44.9707 9.7168-48.4863C8.98438-49.3164 7.86133-49.3164 7.17773-48.584C6.5918-47.9004 6.78711-46.9727 7.4707-46.1914C10.1562-43.3105 11.6211-39.502 11.6211-35.2539C11.6211-31.0059 10.1562-27.1484 7.4707-24.2676C6.78711-23.4863 6.5918-22.6074 7.17773-21.875C7.86133-21.1426 8.98438-21.1426 9.7168-22.0215C12.9883-25.4883 14.8438-30.1758 14.8438-35.2539Z"/>
  </g>
  <g id="Ultralight-S" transform="matrix(1 0 0 1 537.055 696)">
   <path d="M38.4766-35.2539C38.4766-47.8516 33.3008-59.1309 24.9023-67.4805C24.4141-68.0176 23.584-68.0176 23.1445-67.5293C22.7539-67.0898 22.8516-66.4062 23.3887-65.918C31.6895-57.6172 36.2305-46.8262 36.2305-35.2539C36.2305-23.6816 31.6895-12.8906 23.3887-4.58984C22.8516-4.10156 22.7539-3.41797 23.1445-2.97852C23.584-2.49023 24.4141-2.44141 24.9023-3.02734C33.3008-11.377 38.4766-22.6562 38.4766-35.2539ZM26.2695-35.2539C26.2695-44.1895 22.7051-52.2949 16.748-58.2031C16.2598-58.7402 15.4785-58.7891 15.0879-58.3496C14.5996-57.8613 14.6973-57.1289 15.2344-56.6406C20.8496-50.8789 24.0234-43.3594 24.0234-35.2539C24.0234-27.1484 20.8496-19.6289 15.2344-13.8672C14.6973-13.3789 14.5996-12.6465 15.0879-12.1582C15.4785-11.7188 16.2598-11.7676 16.748-12.3047C22.7051-18.2129 26.2695-26.3184 26.2695-35.2539ZM14.0625-35.2539C14.0625-40.2832 12.1582-44.873 8.83789-48.291C8.30078-48.8281 7.51953-48.8281 7.03125-48.3398C6.68945-47.8516 6.78711-47.2168 7.32422-46.7285C10.1562-43.75 11.8164-39.7461 11.8164-35.2539C11.8164-30.7617 10.1562-26.7578 7.32422-23.7793C6.78711-23.291 6.68945-22.6562 7.03125-22.168C7.51953-21.6797 8.30078-21.6797 8.83789-22.2168C12.1582-25.6348 14.0625-30.2246 14.0625-35.2539Z"/>
  </g>
 </g>
</svg>
