<?xml version="1.0" encoding="UTF-8"?>
<!--Generator: Apple Native CoreSVG 149-->
<!DOCTYPE svg
PUBLIC "-//W3C//DTD SVG 1.1//EN"
       "http://www.w3.org/Graphics/SVG/1.1/DTD/svg11.dtd">
<svg version="1.1" xmlns="http://www.w3.org/2000/svg" xmlns:xlink="http://www.w3.org/1999/xlink" width="3300" height="2200">
 <!--glyph: "uni100149.medium", point size: 100.000000, font version: "Version 16.0d18e1", template writer version: "8"-->
 <g id="Notes">
  <rect height="2200" id="artboard" style="fill:white;opacity:1" width="3300" x="0" y="0"/>
  <line id="" style="fill:none;stroke:black;opacity:1;stroke-width:0.5;" x1="263" x2="3036" y1="292" y2="292"/>
  <text style="stroke:none;fill:black;font-family:-apple-system,&quot;SF Pro Display&quot;,&quot;SF Pro Text&quot;,Helvetica,sans-serif;font-weight:bold;" transform="matrix(1 0 0 1 263 322)">Weight/Scale Variations</text>
  <text style="stroke:none;fill:black;font-family:-apple-system,&quot;SF Pro Display&quot;,&quot;SF Pro Text&quot;,Helvetica,sans-serif;text-anchor:middle;" transform="matrix(1 0 0 1 559.711 322)">Ultralight</text>
  <text style="stroke:none;fill:black;font-family:-apple-system,&quot;SF Pro Display&quot;,&quot;SF Pro Text&quot;,Helvetica,sans-serif;text-anchor:middle;" transform="matrix(1 0 0 1 856.422 322)">Thin</text>
  <text style="stroke:none;fill:black;font-family:-apple-system,&quot;SF Pro Display&quot;,&quot;SF Pro Text&quot;,Helvetica,sans-serif;text-anchor:middle;" transform="matrix(1 0 0 1 1153.13 322)">Light</text>
  <text style="stroke:none;fill:black;font-family:-apple-system,&quot;SF Pro Display&quot;,&quot;SF Pro Text&quot;,Helvetica,sans-serif;text-anchor:middle;" transform="matrix(1 0 0 1 1449.84 322)">Regular</text>
  <text style="stroke:none;fill:black;font-family:-apple-system,&quot;SF Pro Display&quot;,&quot;SF Pro Text&quot;,Helvetica,sans-serif;text-anchor:middle;" transform="matrix(1 0 0 1 1746.56 322)">Medium</text>
  <text style="stroke:none;fill:black;font-family:-apple-system,&quot;SF Pro Display&quot;,&quot;SF Pro Text&quot;,Helvetica,sans-serif;text-anchor:middle;" transform="matrix(1 0 0 1 2043.27 322)">Semibold</text>
  <text style="stroke:none;fill:black;font-family:-apple-system,&quot;SF Pro Display&quot;,&quot;SF Pro Text&quot;,Helvetica,sans-serif;text-anchor:middle;" transform="matrix(1 0 0 1 2339.98 322)">Bold</text>
  <text style="stroke:none;fill:black;font-family:-apple-system,&quot;SF Pro Display&quot;,&quot;SF Pro Text&quot;,Helvetica,sans-serif;text-anchor:middle;" transform="matrix(1 0 0 1 2636.69 322)">Heavy</text>
  <text style="stroke:none;fill:black;font-family:-apple-system,&quot;SF Pro Display&quot;,&quot;SF Pro Text&quot;,Helvetica,sans-serif;text-anchor:middle;" transform="matrix(1 0 0 1 2933.4 322)">Black</text>
  <line id="" style="fill:none;stroke:black;opacity:1;stroke-width:0.5;" x1="263" x2="3036" y1="1903" y2="1903"/>
  <g id="" transform="matrix(1 0 0 1 263 1933)">
   <path d="M9.24805 0.830078C13.5547 0.830078 17.1387-2.74414 17.1387-7.05078C17.1387-11.3574 13.5449-14.9316 9.23828-14.9316C4.94141-14.9316 1.36719-11.3574 1.36719-7.05078C1.36719-2.74414 4.95117 0.830078 9.24805 0.830078ZM9.24805-0.654297C5.70312-0.654297 2.87109-3.49609 2.87109-7.05078C2.87109-10.6055 5.69336-13.4473 9.23828-13.4473C12.793-13.4473 15.6348-10.6055 15.6445-7.05078C15.6543-3.49609 12.8027-0.654297 9.24805-0.654297ZM6.39648-6.31836L8.50586-6.31836L8.50586-4.19922C8.50586-3.75977 8.79883-3.45703 9.22852-3.45703C9.67773-3.45703 9.9707-3.75977 9.9707-4.19922L9.9707-6.31836L12.0996-6.31836C12.5391-6.31836 12.8418-6.61133 12.8418-7.04102C12.8418-7.48047 12.5391-7.7832 12.0996-7.7832L9.9707-7.7832L9.9707-9.89258C9.9707-10.3418 9.67773-10.6445 9.22852-10.6445C8.79883-10.6445 8.50586-10.3418 8.50586-9.89258L8.50586-7.7832L6.39648-7.7832C5.94727-7.7832 5.64453-7.48047 5.64453-7.04102C5.64453-6.61133 5.94727-6.31836 6.39648-6.31836Z"/>
  </g>
  <g id="" transform="matrix(1 0 0 1 281.506 1933)">
   <path d="M11.709 2.91016C17.1582 2.91016 21.6699-1.61133 21.6699-7.05078C21.6699-12.5 17.1484-17.0117 11.6992-17.0117C6.25977-17.0117 1.74805-12.5 1.74805-7.05078C1.74805-1.61133 6.26953 2.91016 11.709 2.91016ZM11.709 1.25C7.09961 1.25 3.41797-2.44141 3.41797-7.05078C3.41797-11.6602 7.08984-15.3516 11.6992-15.3516C16.3086-15.3516 20-11.6602 20.0098-7.05078C20.0195-2.44141 16.3184 1.25 11.709 1.25ZM7.98828-6.23047L10.8789-6.23047L10.8789-3.32031C10.8789-2.83203 11.2109-2.5 11.6895-2.5C12.1777-2.5 12.5195-2.83203 12.5195-3.32031L12.5195-6.23047L15.4297-6.23047C15.918-6.23047 16.25-6.5625 16.25-7.04102C16.25-7.5293 15.918-7.87109 15.4297-7.87109L12.5195-7.87109L12.5195-10.7617C12.5195-11.2695 12.1777-11.6016 11.6895-11.6016C11.2109-11.6016 10.8789-11.2598 10.8789-10.7617L10.8789-7.87109L7.98828-7.87109C7.48047-7.87109 7.14844-7.5293 7.14844-7.04102C7.14844-6.5625 7.49023-6.23047 7.98828-6.23047Z"/>
  </g>
  <g id="" transform="matrix(1 0 0 1 304.924 1933)">
   <path d="M14.9707 5.66406C21.9336 5.66406 27.6953-0.0976562 27.6953-7.05078C27.6953-14.0137 21.9238-19.7754 14.9609-19.7754C8.00781-19.7754 2.25586-14.0137 2.25586-7.05078C2.25586-0.0976562 8.01758 5.66406 14.9707 5.66406ZM14.9707 3.84766C8.93555 3.84766 4.08203-1.01562 4.08203-7.05078C4.08203-13.0957 8.92578-17.9492 14.9609-17.9492C21.0059-17.9492 25.8594-13.0957 25.8691-7.05078C25.8789-1.01562 21.0156 3.84766 14.9707 3.84766ZM10.0586-6.14258L14.0625-6.14258L14.0625-2.12891C14.0625-1.5918 14.4336-1.2207 14.9512-1.2207C15.4883-1.2207 15.8594-1.5918 15.8594-2.12891L15.8594-6.14258L19.8828-6.14258C20.4102-6.14258 20.791-6.51367 20.791-7.03125C20.791-7.56836 20.4199-7.94922 19.8828-7.94922L15.8594-7.94922L15.8594-11.9531C15.8594-12.5098 15.4883-12.8809 14.9512-12.8809C14.4336-12.8809 14.0625-12.5 14.0625-11.9531L14.0625-7.94922L10.0586-7.94922C9.50195-7.94922 9.13086-7.56836 9.13086-7.03125C9.13086-6.51367 9.51172-6.14258 10.0586-6.14258Z"/>
  </g>
  <text style="stroke:none;fill:black;font-family:-apple-system,&quot;SF Pro Display&quot;,&quot;SF Pro Text&quot;,Helvetica,sans-serif;font-weight:bold;" transform="matrix(1 0 0 1 263 1953)">Design Variations</text>
  <text style="stroke:none;fill:black;font-family:-apple-system,&quot;SF Pro Display&quot;,&quot;SF Pro Text&quot;,Helvetica,sans-serif;" transform="matrix(1 0 0 1 263 1971)">Symbols are supported in up to nine weights and three scales.</text>
  <text style="stroke:none;fill:black;font-family:-apple-system,&quot;SF Pro Display&quot;,&quot;SF Pro Text&quot;,Helvetica,sans-serif;" transform="matrix(1 0 0 1 263 1989)">For optimal layout with text and other symbols, vertically align</text>
  <text style="stroke:none;fill:black;font-family:-apple-system,&quot;SF Pro Display&quot;,&quot;SF Pro Text&quot;,Helvetica,sans-serif;" transform="matrix(1 0 0 1 263 2007)">symbols with the adjacent text.</text>
  <line id="" style="fill:none;stroke:#00AEEF;stroke-width:0.5;opacity:1.0;" x1="776" x2="776" y1="1919" y2="1933"/>
  <g id="" transform="matrix(1 0 0 1 776 1933)">
   <path d="M3.31055 0.126953C3.82812 0.126953 4.08203-0.0683594 4.26758-0.605469L5.52734-4.0625L11.2891-4.0625L12.5488-0.605469C12.7344-0.0683594 12.9883 0.126953 13.4961 0.126953C14.0137 0.126953 14.3457-0.185547 14.3457-0.673828C14.3457-0.839844 14.3164-0.986328 14.2383-1.20117L9.6582-13.3887C9.43359-13.9941 9.0332-14.2871 8.4082-14.2871C7.80273-14.2871 7.39258-13.9941 7.17773-13.3984L2.59766-1.19141C2.51953-0.976562 2.49023-0.830078 2.49023-0.664062C2.49023-0.175781 2.80273 0.126953 3.31055 0.126953ZM6.00586-5.53711L8.37891-12.1094L8.42773-12.1094L10.8008-5.53711Z"/>
  </g>
  <line id="" style="fill:none;stroke:#00AEEF;stroke-width:0.5;opacity:1.0;" x1="792.836" x2="792.836" y1="1919" y2="1933"/>
  <text style="stroke:none;fill:black;font-family:-apple-system,&quot;SF Pro Display&quot;,&quot;SF Pro Text&quot;,Helvetica,sans-serif;font-weight:bold;" transform="matrix(1 0 0 1 776 1953)">Margins</text>
  <text style="stroke:none;fill:black;font-family:-apple-system,&quot;SF Pro Display&quot;,&quot;SF Pro Text&quot;,Helvetica,sans-serif;" transform="matrix(1 0 0 1 776 1971)">Leading and trailing margins on the left and right side of each symbol</text>
  <text style="stroke:none;fill:black;font-family:-apple-system,&quot;SF Pro Display&quot;,&quot;SF Pro Text&quot;,Helvetica,sans-serif;" transform="matrix(1 0 0 1 776 1989)">can be adjusted by modifying the x-location of the margin guidelines.</text>
  <text style="stroke:none;fill:black;font-family:-apple-system,&quot;SF Pro Display&quot;,&quot;SF Pro Text&quot;,Helvetica,sans-serif;" transform="matrix(1 0 0 1 776 2007)">Modifications are automatically applied proportionally to all</text>
  <text style="stroke:none;fill:black;font-family:-apple-system,&quot;SF Pro Display&quot;,&quot;SF Pro Text&quot;,Helvetica,sans-serif;" transform="matrix(1 0 0 1 776 2025)">scales and weights.</text>
  <g id="" transform="matrix(1 0 0 1 1289 1933)">
   <path d="M2.8418 1.86523L4.54102 3.57422C5.40039 4.44336 6.38672 4.38477 7.31445 3.35938L17.4902-7.85156C17.7539-7.76367 18.0273-7.7832 18.3398-7.8418L19.4043-8.03711L20.0684-7.36328L20.0293-6.80664C19.9902-6.30859 20.1172-5.92773 20.6055-5.44922L21.3672-4.70703C21.8457-4.22852 22.4609-4.19922 22.9297-4.66797L25.8398-7.58789C26.3086-8.05664 26.2891-8.65234 25.8105-9.13086L25.0391-9.89258C24.5605-10.3711 24.1895-10.5273 23.7109-10.4883L23.1348-10.4395L22.4902-11.0742L22.7344-12.1973C22.8613-12.7637 22.7051-13.2031 22.1191-13.7891L19.9219-15.9766C16.582-19.2969 12.1484-19.2188 9.25781-16.3281C8.83789-15.918 8.80859-15.3418 9.04297-14.9512C9.27734-14.5898 9.73633-14.3555 10.3809-14.5215C11.8457-14.8633 13.3691-14.9219 14.7949-13.9844L14.209-12.5293C14.0137-12.0508 13.9844-11.6504 14.1113-11.2891L3.04688-0.898438C2.06055 0.0195312 1.98242 0.996094 2.8418 1.86523ZM10.752-15.957C13.1836-17.7344 16.4746-17.4316 18.7012-15.2051L21.1328-12.793C21.3672-12.5586 21.4062-12.373 21.3379-12.0312L21.0156-10.5469L22.5195-9.0625L23.5059-9.12109C23.7598-9.13086 23.8379-9.11133 24.0332-8.91602L24.6094-8.33984L22.168-5.89844L21.5918-6.47461C21.3965-6.66992 21.3672-6.74805 21.377-7.01172L21.4453-7.98828L19.9512-9.47266L18.4277-9.21875C18.1055-9.15039 17.959-9.17969 17.7148-9.41406L15.7129-11.416C15.459-11.6504 15.4297-11.8164 15.5859-12.1875L16.4648-14.2773C14.9023-15.7324 12.8711-16.3574 10.8398-15.7617C10.6836-15.7227 10.625-15.8496 10.752-15.957ZM5.27344 2.30469L4.10156 1.14258C3.63281 0.683594 3.74023 0.341797 4.14062-0.0195312L14.9512-10.1953L16.416-8.71094L6.42578 2.27539C6.07422 2.67578 5.74219 2.77344 5.27344 2.30469Z"/>
  </g>
  <text style="stroke:none;fill:black;font-family:-apple-system,&quot;SF Pro Display&quot;,&quot;SF Pro Text&quot;,Helvetica,sans-serif;font-weight:bold;" transform="matrix(1 0 0 1 1289 1953)">Exporting</text>
  <text style="stroke:none;fill:black;font-family:-apple-system,&quot;SF Pro Display&quot;,&quot;SF Pro Text&quot;,Helvetica,sans-serif;" transform="matrix(1 0 0 1 1289 1971)">Symbols should be outlined when exporting to ensure the</text>
  <text style="stroke:none;fill:black;font-family:-apple-system,&quot;SF Pro Display&quot;,&quot;SF Pro Text&quot;,Helvetica,sans-serif;" transform="matrix(1 0 0 1 1289 1989)">design is preserved when submitting to Xcode.</text>
  <text id="template-version" style="stroke:none;fill:black;font-family:-apple-system,&quot;SF Pro Display&quot;,&quot;SF Pro Text&quot;,Helvetica,sans-serif;text-anchor:end;" transform="matrix(1 0 0 1 3036 1933)">Template v.2.0</text>
  <text style="stroke:none;fill:black;font-family:-apple-system,&quot;SF Pro Display&quot;,&quot;SF Pro Text&quot;,Helvetica,sans-serif;text-anchor:end;" transform="matrix(1 0 0 1 3036 1951)">Requires Xcode 12 or greater</text>
  <text style="stroke:none;fill:black;font-family:-apple-system,&quot;SF Pro Display&quot;,&quot;SF Pro Text&quot;,Helvetica,sans-serif;text-anchor:end;" transform="matrix(1 0 0 1 3036 1969)">Generated from arrow.counterclockwise</text>
  <text style="stroke:none;fill:black;font-family:-apple-system,&quot;SF Pro Display&quot;,&quot;SF Pro Text&quot;,Helvetica,sans-serif;text-anchor:end;" transform="matrix(1 0 0 1 3036 1987)">Typeset at 100 points</text>
  <text style="stroke:none;fill:black;font-family:-apple-system,&quot;SF Pro Display&quot;,&quot;SF Pro Text&quot;,Helvetica,sans-serif;" transform="matrix(1 0 0 1 263 726)">Small</text>
  <text style="stroke:none;fill:black;font-family:-apple-system,&quot;SF Pro Display&quot;,&quot;SF Pro Text&quot;,Helvetica,sans-serif;" transform="matrix(1 0 0 1 263 1156)">Medium</text>
  <text style="stroke:none;fill:black;font-family:-apple-system,&quot;SF Pro Display&quot;,&quot;SF Pro Text&quot;,Helvetica,sans-serif;" transform="matrix(1 0 0 1 263 1586)">Large</text>
 </g>
 <g id="Guides">
  <g id="H-reference" style="fill:#27AAE1;stroke:none;" transform="matrix(1 0 0 1 339 696)">
   <path d="M0.976562 0L3.66211 0L12.9883-24.4629L45.752-24.4629L55.127 0L57.7637 0L30.6152-70.459L28.125-70.459ZM29.3457-67.1387L29.4434-67.1387L44.873-26.709L13.8672-26.709Z"/>
  </g>
  <line id="Baseline-S" style="fill:none;stroke:#27AAE1;opacity:1;stroke-width:0.5;" x1="263" x2="3036" y1="696" y2="696"/>
  <line id="Capline-S" style="fill:none;stroke:#27AAE1;opacity:1;stroke-width:0.5;" x1="263" x2="3036" y1="625.541" y2="625.541"/>
  <g id="H-reference" style="fill:#27AAE1;stroke:none;" transform="matrix(1 0 0 1 339 1126)">
   <path d="M0.976562 0L3.66211 0L12.9883-24.4629L45.752-24.4629L55.127 0L57.7637 0L30.6152-70.459L28.125-70.459ZM29.3457-67.1387L29.4434-67.1387L44.873-26.709L13.8672-26.709Z"/>
  </g>
  <line id="Baseline-M" style="fill:none;stroke:#27AAE1;opacity:1;stroke-width:0.5;" x1="263" x2="3036" y1="1126" y2="1126"/>
  <line id="Capline-M" style="fill:none;stroke:#27AAE1;opacity:1;stroke-width:0.5;" x1="263" x2="3036" y1="1055.54" y2="1055.54"/>
  <g id="H-reference" style="fill:#27AAE1;stroke:none;" transform="matrix(1 0 0 1 339 1556)">
   <path d="M0.976562 0L3.66211 0L12.9883-24.4629L45.752-24.4629L55.127 0L57.7637 0L30.6152-70.459L28.125-70.459ZM29.3457-67.1387L29.4434-67.1387L44.873-26.709L13.8672-26.709Z"/>
  </g>
  <line id="Baseline-L" style="fill:none;stroke:#27AAE1;opacity:1;stroke-width:0.5;" x1="263" x2="3036" y1="1556" y2="1556"/>
  <line id="Capline-L" style="fill:none;stroke:#27AAE1;opacity:1;stroke-width:0.5;" x1="263" x2="3036" y1="1485.54" y2="1485.54"/>
  <line id="left-margin" style="fill:none;stroke:#00AEEF;stroke-width:0.5;opacity:1.0;" x1="1397.96" x2="1397.96" y1="1030.79" y2="1150.12"/>
  <line id="right-margin" style="fill:none;stroke:#00AEEF;stroke-width:0.5;opacity:1.0;" x1="1501.72" x2="1501.72" y1="1030.79" y2="1150.12"/>
 </g>
 <g id="Symbols">
  <g id="Black-L" transform="matrix(1 0 0 1 2863.67 1556)">
   <path d="M69.8242-42.7246C75.2441-42.7246 79.541-47.0703 79.541-52.5391C79.541-55.2734 78.4668-57.1777 76.8066-58.8379L65.7227-69.7266C67.2363-69.8242 68.8477-69.873 70.5566-69.873C91.6016-69.873 107.959-52.9297 107.959-31.0547C107.959-9.91211 90.918 7.22656 69.7266 7.22656C48.5352 7.22656 31.3965-9.91211 31.3965-31.0547C31.3965-37.1582 27.2949-41.3574 21.4844-41.3574C15.5273-41.3574 11.2793-37.1582 11.2793-31.0547C11.2793 1.26953 37.4512 27.4902 69.7266 27.4902C102.002 27.4902 128.174 1.26953 128.174-31.0547C128.174-63.4277 102.734-89.0625 70.5566-89.0625C69.5312-89.0625 68.5059-89.0137 67.4316-88.9648L76.8555-98.0957C78.4668-99.8047 79.541-101.709 79.541-104.492C79.541-109.961 75.2441-114.404 69.8242-114.404C67.1875-114.404 64.9414-113.477 63.1836-111.572L37.7441-85.6445C35.6934-83.6914 34.6191-81.1523 34.6191-78.4668C34.6191-75.6836 35.6934-73.291 37.7441-71.2402L63.1836-45.4102C64.8926-43.6523 67.1875-42.7246 69.8242-42.7246Z"/>
  </g>
  <g id="Heavy-L" transform="matrix(1 0 0 1 2567.72 1556)">
   <path d="M69.7266-43.8965C74.4629-43.8965 78.1738-47.6562 78.1738-52.3926C78.1738-54.7852 77.2461-56.4941 75.7812-57.959L62.3047-71.2891C64.502-71.5332 66.9434-71.6309 69.5801-71.6309C91.7969-71.6309 109.131-53.8574 109.131-31.0059C109.131-8.74023 91.2598 9.27734 68.9453 9.27734C46.6797 9.27734 28.7109-8.74023 28.7109-31.0059C28.7109-36.2793 25.1465-39.9414 20.1172-39.9414C14.9902-39.9414 11.2793-36.2793 11.2793-31.0059C11.2793 0.927734 37.0605 26.7578 68.9453 26.7578C100.879 26.7578 126.66 0.927734 126.66-31.0059C126.66-62.9395 101.416-88.3301 69.5801-88.3301C67.8223-88.3301 66.0645-88.2324 64.2578-88.0371L75.8301-99.3652C77.2461-100.83 78.1738-102.588 78.1738-104.932C78.1738-109.717 74.4629-113.574 69.7754-113.574C67.4316-113.574 65.4785-112.744 63.916-111.084L38.2324-84.9121C36.4258-83.1543 35.498-80.957 35.498-78.6133C35.498-76.2207 36.377-74.1211 38.2324-72.3145L63.916-46.2402C65.4297-44.7266 67.3828-43.8965 69.7266-43.8965Z"/>
  </g>
  <g id="Bold-L" transform="matrix(1 0 0 1 2271.86 1556)">
   <path d="M69.6289-45.2148C73.584-45.2148 76.6602-48.291 76.6602-52.2461C76.6602-54.1992 75.8789-55.6641 74.6582-56.9824L58.5449-72.9004C61.5234-73.3398 64.8926-73.584 68.5059-73.584C91.9922-73.584 110.498-54.834 110.498-30.957C110.498-7.37305 91.6504 11.5234 68.1152 11.5234C44.5801 11.5234 25.6836-7.37305 25.6836-30.957C25.6836-35.3027 22.8027-38.3301 18.6035-38.3301C14.3066-38.3301 11.2793-35.3027 11.2793-30.957C11.2793 0.585938 36.6211 25.9766 68.1152 25.9766C99.5605 25.9766 124.951 0.585938 124.951-30.957C124.951-62.4512 99.9512-87.5 68.5059-87.5C65.918-87.5 63.2812-87.3047 60.6934-86.9629L74.6582-100.732C75.8789-102.002 76.6602-103.516 76.6602-105.469C76.6602-109.424 73.584-112.646 69.6777-112.646C67.6758-112.646 66.0156-111.914 64.7461-110.547L38.7695-84.082C37.2559-82.6172 36.4746-80.7129 36.4746-78.8086C36.4746-76.8066 37.207-75.0488 38.7695-73.4863L64.7461-47.168C66.0156-45.8984 67.6758-45.2148 69.6289-45.2148Z"/>
  </g>
  <g id="Semibold-L" transform="matrix(1 0 0 1 1975.76 1556)">
   <path d="M69.5801-46.0938C72.9492-46.0938 75.5859-48.7793 75.5859-52.1484C75.5859-53.8086 74.9512-55.127 73.8281-56.2988L56.0059-73.9746C59.5215-74.6094 63.4766-74.9512 67.7734-74.9512C92.1387-74.9512 111.426-55.5176 111.426-30.9082C111.426-6.49414 91.8945 13.0859 67.4805 13.0859C43.1152 13.0859 23.584-6.49414 23.584-30.9082C23.584-34.6191 21.1426-37.207 17.5781-37.207C13.8672-37.207 11.2793-34.6191 11.2793-30.9082C11.2793 0.341797 36.3281 25.4395 67.4805 25.4395C98.6816 25.4395 123.73 0.341797 123.73-30.9082C123.73-62.1094 98.9258-86.9141 67.7734-86.9141C64.5508-86.9141 61.3281-86.6699 58.1543-86.1328L73.877-101.66C74.9512-102.783 75.5859-104.15 75.5859-105.811C75.5859-109.229 72.9492-111.963 69.5801-111.963C67.8223-111.963 66.4062-111.377 65.332-110.156L39.1602-83.5449C37.8418-82.2266 37.1582-80.5664 37.1582-78.9062C37.1582-77.1973 37.7441-75.6836 39.1602-74.2676L65.332-47.8027C66.4062-46.6797 67.8223-46.0938 69.5801-46.0938Z"/>
  </g>
  <g id="Medium-L" transform="matrix(1 0 0 1 1679.49 1556)">
   <path d="M69.5312-46.7773C72.5098-46.7773 74.7559-49.1211 74.7559-52.0996C74.7559-53.5156 74.2188-54.7363 73.2422-55.7617L54.1504-74.7559C57.959-75.5859 62.4023-75.9277 67.1875-75.9277C92.2363-75.9277 112.109-56.0059 112.109-30.8594C112.109-5.76172 92.0898 14.2578 67.041 14.2578C42.041 14.2578 21.9727-5.76172 21.9727-30.8594C21.9727-34.082 19.9219-36.377 16.7969-36.377C13.5254-36.377 11.2793-34.082 11.2793-30.8594C11.2793 0.146484 36.084 25 67.041 25C98.0469 25 122.852 0.146484 122.852-30.8594C122.852-61.8164 98.1445-86.5234 67.1875-86.5234C63.4766-86.5234 59.7656-86.1328 56.25-85.498L73.291-102.393C74.2188-103.418 74.7559-104.639 74.7559-106.104C74.7559-109.082 72.5098-111.475 69.5312-111.475C67.9688-111.475 66.6992-110.938 65.7715-109.912L39.4531-83.1055C38.2324-81.9336 37.6465-80.4688 37.6465-79.0039C37.6465-77.4902 38.1836-76.1719 39.4531-74.9023L65.7715-48.291C66.6992-47.3145 67.9688-46.7773 69.5312-46.7773Z"/>
  </g>
  <g id="Regular-L" transform="matrix(1 0 0 1 1383.36 1556)">
   <path d="M69.4336-47.7051C71.875-47.7051 73.7305-49.5605 73.7305-52.002C73.7305-53.125 73.291-54.1992 72.4609-55.0781L51.709-75.7812C56.0059-76.8066 61.0352-77.2949 66.4551-77.2949C92.3828-77.2949 113.037-56.6895 113.037-30.8594C113.037-4.88281 92.3828 15.8203 66.4551 15.8203C40.5762 15.8203 19.9219-4.88281 19.9219-30.8594C19.9219-33.4473 18.3105-35.3027 15.7715-35.3027C13.0859-35.3027 11.2793-33.4473 11.2793-30.8594C11.2793-0.0976562 35.791 24.4629 66.4551 24.4629C97.168 24.4629 121.68-0.0976562 121.68-30.8594C121.68-61.4746 97.168-85.9375 66.4551-85.9375C62.1094-85.9375 57.7148-85.4492 53.6621-84.6191L72.5098-103.32C73.291-104.199 73.7305-105.322 73.7305-106.445C73.7305-108.887 71.9238-110.84 69.4824-110.84C68.1152-110.84 67.0898-110.4 66.3086-109.521L39.8438-82.5195C38.8184-81.543 38.2812-80.3223 38.2812-79.1016C38.2812-77.8809 38.7207-76.8066 39.8438-75.6836L66.3574-48.9258C67.1387-48.0957 68.1152-47.7051 69.4336-47.7051Z"/>
  </g>
  <g id="Light-L" transform="matrix(1 0 0 1 1087.31 1556)">
   <path d="M69.7266-47.7051C71.6309-47.7051 72.998-49.1211 72.998-50.9766C72.998-51.9043 72.7051-52.6855 72.0215-53.418L48.7305-76.8555C53.5156-78.0762 59.5215-78.7598 65.7715-78.7598C92.5781-78.7598 113.721-57.666 113.721-31.0059C113.721-4.19922 92.5781 16.9922 65.7715 16.9922C39.0625 16.9922 17.9199-4.19922 17.9199-31.0059C17.9199-33.0078 16.6504-34.4238 14.6973-34.4238C12.6465-34.4238 11.2793-33.0078 11.2793-31.0059C11.2793-0.537109 35.4004 23.6328 65.7715 23.6328C96.2402 23.6328 120.361-0.537109 120.361-31.0059C120.361-61.3281 96.2402-85.3516 65.7715-85.3516C60.3516-85.3516 55.0293-84.7168 50.4883-83.6426L72.0215-105.322C72.7051-106.055 72.998-106.885 72.998-107.812C72.998-109.619 71.6797-111.133 69.7754-111.133C68.6523-111.133 67.9199-110.791 67.2852-110.107L40.0879-82.2266C39.0625-81.25 38.623-80.2734 38.623-79.3457C38.623-78.3691 39.0137-77.5391 40.0879-76.416L67.334-48.6328C67.9688-47.998 68.7012-47.7051 69.7266-47.7051Z"/>
  </g>
  <g id="Thin-L" transform="matrix(1 0 0 1 791.481 1556)">
   <path d="M70.0684-47.7051C71.2891-47.7051 72.0703-48.584 72.0703-49.6094C72.0703-50.2441 71.875-50.7324 71.4355-51.2207L44.8242-78.2227C50.1465-79.7852 57.6172-80.6641 64.8926-80.6641C92.8223-80.6641 114.697-58.9844 114.697-31.25C114.697-3.32031 92.8223 18.6035 64.8926 18.6035C37.0605 18.6035 15.1855-3.32031 15.1855-31.25C15.1855-32.4219 14.4531-33.252 13.2812-33.252C12.0605-33.252 11.2793-32.4219 11.2793-31.25C11.2793-1.17188 34.9121 22.5098 64.8926 22.5098C95.0195 22.5098 118.604-1.17188 118.604-31.25C118.604-61.1328 95.0195-84.6191 64.8926-84.6191C57.8613-84.6191 51.123-83.5938 46.2402-82.3242L71.4355-108.008C71.875-108.447 72.0703-108.936 72.0703-109.57C72.0703-110.596 71.3379-111.475 70.1172-111.475C69.3359-111.475 68.9941-111.279 68.6035-110.889L40.3809-81.8359C39.4043-80.9082 39.0625-80.2246 39.0625-79.5898C39.0625-79.0039 39.3555-78.4668 40.3809-77.3438L68.6523-48.291C69.043-47.9004 69.4824-47.7051 70.0684-47.7051Z"/>
  </g>
  <g id="Ultralight-L" transform="matrix(1 0 0 1 495.209 1556)">
   <path d="M70.2148-47.7539C71.0938-47.7539 71.582-48.3398 71.582-48.9258C71.582-49.4141 71.4844-49.7559 71.1426-50.0977L42.8223-78.9062C48.3398-80.6641 56.5918-81.6895 64.4531-81.6895C92.9688-81.6895 115.186-59.6191 115.186-31.3965C115.186-2.88086 92.9688 19.3848 64.4531 19.3848C36.0352 19.3848 13.8184-2.88086 13.8184-31.3965C13.8184-32.1777 13.3301-32.666 12.5488-32.666C11.7676-32.666 11.2793-32.1777 11.2793-31.3965C11.2793-1.46484 34.6191 21.9727 64.4531 21.9727C94.3848 21.9727 117.725-1.46484 117.725-31.3965C117.725-61.0352 94.3848-84.2285 64.4531-84.2285C56.4453-84.2285 48.877-82.959 44.0918-81.6406L71.1426-109.375C71.4844-109.717 71.582-110.01 71.582-110.498C71.582-111.084 71.1914-111.67 70.3125-111.67C69.6777-111.67 69.5312-111.572 69.2383-111.279L40.5273-81.6406C39.5996-80.7129 39.3066-80.2246 39.3066-79.7363C39.3066-79.3457 39.502-78.9062 40.5273-77.7832L69.3359-48.1445C69.6289-47.8516 69.873-47.7539 70.2148-47.7539Z"/>
  </g>
  <g id="Black-M" transform="matrix(1 0 0 1 2878.66 1126)">
   <path d="M54.3945-39.502C59.2285-39.502 63.1348-43.4082 63.1348-48.2422C63.1348-50.7812 62.1582-52.3926 60.6934-53.8574L53.9062-60.498C54.4922-60.498 55.0293-60.498 55.6152-60.498C70.8496-60.498 82.4219-48.291 82.4219-32.1777C82.4219-16.8457 70.1172-4.39453 54.7363-4.39453C39.3555-4.39453 26.9043-16.8457 26.9043-32.1777C26.9043-37.6953 23.0957-41.4062 17.8711-41.4062C12.5977-41.4062 8.74023-37.6953 8.74023-32.1777C8.74023-6.78711 29.3457 13.916 54.7363 13.916C80.127 13.916 100.732-6.78711 100.732-32.1777C100.732-57.6172 80.9082-77.6367 55.6152-77.6367C55.3223-77.6367 55.0781-77.6367 54.7852-77.6367L60.6934-83.3984C62.1582-84.8145 63.1348-86.4746 63.1348-89.0137C63.1348-93.8965 59.2285-97.9004 54.3945-97.9004C52.0508-97.9004 50.0977-97.0703 48.4863-95.3613L28.7109-75.1465C26.8066-73.3398 25.8789-71.0449 25.8789-68.6523C25.8789-66.1133 26.8066-64.0137 28.7109-62.1094L48.4863-41.8945C50.0488-40.332 52.0508-39.502 54.3945-39.502Z"/>
  </g>
  <g id="Heavy-M" transform="matrix(1 0 0 1 2582.64 1126)">
   <path d="M54.1992-40.7715C58.4473-40.7715 61.8164-44.1406 61.8164-48.3887C61.8164-50.5371 60.9375-52.002 59.668-53.3203L50.9277-61.9141C52.0996-62.0117 53.3691-62.0117 54.7363-62.0117C70.9961-62.0117 83.5449-49.0234 83.5449-32.0312C83.5449-15.7227 70.4102-2.49023 54.0527-2.49023C37.6953-2.49023 24.4629-15.7227 24.4629-32.0312C24.4629-36.8652 21.2402-40.0879 16.6992-40.0879C12.0605-40.0879 8.74023-36.8652 8.74023-32.0312C8.74023-6.98242 29.0039 13.3301 54.0527 13.3301C79.1016 13.3301 99.3652-6.98242 99.3652-32.0312C99.3652-57.1777 79.6875-77.002 54.7363-77.002C53.9062-77.002 53.0762-76.9531 52.1973-76.9043L59.668-84.2285C60.9375-85.498 61.8164-86.9629 61.8164-89.1602C61.8164-93.4082 58.4473-96.875 54.1992-96.875C52.1484-96.875 50.4395-96.1426 49.0234-94.6777L29.1992-74.4141C27.5391-72.8516 26.709-70.8496 26.709-68.75C26.709-66.6016 27.5391-64.6973 29.1992-63.0859L49.0234-42.8711C50.3906-41.4551 52.1484-40.7715 54.1992-40.7715Z"/>
  </g>
  <g id="Bold-M" transform="matrix(1 0 0 1 2286.66 1126)">
   <path d="M54.0527-42.1875C57.5684-42.1875 60.3516-44.9707 60.3516-48.5352C60.3516-50.293 59.668-51.5625 58.5449-52.6855L47.6562-63.4277C49.5117-63.623 51.5625-63.7207 53.7598-63.7207C71.1426-63.7207 84.8145-49.8047 84.8145-31.9336C84.8145-14.4531 70.8008-0.390625 53.3203-0.390625C35.8398-0.390625 21.7285-14.4531 21.7285-31.9336C21.7285-35.8887 19.1406-38.623 15.332-38.623C11.4746-38.623 8.74023-35.8887 8.74023-31.9336C8.74023-7.27539 28.6621 12.6953 53.3203 12.6953C77.9785 12.6953 97.9004-7.27539 97.9004-31.9336C97.9004-56.6406 78.3691-76.2207 53.7598-76.2207C52.2461-76.2207 50.7812-76.1719 49.2676-75.9766L58.5938-85.1074C59.668-86.2305 60.3516-87.5488 60.3516-89.3066C60.3516-92.9199 57.5684-95.752 54.0527-95.752C52.2949-95.752 50.8301-95.166 49.6582-93.8965L29.7363-73.6328C28.3691-72.3145 27.6855-70.6055 27.6855-68.8965C27.6855-67.0898 28.3203-65.5273 29.7363-64.1602L49.6582-43.9453C50.7812-42.7734 52.2461-42.1875 54.0527-42.1875Z"/>
  </g>
  <g id="Semibold-M" transform="matrix(1 0 0 1 1990.48 1126)">
   <path d="M53.9062-43.1641C56.9336-43.1641 59.3262-45.5566 59.3262-48.6328C59.3262-50.0977 58.7402-51.2695 57.7637-52.2949L45.5078-64.4043C47.7539-64.7461 50.293-64.9414 53.0762-64.9414C71.2891-64.9414 85.6445-50.3418 85.6445-31.8359C85.6445-13.623 71.0449 1.07422 52.7832 1.07422C34.5703 1.07422 19.873-13.623 19.873-31.8359C19.873-35.2539 17.6758-37.5977 14.4043-37.5977C11.084-37.5977 8.74023-35.2539 8.74023-31.8359C8.74023-7.42188 28.418 12.2559 52.7832 12.2559C77.1973 12.2559 96.8262-7.42188 96.8262-31.8359C96.8262-56.2988 77.4414-75.7324 53.0762-75.7324C51.123-75.7324 49.1211-75.5859 47.168-75.3418L57.8125-85.7422C58.7402-86.7676 59.3262-87.9395 59.3262-89.4531C59.3262-92.5293 56.9336-95.0195 53.9062-95.0195C52.3438-95.0195 51.0742-94.4824 50.0977-93.4082L30.0781-73.0469C28.9551-71.9238 28.3203-70.459 28.3203-68.9941C28.3203-67.4316 28.9062-66.0645 30.0781-64.8926L50.0977-44.6777C51.0742-43.6523 52.3438-43.1641 53.9062-43.1641Z"/>
  </g>
  <g id="Medium-M" transform="matrix(1 0 0 1 1694.16 1126)">
   <path d="M53.8086-43.8965C56.4453-43.8965 58.5449-45.9961 58.5449-48.6816C58.5449-50 58.0566-51.0742 57.1777-51.9531L43.8965-65.1367C46.4355-65.5762 49.3652-65.8203 52.5391-65.8203C71.3379-65.8203 86.3281-50.7812 86.3281-31.7871C86.3281-12.9395 71.2402 2.19727 52.3926 2.19727C33.5938 2.19727 18.457-12.9395 18.457-31.7871C18.457-34.7168 16.5527-36.8164 13.7207-36.8164C10.791-36.8164 8.74023-34.7168 8.74023-31.7871C8.74023-7.56836 28.2227 11.9141 52.3926 11.9141C76.6113 11.9141 96.0449-7.56836 96.0449-31.7871C96.0449-56.0059 76.709-75.3418 52.5391-75.3418C50.2441-75.3418 47.9004-75.1465 45.5566-74.8047L57.2266-86.2305C58.0566-87.1582 58.5449-88.2324 58.5449-89.5508C58.5449-92.2363 56.4941-94.4336 53.8086-94.4336C52.3926-94.4336 51.2695-93.9453 50.3906-92.9688L30.3711-72.6074C29.3457-71.6309 28.8574-70.3613 28.8574-69.043C28.8574-67.6758 29.2969-66.5039 30.3711-65.4297L50.4395-45.2637C51.2695-44.3359 52.3926-43.8965 53.8086-43.8965Z"/>
  </g>
  <g id="Regular-M" transform="matrix(1 0 0 1 1397.96 1126)">
   <path d="M53.6621-44.873C55.8594-44.873 57.5195-46.5332 57.5195-48.7793C57.5195-49.8047 57.1777-50.7812 56.3965-51.5625L41.7969-66.0645C44.7754-66.6992 48.1445-66.9922 51.9043-66.9922C71.4844-66.9922 87.1582-51.3184 87.1582-31.7383C87.1582-12.1094 71.4844 3.61328 51.9043 3.61328C32.3242 3.61328 16.6016-12.1094 16.6016-31.7383C16.6016-34.082 15.1367-35.791 12.793-35.791C10.4004-35.791 8.74023-34.082 8.74023-31.7383C8.74023-7.76367 27.9785 11.4746 51.9043 11.4746C75.8301 11.4746 95.0195-7.76367 95.0195-31.7383C95.0195-55.6641 75.8301-74.8535 51.9043-74.8535C49.0234-74.8535 46.1914-74.5605 43.4082-74.0723L56.4453-86.8652C57.1777-87.6465 57.5195-88.623 57.5195-89.6484C57.5195-91.8945 55.8594-93.6523 53.7109-93.6523C52.4902-93.6523 51.5137-93.2617 50.8301-92.4805L30.7129-72.0703C29.9316-71.2891 29.4922-70.2148 29.4922-69.1406C29.4922-68.0176 29.8828-67.041 30.7129-66.2109L50.8301-45.9961C51.5625-45.2637 52.4902-44.873 53.6621-44.873Z"/>
  </g>
  <g id="Light-M" transform="matrix(1 0 0 1 1101.84 1126)">
   <path d="M53.9062-44.873C55.6152-44.873 56.8848-46.1914 56.8848-47.9004C56.8848-48.6816 56.5918-49.4141 56.0059-50.0488L39.1113-66.9922C42.5781-67.8711 46.8262-68.3105 51.2695-68.3105C71.6309-68.3105 87.8418-52.1973 87.8418-31.8848C87.8418-11.4746 71.6309 4.73633 51.2695 4.73633C30.957 4.73633 14.7949-11.4746 14.7949-31.8848C14.7949-33.6914 13.623-35.0098 11.8652-35.0098C10.0098-35.0098 8.74023-33.6914 8.74023-31.8848C8.74023-8.1543 27.6367 10.7422 51.2695 10.7422C75 10.7422 93.8477-8.1543 93.8477-31.8848C93.8477-55.5176 75-74.3164 51.2695-74.3164C47.5586-74.3164 43.8965-73.9258 40.5273-73.1934L56.0547-88.6719C56.5918-89.3066 56.8848-90.0391 56.8848-90.8691C56.8848-92.5781 55.6641-93.9453 53.9551-93.9453C52.9785-93.9453 52.2461-93.6035 51.709-93.0176L30.957-71.7773C30.1758-70.9961 29.7852-70.166 29.7852-69.2871C29.7852-68.457 30.0781-67.6758 30.957-66.7969L51.7578-45.752C52.2949-45.166 52.9785-44.873 53.9062-44.873Z"/>
  </g>
  <g id="Thin-M" transform="matrix(1 0 0 1 805.91 1126)">
   <path d="M54.1992-44.9219C55.3223-44.9219 56.0547-45.7031 56.0547-46.6797C56.0547-47.2168 55.9082-47.6562 55.4688-48.0957L35.5469-68.2617C39.5996-69.3848 45.0684-70.0195 50.4883-70.0195C71.875-70.0195 88.6719-53.3691 88.6719-32.0801C88.6719-10.6934 71.875 6.15234 50.4883 6.15234C29.1504 6.15234 12.3535-10.6934 12.3535-32.0801C12.3535-33.2031 11.6699-33.9355 10.5957-33.9355C9.47266-33.9355 8.74023-33.2031 8.74023-32.0801C8.74023-8.69141 27.1484 9.76562 50.4883 9.76562C73.877 9.76562 92.2852-8.69141 92.2852-32.0801C92.2852-55.3711 73.877-73.6816 50.4883-73.6816C45.4102-73.6816 40.5273-72.9492 36.7676-72.0215L55.4688-91.0156C55.9082-91.4551 56.0547-91.8945 56.0547-92.4805C56.0547-93.457 55.3711-94.2383 54.248-94.2383C53.5645-94.2383 53.2227-94.043 52.8809-93.7012L31.25-71.4355C30.4688-70.7031 30.1758-70.1172 30.1758-69.5312C30.1758-69.043 30.4199-68.5059 31.25-67.627L52.9297-45.459C53.2715-45.0684 53.6621-44.9219 54.1992-44.9219Z"/>
  </g>
  <g id="Ultralight-M" transform="matrix(1 0 0 1 509.589 1126)">
   <path d="M54.3945-44.9219C55.1758-44.9219 55.6152-45.459 55.6152-46.0449C55.6152-46.4844 55.5176-46.7773 55.2246-47.0703L33.7891-68.8965C38.0371-70.166 44.1406-70.8984 50.0977-70.8984C72.0215-70.8984 89.1113-53.9551 89.1113-32.2266C89.1113-10.3027 72.0215 6.88477 50.0977 6.88477C28.2227 6.88477 11.1328-10.3027 11.1328-32.2266C11.1328-32.9102 10.6445-33.3984 9.91211-33.3984C9.22852-33.3984 8.74023-32.9102 8.74023-32.2266C8.74023-8.98438 26.9043 9.27734 50.0977 9.27734C73.3398 9.27734 91.5039-8.98438 91.5039-32.2266C91.5039-55.2734 73.3398-73.291 50.0977-73.291C44.1895-73.291 38.5742-72.4121 34.8145-71.3867L55.2246-92.2852C55.5176-92.5781 55.6152-92.8711 55.6152-93.3105C55.6152-93.8965 55.2246-94.4336 54.4434-94.4336C53.9062-94.4336 53.7109-94.2871 53.4668-94.043L31.3965-71.2891C30.6152-70.5078 30.3711-70.1172 30.3711-69.6777C30.3711-69.3359 30.5664-68.9453 31.3965-68.0664L53.5156-45.2637C53.7598-45.0195 54.0039-44.9219 54.3945-44.9219Z"/>
  </g>
  <g id="Black-S" transform="matrix(1 0 0 1 2890.58 696)">
   <path d="M42.5781-38.6719C46.3379-38.6719 49.3652-41.6992 49.3652-45.459C49.3652-47.4121 48.584-48.6816 47.4609-49.8047L42.041-55.127C42.5293-55.127 43.0176-55.127 43.5059-55.127C55.5176-55.127 64.6484-45.5078 64.6484-32.8125C64.6484-20.752 54.9316-10.9375 42.8223-10.9375C30.7129-10.9375 20.8984-20.752 20.8984-32.8125C20.8984-37.1094 17.9688-39.9902 13.916-39.9902C9.81445-39.9902 6.83594-37.1094 6.83594-32.8125C6.83594-12.9395 22.9492 3.22266 42.8223 3.22266C62.6953 3.22266 78.8086-12.9395 78.8086-32.8125C78.8086-52.7344 63.2812-68.4082 43.5059-68.4082C43.2617-68.4082 43.0176-68.4082 42.7246-68.4082L47.4609-72.998C48.584-74.1211 49.3652-75.3906 49.3652-77.3438C49.3652-81.1523 46.3379-84.2285 42.5781-84.2285C40.7715-84.2285 39.2578-83.5938 37.9883-82.2754L22.5098-66.4551C21.0449-65.0391 20.3125-63.2812 20.3125-61.4258C20.3125-59.4727 21.0449-57.8125 22.5098-56.3477L37.9883-40.5273C39.209-39.3066 40.7715-38.6719 42.5781-38.6719Z"/>
  </g>
  <g id="Heavy-S" transform="matrix(1 0 0 1 2594.31 696)">
   <path d="M42.4316-39.6484C45.752-39.6484 48.4375-42.2852 48.4375-45.6543C48.4375-47.3633 47.7539-48.5352 46.7285-49.5605L40.0879-56.0547C40.9668-56.1523 41.8945-56.1523 42.9199-56.1523C55.6152-56.1523 65.4297-45.9473 65.4297-32.7148C65.4297-19.9707 55.1758-9.61914 42.3828-9.61914C29.5898-9.61914 19.2383-19.9707 19.2383-32.7148C19.2383-36.4746 16.6992-39.0625 13.0859-39.0625C9.47266-39.0625 6.83594-36.4746 6.83594-32.7148C6.83594-13.0859 22.7539 2.88086 42.3828 2.88086C62.0117 2.88086 77.9297-13.0859 77.9297-32.7148C77.9297-52.3926 62.4512-67.9688 42.9199-67.9688C42.2852-67.9688 41.6992-67.9688 41.0645-67.9199L46.7285-73.4375C47.7539-74.4629 48.4375-75.6348 48.4375-77.3438C48.4375-80.7129 45.752-83.4473 42.4316-83.4473C40.8203-83.4473 39.4531-82.8613 38.3301-81.6895L22.8516-65.918C21.582-64.6973 20.9473-63.1348 20.9473-61.4746C20.9473-59.7656 21.582-58.3008 22.8516-57.0312L38.3301-41.3086C39.4043-40.1855 40.7715-39.6484 42.4316-39.6484Z"/>
  </g>
  <g id="Bold-S" transform="matrix(1 0 0 1 2298.11 696)">
   <path d="M42.2363-40.7227C45.1172-40.7227 47.3633-42.9688 47.3633-45.8984C47.3633-47.3145 46.8262-48.3398 45.8984-49.2676L37.9395-57.0801C39.2578-57.2266 40.6738-57.3242 42.2363-57.3242C55.7129-57.3242 66.3086-46.4355 66.3086-32.6172C66.3086-19.0918 55.4199-8.10547 41.8945-8.10547C28.3203-8.10547 17.3828-19.0918 17.3828-32.6172C17.3828-35.791 15.2832-38.0371 12.207-38.0371C9.08203-38.0371 6.83594-35.791 6.83594-32.6172C6.83594-13.2324 22.5098 2.49023 41.8945 2.49023C61.2305 2.49023 76.9043-13.2324 76.9043-32.6172C76.9043-52.002 61.5234-67.4805 42.2363-67.4805C41.2109-67.4805 40.1855-67.4316 39.1602-67.334L45.9473-73.877C46.8262-74.8047 47.3633-75.8789 47.3633-77.2949C47.3633-80.2246 45.1172-82.5684 42.2363-82.5684C40.8203-82.5684 39.6484-82.0801 38.6719-81.0547L23.2422-65.332C22.168-64.3066 21.6309-62.9395 21.6309-61.5723C21.6309-60.1074 22.168-58.8379 23.2422-57.7637L38.6719-42.1387C39.5996-41.2109 40.8203-40.7227 42.2363-40.7227Z"/>
  </g>
  <g id="Semibold-S" transform="matrix(1 0 0 1 2001.74 696)">
   <path d="M42.1387-41.4551C44.6289-41.4551 46.6309-43.457 46.6309-46.0449C46.6309-47.2656 46.1426-48.2422 45.3613-49.0723L36.5234-57.7637C38.0859-58.0078 39.8438-58.1055 41.748-58.1055C55.7617-58.1055 66.8945-46.7773 66.8945-32.5195C66.8945-18.457 55.5664-7.08008 41.5039-7.08008C27.4902-7.08008 16.1133-18.457 16.1133-32.5195C16.1133-35.3516 14.2578-37.3047 11.5723-37.3047C8.78906-37.3047 6.83594-35.3516 6.83594-32.5195C6.83594-13.3301 22.3633 2.19727 41.5039 2.19727C60.6934 2.19727 76.2207-13.3301 76.2207-32.5195C76.2207-51.7578 60.8887-67.1387 41.748-67.1387C40.4785-67.1387 39.1602-67.041 37.8418-66.8945L45.4102-74.2188C46.1426-75.0488 46.6309-76.0742 46.6309-77.2949C46.6309-79.8828 44.6289-81.9336 42.1387-81.9336C40.8691-81.9336 39.7461-81.4941 38.9648-80.6152L23.4863-64.9414C22.6074-64.0625 22.1191-62.8418 22.1191-61.6211C22.1191-60.3027 22.5586-59.2285 23.4863-58.3008L38.9648-42.7246C39.7461-41.8945 40.8203-41.4551 42.1387-41.4551Z"/>
  </g>
  <g id="Medium-S" transform="matrix(1 0 0 1 1705.3 696)">
   <path d="M42.041-42.041C44.2871-42.041 46.0938-43.7988 46.0938-46.1426C46.0938-47.2168 45.6543-48.1445 44.9219-48.9258L35.4492-58.252C37.207-58.5449 39.209-58.6914 41.4062-58.6914C55.8105-58.6914 67.3828-47.0703 67.3828-32.4707C67.3828-18.0176 55.7129-6.29883 41.2598-6.29883C26.8066-6.29883 15.1367-18.0176 15.1367-32.4707C15.1367-34.9609 13.5254-36.7676 11.1328-36.7676C8.59375-36.7676 6.83594-34.9609 6.83594-32.4707C6.83594-13.3789 22.2168 2.00195 41.2598 2.00195C60.3027 2.00195 75.6836-13.3789 75.6836-32.4707C75.6836-51.5625 60.4004-66.8457 41.4062-66.8457C39.8926-66.8457 38.3301-66.748 36.8164-66.5527L44.9707-74.4629C45.6543-75.2441 46.0938-76.2207 46.0938-77.2949C46.0938-79.6387 44.2871-81.4941 42.041-81.4941C40.8691-81.4941 39.8926-81.0547 39.1602-80.2734L23.6816-64.5996C22.9004-63.8672 22.4609-62.7441 22.4609-61.6699C22.4609-60.498 22.9004-59.4727 23.6816-58.6914L39.1602-43.1641C39.8438-42.4316 40.8203-42.041 42.041-42.041Z"/>
  </g>
  <g id="Regular-S" transform="matrix(1 0 0 1 1408.93 696)">
   <path d="M41.9434-42.7734C43.8477-42.7734 45.3613-44.2871 45.3613-46.2891C45.3613-47.168 45.0195-48.0469 44.3848-48.7305L34.0332-58.8867C36.084-59.2773 38.3789-59.4727 40.918-59.4727C55.9082-59.4727 67.9688-47.4121 67.9688-32.4219C67.9688-17.3828 55.9082-5.32227 40.918-5.32227C25.9766-5.32227 13.8672-17.3828 13.8672-32.4219C13.8672-34.5215 12.5488-36.0352 10.498-36.0352C8.34961-36.0352 6.83594-34.5215 6.83594-32.4219C6.83594-13.4766 22.0703 1.75781 40.918 1.75781C59.7656 1.75781 75-13.4766 75-32.4219C75-51.3184 59.7656-66.5039 40.918-66.5039C39.1113-66.5039 37.2559-66.3574 35.4004-66.0645L44.4336-74.8047C45.0195-75.4883 45.3613-76.3672 45.3613-77.2949C45.3613-79.2969 43.8477-80.9082 41.9434-80.9082C40.8691-80.9082 39.9902-80.5176 39.4043-79.834L23.9746-64.209C23.3398-63.5742 22.9492-62.6465 22.9492-61.7188C22.9492-60.6934 23.291-59.8633 23.9746-59.1797L39.4043-43.75C39.9902-43.1152 40.8691-42.7734 41.9434-42.7734Z"/>
  </g>
  <g id="Light-S" transform="matrix(1 0 0 1 1112.73 696)">
   <path d="M42.1387-42.7734C43.6523-42.7734 44.8242-43.9453 44.8242-45.5078C44.8242-46.1914 44.5312-46.875 44.043-47.4121L31.6406-59.7656C34.1797-60.3516 37.1582-60.6445 40.3809-60.6445C56.0547-60.6445 68.5547-48.1934 68.5547-32.5684C68.5547-16.8457 56.0547-4.3457 40.3809-4.3457C24.7559-4.3457 12.2559-16.8457 12.2559-32.5684C12.2559-34.1797 11.2305-35.3516 9.66797-35.3516C8.00781-35.3516 6.83594-34.1797 6.83594-32.5684C6.83594-13.8672 21.7773 1.07422 40.3809 1.07422C59.0332 1.07422 73.9746-13.8672 73.9746-32.5684C73.9746-51.1719 59.0332-66.0645 40.3809-66.0645C37.8418-66.0645 35.2539-65.7715 32.8613-65.332L44.043-76.3672C44.5312-76.9531 44.8242-77.6367 44.8242-78.3691C44.8242-79.8828 43.6523-81.1035 42.1387-81.1035C41.3086-81.1035 40.6738-80.8105 40.1855-80.2734L24.1699-63.9648C23.5352-63.3789 23.1934-62.5977 23.1934-61.8652C23.1934-61.084 23.4863-60.4004 24.1699-59.7168L40.1855-43.5547C40.6738-43.0664 41.3086-42.7734 42.1387-42.7734Z"/>
  </g>
  <g id="Thin-S" transform="matrix(1 0 0 1 816.701 696)">
   <path d="M42.3828-42.8223C43.4082-42.8223 44.0918-43.5547 44.0918-44.4336C44.0918-44.9219 43.8965-45.3125 43.5547-45.7031L28.5156-60.8887C31.5918-61.7188 35.5957-62.1582 39.6973-62.1582C56.25-62.1582 69.2871-49.2188 69.2871-32.7148C69.2871-16.1621 56.25-3.07617 39.6973-3.07617C23.1934-3.07617 10.1562-16.1621 10.1562-32.7148C10.1562-33.7402 9.52148-34.4238 8.54492-34.4238C7.51953-34.4238 6.83594-33.7402 6.83594-32.7148C6.83594-14.3555 21.3379 0.195312 39.6973 0.195312C58.1055 0.195312 72.6074-14.3555 72.6074-32.7148C72.6074-51.0254 58.1055-65.4785 39.6973-65.4785C35.9863-65.4785 32.373-64.9902 29.4922-64.2578L43.5547-78.5156C43.8965-78.8574 44.0918-79.2969 44.0918-79.7852C44.0918-80.6641 43.4082-81.3965 42.4316-81.3965C41.8457-81.3965 41.5039-81.25 41.2109-80.9082L24.4141-63.6719C23.7793-63.0859 23.5352-62.5977 23.5352-62.0605C23.5352-61.5723 23.7305-61.1328 24.4141-60.4492L41.2109-43.3105C41.5527-42.9688 41.8945-42.8223 42.3828-42.8223Z"/>
  </g>
  <g id="Ultralight-S" transform="matrix(1 0 0 1 520.356 696)">
   <path d="M42.5293-42.8223C43.2617-42.8223 43.7012-43.3105 43.7012-43.8965C43.7012-44.2383 43.6035-44.5312 43.3105-44.7754L26.9531-61.4258C30.2246-62.4023 34.8145-62.9395 39.3555-62.9395C56.3477-62.9395 69.6777-49.7559 69.6777-32.8613C69.6777-15.8203 56.3477-2.44141 39.3555-2.44141C22.3633-2.44141 9.0332-15.8203 9.0332-32.8613C9.0332-33.4961 8.59375-33.9355 7.95898-33.9355C7.27539-33.9355 6.83594-33.4961 6.83594-32.8613C6.83594-14.5996 21.1426-0.244141 39.3555-0.244141C57.5684-0.244141 71.875-14.5996 71.875-32.8613C71.875-50.9277 57.5684-65.1367 39.3555-65.1367C34.9609-65.1367 30.7617-64.502 27.7832-63.7207L43.3105-79.5898C43.6035-79.834 43.7012-80.127 43.7012-80.5176C43.7012-81.0547 43.3105-81.543 42.5781-81.543C42.1387-81.543 41.9434-81.4453 41.748-81.25L24.5117-63.5254C23.9258-62.9395 23.7305-62.5488 23.7305-62.1582C23.7305-61.8652 23.877-61.5234 24.5117-60.8398L41.748-43.1641C41.9922-42.9199 42.2363-42.8223 42.5293-42.8223Z"/>
  </g>
 </g>
</svg>
