<?xml version="1.0" encoding="UTF-8"?>
<!--Generator: Apple Native CoreSVG 149-->
<!DOCTYPE svg
PUBLIC "-//W3C//DTD SVG 1.1//EN"
       "http://www.w3.org/Graphics/SVG/1.1/DTD/svg11.dtd">
<svg version="1.1" xmlns="http://www.w3.org/2000/svg" xmlns:xlink="http://www.w3.org/1999/xlink" width="3300" height="2200">
 <!--glyph: "uni100A85.medium", point size: 100.000000, font version: "Version 16.0d18e1", template writer version: "8"-->
 <g id="Notes">
  <rect height="2200" id="artboard" style="fill:white;opacity:1" width="3300" x="0" y="0"/>
  <line id="" style="fill:none;stroke:black;opacity:1;stroke-width:0.5;" x1="263" x2="3036" y1="292" y2="292"/>
  <text style="stroke:none;fill:black;font-family:-apple-system,&quot;SF Pro Display&quot;,&quot;SF Pro Text&quot;,Helvetica,sans-serif;font-weight:bold;" transform="matrix(1 0 0 1 263 322)">Weight/Scale Variations</text>
  <text style="stroke:none;fill:black;font-family:-apple-system,&quot;SF Pro Display&quot;,&quot;SF Pro Text&quot;,Helvetica,sans-serif;text-anchor:middle;" transform="matrix(1 0 0 1 559.711 322)">Ultralight</text>
  <text style="stroke:none;fill:black;font-family:-apple-system,&quot;SF Pro Display&quot;,&quot;SF Pro Text&quot;,Helvetica,sans-serif;text-anchor:middle;" transform="matrix(1 0 0 1 856.422 322)">Thin</text>
  <text style="stroke:none;fill:black;font-family:-apple-system,&quot;SF Pro Display&quot;,&quot;SF Pro Text&quot;,Helvetica,sans-serif;text-anchor:middle;" transform="matrix(1 0 0 1 1153.13 322)">Light</text>
  <text style="stroke:none;fill:black;font-family:-apple-system,&quot;SF Pro Display&quot;,&quot;SF Pro Text&quot;,Helvetica,sans-serif;text-anchor:middle;" transform="matrix(1 0 0 1 1449.84 322)">Regular</text>
  <text style="stroke:none;fill:black;font-family:-apple-system,&quot;SF Pro Display&quot;,&quot;SF Pro Text&quot;,Helvetica,sans-serif;text-anchor:middle;" transform="matrix(1 0 0 1 1746.56 322)">Medium</text>
  <text style="stroke:none;fill:black;font-family:-apple-system,&quot;SF Pro Display&quot;,&quot;SF Pro Text&quot;,Helvetica,sans-serif;text-anchor:middle;" transform="matrix(1 0 0 1 2043.27 322)">Semibold</text>
  <text style="stroke:none;fill:black;font-family:-apple-system,&quot;SF Pro Display&quot;,&quot;SF Pro Text&quot;,Helvetica,sans-serif;text-anchor:middle;" transform="matrix(1 0 0 1 2339.98 322)">Bold</text>
  <text style="stroke:none;fill:black;font-family:-apple-system,&quot;SF Pro Display&quot;,&quot;SF Pro Text&quot;,Helvetica,sans-serif;text-anchor:middle;" transform="matrix(1 0 0 1 2636.69 322)">Heavy</text>
  <text style="stroke:none;fill:black;font-family:-apple-system,&quot;SF Pro Display&quot;,&quot;SF Pro Text&quot;,Helvetica,sans-serif;text-anchor:middle;" transform="matrix(1 0 0 1 2933.4 322)">Black</text>
  <line id="" style="fill:none;stroke:black;opacity:1;stroke-width:0.5;" x1="263" x2="3036" y1="1903" y2="1903"/>
  <g id="" transform="matrix(1 0 0 1 263 1933)">
   <path d="M9.24805 0.830078C13.5547 0.830078 17.1387-2.74414 17.1387-7.05078C17.1387-11.3574 13.5449-14.9316 9.23828-14.9316C4.94141-14.9316 1.36719-11.3574 1.36719-7.05078C1.36719-2.74414 4.95117 0.830078 9.24805 0.830078ZM9.24805-0.654297C5.70312-0.654297 2.87109-3.49609 2.87109-7.05078C2.87109-10.6055 5.69336-13.4473 9.23828-13.4473C12.793-13.4473 15.6348-10.6055 15.6445-7.05078C15.6543-3.49609 12.8027-0.654297 9.24805-0.654297ZM6.39648-6.31836L8.50586-6.31836L8.50586-4.19922C8.50586-3.75977 8.79883-3.45703 9.22852-3.45703C9.67773-3.45703 9.9707-3.75977 9.9707-4.19922L9.9707-6.31836L12.0996-6.31836C12.5391-6.31836 12.8418-6.61133 12.8418-7.04102C12.8418-7.48047 12.5391-7.7832 12.0996-7.7832L9.9707-7.7832L9.9707-9.89258C9.9707-10.3418 9.67773-10.6445 9.22852-10.6445C8.79883-10.6445 8.50586-10.3418 8.50586-9.89258L8.50586-7.7832L6.39648-7.7832C5.94727-7.7832 5.64453-7.48047 5.64453-7.04102C5.64453-6.61133 5.94727-6.31836 6.39648-6.31836Z"/>
  </g>
  <g id="" transform="matrix(1 0 0 1 281.506 1933)">
   <path d="M11.709 2.91016C17.1582 2.91016 21.6699-1.61133 21.6699-7.05078C21.6699-12.5 17.1484-17.0117 11.6992-17.0117C6.25977-17.0117 1.74805-12.5 1.74805-7.05078C1.74805-1.61133 6.26953 2.91016 11.709 2.91016ZM11.709 1.25C7.09961 1.25 3.41797-2.44141 3.41797-7.05078C3.41797-11.6602 7.08984-15.3516 11.6992-15.3516C16.3086-15.3516 20-11.6602 20.0098-7.05078C20.0195-2.44141 16.3184 1.25 11.709 1.25ZM7.98828-6.23047L10.8789-6.23047L10.8789-3.32031C10.8789-2.83203 11.2109-2.5 11.6895-2.5C12.1777-2.5 12.5195-2.83203 12.5195-3.32031L12.5195-6.23047L15.4297-6.23047C15.918-6.23047 16.25-6.5625 16.25-7.04102C16.25-7.5293 15.918-7.87109 15.4297-7.87109L12.5195-7.87109L12.5195-10.7617C12.5195-11.2695 12.1777-11.6016 11.6895-11.6016C11.2109-11.6016 10.8789-11.2598 10.8789-10.7617L10.8789-7.87109L7.98828-7.87109C7.48047-7.87109 7.14844-7.5293 7.14844-7.04102C7.14844-6.5625 7.49023-6.23047 7.98828-6.23047Z"/>
  </g>
  <g id="" transform="matrix(1 0 0 1 304.924 1933)">
   <path d="M14.9707 5.66406C21.9336 5.66406 27.6953-0.0976562 27.6953-7.05078C27.6953-14.0137 21.9238-19.7754 14.9609-19.7754C8.00781-19.7754 2.25586-14.0137 2.25586-7.05078C2.25586-0.0976562 8.01758 5.66406 14.9707 5.66406ZM14.9707 3.84766C8.93555 3.84766 4.08203-1.01562 4.08203-7.05078C4.08203-13.0957 8.92578-17.9492 14.9609-17.9492C21.0059-17.9492 25.8594-13.0957 25.8691-7.05078C25.8789-1.01562 21.0156 3.84766 14.9707 3.84766ZM10.0586-6.14258L14.0625-6.14258L14.0625-2.12891C14.0625-1.5918 14.4336-1.2207 14.9512-1.2207C15.4883-1.2207 15.8594-1.5918 15.8594-2.12891L15.8594-6.14258L19.8828-6.14258C20.4102-6.14258 20.791-6.51367 20.791-7.03125C20.791-7.56836 20.4199-7.94922 19.8828-7.94922L15.8594-7.94922L15.8594-11.9531C15.8594-12.5098 15.4883-12.8809 14.9512-12.8809C14.4336-12.8809 14.0625-12.5 14.0625-11.9531L14.0625-7.94922L10.0586-7.94922C9.50195-7.94922 9.13086-7.56836 9.13086-7.03125C9.13086-6.51367 9.51172-6.14258 10.0586-6.14258Z"/>
  </g>
  <text style="stroke:none;fill:black;font-family:-apple-system,&quot;SF Pro Display&quot;,&quot;SF Pro Text&quot;,Helvetica,sans-serif;font-weight:bold;" transform="matrix(1 0 0 1 263 1953)">Design Variations</text>
  <text style="stroke:none;fill:black;font-family:-apple-system,&quot;SF Pro Display&quot;,&quot;SF Pro Text&quot;,Helvetica,sans-serif;" transform="matrix(1 0 0 1 263 1971)">Symbols are supported in up to nine weights and three scales.</text>
  <text style="stroke:none;fill:black;font-family:-apple-system,&quot;SF Pro Display&quot;,&quot;SF Pro Text&quot;,Helvetica,sans-serif;" transform="matrix(1 0 0 1 263 1989)">For optimal layout with text and other symbols, vertically align</text>
  <text style="stroke:none;fill:black;font-family:-apple-system,&quot;SF Pro Display&quot;,&quot;SF Pro Text&quot;,Helvetica,sans-serif;" transform="matrix(1 0 0 1 263 2007)">symbols with the adjacent text.</text>
  <line id="" style="fill:none;stroke:#00AEEF;stroke-width:0.5;opacity:1.0;" x1="776" x2="776" y1="1919" y2="1933"/>
  <g id="" transform="matrix(1 0 0 1 776 1933)">
   <path d="M3.31055 0.126953C3.82812 0.126953 4.08203-0.0683594 4.26758-0.605469L5.52734-4.0625L11.2891-4.0625L12.5488-0.605469C12.7344-0.0683594 12.9883 0.126953 13.4961 0.126953C14.0137 0.126953 14.3457-0.185547 14.3457-0.673828C14.3457-0.839844 14.3164-0.986328 14.2383-1.20117L9.6582-13.3887C9.43359-13.9941 9.0332-14.2871 8.4082-14.2871C7.80273-14.2871 7.39258-13.9941 7.17773-13.3984L2.59766-1.19141C2.51953-0.976562 2.49023-0.830078 2.49023-0.664062C2.49023-0.175781 2.80273 0.126953 3.31055 0.126953ZM6.00586-5.53711L8.37891-12.1094L8.42773-12.1094L10.8008-5.53711Z"/>
  </g>
  <line id="" style="fill:none;stroke:#00AEEF;stroke-width:0.5;opacity:1.0;" x1="792.836" x2="792.836" y1="1919" y2="1933"/>
  <text style="stroke:none;fill:black;font-family:-apple-system,&quot;SF Pro Display&quot;,&quot;SF Pro Text&quot;,Helvetica,sans-serif;font-weight:bold;" transform="matrix(1 0 0 1 776 1953)">Margins</text>
  <text style="stroke:none;fill:black;font-family:-apple-system,&quot;SF Pro Display&quot;,&quot;SF Pro Text&quot;,Helvetica,sans-serif;" transform="matrix(1 0 0 1 776 1971)">Leading and trailing margins on the left and right side of each symbol</text>
  <text style="stroke:none;fill:black;font-family:-apple-system,&quot;SF Pro Display&quot;,&quot;SF Pro Text&quot;,Helvetica,sans-serif;" transform="matrix(1 0 0 1 776 1989)">can be adjusted by modifying the x-location of the margin guidelines.</text>
  <text style="stroke:none;fill:black;font-family:-apple-system,&quot;SF Pro Display&quot;,&quot;SF Pro Text&quot;,Helvetica,sans-serif;" transform="matrix(1 0 0 1 776 2007)">Modifications are automatically applied proportionally to all</text>
  <text style="stroke:none;fill:black;font-family:-apple-system,&quot;SF Pro Display&quot;,&quot;SF Pro Text&quot;,Helvetica,sans-serif;" transform="matrix(1 0 0 1 776 2025)">scales and weights.</text>
  <g id="" transform="matrix(1 0 0 1 1289 1933)">
   <path d="M2.8418 1.86523L4.54102 3.57422C5.40039 4.44336 6.38672 4.38477 7.31445 3.35938L17.4902-7.85156C17.7539-7.76367 18.0273-7.7832 18.3398-7.8418L19.4043-8.03711L20.0684-7.36328L20.0293-6.80664C19.9902-6.30859 20.1172-5.92773 20.6055-5.44922L21.3672-4.70703C21.8457-4.22852 22.4609-4.19922 22.9297-4.66797L25.8398-7.58789C26.3086-8.05664 26.2891-8.65234 25.8105-9.13086L25.0391-9.89258C24.5605-10.3711 24.1895-10.5273 23.7109-10.4883L23.1348-10.4395L22.4902-11.0742L22.7344-12.1973C22.8613-12.7637 22.7051-13.2031 22.1191-13.7891L19.9219-15.9766C16.582-19.2969 12.1484-19.2188 9.25781-16.3281C8.83789-15.918 8.80859-15.3418 9.04297-14.9512C9.27734-14.5898 9.73633-14.3555 10.3809-14.5215C11.8457-14.8633 13.3691-14.9219 14.7949-13.9844L14.209-12.5293C14.0137-12.0508 13.9844-11.6504 14.1113-11.2891L3.04688-0.898438C2.06055 0.0195312 1.98242 0.996094 2.8418 1.86523ZM10.752-15.957C13.1836-17.7344 16.4746-17.4316 18.7012-15.2051L21.1328-12.793C21.3672-12.5586 21.4062-12.373 21.3379-12.0312L21.0156-10.5469L22.5195-9.0625L23.5059-9.12109C23.7598-9.13086 23.8379-9.11133 24.0332-8.91602L24.6094-8.33984L22.168-5.89844L21.5918-6.47461C21.3965-6.66992 21.3672-6.74805 21.377-7.01172L21.4453-7.98828L19.9512-9.47266L18.4277-9.21875C18.1055-9.15039 17.959-9.17969 17.7148-9.41406L15.7129-11.416C15.459-11.6504 15.4297-11.8164 15.5859-12.1875L16.4648-14.2773C14.9023-15.7324 12.8711-16.3574 10.8398-15.7617C10.6836-15.7227 10.625-15.8496 10.752-15.957ZM5.27344 2.30469L4.10156 1.14258C3.63281 0.683594 3.74023 0.341797 4.14062-0.0195312L14.9512-10.1953L16.416-8.71094L6.42578 2.27539C6.07422 2.67578 5.74219 2.77344 5.27344 2.30469Z"/>
  </g>
  <text style="stroke:none;fill:black;font-family:-apple-system,&quot;SF Pro Display&quot;,&quot;SF Pro Text&quot;,Helvetica,sans-serif;font-weight:bold;" transform="matrix(1 0 0 1 1289 1953)">Exporting</text>
  <text style="stroke:none;fill:black;font-family:-apple-system,&quot;SF Pro Display&quot;,&quot;SF Pro Text&quot;,Helvetica,sans-serif;" transform="matrix(1 0 0 1 1289 1971)">Symbols should be outlined when exporting to ensure the</text>
  <text style="stroke:none;fill:black;font-family:-apple-system,&quot;SF Pro Display&quot;,&quot;SF Pro Text&quot;,Helvetica,sans-serif;" transform="matrix(1 0 0 1 1289 1989)">design is preserved when submitting to Xcode.</text>
  <text id="template-version" style="stroke:none;fill:black;font-family:-apple-system,&quot;SF Pro Display&quot;,&quot;SF Pro Text&quot;,Helvetica,sans-serif;text-anchor:end;" transform="matrix(1 0 0 1 3036 1933)">Template v.2.0</text>
  <text style="stroke:none;fill:black;font-family:-apple-system,&quot;SF Pro Display&quot;,&quot;SF Pro Text&quot;,Helvetica,sans-serif;text-anchor:end;" transform="matrix(1 0 0 1 3036 1951)">Requires Xcode 12 or greater</text>
  <text style="stroke:none;fill:black;font-family:-apple-system,&quot;SF Pro Display&quot;,&quot;SF Pro Text&quot;,Helvetica,sans-serif;text-anchor:end;" transform="matrix(1 0 0 1 3036 1969)">Generated from play.slash</text>
  <text style="stroke:none;fill:black;font-family:-apple-system,&quot;SF Pro Display&quot;,&quot;SF Pro Text&quot;,Helvetica,sans-serif;text-anchor:end;" transform="matrix(1 0 0 1 3036 1987)">Typeset at 100 points</text>
  <text style="stroke:none;fill:black;font-family:-apple-system,&quot;SF Pro Display&quot;,&quot;SF Pro Text&quot;,Helvetica,sans-serif;" transform="matrix(1 0 0 1 263 726)">Small</text>
  <text style="stroke:none;fill:black;font-family:-apple-system,&quot;SF Pro Display&quot;,&quot;SF Pro Text&quot;,Helvetica,sans-serif;" transform="matrix(1 0 0 1 263 1156)">Medium</text>
  <text style="stroke:none;fill:black;font-family:-apple-system,&quot;SF Pro Display&quot;,&quot;SF Pro Text&quot;,Helvetica,sans-serif;" transform="matrix(1 0 0 1 263 1586)">Large</text>
 </g>
 <g id="Guides">
  <g id="H-reference" style="fill:#27AAE1;stroke:none;" transform="matrix(1 0 0 1 339 696)">
   <path d="M0.976562 0L3.66211 0L12.9883-24.4629L45.752-24.4629L55.127 0L57.7637 0L30.6152-70.459L28.125-70.459ZM29.3457-67.1387L29.4434-67.1387L44.873-26.709L13.8672-26.709Z"/>
  </g>
  <line id="Baseline-S" style="fill:none;stroke:#27AAE1;opacity:1;stroke-width:0.5;" x1="263" x2="3036" y1="696" y2="696"/>
  <line id="Capline-S" style="fill:none;stroke:#27AAE1;opacity:1;stroke-width:0.5;" x1="263" x2="3036" y1="625.541" y2="625.541"/>
  <g id="H-reference" style="fill:#27AAE1;stroke:none;" transform="matrix(1 0 0 1 339 1126)">
   <path d="M0.976562 0L3.66211 0L12.9883-24.4629L45.752-24.4629L55.127 0L57.7637 0L30.6152-70.459L28.125-70.459ZM29.3457-67.1387L29.4434-67.1387L44.873-26.709L13.8672-26.709Z"/>
  </g>
  <line id="Baseline-M" style="fill:none;stroke:#27AAE1;opacity:1;stroke-width:0.5;" x1="263" x2="3036" y1="1126" y2="1126"/>
  <line id="Capline-M" style="fill:none;stroke:#27AAE1;opacity:1;stroke-width:0.5;" x1="263" x2="3036" y1="1055.54" y2="1055.54"/>
  <g id="H-reference" style="fill:#27AAE1;stroke:none;" transform="matrix(1 0 0 1 339 1556)">
   <path d="M0.976562 0L3.66211 0L12.9883-24.4629L45.752-24.4629L55.127 0L57.7637 0L30.6152-70.459L28.125-70.459ZM29.3457-67.1387L29.4434-67.1387L44.873-26.709L13.8672-26.709Z"/>
  </g>
  <line id="Baseline-L" style="fill:none;stroke:#27AAE1;opacity:1;stroke-width:0.5;" x1="263" x2="3036" y1="1556" y2="1556"/>
  <line id="Capline-L" style="fill:none;stroke:#27AAE1;opacity:1;stroke-width:0.5;" x1="263" x2="3036" y1="1485.54" y2="1485.54"/>
  <line id="left-margin" style="fill:none;stroke:#00AEEF;stroke-width:0.5;opacity:1.0;" x1="1405.95" x2="1405.95" y1="1030.79" y2="1150.12"/>
  <line id="right-margin" style="fill:none;stroke:#00AEEF;stroke-width:0.5;opacity:1.0;" x1="1493.74" x2="1493.74" y1="1030.79" y2="1150.12"/>
 </g>
 <g id="Symbols">
  <g id="Black-L" transform="matrix(1 0 0 1 2869.75 1556)">
   <path d="M103.467-14.7949L115.723-21.9238C122.021-25.5371 125.586-29.3457 125.586-35.2051C125.586-41.0645 122.021-44.8242 115.723-48.4863L39.1113-92.8711C33.9355-95.8496 27.9785-96.8262 23.6816-94.7266L63.8184-54.4922L96.4844-35.6934C96.6797-35.5469 96.7773-35.4004 96.7773-35.2051C96.7773-34.9609 96.6797-34.8145 96.4844-34.7168L88.3301-29.9805ZM110.205 21.0938C112.402 23.291 116.162 23.3887 118.311 21.0938C120.508 18.8477 120.557 15.2344 118.311 12.9883L12.5-92.7246C10.2539-94.9707 6.54297-94.9707 4.29688-92.7246C2.14844-90.5762 2.14844-86.7676 4.29688-84.6191ZM76.709 0.732422L61.4258-14.5508L38.7207-1.46484C38.4277-1.31836 38.2812-1.26953 38.1348-1.26953C37.8418-1.26953 37.6465-1.46484 37.6465-1.85547L37.6465-38.3301L16.0645-60.0098L16.0645 11.7676C16.0645 20.6055 22.0215 25.8301 28.8086 25.8301C32.0312 25.8301 35.0098 24.8535 39.1113 22.5098Z"/>
  </g>
  <g id="Heavy-L" transform="matrix(1 0 0 1 2574.82 1556)">
   <path d="M100.049-15.7715L112.939-23.2422C118.848-26.6602 121.973-29.9805 121.973-35.2051C121.973-40.3809 118.848-43.7012 112.939-47.1191L36.8164-91.2598C32.373-93.7988 27.3926-94.7754 23.584-93.2129L58.9355-57.7148L96.875-35.791C97.168-35.6445 97.3145-35.4492 97.3145-35.2051C97.3145-34.9121 97.168-34.7168 96.875-34.5703L87.0117-28.8574ZM106.982 18.5547C109.033 20.6543 112.549 20.7031 114.551 18.5547C116.602 16.4551 116.65 13.0859 114.551 10.9863L11.8652-91.6504C9.76562-93.75 6.34766-93.75 4.19922-91.6504C2.19727-89.5996 2.19727-86.084 4.19922-84.0332ZM74.8535-1.12305L61.6699-14.3066L35.8398 0.634766C35.5469 0.78125 35.3516 0.878906 35.1562 0.878906C34.8145 0.878906 34.6191 0.634766 34.6191 0.195312L34.6191-41.4062L16.0645-60.0098L16.0645 11.2793C16.0645 19.2383 21.2402 23.9258 27.3926 23.9258C30.4199 23.9258 33.1543 23.0469 36.8164 20.8984Z"/>
  </g>
  <g id="Bold-L" transform="matrix(1 0 0 1 2280.11 1556)">
   <path d="M96.2891-16.8457L109.863-24.7559C115.283-27.9297 117.92-30.7129 117.92-35.2051C117.92-39.6484 115.283-42.4316 109.863-45.6055L34.2773-89.502C30.6641-91.5527 26.7578-92.4805 23.4863-91.5039L53.5156-61.3281L97.3633-35.9375C97.6562-35.7422 97.9004-35.5469 97.9004-35.2051C97.9004-34.8633 97.6562-34.6191 97.3633-34.4238L85.5469-27.5879ZM103.369 15.7227C105.273 17.627 108.496 17.6758 110.352 15.7227C112.256 13.7695 112.305 10.6934 110.352 8.74023L11.1816-90.3809C9.22852-92.334 6.05469-92.334 4.10156-90.3809C2.24609-88.5254 2.24609-85.2539 4.10156-83.3984ZM72.7539-3.22266L61.9629-14.0137L32.6172 2.97852C32.3242 3.125 32.0801 3.22266 31.8359 3.22266C31.4453 3.22266 31.2012 2.97852 31.2012 2.44141L31.2012-44.873L16.0645-60.0586L16.0645 10.7422C16.0645 17.6758 20.3613 21.875 25.8301 21.875C28.6133 21.875 31.0547 20.9473 34.2773 19.0918Z"/>
  </g>
  <g id="Semibold-L" transform="matrix(1 0 0 1 1984.77 1556)">
   <path d="M100.879 13.7695C102.686 15.5762 105.664 15.625 107.471 13.7695C109.229 11.9141 109.277 8.98438 107.471 7.17773L10.6934-89.5508C8.88672-91.3574 5.85938-91.3574 4.05273-89.5508C2.24609-87.7441 2.24609-84.7168 4.05273-82.9102ZM93.6523-17.627L107.715-25.7812C112.842-28.8086 115.137-31.25 115.137-35.2051C115.137-39.1113 112.842-41.6016 107.715-44.5801L32.4707-88.2324C29.4434-89.9902 26.3184-90.8691 23.4375-90.332L49.7559-63.8184L97.6562-36.0352C97.998-35.8398 98.3398-35.5957 98.3398-35.2051C98.3398-34.8145 97.998-34.5703 97.6562-34.3262L84.5703-26.709ZM71.3379-4.6875L62.207-13.8184L30.4199 4.58984C30.0781 4.73633 29.834 4.88281 29.541 4.88281C29.1016 4.88281 28.8574 4.58984 28.8574 4.00391L28.8574-47.2168L16.0645-60.0586L16.0645 10.3516C16.0645 16.6016 19.7754 20.4102 24.8047 20.4102C27.3438 20.4102 29.5898 19.5312 32.4707 17.8711Z"/>
  </g>
  <g id="Medium-L" transform="matrix(1 0 0 1 1689.11 1556)">
   <path d="M98.9746 12.3047C100.684 14.0137 103.564 14.0137 105.273 12.3047C106.982 10.5469 106.982 7.76367 105.273 6.00586L10.3027-88.8672C8.59375-90.625 5.76172-90.6738 3.95508-88.8672C2.29492-87.207 2.29492-84.2773 3.95508-82.5684ZM91.6504-18.1641L106.104-26.6113C111.035-29.4434 113.037-31.6406 113.037-35.2051C113.037-38.7207 111.035-40.918 106.104-43.7988L31.1523-87.3047C28.5156-88.8184 25.9766-89.6973 23.3887-89.4531L46.875-65.6738L97.9004-36.084C98.291-35.8887 98.6328-35.5957 98.6328-35.2051C98.6328-34.7656 98.291-34.4727 97.9004-34.2773L83.7891-26.0742ZM70.2637-5.81055L62.3535-13.6719L28.7109 5.81055C28.3691 6.00586 28.0762 6.10352 27.7832 6.10352C27.3438 6.10352 27.0508 5.81055 27.0508 5.22461L27.0508-49.0234L16.0645-60.0586L16.0645 10.0586C16.0645 15.7715 19.3359 19.3359 23.9746 19.3359C26.416 19.3359 28.4668 18.457 31.1523 16.9434Z"/>
  </g>
  <g id="Regular-L" transform="matrix(1 0 0 1 1393.74 1556)">
   <path d="M96.4844 10.3516C98.1445 12.0117 100.83 12.0117 102.393 10.3516C104.004 8.69141 104.004 6.10352 102.393 4.44336L9.81445-88.0371C8.25195-89.6484 5.56641-89.6973 3.90625-88.0371C2.29492-86.4746 2.29492-83.7402 3.90625-82.1289ZM89.0625-18.9453L103.955-27.6367C108.594-30.2734 110.303-32.1289 110.303-35.2051C110.303-38.2324 108.594-40.0879 103.955-42.7734L29.3945-86.084C27.3438-87.2559 25.5371-88.1348 23.3398-88.2812L43.1641-68.1641L98.2422-36.1816C98.6328-35.9375 99.0723-35.6445 99.0723-35.2051C99.0723-34.7168 98.6328-34.4238 98.2422-34.1797L82.8125-25.1953ZM68.8477-7.22656L62.5488-13.4766L26.5137 7.42188C26.1719 7.61719 25.8789 7.76367 25.4883 7.76367C25.0488 7.76367 24.7559 7.42188 24.7559 6.73828L24.7559-51.3672L16.0645-60.0586L16.0645 9.7168C16.0645 14.6973 18.7012 17.8711 22.9004 17.8711C25.1953 17.8711 27.0508 17.0898 29.3945 15.7227Z"/>
  </g>
  <g id="Light-L" transform="matrix(1 0 0 1 1097.81 1556)">
   <path d="M85.8887-18.4082L103.564-28.7598C107.324-30.9082 108.838-32.5195 108.838-35.2051C108.838-37.8418 107.324-39.4531 103.564-41.6016L27.4414-86.084C25.7324-87.1094 24.1211-87.8418 22.1191-87.9395L36.2305-73.3398L99.4629-36.6211C100-36.2793 100.635-35.8398 100.635-35.2051C100.635-34.5215 100-34.1309 99.4629-33.7891L81.1523-23.1445ZM95.5566 9.66797C96.7773 10.9375 98.877 10.9375 100.098 9.66797C101.367 8.34961 101.367 6.34766 100.098 5.07812L8.39844-86.5723C7.17773-87.793 5.12695-87.8906 3.80859-86.5723C2.58789-85.3516 2.58789-83.252 3.80859-81.9824ZM68.4082-8.25195L63.623-12.9883L25 9.47266C24.5605 9.76562 24.1699 9.96094 23.6816 9.96094C23.0957 9.96094 22.7051 9.47266 22.7051 8.59375L22.7051-54.0039L16.0645-60.6445L16.0645 10.5469C16.0645 14.8926 18.3594 17.5781 21.9727 17.5781C23.877 17.5781 25.3906 16.9434 27.4414 15.7227Z"/>
  </g>
  <g id="Thin-L" transform="matrix(1 0 0 1 802.101 1556)">
   <path d="M81.6895-17.6758L103.076-30.2734C105.615-31.7383 106.982-33.0566 106.982-35.2051C106.982-37.3535 105.615-38.623 103.076-40.0879L24.9023-86.084C23.584-86.8652 22.2656-87.5 20.5078-87.5L27.0996-80.2246L101.074-37.1582C101.807-36.6699 102.686-36.084 102.686-35.2051C102.686-34.2773 101.807-33.6914 101.074-33.252L79.0039-20.4102ZM94.2871 8.74023C95.0195 9.52148 96.2891 9.52148 97.0703 8.74023C97.9004 7.86133 97.8516 6.68945 97.0703 5.9082L6.54297-84.6191C5.81055-85.3027 4.58984-85.4492 3.71094-84.6191C2.97852-83.8379 2.97852-82.5684 3.71094-81.7871ZM67.8711-9.57031L65.0879-12.3047L23.0469 12.2559C22.4609 12.6465 21.9238 12.8418 21.2891 12.8418C20.5566 12.8418 20.0195 12.2559 20.0195 11.0352L20.0195-57.5195L16.0645-61.4258L16.0645 11.6211C16.0645 15.0879 17.9199 17.1387 20.7031 17.1387C22.1191 17.1387 23.1934 16.748 24.9023 15.7227Z"/>
  </g>
  <g id="Ultralight-L" transform="matrix(1 0 0 1 505.927 1556)">
   <path d="M79.541-17.334L102.832-31.0547C104.785-32.1777 106.006-33.3008 106.006-35.2051C106.006-37.0605 104.785-38.1836 102.832-39.3066L23.584-86.084C22.4609-86.7676 21.3379-87.3047 19.7266-87.2559L22.4121-83.7891L101.904-37.4023C102.734-36.9141 103.76-36.2305 103.76-35.2051C103.76-34.1797 102.734-33.4961 101.904-32.959L77.8809-18.9941ZM93.6035 8.25195C94.1406 8.78906 94.9707 8.78906 95.5078 8.25195C96.1426 7.61719 96.0449 6.88477 95.5078 6.34766L5.56641-83.5938C5.12695-84.0332 4.29688-84.2285 3.66211-83.5938C3.125-83.0566 3.125-82.2266 3.66211-81.6895ZM67.5781-10.2539L65.8203-11.9629L22.0215 13.6719C21.3379 14.1113 20.752 14.3555 20.0684 14.3555C19.2383 14.3555 18.6523 13.6719 18.6523 12.3047L18.6523-59.2773L16.0645-61.8652L16.0645 12.207C16.0645 15.1855 17.6758 16.8945 20.0195 16.8945C21.1914 16.8945 22.0703 16.6504 23.584 15.7227Z"/>
  </g>
  <g id="Black-M" transform="matrix(1 0 0 1 2882.06 1126)">
   <path d="M83.0566-17.8223L93.2129-23.6816C98.1445-26.5625 101.416-29.9805 101.416-35.2051C101.416-40.4297 98.1445-43.8477 93.2129-46.6797L32.373-82.0801C27.5391-84.8145 21.6797-85.5957 17.8223-83.2031L52.3438-48.584L74.8535-35.6445C75.0488-35.498 75.0977-35.4004 75.0977-35.2051C75.0977-35.0098 75.0488-34.8633 74.8535-34.7656L69.3359-31.543ZM89.2578 11.4746C90.918 13.1836 93.8477 13.2324 95.5566 11.4746C97.2168 9.7168 97.3145 6.93359 95.5566 5.17578L9.81445-80.5176C8.05664-82.2266 5.17578-82.2266 3.41797-80.5176C1.75781-78.8086 1.75781-75.8789 3.41797-74.2188ZM61.7188-5.37109L47.8027-19.2383L33.1055-10.791C32.8613-10.6445 32.7148-10.5957 32.6172-10.5957C32.3242-10.5957 32.2266-10.791 32.2266-11.084L32.2266-34.9121L12.4512-54.7363L12.4512 2.29492C12.4512 10.0098 17.9688 14.4043 23.6816 14.4043C26.3184 14.4043 28.8086 13.7207 32.373 11.6699Z"/>
  </g>
  <g id="Heavy-M" transform="matrix(1 0 0 1 2587.1 1126)">
   <path d="M80.1758-18.9941L90.2832-24.8535C95.0195-27.6367 97.8516-30.6152 97.8516-35.2051C97.8516-39.7949 95.0195-42.7734 90.2832-45.5078L30.3711-80.3223C26.2695-82.666 21.4355-83.3984 18.0664-81.6406L48.8281-50.7812L75-35.6445C75.1953-35.5469 75.293-35.4004 75.293-35.2051C75.293-35.0098 75.1953-34.8633 75-34.7168L68.3105-30.8594ZM85.9863 8.88672C87.5977 10.5469 90.4297 10.5957 92.041 8.88672C93.6523 7.22656 93.7012 4.49219 92.041 2.83203L9.47266-79.6875C7.8125-81.3477 5.0293-81.3477 3.36914-79.6875C1.70898-78.0762 1.70898-75.2441 3.36914-73.6328ZM59.7656-7.17773L47.8516-19.0918L30.3223-9.0332C30.0781-8.93555 29.9805-8.83789 29.834-8.83789C29.541-8.83789 29.3945-9.0332 29.3945-9.375L29.3945-37.5977L12.4512-54.5898L12.4512 1.5625C12.4512 8.44727 17.1875 12.4512 22.4121 12.4512C24.8535 12.4512 27.1973 11.7676 30.3711 9.91211Z"/>
  </g>
  <g id="Bold-M" transform="matrix(1 0 0 1 2292.37 1126)">
   <path d="M76.9531-20.3613L87.0117-26.1719C91.5039-28.8086 93.8477-31.2988 93.8477-35.2051C93.8477-39.1113 91.5039-41.6016 87.0117-44.1895L28.125-78.3691C24.8047-80.2246 21.1426-81.0059 18.3105-79.8828L44.873-53.1738L75.1465-35.6934C75.3418-35.5469 75.4883-35.4004 75.4883-35.2051C75.4883-34.9609 75.3418-34.8145 75.1465-34.7168L67.1875-30.0781ZM82.2754 6.00586C83.8867 7.56836 86.5234 7.61719 88.0859 6.00586C89.6484 4.39453 89.6973 1.80664 88.0859 0.195312L9.13086-78.7598C7.51953-80.3711 4.88281-80.3711 3.27148-78.7598C1.70898-77.1973 1.70898-74.5117 3.27148-72.9492ZM57.666-9.17969L47.8516-18.9453L27.2461-7.08008C27.002-6.98242 26.8555-6.88477 26.709-6.88477C26.416-6.88477 26.2695-7.08008 26.2695-7.42188L26.2695-40.5762L12.4512-54.4434L12.4512 0.683594C12.4512 6.68945 16.3086 10.2539 20.9961 10.2539C23.291 10.2539 25.3418 9.57031 28.125 7.95898Z"/>
  </g>
  <g id="Semibold-M" transform="matrix(1 0 0 1 1997 1126)">
   <path d="M79.7363 4.00391C81.2988 5.51758 83.8867 5.56641 85.4004 4.00391C86.9141 2.44141 86.9629-0.0976562 85.4004-1.66016L8.88672-78.125C7.32422-79.6387 4.73633-79.6875 3.17383-78.125C1.66016-76.6113 1.66016-73.9746 3.17383-72.4609ZM74.707-21.2891L84.7656-27.0996C89.1113-29.6387 91.1133-31.7871 91.1133-35.2051C91.1133-38.623 89.1113-40.7715 84.7656-43.3105L26.6113-77.002C23.8281-78.5645 20.9473-79.2969 18.457-78.6621L42.1387-54.834L75.2441-35.6934C75.4883-35.5957 75.6348-35.4492 75.6348-35.2051C75.6348-34.9609 75.4883-34.8145 75.2441-34.668L66.4551-29.541ZM56.1523-10.5469L47.8516-18.8477L25.1465-5.71289C24.9023-5.61523 24.707-5.51758 24.5605-5.51758C24.2676-5.51758 24.1211-5.71289 24.1211-6.10352L24.1211-42.627L12.4512-54.3457L12.4512 0.146484C12.4512 5.46875 15.7227 8.74023 20.0195 8.74023C22.2168 8.74023 24.1211 8.05664 26.6113 6.5918Z"/>
  </g>
  <g id="Medium-M" transform="matrix(1 0 0 1 1701.32 1126)">
   <path d="M77.832 2.49023C79.3457 4.00391 81.8848 4.00391 83.3496 2.49023C84.8145 0.927734 84.8633-1.51367 83.3496-3.02734L8.69141-77.6367C7.17773-79.1504 4.6875-79.1504 3.125-77.6367C1.66016-76.1719 1.66016-73.584 3.125-72.1191ZM73.0469-21.9727L83.0566-27.7832C87.2559-30.2246 89.0137-32.1289 89.0137-35.2051C89.0137-38.2812 87.2559-40.1367 83.0566-42.627L25.3906-75.9766C23.0957-77.2949 20.8008-78.0273 18.6035-77.7344L40.0879-56.1035L75.3418-35.7422C75.5371-35.5957 75.7324-35.4492 75.7324-35.2051C75.7324-34.9609 75.5371-34.8145 75.3418-34.668L65.8691-29.1504ZM55.0781-11.5723L47.8516-18.7988L23.4863-4.73633C23.291-4.58984 23.0957-4.49219 22.9004-4.49219C22.6562-4.49219 22.4609-4.73633 22.4609-5.07812L22.4609-44.1895L12.4512-54.248L12.4512-0.292969C12.4512 4.58984 15.2832 7.61719 19.2871 7.61719C21.3379 7.61719 23.1445 6.88477 25.3906 5.56641Z"/>
  </g>
  <g id="Regular-M" transform="matrix(1 0 0 1 1405.95 1126)">
   <path d="M75.3418 0.488281C76.8066 1.95312 79.248 1.95312 80.6641 0.488281C82.0801-0.976562 82.1289-3.36914 80.6641-4.83398L8.44727-77.002C6.98242-78.4668 4.54102-78.4668 3.07617-77.002C1.66016-75.5859 1.66016-73.0957 3.07617-71.6797ZM70.8496-22.9004L80.8105-28.6621C84.8633-31.0547 86.2793-32.6172 86.2793-35.2051C86.2793-37.793 84.8633-39.3555 80.8105-41.6992L23.877-74.6582C22.1191-75.6348 20.6055-76.3672 18.75-76.5137L37.4023-57.7637L75.4395-35.7422C75.6836-35.5957 75.8789-35.4492 75.8789-35.2051C75.8789-34.9609 75.6836-34.7656 75.4395-34.668L65.0879-28.6133ZM53.6133-12.9395L47.8516-18.7012L21.3867-3.36914C21.1914-3.27148 20.9961-3.17383 20.8008-3.17383C20.5078-3.17383 20.3125-3.36914 20.3125-3.75977L20.3125-46.2402L12.4512-54.1504L12.4512-0.878906C12.4512 3.36914 14.6973 6.15234 18.3105 6.15234C20.2637 6.15234 21.9238 5.37109 23.877 4.24805Z"/>
  </g>
  <g id="Light-M" transform="matrix(1 0 0 1 1109.92 1126)">
   <path d="M74.4629-0.146484C75.6348 1.02539 77.4902 1.02539 78.6133-0.146484C79.7363-1.31836 79.7363-3.125 78.6133-4.24805L7.17773-75.6836C6.05469-76.8066 4.15039-76.8555 2.97852-75.6836C1.9043-74.5605 1.9043-72.6562 2.97852-71.5332ZM67.9688-22.4121L80.4688-29.6875C83.7402-31.5918 85.0098-32.959 85.0098-35.2051C85.0098-37.4512 83.7402-38.7695 80.4688-40.6738L22.168-74.6582C20.6543-75.4883 19.3359-76.123 17.6758-76.2207L31.2012-62.4512L76.5137-36.1328C76.9043-35.8887 77.2949-35.6445 77.2949-35.2051C77.2949-34.7656 76.9043-34.5215 76.5137-34.2773L63.623-26.7578ZM53.2227-13.8672L48.8281-18.2129L20.0684-1.51367C19.7754-1.31836 19.4824-1.2207 19.1895-1.2207C18.7988-1.2207 18.5059-1.51367 18.5059-2.09961L18.5059-48.584L12.4512-54.6875L12.4512-0.146484C12.4512 3.51562 14.4043 5.81055 17.4316 5.81055C19.0918 5.81055 20.4102 5.27344 22.168 4.24805Z"/>
  </g>
  <g id="Thin-M" transform="matrix(1 0 0 1 814.113 1126)">
   <path d="M64.209-21.7773L79.9805-31.0547C82.2266-32.373 83.3008-33.4473 83.3008-35.2051C83.3008-36.9629 82.2266-38.0371 79.9805-39.3066L19.8242-74.6582C18.75-75.293 17.6758-75.7812 16.2598-75.8301L22.998-68.6035L77.9785-36.5723C78.5156-36.2793 79.1504-35.8398 79.1504-35.2051C79.1504-34.5703 78.5156-34.1309 77.9785-33.7891L61.6699-24.3164ZM73.3398-0.976562C74.0234-0.244141 75.1953-0.244141 75.8789-0.976562C76.6113-1.70898 76.5625-2.83203 75.8789-3.51562L5.46875-73.9258C4.83398-74.5605 3.66211-74.6582 2.92969-73.9258C2.19727-73.2422 2.19727-72.0703 2.92969-71.3867ZM52.7344-15.0391L50.1465-17.5781L18.2617 0.976562C17.8711 1.2207 17.4805 1.41602 17.041 1.41602C16.4551 1.41602 16.1133 0.976562 16.1133 0.0976562L16.1133-51.7578L12.4512-55.3711L12.4512 0.878906C12.4512 3.71094 13.9648 5.41992 16.3086 5.41992C17.5293 5.41992 18.457 5.07812 19.8242 4.24805Z"/>
  </g>
  <g id="Ultralight-M" transform="matrix(1 0 0 1 517.865 1126)">
   <path d="M62.3047-21.4844L79.7363-31.7871C81.4453-32.7148 82.4707-33.6426 82.4707-35.2051C82.4707-36.7188 81.4453-37.6465 79.7363-38.623L18.6523-74.6582C17.7246-75.1953 16.7969-75.6348 15.5273-75.6348L18.7988-71.7773L78.7109-36.8164C79.3457-36.4746 80.0781-35.9375 80.0781-35.2051C80.0781-34.4238 79.3457-33.9355 78.7109-33.5449L60.6934-23.0469ZM72.7539-1.36719C73.2422-0.927734 74.0234-0.927734 74.5117-1.36719C75.0488-1.95312 74.9512-2.63672 74.5117-3.125L4.58984-72.998C4.19922-73.4375 3.41797-73.584 2.88086-72.998C2.39258-72.5586 2.39258-71.7773 2.88086-71.2891ZM52.4414-15.6738L50.7812-17.2852L17.3828 2.24609C16.8945 2.53906 16.4551 2.73438 15.918 2.73438C15.2832 2.73438 14.8438 2.24609 14.8438 1.2207L14.8438-53.3203L12.4512-55.7129L12.4512 1.36719C12.4512 3.80859 13.7695 5.22461 15.7227 5.22461C16.6992 5.22461 17.4316 4.98047 18.6523 4.24805Z"/>
  </g>
  <g id="Black-S" transform="matrix(1 0 0 1 2893.31 696)">
   <path d="M64.8926-21.6797L72.8027-26.2695C76.6602-28.5156 79.1992-31.1523 79.1992-35.2051C79.1992-39.2578 76.6602-41.8945 72.8027-44.1406L25.2441-71.7773C21.4844-73.9258 16.9922-74.5117 14.0137-72.7051L40.8203-45.8008L58.6426-35.5469C58.7891-35.4492 58.8379-35.3516 58.8379-35.2051C58.8379-35.0586 58.7891-34.9609 58.6426-34.8633L54.248-32.3242ZM69.6777 1.17188C70.9961 2.49023 73.291 2.53906 74.6094 1.17188C75.9277-0.195312 75.9766-2.39258 74.6094-3.75977L7.66602-70.6543C6.29883-72.0215 4.05273-72.0215 2.68555-70.6543C1.36719-69.3359 1.36719-67.041 2.68555-65.7227ZM48.1934-11.9629L37.4512-22.7051L25.7324-15.9668C25.5371-15.8691 25.4395-15.8203 25.3418-15.8203C25.1465-15.8203 25.0488-15.9668 25.0488-16.2109L25.0488-35.1562L9.76562-50.4883L9.76562-5.9082C9.76562 0.0976562 14.0137 3.51562 18.457 3.51562C20.5078 3.51562 22.4609 2.97852 25.2441 1.36719Z"/>
  </g>
  <g id="Heavy-S" transform="matrix(1 0 0 1 2597.87 696)">
   <path d="M62.9883-22.6562L70.6055-27.0508C74.4141-29.248 76.6113-31.5918 76.6113-35.2051C76.6113-38.8184 74.4141-41.1621 70.6055-43.3594L23.877-70.459C20.6543-72.2656 16.9434-72.9004 14.3066-71.5332L38.8184-46.9238L58.6426-35.5469C58.7891-35.4492 58.8379-35.3516 58.8379-35.2051C58.8379-35.0586 58.7891-34.9609 58.6426-34.8633L53.6621-31.9824ZM67.2852-0.732422C68.5547 0.585938 70.8496 0.634766 72.168-0.732422C73.4375-2.09961 73.4863-4.29688 72.168-5.61523L7.56836-70.166C6.20117-71.5332 4.00391-71.5332 2.63672-70.166C1.31836-68.8477 1.31836-66.6016 2.63672-65.2832ZM46.7773-13.2324L37.3535-22.6562L23.7793-14.8438C23.584-14.7461 23.4863-14.6973 23.3887-14.6973C23.1934-14.6973 23.0957-14.8438 23.0957-15.0879L23.0957-36.9141L9.76562-50.3418L9.76562-6.54297C9.76562-1.12305 13.4766 2.05078 17.5781 2.05078C19.5312 2.05078 21.3867 1.46484 23.877 0.0488281Z"/>
  </g>
  <g id="Bold-S" transform="matrix(1 0 0 1 2302.58 696)">
   <path d="M64.5508-2.88086C65.8691-1.5625 68.1152-1.5625 69.3848-2.88086C70.7031-4.24805 70.752-6.39648 69.3848-7.71484L7.42188-69.6289C6.10352-70.9473 3.90625-70.9473 2.53906-69.6289C1.26953-68.3105 1.26953-66.0645 2.53906-64.7949ZM60.8887-23.7305L68.1152-27.9297C71.875-30.0781 73.6816-32.0801 73.6816-35.2051C73.6816-38.3301 71.875-40.332 68.1152-42.4805L22.4121-68.9453C19.7754-70.459 16.8945-71.0449 14.5996-70.2148L36.5723-48.1934L58.5938-35.498C58.7402-35.4004 58.7891-35.3516 58.7891-35.2051C58.7891-35.0586 58.7402-35.0098 58.5938-34.9121L52.9785-31.6406ZM45.166-14.6484L37.2559-22.6074L21.582-13.5742C21.4355-13.4766 21.3379-13.4277 21.1914-13.4277C21.0449-13.4277 20.9473-13.5742 20.9473-13.7695L20.9473-38.916L9.76562-50.1465L9.76562-7.27539C9.76562-2.49023 12.8418 0.439453 16.6016 0.439453C18.5059 0.439453 20.166-0.195312 22.4121-1.46484Z"/>
  </g>
  <g id="Semibold-S" transform="matrix(1 0 0 1 2006.84 696)">
   <path d="M62.6953-4.3457C64.0137-3.02734 66.2109-3.02734 67.4805-4.3457C68.7988-5.71289 68.8477-7.8125 67.4805-9.17969L7.37305-69.2383C6.05469-70.5566 3.85742-70.6055 2.49023-69.2383C1.2207-67.9688 1.2207-65.7227 2.49023-64.4531ZM59.4238-24.5117L66.4551-28.5645C70.1172-30.6641 71.7285-32.4219 71.7285-35.2051C71.7285-37.9883 70.1172-39.7461 66.4551-41.8457L21.3867-67.9199C19.1406-69.1895 16.8457-69.7754 14.8438-69.2871L35.0098-49.0723L58.5938-35.498C58.7402-35.4004 58.7891-35.3516 58.7891-35.2051C58.7891-35.0586 58.7402-35.0098 58.5938-34.9121L52.5391-31.3965ZM44.0918-15.625L37.1582-22.5586L20.0684-12.6953C19.9219-12.6465 19.8242-12.5977 19.7266-12.5977C19.5312-12.5977 19.4336-12.6953 19.4336-12.8906L19.4336-40.2832L9.76562-50L9.76562-7.8125C9.76562-3.41797 12.4023-0.732422 15.918-0.732422C17.7734-0.732422 19.3359-1.31836 21.3867-2.49023Z"/>
  </g>
  <g id="Medium-S" transform="matrix(1 0 0 1 1710.86 696)">
   <path d="M61.2793-5.46875C62.5977-4.15039 64.7949-4.15039 66.0645-5.46875C67.334-6.78711 67.3828-8.93555 66.0645-10.2539L7.32422-68.9453C5.95703-70.2637 3.80859-70.3125 2.49023-68.9453C1.2207-67.6758 1.2207-65.4785 2.49023-64.1602ZM58.3008-25.0488L65.1367-29.0039C68.7988-31.1035 70.166-32.666 70.166-35.2051C70.166-37.7441 68.7988-39.3066 65.1367-41.4062L20.5566-67.1387C18.6523-68.2129 16.7969-68.8477 14.9902-68.6035L33.8379-49.7559L58.5938-35.4492C58.6914-35.4004 58.7891-35.3516 58.7891-35.2051C58.7891-35.0586 58.6914-35.0098 58.5938-34.9609L52.1973-31.2012ZM43.2617-16.3574L37.1094-22.5098L18.8965-12.0605C18.7988-11.9629 18.7012-11.9141 18.5547-11.9141C18.4082-11.9141 18.3105-12.0605 18.3105-12.2559L18.3105-41.3574L9.76562-49.9023L9.76562-8.1543C9.76562-4.15039 12.1094-1.5625 15.4297-1.5625C17.1875-1.5625 18.7012-2.19727 20.5566-3.27148Z"/>
  </g>
  <g id="Regular-S" transform="matrix(1 0 0 1 1415.1 696)">
   <path d="M59.4238-6.93359C60.7422-5.61523 62.8906-5.61523 64.1602-6.93359C65.4785-8.25195 65.4785-10.3516 64.1602-11.6699L7.22656-68.6035C5.9082-69.9219 3.75977-69.9219 2.44141-68.6035C1.17188-67.334 1.17188-65.1367 2.44141-63.8672ZM56.8848-25.7812L63.4766-29.5898C67.041-31.6895 68.2129-33.0078 68.2129-35.2051C68.2129-37.4023 67.041-38.7207 63.4766-40.8203L19.5312-66.1133C18.0176-66.9922 16.748-67.5781 15.2344-67.7246L32.2754-50.6348L58.5449-35.4492C58.6914-35.4004 58.7402-35.3516 58.7402-35.2051C58.7402-35.0586 58.6914-35.0098 58.5449-34.9609L51.709-30.957ZM42.1875-17.334L37.0117-22.5098L17.4316-11.1816C17.2852-11.1328 17.1875-11.084 17.0898-11.084C16.8945-11.084 16.7969-11.1816 16.7969-11.377L16.7969-42.7246L9.76562-49.8047L9.76562-8.69141C9.76562-5.07812 11.6699-2.68555 14.7461-2.68555C16.4551-2.68555 17.8711-3.32031 19.5312-4.29688Z"/>
  </g>
  <g id="Light-S" transform="matrix(1 0 0 1 1119 696)">
   <path d="M58.6914-7.4707C59.7168-6.44531 61.377-6.44531 62.3535-7.4707C63.3789-8.54492 63.3789-10.1562 62.3535-11.1816L6.10352-67.4316C5.07812-68.4082 3.41797-68.457 2.39258-67.4316C1.36719-66.4062 1.36719-64.6973 2.39258-63.7207ZM54.3457-25.3906L63.1836-30.5176C66.0645-32.1777 67.0898-33.3008 67.0898-35.2051C67.0898-37.1094 66.0645-38.2324 63.1836-39.8926L18.0176-66.1133C16.748-66.8457 15.625-67.3828 14.2578-67.4805L26.8066-54.7852L59.5215-35.791C59.7656-35.6445 60.0098-35.498 60.0098-35.2051C60.0098-34.9121 59.7656-34.7656 59.5215-34.6191L50.4395-29.2969ZM41.8457-18.1152L37.8906-22.0703L16.2109-9.52148C16.0156-9.42383 15.8691-9.32617 15.625-9.32617C15.3809-9.32617 15.1855-9.52148 15.1855-9.91211L15.1855-44.7754L9.76562-50.2441L9.76562-8.00781C9.76562-4.93164 11.377-2.92969 14.0137-2.92969C15.4297-2.92969 16.5527-3.4668 18.0176-4.29688Z"/>
  </g>
  <g id="Thin-S" transform="matrix(1 0 0 1 823.097 696)">
   <path d="M51.0254-24.8047L62.7441-31.6895C64.6973-32.8125 65.5762-33.7402 65.5762-35.2051C65.5762-36.6699 64.6973-37.5977 62.7441-38.7207L15.9668-66.1133C15.0391-66.6504 14.1602-67.0898 12.9883-67.1387L19.5801-60.2051L60.791-36.1816C61.1816-35.9863 61.6699-35.6445 61.6699-35.2051C61.6699-34.7656 61.1816-34.4238 60.791-34.2285L48.6816-27.1484ZM57.666-8.20312C58.3008-7.56836 59.3262-7.56836 59.9609-8.20312C60.6445-8.88672 60.5957-9.91211 59.9609-10.5469L4.58984-65.8691C4.00391-66.4551 2.97852-66.5527 2.29492-65.8691C1.66016-65.2344 1.66016-64.209 2.29492-63.5742ZM41.4062-19.1895L39.0137-21.5332L14.6484-7.32422C14.3555-7.12891 14.0625-7.03125 13.7695-7.03125C13.3301-7.03125 13.0859-7.32422 13.0859-7.95898L13.0859-47.5586L9.76562-50.8789L9.76562-7.12891C9.76562-4.73633 11.0352-3.27148 12.9883-3.27148C14.0137-3.27148 14.8438-3.61328 15.9668-4.29688Z"/>
  </g>
  <g id="Ultralight-S" transform="matrix(1 0 0 1 526.801 696)">
   <path d="M49.3164-24.5117L62.5488-32.3242C64.0137-33.1543 64.8438-33.9355 64.8438-35.2051C64.8438-36.4746 64.0137-37.2559 62.5488-38.0859L14.9414-66.1133C14.1602-66.5527 13.4277-66.9434 12.3535-66.9434L15.8203-63.0371L61.4746-36.4258C61.9629-36.1328 62.5-35.791 62.5-35.2051C62.5-34.6191 61.9629-34.2773 61.4746-33.9844L47.8027-26.0254ZM57.1289-8.59375C57.5684-8.1543 58.3008-8.1543 58.7402-8.59375C59.2285-9.08203 59.1797-9.76562 58.7402-10.2051L3.85742-65.0879C3.4668-65.4785 2.73438-65.5762 2.24609-65.0879C1.80664-64.6484 1.80664-63.916 2.24609-63.4766ZM41.1621-19.7266L39.5996-21.2402L13.8672-6.20117C13.4766-5.95703 13.1348-5.85938 12.793-5.85938C12.3047-5.85938 11.9629-6.20117 11.9629-6.98242L11.9629-48.9746L9.76562-51.2207L9.76562-6.68945C9.76562-4.63867 10.8398-3.4668 12.4512-3.4668C13.2812-3.4668 13.916-3.71094 14.9414-4.29688Z"/>
  </g>
 </g>
</svg>
