<?xml version="1.0" encoding="UTF-8"?>
<!--Generator: Apple Native CoreSVG 149-->
<!DOCTYPE svg
PUBLIC "-//W3C//DTD SVG 1.1//EN"
       "http://www.w3.org/Graphics/SVG/1.1/DTD/svg11.dtd">
<svg version="1.1" xmlns="http://www.w3.org/2000/svg" xmlns:xlink="http://www.w3.org/1999/xlink" width="3300" height="2200">
 <!--glyph: "uni1007C8.medium", point size: 100.000000, font version: "Version 16.0d12e3", template writer version: "8"-->
 <g id="Notes">
  <rect height="2200" id="artboard" style="fill:white;opacity:1" width="3300" x="0" y="0"/>
  <line id="" style="fill:none;stroke:black;opacity:1;stroke-width:0.5;" x1="263" x2="3036" y1="292" y2="292"/>
  <text style="stroke:none;fill:black;font-family:-apple-system,&quot;SF Pro Display&quot;,&quot;SF Pro Text&quot;,Helvetica,sans-serif;font-weight:bold;" transform="matrix(1 0 0 1 263 322)">Weight/Scale Variations</text>
  <text style="stroke:none;fill:black;font-family:-apple-system,&quot;SF Pro Display&quot;,&quot;SF Pro Text&quot;,Helvetica,sans-serif;text-anchor:middle;" transform="matrix(1 0 0 1 559.711 322)">Ultralight</text>
  <text style="stroke:none;fill:black;font-family:-apple-system,&quot;SF Pro Display&quot;,&quot;SF Pro Text&quot;,Helvetica,sans-serif;text-anchor:middle;" transform="matrix(1 0 0 1 856.422 322)">Thin</text>
  <text style="stroke:none;fill:black;font-family:-apple-system,&quot;SF Pro Display&quot;,&quot;SF Pro Text&quot;,Helvetica,sans-serif;text-anchor:middle;" transform="matrix(1 0 0 1 1153.13 322)">Light</text>
  <text style="stroke:none;fill:black;font-family:-apple-system,&quot;SF Pro Display&quot;,&quot;SF Pro Text&quot;,Helvetica,sans-serif;text-anchor:middle;" transform="matrix(1 0 0 1 1449.84 322)">Regular</text>
  <text style="stroke:none;fill:black;font-family:-apple-system,&quot;SF Pro Display&quot;,&quot;SF Pro Text&quot;,Helvetica,sans-serif;text-anchor:middle;" transform="matrix(1 0 0 1 1746.56 322)">Medium</text>
  <text style="stroke:none;fill:black;font-family:-apple-system,&quot;SF Pro Display&quot;,&quot;SF Pro Text&quot;,Helvetica,sans-serif;text-anchor:middle;" transform="matrix(1 0 0 1 2043.27 322)">Semibold</text>
  <text style="stroke:none;fill:black;font-family:-apple-system,&quot;SF Pro Display&quot;,&quot;SF Pro Text&quot;,Helvetica,sans-serif;text-anchor:middle;" transform="matrix(1 0 0 1 2339.98 322)">Bold</text>
  <text style="stroke:none;fill:black;font-family:-apple-system,&quot;SF Pro Display&quot;,&quot;SF Pro Text&quot;,Helvetica,sans-serif;text-anchor:middle;" transform="matrix(1 0 0 1 2636.69 322)">Heavy</text>
  <text style="stroke:none;fill:black;font-family:-apple-system,&quot;SF Pro Display&quot;,&quot;SF Pro Text&quot;,Helvetica,sans-serif;text-anchor:middle;" transform="matrix(1 0 0 1 2933.4 322)">Black</text>
  <line id="" style="fill:none;stroke:black;opacity:1;stroke-width:0.5;" x1="263" x2="3036" y1="1903" y2="1903"/>
  <g id="" transform="matrix(1 0 0 1 263 1933)">
   <path d="M9.24805 0.830078C13.5547 0.830078 17.1387-2.74414 17.1387-7.05078C17.1387-11.3574 13.5449-14.9316 9.23828-14.9316C4.94141-14.9316 1.36719-11.3574 1.36719-7.05078C1.36719-2.74414 4.95117 0.830078 9.24805 0.830078ZM9.24805-0.654297C5.70312-0.654297 2.87109-3.49609 2.87109-7.05078C2.87109-10.6055 5.69336-13.4473 9.23828-13.4473C12.793-13.4473 15.6348-10.6055 15.6445-7.05078C15.6543-3.49609 12.8027-0.654297 9.24805-0.654297ZM9.22852-3.62305C9.69727-3.62305 9.9707-3.93555 9.9707-4.45312L9.9707-6.31836L12.002-6.31836C12.5-6.31836 12.832-6.57227 12.832-7.04102C12.832-7.51953 12.5195-7.7832 12.002-7.7832L9.9707-7.7832L9.9707-9.81445C9.9707-10.332 9.69727-10.6543 9.22852-10.6543C8.75977-10.6543 8.50586-10.3125 8.50586-9.81445L8.50586-7.7832L6.49414-7.7832C5.97656-7.7832 5.64453-7.51953 5.64453-7.04102C5.64453-6.57227 5.99609-6.31836 6.49414-6.31836L8.50586-6.31836L8.50586-4.45312C8.50586-3.95508 8.75977-3.62305 9.22852-3.62305Z"/>
  </g>
  <g id="" transform="matrix(1 0 0 1 281.506 1933)">
   <path d="M11.709 2.91016C17.1582 2.91016 21.6699-1.61133 21.6699-7.05078C21.6699-12.5 17.1484-17.0117 11.6992-17.0117C6.25977-17.0117 1.74805-12.5 1.74805-7.05078C1.74805-1.61133 6.26953 2.91016 11.709 2.91016ZM11.709 1.25C7.09961 1.25 3.41797-2.44141 3.41797-7.05078C3.41797-11.6602 7.08984-15.3516 11.6992-15.3516C16.3086-15.3516 20-11.6602 20.0098-7.05078C20.0195-2.44141 16.3184 1.25 11.709 1.25ZM11.6797-2.66602C12.207-2.66602 12.5098-3.01758 12.5098-3.59375L12.5098-6.23047L15.3223-6.23047C15.8691-6.23047 16.25-6.51367 16.25-7.03125C16.25-7.55859 15.8887-7.86133 15.3223-7.86133L12.5098-7.86133L12.5098-10.6836C12.5098-11.25 12.207-11.6113 11.6797-11.6113C11.1621-11.6113 10.8789-11.2305 10.8789-10.6836L10.8789-7.86133L8.07617-7.86133C7.50977-7.86133 7.13867-7.55859 7.13867-7.03125C7.13867-6.51367 7.5293-6.23047 8.07617-6.23047L10.8789-6.23047L10.8789-3.59375C10.8789-3.03711 11.1621-2.66602 11.6797-2.66602Z"/>
  </g>
  <g id="" transform="matrix(1 0 0 1 304.924 1933)">
   <path d="M14.9707 5.66406C21.9336 5.66406 27.6953-0.0976562 27.6953-7.05078C27.6953-14.0137 21.9238-19.7754 14.9609-19.7754C8.00781-19.7754 2.25586-14.0137 2.25586-7.05078C2.25586-0.0976562 8.01758 5.66406 14.9707 5.66406ZM14.9707 3.84766C8.93555 3.84766 4.08203-1.01562 4.08203-7.05078C4.08203-13.0957 8.92578-17.9492 14.9609-17.9492C21.0059-17.9492 25.8594-13.0957 25.8691-7.05078C25.8789-1.01562 21.0156 3.84766 14.9707 3.84766ZM14.9414-1.38672C15.5176-1.38672 15.8594-1.77734 15.8594-2.38281L15.8594-6.13281L19.7754-6.13281C20.3711-6.13281 20.7812-6.46484 20.7812-7.02148C20.7812-7.59766 20.3906-7.93945 19.7754-7.93945L15.8594-7.93945L15.8594-11.8652C15.8594-12.4805 15.5176-12.8711 14.9414-12.8711C14.375-12.8711 14.0527-12.4609 14.0527-11.8652L14.0527-7.93945L10.1465-7.93945C9.53125-7.93945 9.13086-7.59766 9.13086-7.02148C9.13086-6.46484 9.55078-6.13281 10.1465-6.13281L14.0527-6.13281L14.0527-2.38281C14.0527-1.79688 14.375-1.38672 14.9414-1.38672Z"/>
  </g>
  <text style="stroke:none;fill:black;font-family:-apple-system,&quot;SF Pro Display&quot;,&quot;SF Pro Text&quot;,Helvetica,sans-serif;font-weight:bold;" transform="matrix(1 0 0 1 263 1953)">Design Variations</text>
  <text style="stroke:none;fill:black;font-family:-apple-system,&quot;SF Pro Display&quot;,&quot;SF Pro Text&quot;,Helvetica,sans-serif;" transform="matrix(1 0 0 1 263 1971)">Symbols are supported in up to nine weights and three scales.</text>
  <text style="stroke:none;fill:black;font-family:-apple-system,&quot;SF Pro Display&quot;,&quot;SF Pro Text&quot;,Helvetica,sans-serif;" transform="matrix(1 0 0 1 263 1989)">For optimal layout with text and other symbols, vertically align</text>
  <text style="stroke:none;fill:black;font-family:-apple-system,&quot;SF Pro Display&quot;,&quot;SF Pro Text&quot;,Helvetica,sans-serif;" transform="matrix(1 0 0 1 263 2007)">symbols with the adjacent text.</text>
  <line id="" style="fill:none;stroke:#00AEEF;stroke-width:0.5;opacity:1.0;" x1="776" x2="776" y1="1919" y2="1933"/>
  <g id="" transform="matrix(1 0 0 1 776 1933)">
   <path d="M3.31055 0.126953C3.82812 0.126953 4.08203-0.0683594 4.26758-0.605469L5.52734-4.0625L11.2891-4.0625L12.5488-0.605469C12.7344-0.0683594 12.9883 0.126953 13.4961 0.126953C14.0137 0.126953 14.3457-0.185547 14.3457-0.673828C14.3457-0.839844 14.3164-0.986328 14.2383-1.20117L9.6582-13.3887C9.43359-13.9941 9.0332-14.2871 8.4082-14.2871C7.80273-14.2871 7.39258-13.9941 7.17773-13.3984L2.59766-1.19141C2.51953-0.976562 2.49023-0.830078 2.49023-0.664062C2.49023-0.175781 2.80273 0.126953 3.31055 0.126953ZM6.00586-5.53711L8.37891-12.1094L8.42773-12.1094L10.8008-5.53711Z"/>
  </g>
  <line id="" style="fill:none;stroke:#00AEEF;stroke-width:0.5;opacity:1.0;" x1="792.836" x2="792.836" y1="1919" y2="1933"/>
  <text style="stroke:none;fill:black;font-family:-apple-system,&quot;SF Pro Display&quot;,&quot;SF Pro Text&quot;,Helvetica,sans-serif;font-weight:bold;" transform="matrix(1 0 0 1 776 1953)">Margins</text>
  <text style="stroke:none;fill:black;font-family:-apple-system,&quot;SF Pro Display&quot;,&quot;SF Pro Text&quot;,Helvetica,sans-serif;" transform="matrix(1 0 0 1 776 1971)">Leading and trailing margins on the left and right side of each symbol</text>
  <text style="stroke:none;fill:black;font-family:-apple-system,&quot;SF Pro Display&quot;,&quot;SF Pro Text&quot;,Helvetica,sans-serif;" transform="matrix(1 0 0 1 776 1989)">can be adjusted by modifying the x-location of the margin guidelines.</text>
  <text style="stroke:none;fill:black;font-family:-apple-system,&quot;SF Pro Display&quot;,&quot;SF Pro Text&quot;,Helvetica,sans-serif;" transform="matrix(1 0 0 1 776 2007)">Modifications are automatically applied proportionally to all</text>
  <text style="stroke:none;fill:black;font-family:-apple-system,&quot;SF Pro Display&quot;,&quot;SF Pro Text&quot;,Helvetica,sans-serif;" transform="matrix(1 0 0 1 776 2025)">scales and weights.</text>
  <g id="" transform="matrix(1 0 0 1 1289 1933)">
   <path d="M2.8418 1.86523L4.54102 3.57422C5.40039 4.44336 6.38672 4.38477 7.31445 3.35938L17.4902-7.85156C17.7539-7.76367 18.0273-7.7832 18.3398-7.8418L19.4043-8.03711L20.0684-7.36328L20.0293-6.80664C19.9902-6.30859 20.1172-5.92773 20.6055-5.44922L21.3672-4.70703C21.8457-4.22852 22.4609-4.19922 22.9297-4.66797L25.8398-7.58789C26.3086-8.05664 26.2891-8.65234 25.8105-9.13086L25.0391-9.89258C24.5605-10.3711 24.1895-10.5273 23.7109-10.4883L23.1348-10.4395L22.4902-11.0742L22.7344-12.1973C22.8613-12.7637 22.7051-13.2031 22.1191-13.7891L19.9219-15.9766C16.582-19.2969 12.1484-19.2188 9.25781-16.3281C8.83789-15.918 8.80859-15.3418 9.04297-14.9512C9.27734-14.5898 9.73633-14.3555 10.3809-14.5215C11.8457-14.8633 13.3691-14.9219 14.7949-13.9844L14.209-12.5293C14.0137-12.0508 13.9844-11.6504 14.1113-11.2891L3.04688-0.898438C2.06055 0.0195312 1.98242 0.996094 2.8418 1.86523ZM10.752-15.957C13.1836-17.7344 16.4746-17.4316 18.7012-15.2051L21.1328-12.793C21.3672-12.5586 21.4062-12.373 21.3379-12.0312L21.0156-10.5469L22.5195-9.0625L23.5059-9.12109C23.7598-9.13086 23.8379-9.11133 24.0332-8.91602L24.6094-8.33984L22.168-5.89844L21.5918-6.47461C21.3965-6.66992 21.3672-6.74805 21.377-7.01172L21.4453-7.98828L19.9512-9.47266L18.4277-9.21875C18.1055-9.15039 17.959-9.17969 17.7148-9.41406L15.7129-11.416C15.459-11.6504 15.4297-11.8164 15.5859-12.1875L16.4648-14.2773C14.9023-15.7324 12.8711-16.3574 10.8398-15.7617C10.6836-15.7227 10.625-15.8496 10.752-15.957ZM5.27344 2.30469L4.10156 1.14258C3.63281 0.683594 3.74023 0.341797 4.14062-0.0195312L14.9512-10.1953L16.416-8.71094L6.42578 2.27539C6.07422 2.67578 5.74219 2.77344 5.27344 2.30469Z"/>
  </g>
  <text style="stroke:none;fill:black;font-family:-apple-system,&quot;SF Pro Display&quot;,&quot;SF Pro Text&quot;,Helvetica,sans-serif;font-weight:bold;" transform="matrix(1 0 0 1 1289 1953)">Exporting</text>
  <text style="stroke:none;fill:black;font-family:-apple-system,&quot;SF Pro Display&quot;,&quot;SF Pro Text&quot;,Helvetica,sans-serif;" transform="matrix(1 0 0 1 1289 1971)">Symbols should be outlined when exporting to ensure the</text>
  <text style="stroke:none;fill:black;font-family:-apple-system,&quot;SF Pro Display&quot;,&quot;SF Pro Text&quot;,Helvetica,sans-serif;" transform="matrix(1 0 0 1 1289 1989)">design is preserved when submitting to Xcode.</text>
  <text id="template-version" style="stroke:none;fill:black;font-family:-apple-system,&quot;SF Pro Display&quot;,&quot;SF Pro Text&quot;,Helvetica,sans-serif;text-anchor:end;" transform="matrix(1 0 0 1 3036 1933)">Template v.2.0</text>
  <text style="stroke:none;fill:black;font-family:-apple-system,&quot;SF Pro Display&quot;,&quot;SF Pro Text&quot;,Helvetica,sans-serif;text-anchor:end;" transform="matrix(1 0 0 1 3036 1951)">Requires Xcode 12 or greater</text>
  <text style="stroke:none;fill:black;font-family:-apple-system,&quot;SF Pro Display&quot;,&quot;SF Pro Text&quot;,Helvetica,sans-serif;text-anchor:end;" transform="matrix(1 0 0 1 3036 1969)">Generated from diamond</text>
  <text style="stroke:none;fill:black;font-family:-apple-system,&quot;SF Pro Display&quot;,&quot;SF Pro Text&quot;,Helvetica,sans-serif;text-anchor:end;" transform="matrix(1 0 0 1 3036 1987)">Typeset at 100 points</text>
  <text style="stroke:none;fill:black;font-family:-apple-system,&quot;SF Pro Display&quot;,&quot;SF Pro Text&quot;,Helvetica,sans-serif;" transform="matrix(1 0 0 1 263 726)">Small</text>
  <text style="stroke:none;fill:black;font-family:-apple-system,&quot;SF Pro Display&quot;,&quot;SF Pro Text&quot;,Helvetica,sans-serif;" transform="matrix(1 0 0 1 263 1156)">Medium</text>
  <text style="stroke:none;fill:black;font-family:-apple-system,&quot;SF Pro Display&quot;,&quot;SF Pro Text&quot;,Helvetica,sans-serif;" transform="matrix(1 0 0 1 263 1586)">Large</text>
 </g>
 <g id="Guides">
  <g id="H-reference" style="fill:#27AAE1;stroke:none;" transform="matrix(1 0 0 1 339 696)">
   <path d="M0.976562 0L3.66211 0L12.9883-24.4629L45.752-24.4629L55.127 0L57.7637 0L30.6152-70.459L28.125-70.459ZM29.3457-67.1387L29.4434-67.1387L44.873-26.709L13.8672-26.709Z"/>
  </g>
  <line id="Baseline-S" style="fill:none;stroke:#27AAE1;opacity:1;stroke-width:0.5;" x1="263" x2="3036" y1="696" y2="696"/>
  <line id="Capline-S" style="fill:none;stroke:#27AAE1;opacity:1;stroke-width:0.5;" x1="263" x2="3036" y1="625.541" y2="625.541"/>
  <g id="H-reference" style="fill:#27AAE1;stroke:none;" transform="matrix(1 0 0 1 339 1126)">
   <path d="M0.976562 0L3.66211 0L12.9883-24.4629L45.752-24.4629L55.127 0L57.7637 0L30.6152-70.459L28.125-70.459ZM29.3457-67.1387L29.4434-67.1387L44.873-26.709L13.8672-26.709Z"/>
  </g>
  <line id="Baseline-M" style="fill:none;stroke:#27AAE1;opacity:1;stroke-width:0.5;" x1="263" x2="3036" y1="1126" y2="1126"/>
  <line id="Capline-M" style="fill:none;stroke:#27AAE1;opacity:1;stroke-width:0.5;" x1="263" x2="3036" y1="1055.54" y2="1055.54"/>
  <g id="H-reference" style="fill:#27AAE1;stroke:none;" transform="matrix(1 0 0 1 339 1556)">
   <path d="M0.976562 0L3.66211 0L12.9883-24.4629L45.752-24.4629L55.127 0L57.7637 0L30.6152-70.459L28.125-70.459ZM29.3457-67.1387L29.4434-67.1387L44.873-26.709L13.8672-26.709Z"/>
  </g>
  <line id="Baseline-L" style="fill:none;stroke:#27AAE1;opacity:1;stroke-width:0.5;" x1="263" x2="3036" y1="1556" y2="1556"/>
  <line id="Capline-L" style="fill:none;stroke:#27AAE1;opacity:1;stroke-width:0.5;" x1="263" x2="3036" y1="1485.54" y2="1485.54"/>
  <line id="left-margin" style="fill:none;stroke:#00AEEF;stroke-width:0.5;opacity:1.0;" x1="1384.46" x2="1384.46" y1="1030.79" y2="1150.12"/>
  <line id="right-margin" style="fill:none;stroke:#00AEEF;stroke-width:0.5;opacity:1.0;" x1="1515.23" x2="1515.23" y1="1030.79" y2="1150.12"/>
 </g>
 <g id="Symbols">
  <g id="Black-L" transform="matrix(1 0 0 1 2844.63 1556)">
   <path d="M20.9473-18.3594L71.875 32.5195C82.666 43.3594 94.873 43.3594 105.664 32.6172L156.641-18.4082C167.432-29.1992 167.383-41.3574 156.592-52.1973L105.713-103.076C94.873-113.867 82.666-113.916 71.9238-103.125L20.8984-52.1484C10.1074-41.3574 10.1562-29.1504 20.9473-18.3594ZM37.2559-30.7617C34.2285-33.7891 33.9844-36.5234 37.2559-39.7949L84.2285-86.7676C87.5-90.0391 90.2344-89.8438 93.3105-86.8164L140.283-39.7949C143.359-36.7188 143.555-33.9844 140.283-30.7129L93.3105 16.2109C90.0391 19.4824 87.3047 19.2871 84.2773 16.2598Z"/>
  </g>
  <g id="Heavy-L" transform="matrix(1 0 0 1 2549.16 1556)">
   <path d="M20.6543-19.1895L71.4355 31.5918C81.8359 41.9922 93.2617 41.9922 103.564 31.6895L154.492-19.2383C164.795-29.541 164.795-41.0156 154.395-51.3672L103.613-102.148C93.2617-112.5 81.8359-112.549 71.4844-102.197L20.5566-51.3184C10.2539-40.9668 10.3027-29.541 20.6543-19.1895ZM34.5703-30.0293C31.1035-33.5449 30.9082-36.8164 34.5703-40.5273L82.2754-88.1836C85.9863-91.8945 89.2578-91.6992 92.7246-88.2324L140.479-40.4785C143.945-37.0117 144.141-33.6914 140.479-30.0293L92.7734 17.6758C89.1113 21.3379 85.7422 21.1914 82.3242 17.7246Z"/>
  </g>
  <g id="Bold-L" transform="matrix(1 0 0 1 2253.84 1556)">
   <path d="M20.3125-20.1172L70.9961 30.5664C80.8594 40.4297 91.4551 40.4785 101.27 30.6641L152.051-20.166C161.865-29.9805 161.865-40.5762 152.002-50.4395L101.318-101.074C91.4551-110.986 80.9082-111.035 71.0449-101.172L20.2148-50.3906C10.3516-40.5273 10.4492-29.9805 20.3125-20.1172ZM31.543-29.248C27.6367-33.2031 27.4902-37.1582 31.5918-41.2598L80.127-89.7949C84.2285-93.9453 88.1836-93.7988 92.1387-89.8438L140.723-41.2598C144.629-37.3047 144.824-33.3496 140.674-29.248L92.1387 19.2871C88.0371 23.3887 84.0332 23.2422 80.1758 19.3359Z"/>
  </g>
  <g id="Semibold-L" transform="matrix(1 0 0 1 1958.09 1556)">
   <path d="M20.0684-20.752L70.6543 29.8828C80.1758 39.4043 90.1855 39.4531 99.6582 29.9805L150.391-20.8008C159.863-30.2734 159.863-40.2832 150.342-49.8047L99.7559-100.391C90.1855-109.912 80.2246-109.961 70.752-100.488L19.9707-49.707C10.4492-40.2344 10.5469-30.2734 20.0684-20.752ZM29.4922-28.7109C25.2441-33.0078 25.0977-37.4023 29.541-41.7969L78.6133-90.918C83.0566-95.3613 87.4023-95.2637 91.6992-90.9668L140.869-41.7969C145.117-37.5488 145.264-33.1055 140.82-28.7109L91.748 20.4102C87.3047 24.8047 82.8613 24.707 78.6621 20.459Z"/>
  </g>
  <g id="Medium-L" transform="matrix(1 0 0 1 1662.11 1556)">
   <path d="M19.873-21.1914L70.4102 29.2969C79.6875 38.5742 89.2578 38.623 98.4375 29.4434L149.17-21.2891C158.35-30.4688 158.35-40.0391 149.072-49.3164L98.5352-99.8535C89.2578-109.131 79.7363-109.18 70.5078-99.9512L19.7754-49.2188C10.5469-39.9902 10.5957-30.4688 19.873-21.1914ZM27.9297-28.3203C23.3887-32.8613 23.291-37.5488 27.9297-42.2363L77.4902-91.748C82.1289-96.4355 86.8164-96.3379 91.3574-91.7969L140.967-42.1875C145.459-37.6953 145.605-32.9102 140.967-28.2715L91.4062 21.2402C86.7676 25.8789 81.9824 25.7812 77.5391 21.3379Z"/>
  </g>
  <g id="Regular-L" transform="matrix(1 0 0 1 1366.35 1556)">
   <path d="M19.6777-21.8262L70.1172 28.6133C79.0527 37.5488 88.0371 37.5977 96.875 28.7598L147.51-21.9238C156.348-30.7617 156.348-39.7461 147.412-48.6816L96.9727-99.1211C88.0371-108.105 79.1016-108.154 70.2148-99.2188L19.4824-48.584C10.5957-39.6973 10.6934-30.7617 19.6777-21.8262ZM25.8789-27.7832C21.0449-32.6172 20.9473-37.793 25.9277-42.7246L76.0254-92.8223C80.957-97.8027 86.084-97.7539 90.9668-92.8711L141.113-42.7246C145.947-37.8906 146.094-32.666 141.113-27.7344L91.0156 22.3145C86.0352 27.2949 80.8105 27.1973 76.0742 22.4121Z"/>
  </g>
  <g id="Light-L" transform="matrix(1 0 0 1 1070.76 1556)">
   <path d="M19.2383-22.5586L69.7266 27.9297C78.125 36.3281 86.7676 36.2793 95.0684 27.9785L145.557-22.6074C153.857-30.9082 154.004-39.5508 145.605-47.998L95.166-98.3887C86.6699-106.885 78.1738-106.836 69.7754-98.4375L19.1406-47.9004C10.7422-39.502 10.791-31.0059 19.2383-22.5586ZM23.9746-27.0508C18.6523-32.373 18.6523-38.0371 23.9746-43.4082L74.1699-93.6035C79.5898-98.9746 85.1562-98.9746 90.5273-93.6035L140.723-43.4082C145.947-38.1836 146.143-32.373 140.723-27.0508L90.5273 23.0957C85.1562 28.5156 79.3945 28.3691 74.2188 23.1445Z"/>
  </g>
  <g id="Thin-L" transform="matrix(1 0 0 1 775.563 1556)">
   <path d="M18.6523-23.5352L69.1895 27.002C76.9043 34.7168 85.0586 34.5703 92.6758 27.002L143.018-23.5352C150.635-31.1035 150.928-39.2578 143.164-47.0215L92.7246-97.4609C84.9121-105.273 76.9043-105.127 69.1895-97.4121L18.6523-47.0215C10.9375-39.2578 10.9375-31.25 18.6523-23.5352ZM21.4355-26.123C15.4785-31.9824 15.5762-38.3789 21.4355-44.2871L71.7773-94.5801C77.7344-100.537 83.9844-100.537 89.9414-94.5801L140.186-44.3359C145.996-38.5742 146.191-31.9824 140.234-26.123L89.9414 24.1211C83.9844 30.0781 77.5391 29.9316 71.7773 24.1211Z"/>
  </g>
  <g id="Ultralight-L" transform="matrix(1 0 0 1 479.633 1556)">
   <path d="M18.3594-24.0234L68.8965 26.5137C76.2695 33.8867 84.2285 33.6914 91.4551 26.4648L141.748-23.9746C148.975-31.2012 149.316-39.1602 141.943-46.5332L91.5039-96.9727C84.0332-104.443 76.2695-104.248 68.8965-96.875L18.4082-46.5332C10.9863-39.1602 10.9863-31.3965 18.3594-24.0234ZM20.166-25.6348C13.8672-31.7871 13.9648-38.5742 20.166-44.7266L70.5078-95.1172C76.7578-101.367 83.3496-101.367 89.6484-95.1172L139.893-44.8242C145.996-38.7207 146.24-31.7871 139.99-25.6348L89.5996 24.6582C83.3496 30.9082 76.6113 30.7617 70.5078 24.6582Z"/>
  </g>
  <g id="Black-M" transform="matrix(1 0 0 1 2863.5 1126)">
   <path d="M16.4551-21.4355L56.0547 18.1641C64.7461 26.8555 75.0488 26.8555 83.7402 18.1641L123.291-21.4355C131.982-30.127 132.031-40.3809 123.34-49.0723L83.7402-88.6719C75.0488-97.3633 64.7461-97.3633 56.0547-88.6719L16.5039-49.1211C7.8125-40.4297 7.76367-30.127 16.4551-21.4355ZM31.4941-32.3242C29.4922-34.3262 29.2969-35.9863 31.4941-38.1836L66.9434-73.6328C69.1895-75.8789 70.8008-75.6836 72.8516-73.6328L108.301-38.1836C110.303-36.1816 110.498-34.5215 108.301-32.3242L72.8516 3.125C70.6055 5.37109 68.9941 5.17578 66.9434 3.125Z"/>
  </g>
  <g id="Heavy-M" transform="matrix(1 0 0 1 2567.87 1126)">
   <path d="M16.2598-22.1191L55.7129 17.334C64.0625 25.6836 73.584 25.6836 81.9336 17.3828L121.436-22.168C129.785-30.4688 129.785-40.0391 121.436-48.3887L81.9336-87.8418C73.6328-96.1914 64.0625-96.1914 55.7129-87.8906L16.2109-48.3398C7.86133-40.0391 7.91016-30.4688 16.2598-22.1191ZM29.0527-31.7383C26.709-34.1309 26.5137-36.2305 29.0527-38.7695L65.2832-75C67.8711-77.5879 69.9707-77.3926 72.3633-75.0488L108.594-38.7695C110.986-36.4258 111.133-34.2773 108.594-31.7383L72.3633 4.49219C69.8242 7.03125 67.6758 6.88477 65.332 4.54102Z"/>
  </g>
  <g id="Bold-M" transform="matrix(1 0 0 1 2272.35 1126)">
   <path d="M15.9668-22.9492L55.3223 16.4062C63.2812 24.3652 72.0215 24.4141 79.9316 16.4551L119.385-22.998C127.295-30.9082 127.246-39.6484 119.287-47.6074L79.9805-86.9141C72.0215-94.873 63.2812-94.9219 55.3711-86.9629L15.918-47.5586C7.95898-39.5996 8.00781-30.9082 15.9668-22.9492ZM26.3184-31.1035C23.584-33.8379 23.4375-36.5234 26.3672-39.4531L63.4766-76.5625C66.3574-79.4434 69.043-79.3457 71.7773-76.5625L108.936-39.4043C111.719-36.6699 111.865-33.9844 108.936-31.0547L71.8262 6.05469C68.8965 8.93555 66.2109 8.83789 63.4766 6.10352Z"/>
  </g>
  <g id="Semibold-M" transform="matrix(1 0 0 1 1976.45 1126)">
   <path d="M15.8203-23.4863L55.0293 15.7715C62.7441 23.4375 70.8984 23.4863 78.5156 15.8691L117.92-23.5352C125.586-31.2012 125.537-39.3555 117.871-47.0215L78.6133-86.2793C70.8984-93.9941 62.793-94.043 55.127-86.377L15.7227-46.9727C8.05664-39.3066 8.10547-31.1523 15.8203-23.4863ZM24.4141-30.6641C21.4355-33.6914 21.2891-36.7188 24.4629-39.8926L62.1582-77.5879C65.332-80.7617 68.3594-80.6641 71.4355-77.6367L109.18-39.8438C112.207-36.8164 112.354-33.7891 109.18-30.6152L71.4355 7.08008C68.2617 10.2539 65.1855 10.1562 62.207 7.17773Z"/>
  </g>
  <g id="Medium-M" transform="matrix(1 0 0 1 1680.37 1126)">
   <path d="M15.6738-23.9258L54.834 15.2832C62.3535 22.7539 70.0684 22.8027 77.4902 15.3809L116.846-23.9746C124.268-31.3965 124.219-39.1113 116.748-46.6309L77.5879-85.791C70.0684-93.3105 62.3535-93.3594 54.9316-85.8887L15.5273-46.5332C8.10547-39.1113 8.1543-31.3965 15.6738-23.9258ZM22.998-30.3223C19.7754-33.5449 19.6777-36.8652 23.0469-40.2344L61.2305-78.418C64.5996-81.7871 67.8711-81.6895 71.1426-78.418L109.375-40.1855C112.598-36.9629 112.695-33.6426 109.326-30.2734L71.1914 7.91016C67.8223 11.2305 64.4531 11.1328 61.2305 7.95898Z"/>
  </g>
  <g id="Regular-M" transform="matrix(1 0 0 1 1384.46 1126)">
   <path d="M15.4785-24.4629L54.5898 14.6484C61.8164 21.875 68.9453 21.9238 76.123 14.7949L115.43-24.5605C122.559-31.6895 122.51-38.8672 115.283-46.0938L76.2207-85.1562C68.9941-92.3828 61.8652-92.4805 54.6875-85.3027L15.332-45.9961C8.1543-38.8184 8.25195-31.6895 15.4785-24.4629ZM21.1426-29.8828C17.6758-33.3984 17.5781-37.0605 21.1914-40.6738L59.9609-79.4434C63.5742-83.0566 67.2363-83.0078 70.752-79.4922L109.619-40.625C113.086-37.1582 113.184-33.4473 109.57-29.834L70.8008 8.93555C67.1875 12.5488 63.4277 12.4512 60.0098 9.0332Z"/>
  </g>
  <g id="Light-M" transform="matrix(1 0 0 1 1088.78 1126)">
   <path d="M15.0879-25.0977L54.1992 14.0137C60.9863 20.8008 67.8223 20.8008 74.4629 14.1113L113.672-25.1465C120.361-31.8359 120.41-38.6719 113.672-45.4102L74.5605-84.5215C67.7734-91.3086 60.9863-91.3086 54.2969-84.5703L14.9902-45.3613C8.30078-38.623 8.34961-31.8359 15.0879-25.0977ZM19.4336-29.248C15.5273-33.1055 15.4785-37.3047 19.4336-41.2598L58.3008-80.127C62.3047-84.1309 66.4062-84.082 70.3613-80.1758L109.229-41.2598C113.135-37.4023 113.232-33.1543 109.229-29.1992L70.3613 9.61914C66.4062 13.623 62.1582 13.5254 58.3496 9.7168Z"/>
  </g>
  <g id="Thin-M" transform="matrix(1 0 0 1 793.434 1126)">
   <path d="M14.5996-25.9277L53.7109 13.1836C59.8633 19.3359 66.3086 19.2383 72.3145 13.2324L111.426-25.9766C117.432-31.9824 117.627-38.4277 111.475-44.5801L72.4121-83.6426C66.2109-89.8438 59.8633-89.7461 53.7598-83.6426L14.5508-44.5312C8.44727-38.4277 8.44727-32.0801 14.5996-25.9277ZM17.1875-28.3691C12.6953-32.8125 12.7441-37.5977 17.1875-42.041L56.1523-81.0059C60.6445-85.498 65.332-85.498 69.8242-81.0547L108.74-42.0898C113.135-37.7441 113.281-32.8125 108.789-28.3691L69.8242 10.5469C65.332 15.0391 60.498 14.9414 56.1523 10.5957Z"/>
  </g>
  <g id="Ultralight-M" transform="matrix(1 0 0 1 497.406 1126)">
   <path d="M14.3555-26.3672L53.4668 12.7441C59.3262 18.6035 65.5273 18.457 71.2402 12.7441L110.254-26.3672C115.967-32.0801 116.211-38.2812 110.352-44.1406L71.2891-83.2031C65.3809-89.1113 59.3262-88.9648 53.4668-83.1543L14.3555-44.1406C8.49609-38.2812 8.49609-32.2266 14.3555-26.3672ZM16.0156-27.9297C11.2305-32.6172 11.3281-37.7441 16.0156-42.4805L55.0293-81.4941C59.7656-86.2305 64.7949-86.2305 69.5801-81.4941L108.496-42.5293C113.135-37.8906 113.33-32.6172 108.594-27.9297L69.5312 11.0352C64.7949 15.7715 59.668 15.6738 55.0293 11.0352Z"/>
  </g>
  <g id="Black-S" transform="matrix(1 0 0 1 2878.69 696)">
   <path d="M12.8906-24.4629L43.8965 6.54297C50.6836 13.3301 58.6914 13.3301 65.4785 6.54297L96.4844-24.4629C103.271-31.25 103.271-39.2578 96.4844-46.0449L65.4785-77.0508C58.6914-83.8379 50.6836-83.8379 43.8965-77.0508L12.8906-46.0449C6.10352-39.2578 6.10352-31.25 12.8906-24.4629ZM24.5117-32.9102C22.9004-34.5215 22.7539-35.8398 24.5117-37.5977L52.3438-65.4297C54.1016-67.1875 55.4199-67.041 57.0312-65.4297L84.8633-37.5977C86.4746-35.9863 86.6211-34.668 84.8633-32.9102L57.0312-5.07812C55.2734-3.32031 53.9551-3.4668 52.3438-5.07812Z"/>
  </g>
  <g id="Heavy-S" transform="matrix(1 0 0 1 2582.71 696)">
   <path d="M12.7441-24.9512L43.6523 5.95703C50.2441 12.5488 57.7148 12.5488 64.3066 6.00586L95.2637-24.9512C101.807-31.543 101.807-39.0137 95.2148-45.5566L64.3066-76.4648C57.7148-83.0566 50.2441-83.0566 43.7012-76.5137L12.7441-45.5566C6.15234-38.9648 6.20117-31.4941 12.7441-24.9512ZM22.8516-32.5195C20.9961-34.375 20.8496-35.9863 22.8516-37.9883L51.2695-66.4062C53.2227-68.3594 54.8828-68.2617 56.6895-66.4062L85.1562-37.9883C86.9629-36.1328 87.1094-34.4727 85.1562-32.5195L56.6895-4.10156C54.7363-2.14844 53.0762-2.24609 51.2695-4.10156Z"/>
  </g>
  <g id="Bold-S" transform="matrix(1 0 0 1 2286.78 696)">
   <path d="M12.5977-25.4883L43.4082 5.32227C49.7559 11.6699 56.6406 11.7188 62.9395 5.41992L93.8477-25.4883C100.146-31.8359 100.146-38.7207 93.7988-45.0195L62.9883-75.8301C56.6406-82.1777 49.7559-82.2266 43.457-75.9277L12.5-45.0195C6.20117-38.6719 6.25-31.7871 12.5977-25.4883ZM20.9473-32.1289C18.8965-34.2285 18.75-36.1816 20.9473-38.3789L50.0488-67.4805C52.2461-69.6777 54.248-69.5801 56.2988-67.5293L85.4492-38.3789C87.5-36.2793 87.6465-34.3262 85.4004-32.1289L56.3477-3.02734C54.1504-0.830078 52.0996-0.927734 50.0488-2.97852Z"/>
  </g>
  <g id="Semibold-S" transform="matrix(1 0 0 1 1990.63 696)">
   <path d="M12.5-25.8301L43.2129 4.93164C49.4141 11.084 55.8594 11.1328 62.0117 5.0293L92.9199-25.8789C99.0234-32.0312 98.9746-38.5254 92.8223-44.6777L62.0605-75.4395C55.9082-81.5918 49.4141-81.6406 43.2617-75.4883L12.4023-44.6289C6.25-38.4766 6.29883-31.9824 12.5-25.8301ZM19.6289-31.8359C17.3828-34.082 17.2852-36.3281 19.6777-38.6719L49.2188-68.2129C51.5625-70.6055 53.8086-70.5078 56.0547-68.2617L85.6445-38.6719C87.8906-36.4258 87.9883-34.1797 85.6445-31.7871L56.1035-2.29492C53.7109 0.0976562 51.4648 0 49.2188-2.19727Z"/>
  </g>
  <g id="Medium-S" transform="matrix(1 0 0 1 1694.33 696)">
   <path d="M12.4023-26.123L43.0664 4.58984C49.1211 10.6445 55.2734 10.6934 61.2793 4.6875L92.1875-26.1719C98.1934-32.1777 98.0957-38.3301 92.041-44.3848L61.377-75.0977C55.3223-81.1523 49.1699-81.2012 43.1641-75.1953L12.2559-44.3359C6.25-38.3301 6.34766-32.1777 12.4023-26.123ZM18.6523-31.6406C16.3086-34.0332 16.2109-36.4258 18.6523-38.916L48.584-68.7988C51.0254-71.2891 53.4668-71.2402 55.8594-68.8477L85.791-38.8672C88.1836-36.4746 88.2812-34.082 85.791-31.5918L55.9082-1.70898C53.418 0.78125 50.9277 0.732422 48.584-1.61133Z"/>
  </g>
  <g id="Regular-S" transform="matrix(1 0 0 1 1398.16 696)">
   <path d="M12.2559-26.4648L42.9199 4.15039C48.7793 10.0586 54.541 10.1074 60.4004 4.29688L91.2109-26.5625C97.0703-32.373 96.9727-38.1348 91.0645-44.043L60.4492-74.6582C54.5898-80.5664 48.8281-80.6152 42.9688-74.8047L12.1582-43.9453C6.29883-38.0859 6.39648-32.373 12.2559-26.4648ZM17.334-31.3477C14.8438-33.8867 14.7461-36.5723 17.3828-39.209L47.7051-69.5312C50.3906-72.168 53.0273-72.1191 55.5664-69.5801L86.0352-39.1602C88.5742-36.6211 88.623-33.9355 85.9863-31.2988L55.6152-0.976562C52.9785 1.66016 50.293 1.61133 47.7539-0.878906Z"/>
  </g>
  <g id="Light-S" transform="matrix(1 0 0 1 1102.35 696)">
   <path d="M11.9629-27.0508L42.5781 3.61328C48.0469 9.08203 53.5645 9.08203 58.9355 3.71094L89.6973-27.0996C95.1172-32.5195 95.1172-37.9883 89.6484-43.457L59.0332-74.0723C53.5645-79.5898 48.0957-79.5898 42.627-74.1699L11.8652-43.4082C6.39648-37.9395 6.49414-32.5195 11.9629-27.0508ZM15.8691-30.7617C12.9395-33.6914 12.8906-36.7676 15.8691-39.7461L46.2891-70.1172C49.2676-73.1445 52.3438-73.0957 55.2246-70.166L85.6934-39.6973C88.5742-36.8164 88.6719-33.6914 85.6934-30.7617L55.2734-0.341797C52.2949 2.63672 49.1699 2.58789 46.3379-0.292969Z"/>
  </g>
  <g id="Thin-S" transform="matrix(1 0 0 1 806.813 696)">
   <path d="M11.5234-27.7832L42.1875 2.88086C47.1191 7.8125 52.2461 7.76367 57.0801 2.88086L87.6953-27.832C92.5781-32.666 92.6758-37.793 87.7441-42.7246L57.1289-73.3398C52.1484-78.3203 47.1191-78.2715 42.1875-73.3398L11.4746-42.6758C6.5918-37.793 6.5918-32.7148 11.5234-27.7832ZM13.8672-30.0293C10.498-33.3984 10.498-37.0117 13.8672-40.4297L44.3848-70.9473C47.8027-74.3652 51.416-74.3652 54.7852-70.9473L85.3027-40.4297C88.623-37.1094 88.7695-33.3984 85.3027-30.0293L54.834 0.439453C51.3672 3.90625 47.7051 3.80859 44.3848 0.488281Z"/>
  </g>
  <g id="Ultralight-S" transform="matrix(1 0 0 1 510.712 696)">
   <path d="M11.3281-28.1738L41.9434 2.49023C46.6309 7.12891 51.5625 7.03125 56.1035 2.49023L86.6699-28.1738C91.2598-32.7637 91.4062-37.6953 86.7676-42.334L56.1523-72.9492C51.4648-77.6367 46.6309-77.5391 41.9922-72.9004L11.2793-42.334C6.64062-37.6465 6.64062-32.8125 11.3281-28.1738ZM12.8418-29.6387C9.17969-33.252 9.22852-37.1582 12.8418-40.7715L43.4082-71.3379C47.0703-75 50.9277-75 54.5898-71.3379L85.0586-40.8203C88.623-37.2559 88.7695-33.252 85.1074-29.6387L54.5898 0.878906C50.9277 4.54102 46.9727 4.44336 43.4082 0.878906Z"/>
  </g>
 </g>
</svg>
